<svg width="1280" height="80" viewBox="0 0 1280 80" fill="none" xmlns="http://www.w3.org/2000/svg">
<g clip-path="url(#clip0_156_72)">
<rect width="1286" height="80" transform="matrix(-1 0 0 1 1281 0)" fill="#0B0C14"/>
<rect width="175" height="80" transform="matrix(-1 0 0 1 1281 0)" fill="#0F1D4E"/>
<rect width="107" height="33" transform="matrix(-1 0 0 1 1106 47)" fill="#0F1D4E"/>
<rect width="107" height="70" transform="matrix(-1 0 0 1 999 10)" fill="#0F1D4E"/>
<rect width="107" height="52" transform="matrix(-1 0 0 1 892 28)" fill="#0F1D4E"/>
<g opacity="0.3">
<path d="M1 75.9267V77H2.06925V75.9267H1Z" fill="white"/>
<path d="M1 54.4604L1 55.5337H2.06925V54.4604H1Z" fill="white"/>
<path d="M1 32.9941V34.0675H2.06925V32.9941H1Z" fill="white"/>
<path d="M1 11.5279V12.6012H2.06925V11.5279H1Z" fill="white"/>
<path d="M1 -9.93842L1 -8.8651H2.06925V-9.93842H1Z" fill="white"/>
<path d="M1 -31.4047V-30.3314H2.06925V-31.4047H1Z" fill="white"/>
<path d="M1 -52.871V-51.7977H2.06925V-52.871H1Z" fill="white"/>
<path d="M1 -74.3372L1 -73.2639H2.06925V-74.3372H1Z" fill="white"/>
<path d="M1 -95.8035V-94.7302H2.06925L2.06925 -95.8035H1Z" fill="white"/>
<path d="M1 -117.27V-116.196H2.06925V-117.27H1Z" fill="white"/>
<path d="M1 -138.736V-137.663H2.06925V-138.736H1Z" fill="white"/>
<path d="M1 -160.202V-159.129H2.06925L2.06925 -160.202H1Z" fill="white"/>
<path d="M1 -181.669V-180.595H2.06925V-181.669H1Z" fill="white"/>
<path d="M1 -203.135V-202.062H2.06925V-203.135H1Z" fill="white"/>
<path d="M1 -224.601V-223.528H2.06925V-224.601H1Z" fill="white"/>
<path d="M22.3851 75.9267V77H23.4543V75.9267H22.3851Z" fill="white"/>
<path d="M22.3851 54.4604V55.5337H23.4543V54.4604H22.3851Z" fill="white"/>
<path d="M22.3851 32.9941V34.0675H23.4543V32.9941H22.3851Z" fill="white"/>
<path d="M22.3851 11.5279V12.6012H23.4543V11.5279H22.3851Z" fill="white"/>
<path d="M22.3851 -9.93842V-8.8651H23.4543V-9.93842H22.3851Z" fill="white"/>
<path d="M22.3851 -31.4047V-30.3314H23.4543V-31.4047H22.3851Z" fill="white"/>
<path d="M22.3851 -52.871V-51.7977H23.4543V-52.871H22.3851Z" fill="white"/>
<path d="M22.3851 -74.3372V-73.2639H23.4543V-74.3372H22.3851Z" fill="white"/>
<path d="M22.3851 -95.8035V-94.7302H23.4543V-95.8035H22.3851Z" fill="white"/>
<path d="M22.3851 -117.27V-116.196H23.4543V-117.27H22.3851Z" fill="white"/>
<path d="M22.3851 -138.736V-137.663H23.4543V-138.736H22.3851Z" fill="white"/>
<path d="M22.3851 -160.202V-159.129H23.4543V-160.202H22.3851Z" fill="white"/>
<path d="M22.3851 -181.669V-180.595H23.4543V-181.669H22.3851Z" fill="white"/>
<path d="M22.3851 -203.135V-202.062H23.4543V-203.135H22.3851Z" fill="white"/>
<path d="M22.3851 -224.601V-223.528H23.4543V-224.601H22.3851Z" fill="white"/>
<path d="M43.7702 75.9267V77H44.8394V75.9267H43.7702Z" fill="white"/>
<path d="M43.7702 -95.8035V-94.7302H44.8394V-95.8035H43.7702Z" fill="white"/>
<path d="M43.7702 -117.27V-116.196H44.8394V-117.27H43.7702Z" fill="white"/>
<path d="M43.7702 -138.736V-137.663H44.8394V-138.736H43.7702Z" fill="white"/>
<path d="M43.7702 -160.202V-159.129H44.8394V-160.202H43.7702Z" fill="white"/>
<path d="M43.7702 -181.669V-180.595H44.8394V-181.669H43.7702Z" fill="white"/>
<path d="M43.7702 -203.135V-202.062H44.8394V-203.135H43.7702Z" fill="white"/>
<path d="M43.7702 -224.601V-223.528H44.8394V-224.601H43.7702Z" fill="white"/>
<path d="M65.1553 75.9267V77H66.2245V75.9267H65.1553Z" fill="white"/>
<path d="M65.1553 -138.736V-137.663H66.2245V-138.736H65.1553Z" fill="white"/>
<path d="M65.1553 -160.202V-159.129H66.2245V-160.202H65.1553Z" fill="white"/>
<path d="M65.1553 -181.669V-180.595H66.2245V-181.669H65.1553Z" fill="white"/>
<path d="M65.1553 -203.135V-202.062H66.2245V-203.135H65.1553Z" fill="white"/>
<path d="M65.1553 -224.601V-223.528H66.2245V-224.601H65.1553Z" fill="white"/>
<path d="M65.1553 -246.067V-244.994H66.2245V-246.067H65.1553Z" fill="white"/>
<path d="M65.1553 -267.534V-266.46H66.2245V-267.534H65.1553Z" fill="white"/>
<path d="M65.1553 -289V-287.927H66.2245V-289H65.1553Z" fill="white"/>
<path d="M86.5403 75.9267V77H87.6096V75.9267H86.5403Z" fill="white"/>
<path d="M86.5403 -138.736V-137.663H87.6096V-138.736H86.5403Z" fill="white"/>
<path d="M86.5403 -160.202V-159.129H87.6096V-160.202H86.5403Z" fill="white"/>
<path d="M86.5403 -181.669V-180.595H87.6096V-181.669H86.5403Z" fill="white"/>
<path d="M86.5403 -203.135V-202.062H87.6096V-203.135H86.5403Z" fill="white"/>
<path d="M86.5403 -224.601V-223.528H87.6096V-224.601H86.5403Z" fill="white"/>
<path d="M86.5403 -246.067V-244.994H87.6096V-246.067H86.5403Z" fill="white"/>
<path d="M86.5403 -267.534V-266.46H87.6096V-267.534H86.5403Z" fill="white"/>
<path d="M86.5403 -289V-287.927H87.6096V-289H86.5403Z" fill="white"/>
<path d="M107.925 75.9267V77H108.995V75.9267H107.925Z" fill="white"/>
<path d="M107.925 54.4604V55.5337H108.995V54.4604H107.925Z" fill="white"/>
<path d="M107.925 32.9941V34.0675H108.995V32.9941H107.925Z" fill="white"/>
<path d="M107.925 11.5279V12.6012H108.995V11.5279H107.925Z" fill="white"/>
<path d="M107.925 -9.93842V-8.8651H108.995V-9.93842H107.925Z" fill="white"/>
<path d="M107.925 -31.4047V-30.3314H108.995V-31.4047H107.925Z" fill="white"/>
<path d="M107.925 -52.871V-51.7977H108.995V-52.871H107.925Z" fill="white"/>
<path d="M107.925 -138.736V-137.663H108.995V-138.736H107.925Z" fill="white"/>
<path d="M107.925 -160.202V-159.129H108.995V-160.202H107.925Z" fill="white"/>
<path d="M107.925 -181.669V-180.595H108.995V-181.669H107.925Z" fill="white"/>
<path d="M107.925 -203.135V-202.062H108.995V-203.135H107.925Z" fill="white"/>
<path d="M107.925 -224.601V-223.528H108.995V-224.601H107.925Z" fill="white"/>
<path d="M107.925 -246.067V-244.994H108.995V-246.067H107.925Z" fill="white"/>
<path d="M107.925 -267.534V-266.46H108.995V-267.534H107.925Z" fill="white"/>
<path d="M107.925 -289V-287.927H108.995V-289H107.925Z" fill="white"/>
<path d="M129.311 75.9267V77H130.38V75.9267H129.311Z" fill="white"/>
<path d="M129.311 54.4604V55.5337H130.38V54.4604H129.311Z" fill="white"/>
<path d="M129.311 32.9941V34.0675H130.38V32.9941H129.311Z" fill="white"/>
<path d="M129.311 11.5279V12.6012H130.38V11.5279H129.311Z" fill="white"/>
<path d="M129.311 -9.93842V-8.8651H130.38V-9.93842H129.311Z" fill="white"/>
<path d="M129.311 -31.4047V-30.3314H130.38V-31.4047H129.311Z" fill="white"/>
<path d="M129.311 -52.871V-51.7977H130.38V-52.871H129.311Z" fill="white"/>
<path d="M129.311 -74.3372V-73.2639H130.38V-74.3372H129.311Z" fill="white"/>
<path d="M129.311 -95.8035V-94.7302H130.38V-95.8035H129.311Z" fill="white"/>
<path d="M129.311 -117.27V-116.196H130.38V-117.27H129.311Z" fill="white"/>
<path d="M129.311 -138.736V-137.663H130.38V-138.736H129.311Z" fill="white"/>
<path d="M129.311 -160.202V-159.129H130.38V-160.202H129.311Z" fill="white"/>
<path d="M129.311 -181.669V-180.595H130.38V-181.669H129.311Z" fill="white"/>
<path d="M129.311 -203.135V-202.062H130.38V-203.135H129.311Z" fill="white"/>
<path d="M129.311 -224.601V-223.528H130.38V-224.601H129.311Z" fill="white"/>
<path d="M129.311 -246.067V-244.994H130.38V-246.067H129.311Z" fill="white"/>
<path d="M129.311 -267.534V-266.46H130.38V-267.534H129.311Z" fill="white"/>
<path d="M129.311 -289V-287.927H130.38V-289H129.311Z" fill="white"/>
<path d="M150.696 75.9267V77H151.765V75.9267H150.696Z" fill="white"/>
<path d="M150.696 54.4604V55.5337H151.765V54.4604H150.696Z" fill="white"/>
<path d="M150.696 32.9941V34.0675H151.765V32.9941H150.696Z" fill="white"/>
<path d="M150.696 11.5279V12.6012H151.765V11.5279H150.696Z" fill="white"/>
<path d="M150.696 -9.93842V-8.8651H151.765V-9.93842H150.696Z" fill="white"/>
<path d="M150.696 -31.4047V-30.3314H151.765V-31.4047H150.696Z" fill="white"/>
<path d="M150.696 -52.871V-51.7977H151.765V-52.871H150.696Z" fill="white"/>
<path d="M150.696 -74.3372V-73.2639H151.765V-74.3372H150.696Z" fill="white"/>
<path d="M150.696 -95.8035V-94.7302H151.765V-95.8035H150.696Z" fill="white"/>
<path d="M150.696 -117.27V-116.196H151.765V-117.27H150.696Z" fill="white"/>
<path d="M150.696 -138.736V-137.663H151.765V-138.736H150.696Z" fill="white"/>
<path d="M150.696 -160.202V-159.129H151.765V-160.202H150.696Z" fill="white"/>
<path d="M150.696 -181.669V-180.595H151.765V-181.669H150.696Z" fill="white"/>
<path d="M150.696 -203.135V-202.062H151.765V-203.135H150.696Z" fill="white"/>
<path d="M150.696 -224.601V-223.528H151.765V-224.601H150.696Z" fill="white"/>
<path d="M150.696 -246.067V-244.994H151.765V-246.067H150.696Z" fill="white"/>
<path d="M150.696 -267.534V-266.46H151.765V-267.534H150.696Z" fill="white"/>
<path d="M150.696 -289V-287.927H151.765V-289H150.696Z" fill="white"/>
<path d="M172.081 75.9267V77H173.15V75.9267H172.081Z" fill="white"/>
<path d="M172.081 54.4604V55.5337H173.15V54.4604H172.081Z" fill="white"/>
<path d="M172.081 32.9941V34.0675H173.15V32.9941H172.081Z" fill="white"/>
<path d="M172.081 11.5279V12.6012H173.15V11.5279H172.081Z" fill="white"/>
<path d="M172.081 -9.93842V-8.8651H173.15V-9.93842H172.081Z" fill="white"/>
<path d="M172.081 -31.4047V-30.3314H173.15V-31.4047H172.081Z" fill="white"/>
<path d="M172.081 -52.871V-51.7977H173.15V-52.871H172.081Z" fill="white"/>
<path d="M172.081 -74.3372V-73.2639H173.15V-74.3372H172.081Z" fill="white"/>
<path d="M172.081 -95.8035V-94.7302H173.15V-95.8035H172.081Z" fill="white"/>
<path d="M172.081 -117.27V-116.196H173.15V-117.27H172.081Z" fill="white"/>
<path d="M172.081 -138.736V-137.663H173.15V-138.736H172.081Z" fill="white"/>
<path d="M172.081 -160.202V-159.129H173.15V-160.202H172.081Z" fill="white"/>
<path d="M172.081 -181.669V-180.595H173.15V-181.669H172.081Z" fill="white"/>
<path d="M172.081 -203.135V-202.062H173.15V-203.135H172.081Z" fill="white"/>
<path d="M172.081 -224.601V-223.528H173.15V-224.601H172.081Z" fill="white"/>
<path d="M172.081 -246.067V-244.994H173.15V-246.067H172.081Z" fill="white"/>
<path d="M172.081 -267.534V-266.46H173.15V-267.534H172.081Z" fill="white"/>
<path d="M172.081 -289V-287.927H173.15V-289H172.081Z" fill="white"/>
<path d="M194.535 75.9267V77H195.604V75.9267H194.535Z" fill="white"/>
<path d="M194.535 54.4604V55.5337H195.604V54.4604H194.535Z" fill="white"/>
<path d="M194.535 32.9941V34.0675H195.604V32.9941H194.535Z" fill="white"/>
<path d="M194.535 11.5279V12.6012H195.604V11.5279H194.535Z" fill="white"/>
<path d="M194.535 -95.8035V-94.7302H195.604V-95.8035H194.535Z" fill="white"/>
<path d="M194.535 -117.27V-116.196H195.604V-117.27H194.535Z" fill="white"/>
<path d="M194.535 -138.736V-137.663H195.604V-138.736H194.535Z" fill="white"/>
<path d="M194.535 -160.202V-159.129H195.604V-160.202H194.535Z" fill="white"/>
<path d="M194.535 -181.669V-180.595H195.604V-181.669H194.535Z" fill="white"/>
<path d="M194.535 -203.135V-202.062H195.604V-203.135H194.535Z" fill="white"/>
<path d="M215.92 75.9267V77H216.989V75.9267H215.92Z" fill="white"/>
<path d="M215.92 54.4604V55.5337H216.989V54.4604H215.92Z" fill="white"/>
<path d="M215.92 32.9941V34.0675H216.989V32.9941H215.92Z" fill="white"/>
<path d="M215.92 11.5279V12.6012H216.989V11.5279H215.92Z" fill="white"/>
<path d="M215.92 -95.8035V-94.7302H216.989V-95.8035H215.92Z" fill="white"/>
<path d="M215.92 -117.27V-116.196H216.989V-117.27H215.92Z" fill="white"/>
<path d="M215.92 -138.736V-137.663H216.989V-138.736H215.92Z" fill="white"/>
<path d="M215.92 -160.202V-159.129H216.989V-160.202H215.92Z" fill="white"/>
<path d="M215.92 -181.669V-180.595H216.989V-181.669H215.92Z" fill="white"/>
<path d="M215.92 -203.135V-202.062H216.989V-203.135H215.92Z" fill="white"/>
<path d="M237.305 75.9267V77H238.374V75.9267H237.305Z" fill="white"/>
<path d="M237.305 54.4604V55.5337H238.374V54.4604H237.305Z" fill="white"/>
<path d="M237.305 32.9941V34.0675H238.374V32.9941H237.305Z" fill="white"/>
<path d="M237.305 11.5279V12.6012H238.374V11.5279H237.305Z" fill="white"/>
<path d="M237.305 -95.8035V-94.7302H238.374V-95.8035H237.305Z" fill="white"/>
<path d="M237.305 -117.27V-116.196H238.374V-117.27H237.305Z" fill="white"/>
<path d="M237.305 -138.736V-137.663H238.374V-138.736H237.305Z" fill="white"/>
<path d="M237.305 -160.202V-159.129H238.374V-160.202H237.305Z" fill="white"/>
<path d="M237.305 -181.669V-180.595H238.374V-181.669H237.305Z" fill="white"/>
<path d="M237.305 -203.135V-202.062H238.374V-203.135H237.305Z" fill="white"/>
<path d="M258.69 75.9267V77H259.76V75.9267H258.69Z" fill="white"/>
<path d="M258.69 54.4604V55.5337H259.76V54.4604H258.69Z" fill="white"/>
<path d="M258.69 32.9941V34.0675H259.76V32.9941H258.69Z" fill="white"/>
<path d="M258.69 11.5279V12.6012H259.76V11.5279H258.69Z" fill="white"/>
<path d="M258.69 -95.8035V-94.7302H259.76V-95.8035H258.69Z" fill="white"/>
<path d="M258.69 -117.27V-116.196H259.76V-117.27H258.69Z" fill="white"/>
<path d="M258.69 -138.736V-137.663H259.76V-138.736H258.69Z" fill="white"/>
<path d="M258.69 -160.202V-159.129H259.76V-160.202H258.69Z" fill="white"/>
<path d="M258.69 -181.669V-180.595H259.76V-181.669H258.69Z" fill="white"/>
<path d="M258.69 -203.135V-202.062H259.76V-203.135H258.69Z" fill="white"/>
<path d="M280.075 75.9267V77H281.145V75.9267H280.075Z" fill="white"/>
<path d="M280.075 54.4604V55.5337H281.145V54.4604H280.075Z" fill="white"/>
<path d="M280.075 32.9941V34.0675H281.145V32.9941H280.075Z" fill="white"/>
<path d="M280.075 11.5279V12.6012H281.145V11.5279H280.075Z" fill="white"/>
<path d="M280.075 -95.8035V-94.7302H281.145V-95.8035H280.075Z" fill="white"/>
<path d="M280.075 -117.27V-116.196H281.145V-117.27H280.075Z" fill="white"/>
<path d="M280.075 -138.736V-137.663H281.145V-138.736H280.075Z" fill="white"/>
<path d="M280.075 -160.202V-159.129H281.145V-160.202H280.075Z" fill="white"/>
<path d="M280.075 -181.669V-180.595H281.145V-181.669H280.075Z" fill="white"/>
<path d="M280.075 -203.135V-202.062H281.145V-203.135H280.075Z" fill="white"/>
<path d="M301.46 54.4604V55.5337H302.53V54.4604H301.46Z" fill="white"/>
<path d="M301.46 32.9941V34.0675H302.53V32.9941H301.46Z" fill="white"/>
<path d="M301.46 11.5279V12.6012H302.53V11.5279H301.46Z" fill="white"/>
<path d="M301.46 -95.8035V-94.7302H302.53V-95.8035H301.46Z" fill="white"/>
<path d="M301.46 -117.27V-116.196H302.53V-117.27H301.46Z" fill="white"/>
<path d="M301.46 -138.736V-137.663H302.53V-138.736H301.46Z" fill="white"/>
<path d="M301.46 -160.202V-159.129H302.53V-160.202H301.46Z" fill="white"/>
<path d="M301.46 -181.669V-180.595H302.53V-181.669H301.46Z" fill="white"/>
<path d="M301.46 -203.135V-202.062H302.53V-203.135H301.46Z" fill="white"/>
<path d="M322.846 54.4604V55.5337H323.915V54.4604H322.846Z" fill="white"/>
<path d="M322.846 32.9941V34.0675H323.915V32.9941H322.846Z" fill="white"/>
<path d="M322.846 11.5279V12.6012H323.915V11.5279H322.846Z" fill="white"/>
<path d="M322.846 -95.8035V-94.7302H323.915V-95.8035H322.846Z" fill="white"/>
<path d="M322.846 -117.27V-116.196H323.915V-117.27H322.846Z" fill="white"/>
<path d="M322.846 -138.736V-137.663H323.915V-138.736H322.846Z" fill="white"/>
<path d="M322.846 -160.202V-159.129H323.915V-160.202H322.846Z" fill="white"/>
<path d="M322.846 -181.669V-180.595H323.915V-181.669H322.846Z" fill="white"/>
<path d="M322.846 -203.135V-202.062H323.915V-203.135H322.846Z" fill="white"/>
<path d="M344.231 54.4604V55.5337H345.3V54.4604H344.231Z" fill="white"/>
<path d="M344.231 32.9941V34.0675H345.3V32.9941H344.231Z" fill="white"/>
<path d="M344.231 11.5279V12.6012H345.3V11.5279H344.231Z" fill="white"/>
<path d="M344.231 -160.202V-159.129H345.3V-160.202H344.231Z" fill="white"/>
<path d="M344.231 -181.669V-180.595H345.3V-181.669H344.231Z" fill="white"/>
<path d="M344.231 -203.135V-202.062H345.3V-203.135H344.231Z" fill="white"/>
<path d="M344.231 -224.601V-223.528H345.3V-224.601H344.231Z" fill="white"/>
<path d="M344.231 -246.067V-244.994H345.3V-246.067H344.231Z" fill="white"/>
<path d="M344.231 -267.534V-266.46H345.3V-267.534H344.231Z" fill="white"/>
<path d="M344.231 -289V-287.927H345.3V-289H344.231Z" fill="white"/>
<path d="M365.616 54.4604V55.5337H366.685V54.4604H365.616Z" fill="white"/>
<path d="M365.616 32.9941V34.0675H366.685V32.9941H365.616Z" fill="white"/>
<path d="M365.616 11.5279V12.6012H366.685V11.5279H365.616Z" fill="white"/>
<path d="M365.616 -9.93842V-8.8651H366.685V-9.93842H365.616Z" fill="white"/>
<path d="M365.616 -31.4047V-30.3314H366.685V-31.4047H365.616Z" fill="white"/>
<path d="M365.616 -52.871V-51.7977H366.685V-52.871H365.616Z" fill="white"/>
<path d="M365.616 -74.3372V-73.2639H366.685V-74.3372H365.616Z" fill="white"/>
<path d="M365.616 -95.8035V-94.7302H366.685V-95.8035H365.616Z" fill="white"/>
<path d="M365.616 -117.27V-116.196H366.685V-117.27H365.616Z" fill="white"/>
<path d="M365.616 -138.736V-137.663H366.685V-138.736H365.616Z" fill="white"/>
<path d="M365.616 -160.202V-159.129H366.685V-160.202H365.616Z" fill="white"/>
<path d="M365.616 -181.669V-180.595H366.685V-181.669H365.616Z" fill="white"/>
<path d="M365.616 -203.135V-202.062H366.685V-203.135H365.616Z" fill="white"/>
<path d="M365.616 -224.601V-223.528H366.685V-224.601H365.616Z" fill="white"/>
<path d="M365.616 -246.067V-244.994H366.685V-246.067H365.616Z" fill="white"/>
<path d="M365.616 -267.534V-266.46H366.685V-267.534H365.616Z" fill="white"/>
<path d="M365.616 -289V-287.927H366.685V-289H365.616Z" fill="white"/>
<path d="M385.315 54.4604V55.5337H386.384V54.4604H385.315Z" fill="white"/>
<path d="M385.315 32.9941V34.0675H386.384V32.9941H385.315Z" fill="white"/>
<path d="M385.315 11.5279V12.6012H386.384V11.5279H385.315Z" fill="white"/>
<path d="M385.315 -9.93842V-8.8651H386.384V-9.93842H385.315Z" fill="white"/>
<path d="M385.315 -31.4047V-30.3314H386.384V-31.4047H385.315Z" fill="white"/>
<path d="M385.315 -52.871V-51.7977H386.384V-52.871H385.315Z" fill="white"/>
<path d="M385.315 -74.3372V-73.2639H386.384V-74.3372H385.315Z" fill="white"/>
<path d="M385.315 -95.8035V-94.7302H386.384V-95.8035H385.315Z" fill="white"/>
<path d="M385.315 -117.27V-116.196H386.384V-117.27H385.315Z" fill="white"/>
<path d="M385.315 -138.736V-137.663H386.384V-138.736H385.315Z" fill="white"/>
<path d="M385.315 -160.202V-159.129H386.384V-160.202H385.315Z" fill="white"/>
<path d="M385.315 -181.669V-180.595H386.384V-181.669H385.315Z" fill="white"/>
<path d="M385.315 -203.135V-202.062H386.384V-203.135H385.315Z" fill="white"/>
<path d="M385.315 -224.601V-223.528H386.384V-224.601H385.315Z" fill="white"/>
<path d="M406.7 54.4604V55.5337H407.769V54.4604H406.7Z" fill="white"/>
<path d="M406.7 32.9941V34.0675H407.769V32.9941H406.7Z" fill="white"/>
<path d="M406.7 11.5279V12.6012H407.769V11.5279H406.7Z" fill="white"/>
<path d="M406.7 -9.93842V-8.8651H407.769V-9.93842H406.7Z" fill="white"/>
<path d="M406.7 -31.4047V-30.3314H407.769V-31.4047H406.7Z" fill="white"/>
<path d="M406.7 -52.871V-51.7977H407.769V-52.871H406.7Z" fill="white"/>
<path d="M406.7 -74.3372V-73.2639H407.769V-74.3372H406.7Z" fill="white"/>
<path d="M406.7 -95.8035V-94.7302H407.769V-95.8035H406.7Z" fill="white"/>
<path d="M406.7 -117.27V-116.196H407.769V-117.27H406.7Z" fill="white"/>
<path d="M406.7 -138.736V-137.663H407.769V-138.736H406.7Z" fill="white"/>
<path d="M406.7 -160.202V-159.129H407.769V-160.202H406.7Z" fill="white"/>
<path d="M406.7 -181.669V-180.595H407.769V-181.669H406.7Z" fill="white"/>
<path d="M406.7 -203.135V-202.062H407.769V-203.135H406.7Z" fill="white"/>
<path d="M406.7 -224.601V-223.528H407.769V-224.601H406.7Z" fill="white"/>
<path d="M428.085 54.4604V55.5337H429.154V54.4604H428.085Z" fill="white"/>
<path d="M428.085 32.9941V34.0675H429.154V32.9941H428.085Z" fill="white"/>
<path d="M428.085 11.5279V12.6012H429.154V11.5279H428.085Z" fill="white"/>
<path d="M428.085 -9.93842V-8.8651H429.154V-9.93842H428.085Z" fill="white"/>
<path d="M428.085 -31.4047V-30.3314H429.154V-31.4047H428.085Z" fill="white"/>
<path d="M428.085 -52.871V-51.7977H429.154V-52.871H428.085Z" fill="white"/>
<path d="M428.085 -74.3372V-73.2639H429.154V-74.3372H428.085Z" fill="white"/>
<path d="M428.085 -95.8035V-94.7302H429.154V-95.8035H428.085Z" fill="white"/>
<path d="M428.085 -117.27V-116.196H429.154V-117.27H428.085Z" fill="white"/>
<path d="M428.085 -138.736V-137.663H429.154V-138.736H428.085Z" fill="white"/>
<path d="M428.085 -160.202V-159.129H429.154V-160.202H428.085Z" fill="white"/>
<path d="M428.085 -181.669V-180.595H429.154V-181.669H428.085Z" fill="white"/>
<path d="M428.085 -203.135V-202.062H429.154V-203.135H428.085Z" fill="white"/>
<path d="M428.085 -224.601V-223.528H429.154V-224.601H428.085Z" fill="white"/>
<path d="M449.47 54.4604V55.5337H450.539V54.4604H449.47Z" fill="white"/>
<path d="M449.47 32.9941V34.0675H450.539V32.9941H449.47Z" fill="white"/>
<path d="M449.47 -95.8035V-94.7302H450.539V-95.8035H449.47Z" fill="white"/>
<path d="M449.47 -117.27V-116.196H450.539V-117.27H449.47Z" fill="white"/>
<path d="M449.47 -138.736V-137.663H450.539V-138.736H449.47Z" fill="white"/>
<path d="M449.47 -160.202V-159.129H450.539V-160.202H449.47Z" fill="white"/>
<path d="M449.47 -181.669V-180.595H450.539V-181.669H449.47Z" fill="white"/>
<path d="M449.47 -203.135V-202.062H450.539V-203.135H449.47Z" fill="white"/>
<path d="M449.47 -224.601V-223.528H450.539V-224.601H449.47Z" fill="white"/>
<path d="M449.47 -246.067V-244.994H450.539V-246.067H449.47Z" fill="white"/>
<path d="M449.47 -267.534V-266.46H450.539V-267.534H449.47Z" fill="white"/>
<path d="M449.47 -289V-287.927H450.539V-289H449.47Z" fill="white"/>
<path d="M470.855 54.4604V55.5337H471.925V54.4604H470.855Z" fill="white"/>
<path d="M470.855 32.9941V34.0675H471.925V32.9941H470.855Z" fill="white"/>
<path d="M470.855 -95.8035V-94.7302H471.925V-95.8035H470.855Z" fill="white"/>
<path d="M470.855 -117.27V-116.196H471.925V-117.27H470.855Z" fill="white"/>
<path d="M470.855 -224.601V-223.528H471.925V-224.601H470.855Z" fill="white"/>
<path d="M470.855 -246.067V-244.994H471.925V-246.067H470.855Z" fill="white"/>
<path d="M470.855 -267.534V-266.46H471.925V-267.534H470.855Z" fill="white"/>
<path d="M470.855 -289V-287.927H471.925V-289H470.855Z" fill="white"/>
<path d="M492.24 75.9267V77H493.31V75.9267H492.24Z" fill="white"/>
<path d="M492.24 54.4604V55.5337H493.31V54.4604H492.24Z" fill="white"/>
<path d="M492.24 32.9941V34.0675H493.31V32.9941H492.24Z" fill="white"/>
<path d="M492.24 11.5279V12.6012H493.31V11.5279H492.24Z" fill="white"/>
<path d="M492.24 -9.93842V-8.8651H493.31V-9.93842H492.24Z" fill="white"/>
<path d="M492.24 -31.4047V-30.3314H493.31V-31.4047H492.24Z" fill="white"/>
<path d="M492.24 -52.871V-51.7977H493.31V-52.871H492.24Z" fill="white"/>
<path d="M492.24 -74.3372V-73.2639H493.31V-74.3372H492.24Z" fill="white"/>
<path d="M492.24 -95.8035V-94.7302H493.31V-95.8035H492.24Z" fill="white"/>
<path d="M492.24 -117.27V-116.196H493.31V-117.27H492.24Z" fill="white"/>
<path d="M492.24 -138.736V-137.663H493.31V-138.736H492.24Z" fill="white"/>
<path d="M492.24 -224.601V-223.528H493.31V-224.601H492.24Z" fill="white"/>
<path d="M492.24 -246.067V-244.994H493.31V-246.067H492.24Z" fill="white"/>
<path d="M492.24 -267.534V-266.46H493.31V-267.534H492.24Z" fill="white"/>
<path d="M492.24 -289V-287.927H493.31V-289H492.24Z" fill="white"/>
<path d="M513.626 75.9267V77H514.695V75.9267H513.626Z" fill="white"/>
<path d="M513.626 54.4604V55.5337H514.695V54.4604H513.626Z" fill="white"/>
<path d="M513.626 32.9941V34.0675H514.695V32.9941H513.626Z" fill="white"/>
<path d="M513.626 11.5279V12.6012H514.695V11.5279H513.626Z" fill="white"/>
<path d="M513.626 -9.93842V-8.8651H514.695V-9.93842H513.626Z" fill="white"/>
<path d="M513.626 -31.4047V-30.3314H514.695V-31.4047H513.626Z" fill="white"/>
<path d="M513.626 -52.871V-51.7977H514.695V-52.871H513.626Z" fill="white"/>
<path d="M513.626 -74.3372V-73.2639H514.695V-74.3372H513.626Z" fill="white"/>
<path d="M513.626 -95.8035V-94.7302H514.695V-95.8035H513.626Z" fill="white"/>
<path d="M513.626 -117.27V-116.196H514.695V-117.27H513.626Z" fill="white"/>
<path d="M513.626 -138.736V-137.663H514.695V-138.736H513.626Z" fill="white"/>
<path d="M513.626 -267.534V-266.46H514.695V-267.534H513.626Z" fill="white"/>
<path d="M513.626 -289V-287.927H514.695V-289H513.626Z" fill="white"/>
<path d="M535.011 75.9267V77H536.08V75.9267H535.011Z" fill="white"/>
<path d="M535.011 54.4604V55.5337H536.08V54.4604H535.011Z" fill="white"/>
<path d="M535.011 32.9941V34.0675H536.08V32.9941H535.011Z" fill="white"/>
<path d="M535.011 11.5279V12.6012H536.08V11.5279H535.011Z" fill="white"/>
<path d="M535.011 -9.93842V-8.8651H536.08V-9.93842H535.011Z" fill="white"/>
<path d="M535.011 -31.4047V-30.3314H536.08V-31.4047H535.011Z" fill="white"/>
<path d="M535.011 -52.871V-51.7977H536.08V-52.871H535.011Z" fill="white"/>
<path d="M535.011 -74.3372V-73.2639H536.08V-74.3372H535.011Z" fill="white"/>
<path d="M535.011 -95.8035V-94.7302H536.08V-95.8035H535.011Z" fill="white"/>
<path d="M535.011 -117.27V-116.196H536.08V-117.27H535.011Z" fill="white"/>
<path d="M535.011 -138.736V-137.663H536.08V-138.736H535.011Z" fill="white"/>
<path d="M535.011 -267.534V-266.46H536.08V-267.534H535.011Z" fill="white"/>
<path d="M535.011 -289V-287.927H536.08V-289H535.011Z" fill="white"/>
<path d="M556.396 75.9267V77H557.465V75.9267H556.396Z" fill="white"/>
<path d="M556.396 54.4604V55.5337H557.465V54.4604H556.396Z" fill="white"/>
<path d="M556.396 32.9941V34.0675H557.465V32.9941H556.396Z" fill="white"/>
<path d="M556.396 11.5279V12.6012H557.465V11.5279H556.396Z" fill="white"/>
<path d="M556.396 -9.93842V-8.8651H557.465V-9.93842H556.396Z" fill="white"/>
<path d="M556.396 -31.4047V-30.3314H557.465V-31.4047H556.396Z" fill="white"/>
<path d="M556.396 -52.871V-51.7977H557.465V-52.871H556.396Z" fill="white"/>
<path d="M556.396 -74.3372V-73.2639H557.465V-74.3372H556.396Z" fill="white"/>
<path d="M556.396 -95.8035V-94.7302H557.465V-95.8035H556.396Z" fill="white"/>
<path d="M556.396 -117.27V-116.196H557.465V-117.27H556.396Z" fill="white"/>
<path d="M556.396 -138.736V-137.663H557.465V-138.736H556.396Z" fill="white"/>
<path d="M556.396 -160.202V-159.129H557.465V-160.202H556.396Z" fill="white"/>
<path d="M556.396 -181.669V-180.595H557.465V-181.669H556.396Z" fill="white"/>
<path d="M556.396 -203.135V-202.062H557.465V-203.135H556.396Z" fill="white"/>
<path d="M556.396 -224.601V-223.528H557.465V-224.601H556.396Z" fill="white"/>
<path d="M556.396 -246.067V-244.994H557.465V-246.067H556.396Z" fill="white"/>
<path d="M556.396 -267.534V-266.46H557.465V-267.534H556.396Z" fill="white"/>
<path d="M556.396 -289V-287.927H557.465V-289H556.396Z" fill="white"/>
<path d="M578.85 75.9267V77H579.919V75.9267H578.85Z" fill="white"/>
<path d="M578.85 54.4604V55.5337H579.919V54.4604H578.85Z" fill="white"/>
<path d="M578.85 32.9941V34.0675H579.919V32.9941H578.85Z" fill="white"/>
<path d="M578.85 11.5279V12.6012H579.919V11.5279H578.85Z" fill="white"/>
<path d="M578.85 -9.93842V-8.8651H579.919V-9.93842H578.85Z" fill="white"/>
<path d="M578.85 -31.4047V-30.3314H579.919V-31.4047H578.85Z" fill="white"/>
<path d="M578.85 -52.871V-51.7977H579.919V-52.871H578.85Z" fill="white"/>
<path d="M578.85 -74.3372V-73.2639H579.919V-74.3372H578.85Z" fill="white"/>
<path d="M578.85 -95.8035V-94.7302H579.919V-95.8035H578.85Z" fill="white"/>
<path d="M578.85 -117.27V-116.196H579.919V-117.27H578.85Z" fill="white"/>
<path d="M578.85 -138.736V-137.663H579.919V-138.736H578.85Z" fill="white"/>
<path d="M578.85 -160.202V-159.129H579.919V-160.202H578.85Z" fill="white"/>
<path d="M578.85 -181.669V-180.595H579.919V-181.669H578.85Z" fill="white"/>
<path d="M578.85 -203.135V-202.062H579.919V-203.135H578.85Z" fill="white"/>
<path d="M578.85 -224.601V-223.528H579.919V-224.601H578.85Z" fill="white"/>
<path d="M578.85 -246.067V-244.994H579.919V-246.067H578.85Z" fill="white"/>
<path d="M578.85 -267.534V-266.46H579.919V-267.534H578.85Z" fill="white"/>
<path d="M578.85 -289V-287.927H579.919V-289H578.85Z" fill="white"/>
<path d="M600.235 75.9267V77H601.304V75.9267H600.235Z" fill="white"/>
<path d="M600.235 54.4604V55.5337H601.304V54.4604H600.235Z" fill="white"/>
<path d="M600.235 32.9941V34.0675H601.304V32.9941H600.235Z" fill="white"/>
<path d="M600.235 11.5279V12.6012H601.304V11.5279H600.235Z" fill="white"/>
<path d="M600.235 -9.93842V-8.8651H601.304V-9.93842H600.235Z" fill="white"/>
<path d="M600.235 -160.202V-159.129H601.304V-160.202H600.235Z" fill="white"/>
<path d="M600.235 -181.669V-180.595H601.304V-181.669H600.235Z" fill="white"/>
<path d="M600.235 -203.135V-202.062H601.304V-203.135H600.235Z" fill="white"/>
<path d="M600.235 -224.601V-223.528H601.304V-224.601H600.235Z" fill="white"/>
<path d="M600.235 -246.067V-244.994H601.304V-246.067H600.235Z" fill="white"/>
<path d="M600.235 -267.534V-266.46H601.304V-267.534H600.235Z" fill="white"/>
<path d="M600.235 -289V-287.927H601.304V-289H600.235Z" fill="white"/>
<path d="M621.62 75.9267V77H622.689V75.9267H621.62Z" fill="white"/>
<path d="M621.62 54.4604V55.5337H622.689V54.4604H621.62Z" fill="white"/>
<path d="M621.62 32.9941V34.0675H622.689V32.9941H621.62Z" fill="white"/>
<path d="M621.62 11.5279V12.6012H622.689V11.5279H621.62Z" fill="white"/>
<path d="M621.62 -9.93842V-8.8651H622.689V-9.93842H621.62Z" fill="white"/>
<path d="M621.62 -160.202V-159.129H622.689V-160.202H621.62Z" fill="white"/>
<path d="M621.62 -181.669V-180.595H622.689V-181.669H621.62Z" fill="white"/>
<path d="M621.62 -203.135V-202.062H622.689V-203.135H621.62Z" fill="white"/>
<path d="M621.62 -224.601V-223.528H622.689V-224.601H621.62Z" fill="white"/>
<path d="M621.62 -246.067V-244.994H622.689V-246.067H621.62Z" fill="white"/>
<path d="M621.62 -267.534V-266.46H622.689V-267.534H621.62Z" fill="white"/>
<path d="M621.62 -289V-287.927H622.689V-289H621.62Z" fill="white"/>
<path d="M643.005 75.9267V77H644.075V75.9267H643.005Z" fill="white"/>
<path d="M643.005 54.4604V55.5337H644.075V54.4604H643.005Z" fill="white"/>
<path d="M643.005 -74.3372V-73.2639H644.075V-74.3372H643.005Z" fill="white"/>
<path d="M643.005 -95.8035V-94.7302H644.075V-95.8035H643.005Z" fill="white"/>
<path d="M643.005 -117.27V-116.196H644.075V-117.27H643.005Z" fill="white"/>
<path d="M643.005 -138.736V-137.663H644.075V-138.736H643.005Z" fill="white"/>
<path d="M643.005 -160.202V-159.129H644.075V-160.202H643.005Z" fill="white"/>
<path d="M643.005 -181.669V-180.595H644.075V-181.669H643.005Z" fill="white"/>
<path d="M643.005 -203.135V-202.062H644.075V-203.135H643.005Z" fill="white"/>
<path d="M643.005 -267.534V-266.46H644.075V-267.534H643.005Z" fill="white"/>
<path d="M643.005 -289V-287.927H644.075V-289H643.005Z" fill="white"/>
<path d="M664.39 75.9267V77H665.46V75.9267H664.39Z" fill="white"/>
<path d="M664.39 54.4604V55.5337H665.46V54.4604H664.39Z" fill="white"/>
<path d="M664.39 -52.871V-51.7977H665.46V-52.871H664.39Z" fill="white"/>
<path d="M664.39 -74.3372V-73.2639H665.46V-74.3372H664.39Z" fill="white"/>
<path d="M664.39 -95.8035V-94.7302H665.46V-95.8035H664.39Z" fill="white"/>
<path d="M664.39 -117.27V-116.196H665.46V-117.27H664.39Z" fill="white"/>
<path d="M664.39 -138.736V-137.663H665.46V-138.736H664.39Z" fill="white"/>
<path d="M664.39 -160.202V-159.129H665.46V-160.202H664.39Z" fill="white"/>
<path d="M664.39 -181.669V-180.595H665.46V-181.669H664.39Z" fill="white"/>
<path d="M664.39 -203.135V-202.062H665.46V-203.135H664.39Z" fill="white"/>
<path d="M664.39 -267.534V-266.46H665.46V-267.534H664.39Z" fill="white"/>
<path d="M664.39 -289V-287.927H665.46V-289H664.39Z" fill="white"/>
<path d="M685.775 75.9267V77H686.845V75.9267H685.775Z" fill="white"/>
<path d="M685.775 54.4604V55.5337H686.845V54.4604H685.775Z" fill="white"/>
<path d="M685.775 -52.871V-51.7977H686.845V-52.871H685.775Z" fill="white"/>
<path d="M685.775 -74.3372V-73.2639H686.845V-74.3372H685.775Z" fill="white"/>
<path d="M685.775 -95.8035V-94.7302H686.845V-95.8035H685.775Z" fill="white"/>
<path d="M685.775 -117.27V-116.196H686.845V-117.27H685.775Z" fill="white"/>
<path d="M685.775 -138.736V-137.663H686.845V-138.736H685.775Z" fill="white"/>
<path d="M685.775 -160.202V-159.129H686.845V-160.202H685.775Z" fill="white"/>
<path d="M685.775 -181.669V-180.595H686.845V-181.669H685.775Z" fill="white"/>
<path d="M685.775 -203.135V-202.062H686.845V-203.135H685.775Z" fill="white"/>
<path d="M685.775 -267.534V-266.46H686.845V-267.534H685.775Z" fill="white"/>
<path d="M685.775 -289V-287.927H686.845V-289H685.775Z" fill="white"/>
<path d="M707.16 75.9267V77H708.23V75.9267H707.16Z" fill="white"/>
<path d="M707.16 54.4604V55.5337H708.23V54.4604H707.16Z" fill="white"/>
<path d="M707.16 -52.871V-51.7977H708.23V-52.871H707.16Z" fill="white"/>
<path d="M707.16 -74.3372V-73.2639H708.23V-74.3372H707.16Z" fill="white"/>
<path d="M707.16 -95.8035V-94.7302H708.23V-95.8035H707.16Z" fill="white"/>
<path d="M707.16 -117.27V-116.196H708.23V-117.27H707.16Z" fill="white"/>
<path d="M707.16 -138.736V-137.663H708.23V-138.736H707.16Z" fill="white"/>
<path d="M707.16 -160.202V-159.129H708.23V-160.202H707.16Z" fill="white"/>
<path d="M707.16 -181.669V-180.595H708.23V-181.669H707.16Z" fill="white"/>
<path d="M707.16 -203.135V-202.062H708.23V-203.135H707.16Z" fill="white"/>
<path d="M707.16 -267.534V-266.46H708.23V-267.534H707.16Z" fill="white"/>
<path d="M707.16 -289V-287.927H708.23V-289H707.16Z" fill="white"/>
<path d="M728.546 75.9267V77H729.615V75.9267H728.546Z" fill="white"/>
<path d="M728.546 54.4604V55.5337H729.615V54.4604H728.546Z" fill="white"/>
<path d="M728.546 -52.871V-51.7977H729.615V-52.871H728.546Z" fill="white"/>
<path d="M728.546 -74.3372V-73.2639H729.615V-74.3372H728.546Z" fill="white"/>
<path d="M728.546 -95.8035V-94.7302H729.615V-95.8035H728.546Z" fill="white"/>
<path d="M728.546 -117.27V-116.196H729.615V-117.27H728.546Z" fill="white"/>
<path d="M728.546 -138.736V-137.663H729.615V-138.736H728.546Z" fill="white"/>
<path d="M728.546 -160.202V-159.129H729.615V-160.202H728.546Z" fill="white"/>
<path d="M728.546 -181.669V-180.595H729.615V-181.669H728.546Z" fill="white"/>
<path d="M728.546 -203.135V-202.062H729.615V-203.135H728.546Z" fill="white"/>
<path d="M728.546 -267.534V-266.46H729.615V-267.534H728.546Z" fill="white"/>
<path d="M728.546 -289V-287.927H729.615V-289H728.546Z" fill="white"/>
<path d="M749.931 75.9267V77H751V75.9267H749.931Z" fill="white"/>
<path d="M749.931 54.4604V55.5337H751V54.4604H749.931Z" fill="white"/>
<path d="M749.931 32.9941V34.0675H751V32.9941H749.931Z" fill="white"/>
<path d="M749.931 11.5279V12.6012H751V11.5279H749.931Z" fill="white"/>
<path d="M749.931 -9.93842V-8.8651H751V-9.93842H749.931Z" fill="white"/>
<path d="M749.931 -31.4047V-30.3314H751V-31.4047H749.931Z" fill="white"/>
<path d="M749.931 -52.871V-51.7977H751V-52.871H749.931Z" fill="white"/>
<path d="M749.931 -74.3372V-73.2639H751V-74.3372H749.931Z" fill="white"/>
<path d="M749.931 -95.8035V-94.7302H751V-95.8035H749.931Z" fill="white"/>
<path d="M749.931 -117.27V-116.196H751V-117.27H749.931Z" fill="white"/>
<path d="M749.931 -138.736V-137.663H751V-138.736H749.931Z" fill="white"/>
<path d="M749.931 -160.202V-159.129H751V-160.202H749.931Z" fill="white"/>
<path d="M749.931 -181.669V-180.595H751V-181.669H749.931Z" fill="white"/>
<path d="M749.931 -203.135V-202.062H751V-203.135H749.931Z" fill="white"/>
<path d="M749.931 -267.534V-266.46H751V-267.534H749.931Z" fill="white"/>
<path d="M749.931 -289V-287.927H751V-289H749.931Z" fill="white"/>
</g>
</g>
<defs>
<clipPath id="clip0_156_72">
<rect width="1286" height="80" fill="white" transform="matrix(-1 0 0 1 1281 0)"/>
</clipPath>
</defs>
</svg>
