<svg width="1280" height="80" viewBox="0 0 1280 80" fill="none" xmlns="http://www.w3.org/2000/svg">
<g clip-path="url(#clip0_156_86)">
<rect width="1286" height="80" transform="matrix(1 0 0 -1 -5 80)" fill="#0B0C14"/>
<rect width="175" height="80" transform="matrix(1 0 0 -1 -5 80)" fill="#0F1D4E"/>
<rect width="107" height="33" transform="matrix(1 0 0 -1 170 33)" fill="#0F1D4E"/>
<rect width="107" height="70" transform="matrix(1 0 0 -1 277 70)" fill="#0F1D4E"/>
<rect width="107" height="52" transform="matrix(1 0 0 -1 384 52)" fill="#0F1D4E"/>
<g opacity="0.3">
<path d="M1275 4.07331V3H1273.93V4.07331H1275Z" fill="white"/>
<path d="M1275 25.5396V24.4663H1273.93V25.5396H1275Z" fill="white"/>
<path d="M1275 47.0059V45.9325H1273.93V47.0059H1275Z" fill="white"/>
<path d="M1275 68.4721V67.3988H1273.93V68.4721H1275Z" fill="white"/>
<path d="M1275 89.9384V88.8651H1273.93V89.9384H1275Z" fill="white"/>
<path d="M1275 111.405V110.331H1273.93V111.405H1275Z" fill="white"/>
<path d="M1275 132.871V131.798H1273.93V132.871H1275Z" fill="white"/>
<path d="M1275 154.337V153.264H1273.93V154.337H1275Z" fill="white"/>
<path d="M1275 175.803V174.73H1273.93V175.803H1275Z" fill="white"/>
<path d="M1275 197.27V196.196H1273.93V197.27H1275Z" fill="white"/>
<path d="M1275 218.736V217.663H1273.93V218.736H1275Z" fill="white"/>
<path d="M1275 240.202V239.129H1273.93V240.202H1275Z" fill="white"/>
<path d="M1275 261.669V260.595H1273.93V261.669H1275Z" fill="white"/>
<path d="M1275 283.135V282.062H1273.93V283.135H1275Z" fill="white"/>
<path d="M1275 304.601V303.528H1273.93V304.601H1275Z" fill="white"/>
<path d="M1253.61 4.07331V3H1252.55V4.07331H1253.61Z" fill="white"/>
<path d="M1253.61 25.5396V24.4663H1252.55V25.5396H1253.61Z" fill="white"/>
<path d="M1253.61 47.0059V45.9325H1252.55V47.0059H1253.61Z" fill="white"/>
<path d="M1253.61 68.4721V67.3988H1252.55V68.4721H1253.61Z" fill="white"/>
<path d="M1253.61 89.9384V88.8651H1252.55V89.9384H1253.61Z" fill="white"/>
<path d="M1253.61 111.405V110.331H1252.55V111.405H1253.61Z" fill="white"/>
<path d="M1253.61 132.871V131.798H1252.55V132.871H1253.61Z" fill="white"/>
<path d="M1253.61 154.337V153.264H1252.55V154.337H1253.61Z" fill="white"/>
<path d="M1253.61 175.803V174.73H1252.55V175.803H1253.61Z" fill="white"/>
<path d="M1253.61 197.27V196.196H1252.55V197.27H1253.61Z" fill="white"/>
<path d="M1253.61 218.736V217.663H1252.55V218.736H1253.61Z" fill="white"/>
<path d="M1253.61 240.202V239.129H1252.55V240.202H1253.61Z" fill="white"/>
<path d="M1253.61 261.669V260.595H1252.55V261.669H1253.61Z" fill="white"/>
<path d="M1253.61 283.135V282.062H1252.55V283.135H1253.61Z" fill="white"/>
<path d="M1253.61 304.601V303.528H1252.55V304.601H1253.61Z" fill="white"/>
<path d="M1232.23 4.07331V3H1231.16V4.07331H1232.23Z" fill="white"/>
<path d="M1232.23 175.803V174.73H1231.16V175.803H1232.23Z" fill="white"/>
<path d="M1232.23 197.27V196.196H1231.16V197.27H1232.23Z" fill="white"/>
<path d="M1232.23 218.736V217.663H1231.16V218.736H1232.23Z" fill="white"/>
<path d="M1232.23 240.202V239.129H1231.16V240.202H1232.23Z" fill="white"/>
<path d="M1232.23 261.669V260.595H1231.16V261.669H1232.23Z" fill="white"/>
<path d="M1232.23 283.135V282.062H1231.16V283.135H1232.23Z" fill="white"/>
<path d="M1232.23 304.601V303.528H1231.16V304.601H1232.23Z" fill="white"/>
<path d="M1210.84 4.07331V3H1209.78V4.07331H1210.84Z" fill="white"/>
<path d="M1210.84 218.736V217.663H1209.78V218.736H1210.84Z" fill="white"/>
<path d="M1210.84 240.202V239.129H1209.78V240.202H1210.84Z" fill="white"/>
<path d="M1210.84 261.669V260.595H1209.78V261.669H1210.84Z" fill="white"/>
<path d="M1210.84 283.135V282.062H1209.78V283.135H1210.84Z" fill="white"/>
<path d="M1210.84 304.601V303.528H1209.78V304.601H1210.84Z" fill="white"/>
<path d="M1210.84 326.067V324.994H1209.78V326.067H1210.84Z" fill="white"/>
<path d="M1210.84 347.534V346.46H1209.78V347.534H1210.84Z" fill="white"/>
<path d="M1210.84 369V367.927H1209.78V369H1210.84Z" fill="white"/>
<path d="M1189.46 4.07331V3H1188.39V4.07331H1189.46Z" fill="white"/>
<path d="M1189.46 218.736V217.663H1188.39V218.736H1189.46Z" fill="white"/>
<path d="M1189.46 240.202V239.129H1188.39V240.202H1189.46Z" fill="white"/>
<path d="M1189.46 261.669V260.595H1188.39V261.669H1189.46Z" fill="white"/>
<path d="M1189.46 283.135V282.062H1188.39V283.135H1189.46Z" fill="white"/>
<path d="M1189.46 304.601V303.528H1188.39V304.601H1189.46Z" fill="white"/>
<path d="M1189.46 326.067V324.994H1188.39V326.067H1189.46Z" fill="white"/>
<path d="M1189.46 347.534V346.46H1188.39V347.534H1189.46Z" fill="white"/>
<path d="M1189.46 369V367.927H1188.39V369H1189.46Z" fill="white"/>
<path d="M1168.07 4.07331V3H1167.01V4.07331H1168.07Z" fill="white"/>
<path d="M1168.07 25.5396V24.4663H1167.01V25.5396H1168.07Z" fill="white"/>
<path d="M1168.07 47.0059V45.9325H1167.01V47.0059H1168.07Z" fill="white"/>
<path d="M1168.07 68.4721V67.3988H1167.01V68.4721H1168.07Z" fill="white"/>
<path d="M1168.07 89.9384V88.8651H1167.01V89.9384H1168.07Z" fill="white"/>
<path d="M1168.07 111.405V110.331H1167.01V111.405H1168.07Z" fill="white"/>
<path d="M1168.07 132.871V131.798H1167.01V132.871H1168.07Z" fill="white"/>
<path d="M1168.07 218.736V217.663H1167.01V218.736H1168.07Z" fill="white"/>
<path d="M1168.07 240.202V239.129H1167.01V240.202H1168.07Z" fill="white"/>
<path d="M1168.07 261.669V260.595H1167.01V261.669H1168.07Z" fill="white"/>
<path d="M1168.07 283.135V282.062H1167.01V283.135H1168.07Z" fill="white"/>
<path d="M1168.07 304.601V303.528H1167.01V304.601H1168.07Z" fill="white"/>
<path d="M1168.07 326.067V324.994H1167.01V326.067H1168.07Z" fill="white"/>
<path d="M1168.07 347.534V346.46H1167.01V347.534H1168.07Z" fill="white"/>
<path d="M1168.07 369V367.927H1167.01V369H1168.07Z" fill="white"/>
<path d="M1146.69 4.07331V3H1145.62V4.07331H1146.69Z" fill="white"/>
<path d="M1146.69 25.5396V24.4663H1145.62V25.5396H1146.69Z" fill="white"/>
<path d="M1146.69 47.0059V45.9325H1145.62V47.0059H1146.69Z" fill="white"/>
<path d="M1146.69 68.4721V67.3988H1145.62V68.4721H1146.69Z" fill="white"/>
<path d="M1146.69 89.9384V88.8651H1145.62V89.9384H1146.69Z" fill="white"/>
<path d="M1146.69 111.405V110.331H1145.62V111.405H1146.69Z" fill="white"/>
<path d="M1146.69 132.871V131.798H1145.62V132.871H1146.69Z" fill="white"/>
<path d="M1146.69 154.337V153.264H1145.62V154.337H1146.69Z" fill="white"/>
<path d="M1146.69 175.803V174.73H1145.62V175.803H1146.69Z" fill="white"/>
<path d="M1146.69 197.27V196.196H1145.62V197.27H1146.69Z" fill="white"/>
<path d="M1146.69 218.736V217.663H1145.62V218.736H1146.69Z" fill="white"/>
<path d="M1146.69 240.202V239.129H1145.62V240.202H1146.69Z" fill="white"/>
<path d="M1146.69 261.669V260.595H1145.62V261.669H1146.69Z" fill="white"/>
<path d="M1146.69 283.135V282.062H1145.62V283.135H1146.69Z" fill="white"/>
<path d="M1146.69 304.601V303.528H1145.62V304.601H1146.69Z" fill="white"/>
<path d="M1146.69 326.067V324.994H1145.62V326.067H1146.69Z" fill="white"/>
<path d="M1146.69 347.534V346.46H1145.62V347.534H1146.69Z" fill="white"/>
<path d="M1146.69 369V367.927H1145.62V369H1146.69Z" fill="white"/>
<path d="M1125.3 4.07331V3H1124.24V4.07331H1125.3Z" fill="white"/>
<path d="M1125.3 25.5396V24.4663H1124.24V25.5396H1125.3Z" fill="white"/>
<path d="M1125.3 47.0059V45.9325H1124.24V47.0059H1125.3Z" fill="white"/>
<path d="M1125.3 68.4721V67.3988H1124.24V68.4721H1125.3Z" fill="white"/>
<path d="M1125.3 89.9384V88.8651H1124.24V89.9384H1125.3Z" fill="white"/>
<path d="M1125.3 111.405V110.331H1124.24V111.405H1125.3Z" fill="white"/>
<path d="M1125.3 132.871V131.798H1124.24V132.871H1125.3Z" fill="white"/>
<path d="M1125.3 154.337V153.264H1124.24V154.337H1125.3Z" fill="white"/>
<path d="M1125.3 175.803V174.73H1124.24V175.803H1125.3Z" fill="white"/>
<path d="M1125.3 197.27V196.196H1124.24V197.27H1125.3Z" fill="white"/>
<path d="M1125.3 218.736V217.663H1124.24V218.736H1125.3Z" fill="white"/>
<path d="M1125.3 240.202V239.129H1124.24V240.202H1125.3Z" fill="white"/>
<path d="M1125.3 261.669V260.595H1124.24V261.669H1125.3Z" fill="white"/>
<path d="M1125.3 283.135V282.062H1124.24V283.135H1125.3Z" fill="white"/>
<path d="M1125.3 304.601V303.528H1124.24V304.601H1125.3Z" fill="white"/>
<path d="M1125.3 326.067V324.994H1124.24V326.067H1125.3Z" fill="white"/>
<path d="M1125.3 347.534V346.46H1124.24V347.534H1125.3Z" fill="white"/>
<path d="M1125.3 369V367.927H1124.24V369H1125.3Z" fill="white"/>
<path d="M1103.92 4.07331V3H1102.85V4.07331H1103.92Z" fill="white"/>
<path d="M1103.92 25.5396V24.4663H1102.85V25.5396H1103.92Z" fill="white"/>
<path d="M1103.92 47.0059V45.9325H1102.85V47.0059H1103.92Z" fill="white"/>
<path d="M1103.92 68.4721V67.3988H1102.85V68.4721H1103.92Z" fill="white"/>
<path d="M1103.92 89.9384V88.8651H1102.85V89.9384H1103.92Z" fill="white"/>
<path d="M1103.92 111.405V110.331H1102.85V111.405H1103.92Z" fill="white"/>
<path d="M1103.92 132.871V131.798H1102.85V132.871H1103.92Z" fill="white"/>
<path d="M1103.92 154.337V153.264H1102.85V154.337H1103.92Z" fill="white"/>
<path d="M1103.92 175.803V174.73H1102.85V175.803H1103.92Z" fill="white"/>
<path d="M1103.92 197.27V196.196H1102.85V197.27H1103.92Z" fill="white"/>
<path d="M1103.92 218.736V217.663H1102.85V218.736H1103.92Z" fill="white"/>
<path d="M1103.92 240.202V239.129H1102.85V240.202H1103.92Z" fill="white"/>
<path d="M1103.92 261.669V260.595H1102.85V261.669H1103.92Z" fill="white"/>
<path d="M1103.92 283.135V282.062H1102.85V283.135H1103.92Z" fill="white"/>
<path d="M1103.92 304.601V303.528H1102.85V304.601H1103.92Z" fill="white"/>
<path d="M1103.92 326.067V324.994H1102.85V326.067H1103.92Z" fill="white"/>
<path d="M1103.92 347.534V346.46H1102.85V347.534H1103.92Z" fill="white"/>
<path d="M1103.92 369V367.927H1102.85V369H1103.92Z" fill="white"/>
<path d="M1081.46 4.07331V3H1080.4V4.07331H1081.46Z" fill="white"/>
<path d="M1081.46 25.5396V24.4663H1080.4V25.5396H1081.46Z" fill="white"/>
<path d="M1081.46 47.0059V45.9325H1080.4V47.0059H1081.46Z" fill="white"/>
<path d="M1081.46 68.4721V67.3988H1080.4V68.4721H1081.46Z" fill="white"/>
<path d="M1081.46 175.803V174.73H1080.4V175.803H1081.46Z" fill="white"/>
<path d="M1081.46 197.27V196.196H1080.4V197.27H1081.46Z" fill="white"/>
<path d="M1081.46 218.736V217.663H1080.4V218.736H1081.46Z" fill="white"/>
<path d="M1081.46 240.202V239.129H1080.4V240.202H1081.46Z" fill="white"/>
<path d="M1081.46 261.669V260.595H1080.4V261.669H1081.46Z" fill="white"/>
<path d="M1081.46 283.135V282.062H1080.4V283.135H1081.46Z" fill="white"/>
<path d="M1060.08 4.07331V3H1059.01V4.07331H1060.08Z" fill="white"/>
<path d="M1060.08 25.5396V24.4663H1059.01V25.5396H1060.08Z" fill="white"/>
<path d="M1060.08 47.0059V45.9325H1059.01V47.0059H1060.08Z" fill="white"/>
<path d="M1060.08 68.4721V67.3988H1059.01V68.4721H1060.08Z" fill="white"/>
<path d="M1060.08 175.803V174.73H1059.01V175.803H1060.08Z" fill="white"/>
<path d="M1060.08 197.27V196.196H1059.01V197.27H1060.08Z" fill="white"/>
<path d="M1060.08 218.736V217.663H1059.01V218.736H1060.08Z" fill="white"/>
<path d="M1060.08 240.202V239.129H1059.01V240.202H1060.08Z" fill="white"/>
<path d="M1060.08 261.669V260.595H1059.01V261.669H1060.08Z" fill="white"/>
<path d="M1060.08 283.135V282.062H1059.01V283.135H1060.08Z" fill="white"/>
<path d="M1038.69 4.07331V3H1037.63V4.07331L1038.69 4.07331Z" fill="white"/>
<path d="M1038.69 25.5396V24.4663H1037.63V25.5396H1038.69Z" fill="white"/>
<path d="M1038.69 47.0059V45.9325H1037.63V47.0059H1038.69Z" fill="white"/>
<path d="M1038.69 68.4721V67.3988H1037.63V68.4721H1038.69Z" fill="white"/>
<path d="M1038.69 175.803V174.73H1037.63V175.803H1038.69Z" fill="white"/>
<path d="M1038.69 197.27V196.196H1037.63V197.27H1038.69Z" fill="white"/>
<path d="M1038.69 218.736V217.663H1037.63V218.736H1038.69Z" fill="white"/>
<path d="M1038.69 240.202V239.129H1037.63V240.202H1038.69Z" fill="white"/>
<path d="M1038.69 261.669V260.595H1037.63V261.669H1038.69Z" fill="white"/>
<path d="M1038.69 283.135V282.062H1037.63V283.135H1038.69Z" fill="white"/>
<path d="M1017.31 4.07331V3H1016.24V4.07331H1017.31Z" fill="white"/>
<path d="M1017.31 25.5396V24.4663H1016.24V25.5396H1017.31Z" fill="white"/>
<path d="M1017.31 47.0059V45.9325H1016.24V47.0059H1017.31Z" fill="white"/>
<path d="M1017.31 68.4721V67.3988H1016.24V68.4721H1017.31Z" fill="white"/>
<path d="M1017.31 175.803V174.73H1016.24V175.803H1017.31Z" fill="white"/>
<path d="M1017.31 197.27V196.196H1016.24V197.27H1017.31Z" fill="white"/>
<path d="M1017.31 218.736V217.663H1016.24V218.736H1017.31Z" fill="white"/>
<path d="M1017.31 240.202V239.129H1016.24V240.202H1017.31Z" fill="white"/>
<path d="M1017.31 261.669V260.595H1016.24V261.669H1017.31Z" fill="white"/>
<path d="M1017.31 283.135V282.062H1016.24V283.135H1017.31Z" fill="white"/>
<path d="M995.925 4.07331V3H994.855V4.07331H995.925Z" fill="white"/>
<path d="M995.925 25.5396V24.4663H994.855V25.5396H995.925Z" fill="white"/>
<path d="M995.925 47.0059V45.9325H994.855V47.0059H995.925Z" fill="white"/>
<path d="M995.925 68.4721V67.3988H994.855V68.4721H995.925Z" fill="white"/>
<path d="M995.925 175.803V174.73H994.855V175.803H995.925Z" fill="white"/>
<path d="M995.925 197.27V196.196H994.855V197.27H995.925Z" fill="white"/>
<path d="M995.925 218.736V217.663H994.855V218.736H995.925Z" fill="white"/>
<path d="M995.925 240.202V239.129H994.855V240.202H995.925Z" fill="white"/>
<path d="M995.925 261.669V260.595H994.855V261.669H995.925Z" fill="white"/>
<path d="M995.925 283.135V282.062H994.855V283.135H995.925Z" fill="white"/>
<path d="M974.54 25.5396V24.4663H973.47V25.5396H974.54Z" fill="white"/>
<path d="M974.54 47.0059V45.9325H973.47V47.0059H974.54Z" fill="white"/>
<path d="M974.54 68.4721V67.3988H973.47V68.4721H974.54Z" fill="white"/>
<path d="M974.54 175.803V174.73H973.47V175.803H974.54Z" fill="white"/>
<path d="M974.54 197.27V196.196H973.47V197.27H974.54Z" fill="white"/>
<path d="M974.54 218.736V217.663H973.47V218.736H974.54Z" fill="white"/>
<path d="M974.54 240.202V239.129H973.47V240.202H974.54Z" fill="white"/>
<path d="M974.54 261.669V260.595H973.47V261.669H974.54Z" fill="white"/>
<path d="M974.54 283.135V282.062H973.47V283.135H974.54Z" fill="white"/>
<path d="M953.154 25.5396V24.4663H952.085V25.5396H953.154Z" fill="white"/>
<path d="M953.154 47.0059V45.9325H952.085V47.0059H953.154Z" fill="white"/>
<path d="M953.154 68.4721V67.3988H952.085V68.4721H953.154Z" fill="white"/>
<path d="M953.154 175.803V174.73H952.085V175.803H953.154Z" fill="white"/>
<path d="M953.154 197.27V196.196H952.085V197.27H953.154Z" fill="white"/>
<path d="M953.154 218.736V217.663H952.085V218.736H953.154Z" fill="white"/>
<path d="M953.154 240.202V239.129H952.085V240.202H953.154Z" fill="white"/>
<path d="M953.154 261.669V260.595H952.085V261.669H953.154Z" fill="white"/>
<path d="M953.154 283.135V282.062H952.085V283.135H953.154Z" fill="white"/>
<path d="M931.769 25.5396V24.4663H930.7V25.5396H931.769Z" fill="white"/>
<path d="M931.769 47.0059V45.9325H930.7V47.0059H931.769Z" fill="white"/>
<path d="M931.769 68.4721V67.3988H930.7V68.4721H931.769Z" fill="white"/>
<path d="M931.769 240.202V239.129H930.7V240.202H931.769Z" fill="white"/>
<path d="M931.769 261.669V260.595H930.7V261.669H931.769Z" fill="white"/>
<path d="M931.769 283.135V282.062H930.7V283.135H931.769Z" fill="white"/>
<path d="M931.769 304.601V303.528H930.7V304.601H931.769Z" fill="white"/>
<path d="M931.769 326.067V324.994H930.7V326.067H931.769Z" fill="white"/>
<path d="M931.769 347.534V346.46H930.7V347.534H931.769Z" fill="white"/>
<path d="M931.769 369V367.927H930.7V369H931.769Z" fill="white"/>
<path d="M910.384 25.5396V24.4663H909.315V25.5396H910.384Z" fill="white"/>
<path d="M910.384 47.0059V45.9325H909.315V47.0059H910.384Z" fill="white"/>
<path d="M910.384 68.4721V67.3988H909.315V68.4721H910.384Z" fill="white"/>
<path d="M910.384 89.9384V88.8651H909.315V89.9384H910.384Z" fill="white"/>
<path d="M910.384 111.405V110.331H909.315V111.405H910.384Z" fill="white"/>
<path d="M910.384 132.871V131.798H909.315V132.871H910.384Z" fill="white"/>
<path d="M910.384 154.337V153.264H909.315V154.337H910.384Z" fill="white"/>
<path d="M910.384 175.803V174.73H909.315V175.803H910.384Z" fill="white"/>
<path d="M910.384 197.27V196.196H909.315V197.27H910.384Z" fill="white"/>
<path d="M910.384 218.736V217.663H909.315V218.736H910.384Z" fill="white"/>
<path d="M910.384 240.202V239.129H909.315V240.202H910.384Z" fill="white"/>
<path d="M910.384 261.669V260.595H909.315V261.669H910.384Z" fill="white"/>
<path d="M910.384 283.135V282.062H909.315V283.135H910.384Z" fill="white"/>
<path d="M910.384 304.601V303.528H909.315V304.601H910.384Z" fill="white"/>
<path d="M910.384 326.067V324.994H909.315V326.067H910.384Z" fill="white"/>
<path d="M910.384 347.534V346.46H909.315V347.534H910.384Z" fill="white"/>
<path d="M910.384 369V367.927H909.315V369H910.384Z" fill="white"/>
<path d="M890.685 25.5396V24.4663H889.616V25.5396H890.685Z" fill="white"/>
<path d="M890.685 47.0059V45.9325H889.616V47.0059H890.685Z" fill="white"/>
<path d="M890.685 68.4721V67.3988H889.616V68.4721H890.685Z" fill="white"/>
<path d="M890.685 89.9384V88.8651H889.616V89.9384H890.685Z" fill="white"/>
<path d="M890.685 111.405V110.331H889.616V111.405H890.685Z" fill="white"/>
<path d="M890.685 132.871V131.798H889.616V132.871H890.685Z" fill="white"/>
<path d="M890.685 154.337V153.264H889.616V154.337H890.685Z" fill="white"/>
<path d="M890.685 175.803V174.73H889.616V175.803H890.685Z" fill="white"/>
<path d="M890.685 197.27V196.196H889.616V197.27H890.685Z" fill="white"/>
<path d="M890.685 218.736V217.663H889.616V218.736H890.685Z" fill="white"/>
<path d="M890.685 240.202V239.129H889.616V240.202H890.685Z" fill="white"/>
<path d="M890.685 261.669V260.595H889.616V261.669H890.685Z" fill="white"/>
<path d="M890.685 283.135V282.062H889.616V283.135H890.685Z" fill="white"/>
<path d="M890.685 304.601V303.528H889.616V304.601H890.685Z" fill="white"/>
<path d="M869.3 25.5396V24.4663H868.231V25.5396H869.3Z" fill="white"/>
<path d="M869.3 47.0059V45.9325H868.231V47.0059H869.3Z" fill="white"/>
<path d="M869.3 68.4721V67.3988H868.231V68.4721H869.3Z" fill="white"/>
<path d="M869.3 89.9384V88.8651H868.231V89.9384H869.3Z" fill="white"/>
<path d="M869.3 111.405V110.331H868.231V111.405H869.3Z" fill="white"/>
<path d="M869.3 132.871V131.798H868.231V132.871H869.3Z" fill="white"/>
<path d="M869.3 154.337V153.264H868.231V154.337H869.3Z" fill="white"/>
<path d="M869.3 175.803V174.73H868.231V175.803H869.3Z" fill="white"/>
<path d="M869.3 197.27V196.196H868.231V197.27H869.3Z" fill="white"/>
<path d="M869.3 218.736V217.663H868.231V218.736H869.3Z" fill="white"/>
<path d="M869.3 240.202V239.129H868.231V240.202H869.3Z" fill="white"/>
<path d="M869.3 261.669V260.595H868.231V261.669H869.3Z" fill="white"/>
<path d="M869.3 283.135V282.062H868.231V283.135H869.3Z" fill="white"/>
<path d="M869.3 304.601V303.528H868.231V304.601H869.3Z" fill="white"/>
<path d="M847.915 25.5396V24.4663H846.846V25.5396H847.915Z" fill="white"/>
<path d="M847.915 47.0059V45.9325H846.846V47.0059H847.915Z" fill="white"/>
<path d="M847.915 68.4721V67.3988H846.846V68.4721H847.915Z" fill="white"/>
<path d="M847.915 89.9384V88.8651H846.846V89.9384H847.915Z" fill="white"/>
<path d="M847.915 111.405V110.331H846.846V111.405H847.915Z" fill="white"/>
<path d="M847.915 132.871V131.798H846.846V132.871H847.915Z" fill="white"/>
<path d="M847.915 154.337V153.264H846.846V154.337H847.915Z" fill="white"/>
<path d="M847.915 175.803V174.73H846.846V175.803H847.915Z" fill="white"/>
<path d="M847.915 197.27V196.196H846.846V197.27H847.915Z" fill="white"/>
<path d="M847.915 218.736V217.663H846.846V218.736H847.915Z" fill="white"/>
<path d="M847.915 240.202V239.129H846.846V240.202H847.915Z" fill="white"/>
<path d="M847.915 261.669V260.595H846.846V261.669H847.915Z" fill="white"/>
<path d="M847.915 283.135V282.062H846.846V283.135H847.915Z" fill="white"/>
<path d="M847.915 304.601V303.528H846.846V304.601H847.915Z" fill="white"/>
<path d="M826.53 25.5396V24.4663H825.461V25.5396H826.53Z" fill="white"/>
<path d="M826.53 47.0059V45.9325H825.461V47.0059H826.53Z" fill="white"/>
<path d="M826.53 175.803V174.73H825.461V175.803H826.53Z" fill="white"/>
<path d="M826.53 197.27V196.196H825.461V197.27H826.53Z" fill="white"/>
<path d="M826.53 218.736V217.663H825.461V218.736H826.53Z" fill="white"/>
<path d="M826.53 240.202V239.129H825.461V240.202H826.53Z" fill="white"/>
<path d="M826.53 261.669V260.595H825.461V261.669H826.53Z" fill="white"/>
<path d="M826.53 283.135V282.062H825.461V283.135H826.53Z" fill="white"/>
<path d="M826.53 304.601V303.528H825.461V304.601H826.53Z" fill="white"/>
<path d="M826.53 326.067V324.994H825.461V326.067H826.53Z" fill="white"/>
<path d="M826.53 347.534V346.46H825.461V347.534H826.53Z" fill="white"/>
<path d="M826.53 369V367.927H825.461V369H826.53Z" fill="white"/>
<path d="M805.145 25.5396V24.4663H804.075V25.5396H805.145Z" fill="white"/>
<path d="M805.145 47.0059V45.9325H804.075V47.0059H805.145Z" fill="white"/>
<path d="M805.145 175.803V174.73H804.075V175.803H805.145Z" fill="white"/>
<path d="M805.145 197.27V196.196H804.075V197.27H805.145Z" fill="white"/>
<path d="M805.145 304.601V303.528H804.075V304.601H805.145Z" fill="white"/>
<path d="M805.145 326.067V324.994H804.075V326.067H805.145Z" fill="white"/>
<path d="M805.145 347.534V346.46H804.075V347.534H805.145Z" fill="white"/>
<path d="M805.145 369V367.927H804.075V369H805.145Z" fill="white"/>
<path d="M783.76 4.07331V3H782.69V4.07331H783.76Z" fill="white"/>
<path d="M783.76 25.5396V24.4663H782.69V25.5396H783.76Z" fill="white"/>
<path d="M783.76 47.0059V45.9325H782.69V47.0059H783.76Z" fill="white"/>
<path d="M783.76 68.4721V67.3988H782.69V68.4721H783.76Z" fill="white"/>
<path d="M783.76 89.9384V88.8651H782.69V89.9384H783.76Z" fill="white"/>
<path d="M783.76 111.405V110.331H782.69V111.405H783.76Z" fill="white"/>
<path d="M783.76 132.871V131.798H782.69V132.871H783.76Z" fill="white"/>
<path d="M783.76 154.337V153.264H782.69V154.337H783.76Z" fill="white"/>
<path d="M783.76 175.803V174.73H782.69V175.803H783.76Z" fill="white"/>
<path d="M783.76 197.27V196.196H782.69V197.27H783.76Z" fill="white"/>
<path d="M783.76 218.736V217.663H782.69V218.736H783.76Z" fill="white"/>
<path d="M783.76 304.601V303.528H782.69V304.601H783.76Z" fill="white"/>
<path d="M783.76 326.067V324.994H782.69V326.067H783.76Z" fill="white"/>
<path d="M783.76 347.534V346.46H782.69V347.534H783.76Z" fill="white"/>
<path d="M783.76 369V367.927H782.69V369H783.76Z" fill="white"/>
<path d="M762.374 4.07331V3H761.305V4.07331H762.374Z" fill="white"/>
<path d="M762.374 25.5396V24.4663H761.305V25.5396H762.374Z" fill="white"/>
<path d="M762.374 47.0059V45.9325H761.305V47.0059H762.374Z" fill="white"/>
<path d="M762.374 68.4721V67.3988H761.305V68.4721H762.374Z" fill="white"/>
<path d="M762.374 89.9384V88.8651H761.305V89.9384H762.374Z" fill="white"/>
<path d="M762.374 111.405V110.331H761.305V111.405H762.374Z" fill="white"/>
<path d="M762.374 132.871V131.798H761.305V132.871H762.374Z" fill="white"/>
<path d="M762.374 154.337V153.264H761.305V154.337H762.374Z" fill="white"/>
<path d="M762.374 175.803V174.73H761.305V175.803H762.374Z" fill="white"/>
<path d="M762.374 197.27V196.196H761.305V197.27H762.374Z" fill="white"/>
<path d="M762.374 218.736V217.663H761.305V218.736H762.374Z" fill="white"/>
<path d="M762.374 347.534V346.46H761.305V347.534H762.374Z" fill="white"/>
<path d="M762.374 369V367.927H761.305V369H762.374Z" fill="white"/>
<path d="M740.989 4.07331V3H739.92V4.07331H740.989Z" fill="white"/>
<path d="M740.989 25.5396V24.4663H739.92V25.5396H740.989Z" fill="white"/>
<path d="M740.989 47.0059V45.9325H739.92V47.0059H740.989Z" fill="white"/>
<path d="M740.989 68.4721V67.3988H739.92V68.4721H740.989Z" fill="white"/>
<path d="M740.989 89.9384V88.8651H739.92V89.9384H740.989Z" fill="white"/>
<path d="M740.989 111.405V110.331H739.92V111.405H740.989Z" fill="white"/>
<path d="M740.989 132.871V131.798H739.92V132.871H740.989Z" fill="white"/>
<path d="M740.989 154.337V153.264H739.92V154.337H740.989Z" fill="white"/>
<path d="M740.989 175.803V174.73H739.92V175.803H740.989Z" fill="white"/>
<path d="M740.989 197.27V196.196H739.92V197.27H740.989Z" fill="white"/>
<path d="M740.989 218.736V217.663H739.92V218.736H740.989Z" fill="white"/>
<path d="M740.989 347.534V346.46H739.92V347.534H740.989Z" fill="white"/>
<path d="M740.989 369V367.927H739.92V369H740.989Z" fill="white"/>
<path d="M719.604 4.07331V3H718.535V4.07331H719.604Z" fill="white"/>
<path d="M719.604 25.5396V24.4663H718.535V25.5396H719.604Z" fill="white"/>
<path d="M719.604 47.0059V45.9325H718.535V47.0059H719.604Z" fill="white"/>
<path d="M719.604 68.4721V67.3988H718.535V68.4721H719.604Z" fill="white"/>
<path d="M719.604 89.9384V88.8651H718.535V89.9384H719.604Z" fill="white"/>
<path d="M719.604 111.405V110.331H718.535V111.405H719.604Z" fill="white"/>
<path d="M719.604 132.871V131.798H718.535V132.871H719.604Z" fill="white"/>
<path d="M719.604 154.337V153.264H718.535V154.337H719.604Z" fill="white"/>
<path d="M719.604 175.803V174.73H718.535V175.803H719.604Z" fill="white"/>
<path d="M719.604 197.27V196.196H718.535V197.27H719.604Z" fill="white"/>
<path d="M719.604 218.736V217.663H718.535V218.736H719.604Z" fill="white"/>
<path d="M719.604 240.202V239.129H718.535V240.202H719.604Z" fill="white"/>
<path d="M719.604 261.669V260.595H718.535V261.669H719.604Z" fill="white"/>
<path d="M719.604 283.135V282.062H718.535V283.135H719.604Z" fill="white"/>
<path d="M719.604 304.601V303.528H718.535V304.601H719.604Z" fill="white"/>
<path d="M719.604 326.067V324.994H718.535V326.067H719.604Z" fill="white"/>
<path d="M719.604 347.534V346.46H718.535V347.534H719.604Z" fill="white"/>
<path d="M719.604 369V367.927H718.535V369H719.604Z" fill="white"/>
<path d="M697.15 4.07331V3H696.081V4.07331H697.15Z" fill="white"/>
<path d="M697.15 25.5396V24.4663H696.081V25.5396H697.15Z" fill="white"/>
<path d="M697.15 47.0059V45.9325H696.081V47.0059H697.15Z" fill="white"/>
<path d="M697.15 68.4721V67.3988H696.081V68.4721H697.15Z" fill="white"/>
<path d="M697.15 89.9384V88.8651H696.081V89.9384H697.15Z" fill="white"/>
<path d="M697.15 111.405V110.331H696.081V111.405H697.15Z" fill="white"/>
<path d="M697.15 132.871V131.798H696.081V132.871H697.15Z" fill="white"/>
<path d="M697.15 154.337V153.264H696.081V154.337H697.15Z" fill="white"/>
<path d="M697.15 175.803V174.73H696.081V175.803H697.15Z" fill="white"/>
<path d="M697.15 197.27V196.196H696.081V197.27H697.15Z" fill="white"/>
<path d="M697.15 218.736V217.663H696.081V218.736H697.15Z" fill="white"/>
<path d="M697.15 240.202V239.129H696.081V240.202H697.15Z" fill="white"/>
<path d="M697.15 261.669V260.595H696.081V261.669H697.15Z" fill="white"/>
<path d="M697.15 283.135V282.062H696.081V283.135H697.15Z" fill="white"/>
<path d="M697.15 304.601V303.528H696.081V304.601H697.15Z" fill="white"/>
<path d="M697.15 326.067V324.994H696.081V326.067H697.15Z" fill="white"/>
<path d="M697.15 347.534V346.46H696.081V347.534H697.15Z" fill="white"/>
<path d="M697.15 369V367.927H696.081V369H697.15Z" fill="white"/>
<path d="M675.765 4.07331V3H674.696V4.07331H675.765Z" fill="white"/>
<path d="M675.765 25.5396V24.4663H674.696V25.5396H675.765Z" fill="white"/>
<path d="M675.765 47.0059V45.9325H674.696V47.0059H675.765Z" fill="white"/>
<path d="M675.765 68.4721V67.3988H674.696V68.4721H675.765Z" fill="white"/>
<path d="M675.765 89.9384V88.8651H674.696V89.9384H675.765Z" fill="white"/>
<path d="M675.765 240.202V239.129H674.696V240.202H675.765Z" fill="white"/>
<path d="M675.765 261.669V260.595H674.696V261.669H675.765Z" fill="white"/>
<path d="M675.765 283.135V282.062H674.696V283.135H675.765Z" fill="white"/>
<path d="M675.765 304.601V303.528H674.696V304.601H675.765Z" fill="white"/>
<path d="M675.765 326.067V324.994H674.696V326.067H675.765Z" fill="white"/>
<path d="M675.765 347.534V346.46H674.696V347.534H675.765Z" fill="white"/>
<path d="M675.765 369V367.927H674.696V369H675.765Z" fill="white"/>
<path d="M654.38 4.07331V3H653.311V4.07331H654.38Z" fill="white"/>
<path d="M654.38 25.5396V24.4663H653.311V25.5396H654.38Z" fill="white"/>
<path d="M654.38 47.0059V45.9325H653.311V47.0059H654.38Z" fill="white"/>
<path d="M654.38 68.4721V67.3988H653.311V68.4721H654.38Z" fill="white"/>
<path d="M654.38 89.9384V88.8651H653.311V89.9384H654.38Z" fill="white"/>
<path d="M654.38 240.202V239.129H653.311V240.202H654.38Z" fill="white"/>
<path d="M654.38 261.669V260.595H653.311V261.669H654.38Z" fill="white"/>
<path d="M654.38 283.135V282.062H653.311V283.135H654.38Z" fill="white"/>
<path d="M654.38 304.601V303.528H653.311V304.601H654.38Z" fill="white"/>
<path d="M654.38 326.067V324.994H653.311V326.067H654.38Z" fill="white"/>
<path d="M654.38 347.534V346.46H653.311V347.534H654.38Z" fill="white"/>
<path d="M654.38 369V367.927H653.311V369H654.38Z" fill="white"/>
<path d="M632.995 4.07331V3H631.925V4.07331H632.995Z" fill="white"/>
<path d="M632.995 25.5396V24.4663H631.925V25.5396H632.995Z" fill="white"/>
<path d="M632.995 154.337V153.264H631.925V154.337H632.995Z" fill="white"/>
<path d="M632.995 175.803V174.73H631.925V175.803H632.995Z" fill="white"/>
<path d="M632.995 197.27V196.196H631.925V197.27H632.995Z" fill="white"/>
<path d="M632.995 218.736V217.663H631.925V218.736H632.995Z" fill="white"/>
<path d="M632.995 240.202V239.129H631.925V240.202H632.995Z" fill="white"/>
<path d="M632.995 261.669V260.595H631.925V261.669H632.995Z" fill="white"/>
<path d="M632.995 283.135V282.062H631.925V283.135H632.995Z" fill="white"/>
<path d="M632.995 347.534V346.46H631.925V347.534H632.995Z" fill="white"/>
<path d="M632.995 369V367.927H631.925V369H632.995Z" fill="white"/>
<path d="M611.61 4.07331V3H610.54V4.07331H611.61Z" fill="white"/>
<path d="M611.61 25.5396V24.4663H610.54V25.5396H611.61Z" fill="white"/>
<path d="M611.61 132.871V131.798H610.54V132.871H611.61Z" fill="white"/>
<path d="M611.61 154.337V153.264H610.54V154.337H611.61Z" fill="white"/>
<path d="M611.61 175.803V174.73H610.54V175.803H611.61Z" fill="white"/>
<path d="M611.61 197.27V196.196H610.54V197.27H611.61Z" fill="white"/>
<path d="M611.61 218.736V217.663H610.54V218.736H611.61Z" fill="white"/>
<path d="M611.61 240.202V239.129H610.54V240.202H611.61Z" fill="white"/>
<path d="M611.61 261.669V260.595H610.54V261.669H611.61Z" fill="white"/>
<path d="M611.61 283.135V282.062H610.54V283.135H611.61Z" fill="white"/>
<path d="M611.61 347.534V346.46H610.54V347.534H611.61Z" fill="white"/>
<path d="M611.61 369V367.927H610.54V369H611.61Z" fill="white"/>
<path d="M590.225 4.07331V3H589.155V4.07331L590.225 4.07331Z" fill="white"/>
<path d="M590.225 25.5396V24.4663H589.155V25.5396H590.225Z" fill="white"/>
<path d="M590.225 132.871V131.798H589.155V132.871H590.225Z" fill="white"/>
<path d="M590.225 154.337V153.264H589.155V154.337H590.225Z" fill="white"/>
<path d="M590.225 175.803V174.73H589.155V175.803H590.225Z" fill="white"/>
<path d="M590.225 197.27V196.196H589.155V197.27H590.225Z" fill="white"/>
<path d="M590.225 218.736V217.663H589.155V218.736H590.225Z" fill="white"/>
<path d="M590.225 240.202V239.129H589.155V240.202H590.225Z" fill="white"/>
<path d="M590.225 261.669V260.595H589.155V261.669H590.225Z" fill="white"/>
<path d="M590.225 283.135V282.062H589.155V283.135H590.225Z" fill="white"/>
<path d="M590.225 347.534V346.46H589.155V347.534H590.225Z" fill="white"/>
<path d="M590.225 369V367.927H589.155V369H590.225Z" fill="white"/>
<path d="M568.84 4.07331V3H567.77V4.07331H568.84Z" fill="white"/>
<path d="M568.84 25.5396V24.4663H567.77V25.5396H568.84Z" fill="white"/>
<path d="M568.84 132.871V131.798H567.77V132.871H568.84Z" fill="white"/>
<path d="M568.84 154.337V153.264H567.77V154.337H568.84Z" fill="white"/>
<path d="M568.84 175.803V174.73H567.77V175.803H568.84Z" fill="white"/>
<path d="M568.84 197.27V196.196H567.77V197.27H568.84Z" fill="white"/>
<path d="M568.84 218.736V217.663H567.77V218.736H568.84Z" fill="white"/>
<path d="M568.84 240.202V239.129H567.77V240.202H568.84Z" fill="white"/>
<path d="M568.84 261.669V260.595H567.77V261.669H568.84Z" fill="white"/>
<path d="M568.84 283.135V282.062H567.77V283.135H568.84Z" fill="white"/>
<path d="M568.84 347.534V346.46H567.77V347.534H568.84Z" fill="white"/>
<path d="M568.84 369V367.927H567.77V369H568.84Z" fill="white"/>
<path d="M547.454 4.07331V3H546.385V4.07331H547.454Z" fill="white"/>
<path d="M547.454 25.5396V24.4663H546.385V25.5396H547.454Z" fill="white"/>
<path d="M547.454 132.871V131.798H546.385V132.871H547.454Z" fill="white"/>
<path d="M547.454 154.337V153.264H546.385V154.337H547.454Z" fill="white"/>
<path d="M547.454 175.803V174.73H546.385V175.803H547.454Z" fill="white"/>
<path d="M547.454 197.27V196.196H546.385V197.27H547.454Z" fill="white"/>
<path d="M547.454 218.736V217.663H546.385V218.736H547.454Z" fill="white"/>
<path d="M547.454 240.202V239.129H546.385V240.202H547.454Z" fill="white"/>
<path d="M547.454 261.669V260.595H546.385V261.669H547.454Z" fill="white"/>
<path d="M547.454 283.135V282.062H546.385V283.135H547.454Z" fill="white"/>
<path d="M547.454 347.534V346.46H546.385V347.534H547.454Z" fill="white"/>
<path d="M547.454 369V367.927H546.385V369H547.454Z" fill="white"/>
<path d="M526.069 4.07331V3H525V4.07331H526.069Z" fill="white"/>
<path d="M526.069 25.5396V24.4663H525V25.5396H526.069Z" fill="white"/>
<path d="M526.069 47.0059V45.9325H525V47.0059H526.069Z" fill="white"/>
<path d="M526.069 68.4721V67.3988H525V68.4721H526.069Z" fill="white"/>
<path d="M526.069 89.9384V88.8651H525V89.9384H526.069Z" fill="white"/>
<path d="M526.069 111.405V110.331H525V111.405H526.069Z" fill="white"/>
<path d="M526.069 132.871V131.798H525V132.871H526.069Z" fill="white"/>
<path d="M526.069 154.337V153.264H525V154.337H526.069Z" fill="white"/>
<path d="M526.069 175.803V174.73H525V175.803H526.069Z" fill="white"/>
<path d="M526.069 197.27V196.196H525V197.27H526.069Z" fill="white"/>
<path d="M526.069 218.736V217.663H525V218.736H526.069Z" fill="white"/>
<path d="M526.069 240.202V239.129H525V240.202H526.069Z" fill="white"/>
<path d="M526.069 261.669V260.595H525V261.669H526.069Z" fill="white"/>
<path d="M526.069 283.135V282.062H525V283.135H526.069Z" fill="white"/>
<path d="M526.069 347.534V346.46H525V347.534H526.069Z" fill="white"/>
<path d="M526.069 369V367.927H525V369H526.069Z" fill="white"/>
</g>
</g>
<defs>
<clipPath id="clip0_156_86">
<rect width="1286" height="80" fill="white" transform="matrix(1 0 0 -1 -5 80)"/>
</clipPath>
</defs>
</svg>
