<svg width="1280" height="1124" viewBox="0 0 1280 1124" fill="none" xmlns="http://www.w3.org/2000/svg">
<g clip-path="url(#clip0_156_104)">
<rect width="1286" height="1124" transform="translate(-5)" fill="#0F1D4E"/>
<g opacity="0.3">
<path d="M-5 972.894V974H-3.7725V972.894H-5Z" fill="white"/>
<path d="M-5 950.783V951.889H-3.7725V950.783H-5Z" fill="white"/>
<path d="M-5 928.672V929.777H-3.7725V928.672H-5Z" fill="white"/>
<path d="M-5 906.56V907.666H-3.7725V906.56H-5Z" fill="white"/>
<path d="M-5 884.449V885.554H-3.7725V884.449H-5Z" fill="white"/>
<path d="M-5 862.337V863.443H-3.7725V862.337H-5Z" fill="white"/>
<path d="M-5 840.226V841.331H-3.7725V840.226H-5Z" fill="white"/>
<path d="M-5 818.114V819.22H-3.7725V818.114H-5Z" fill="white"/>
<path d="M-5 796.003V797.109H-3.7725V796.003H-5Z" fill="white"/>
<path d="M-5 773.891V774.997H-3.7725V773.891H-5Z" fill="white"/>
<path d="M-5 751.78V752.886H-3.7725V751.78H-5Z" fill="white"/>
<path d="M-5 729.669V730.774H-3.7725V729.669H-5Z" fill="white"/>
<path d="M-5 707.557V708.663H-3.7725V707.557H-5Z" fill="white"/>
<path d="M-5 685.446V686.551H-3.7725V685.446H-5Z" fill="white"/>
<path d="M-5 663.334V664.44H-3.7725V663.334H-5Z" fill="white"/>
<path d="M19.5501 972.894V974H20.7776V972.894H19.5501Z" fill="white"/>
<path d="M19.5501 950.783V951.889H20.7776V950.783H19.5501Z" fill="white"/>
<path d="M19.5501 928.672V929.777H20.7776V928.672H19.5501Z" fill="white"/>
<path d="M19.5501 906.56V907.666H20.7776V906.56H19.5501Z" fill="white"/>
<path d="M19.5501 884.449V885.554H20.7776V884.449H19.5501Z" fill="white"/>
<path d="M19.5501 862.337V863.443H20.7776V862.337H19.5501Z" fill="white"/>
<path d="M19.5501 840.226V841.331H20.7776V840.226H19.5501Z" fill="white"/>
<path d="M19.5501 818.114V819.22H20.7776V818.114H19.5501Z" fill="white"/>
<path d="M19.5501 796.003V797.109H20.7776V796.003H19.5501Z" fill="white"/>
<path d="M19.5501 773.891V774.997H20.7776V773.891H19.5501Z" fill="white"/>
<path d="M19.5501 751.78V752.886H20.7776V751.78H19.5501Z" fill="white"/>
<path d="M19.5501 729.669V730.774H20.7776V729.669H19.5501Z" fill="white"/>
<path d="M19.5501 707.557V708.663H20.7776V707.557H19.5501Z" fill="white"/>
<path d="M19.5501 685.446V686.551H20.7776V685.446H19.5501Z" fill="white"/>
<path d="M19.5501 663.334V664.44H20.7776V663.334H19.5501Z" fill="white"/>
<path d="M44.1002 972.894V974H45.3277V972.894H44.1002Z" fill="white"/>
<path d="M44.1002 796.003V797.109H45.3277V796.003H44.1002Z" fill="white"/>
<path d="M44.1002 773.891V774.997H45.3277V773.891H44.1002Z" fill="white"/>
<path d="M44.1002 751.78V752.886H45.3277V751.78H44.1002Z" fill="white"/>
<path d="M44.1002 729.669V730.774H45.3277V729.669H44.1002Z" fill="white"/>
<path d="M44.1002 707.557V708.663H45.3277V707.557H44.1002Z" fill="white"/>
<path d="M44.1002 685.446V686.551H45.3277V685.446H44.1002Z" fill="white"/>
<path d="M44.1002 663.334V664.44H45.3277V663.334H44.1002Z" fill="white"/>
<path d="M68.6502 972.894V974H69.8777V972.894H68.6502Z" fill="white"/>
<path d="M68.6502 751.78V752.886H69.8777V751.78H68.6502Z" fill="white"/>
<path d="M68.6502 729.669V730.774H69.8777V729.669H68.6502Z" fill="white"/>
<path d="M68.6502 707.557V708.663H69.8777V707.557H68.6502Z" fill="white"/>
<path d="M68.6502 685.446V686.551H69.8777V685.446H68.6502Z" fill="white"/>
<path d="M68.6502 663.334V664.44H69.8777V663.334H68.6502Z" fill="white"/>
<path d="M68.6502 641.223V642.328H69.8777V641.223H68.6502Z" fill="white"/>
<path d="M68.6502 619.111V620.217H69.8777V619.111H68.6502Z" fill="white"/>
<path d="M68.6502 597V598.106H69.8777V597H68.6502Z" fill="white"/>
<path d="M93.2003 972.894V974H94.4278V972.894H93.2003Z" fill="white"/>
<path d="M93.2003 751.78V752.886H94.4278V751.78H93.2003Z" fill="white"/>
<path d="M93.2003 729.669V730.774H94.4278V729.669H93.2003Z" fill="white"/>
<path d="M93.2003 707.557V708.663H94.4278V707.557H93.2003Z" fill="white"/>
<path d="M93.2003 685.446V686.551H94.4278V685.446H93.2003Z" fill="white"/>
<path d="M93.2003 663.334V664.44H94.4278V663.334H93.2003Z" fill="white"/>
<path d="M93.2003 641.223V642.328H94.4278V641.223H93.2003Z" fill="white"/>
<path d="M93.2003 619.111V620.217H94.4278V619.111H93.2003Z" fill="white"/>
<path d="M93.2003 597V598.106H94.4278V597H93.2003Z" fill="white"/>
<path d="M117.75 972.894V974H118.978V972.894H117.75Z" fill="white"/>
<path d="M117.75 950.783V951.889H118.978V950.783H117.75Z" fill="white"/>
<path d="M117.75 928.672V929.777H118.978V928.672H117.75Z" fill="white"/>
<path d="M117.75 906.56V907.666H118.978V906.56H117.75Z" fill="white"/>
<path d="M117.75 884.449V885.554H118.978V884.449H117.75Z" fill="white"/>
<path d="M117.75 862.337V863.443H118.978V862.337H117.75Z" fill="white"/>
<path d="M117.75 840.226V841.331H118.978V840.226H117.75Z" fill="white"/>
<path d="M117.75 751.78V752.886H118.978V751.78H117.75Z" fill="white"/>
<path d="M117.75 729.669V730.774H118.978V729.669H117.75Z" fill="white"/>
<path d="M117.75 707.557V708.663H118.978V707.557H117.75Z" fill="white"/>
<path d="M117.75 685.446V686.551H118.978V685.446H117.75Z" fill="white"/>
<path d="M117.75 663.334V664.44H118.978V663.334H117.75Z" fill="white"/>
<path d="M117.75 641.223V642.328H118.978V641.223H117.75Z" fill="white"/>
<path d="M117.75 619.111V620.217H118.978V619.111H117.75Z" fill="white"/>
<path d="M117.75 597V598.106H118.978V597H117.75Z" fill="white"/>
<path d="M142.3 972.894V974H143.528V972.894H142.3Z" fill="white"/>
<path d="M142.3 950.783V951.889H143.528V950.783H142.3Z" fill="white"/>
<path d="M142.3 928.672V929.777H143.528V928.672H142.3Z" fill="white"/>
<path d="M142.3 906.56V907.666H143.528V906.56H142.3Z" fill="white"/>
<path d="M142.3 884.449V885.554H143.528V884.449H142.3Z" fill="white"/>
<path d="M142.3 862.337V863.443H143.528V862.337H142.3Z" fill="white"/>
<path d="M142.3 840.226V841.331H143.528V840.226H142.3Z" fill="white"/>
<path d="M142.3 818.114V819.22H143.528V818.114H142.3Z" fill="white"/>
<path d="M142.3 796.003V797.109H143.528V796.003H142.3Z" fill="white"/>
<path d="M142.3 773.891V774.997H143.528V773.891H142.3Z" fill="white"/>
<path d="M142.3 751.78V752.886H143.528V751.78H142.3Z" fill="white"/>
<path d="M142.3 729.669V730.774H143.528V729.669H142.3Z" fill="white"/>
<path d="M142.3 707.557V708.663H143.528V707.557H142.3Z" fill="white"/>
<path d="M142.3 685.446V686.551H143.528V685.446H142.3Z" fill="white"/>
<path d="M142.3 663.334V664.44H143.528V663.334H142.3Z" fill="white"/>
<path d="M142.3 641.223V642.328H143.528V641.223H142.3Z" fill="white"/>
<path d="M142.3 619.111V620.217H143.528V619.111H142.3Z" fill="white"/>
<path d="M142.3 597V598.106H143.528V597H142.3Z" fill="white"/>
<path d="M166.851 972.894V974H168.078V972.894H166.851Z" fill="white"/>
<path d="M166.851 950.783V951.889H168.078V950.783H166.851Z" fill="white"/>
<path d="M166.851 928.672V929.777H168.078V928.672H166.851Z" fill="white"/>
<path d="M166.851 906.56V907.666H168.078V906.56H166.851Z" fill="white"/>
<path d="M166.851 884.449V885.554H168.078V884.449H166.851Z" fill="white"/>
<path d="M166.851 862.337V863.443H168.078V862.337H166.851Z" fill="white"/>
<path d="M166.851 840.226V841.331H168.078V840.226H166.851Z" fill="white"/>
<path d="M166.851 818.114V819.22H168.078V818.114H166.851Z" fill="white"/>
<path d="M166.851 796.003V797.109H168.078V796.003H166.851Z" fill="white"/>
<path d="M166.851 773.891V774.997H168.078V773.891H166.851Z" fill="white"/>
<path d="M166.851 751.78V752.886H168.078V751.78H166.851Z" fill="white"/>
<path d="M166.851 729.669V730.774H168.078V729.669H166.851Z" fill="white"/>
<path d="M166.851 707.557V708.663H168.078V707.557H166.851Z" fill="white"/>
<path d="M166.851 685.446V686.551H168.078V685.446H166.851Z" fill="white"/>
<path d="M166.851 663.334V664.44H168.078V663.334H166.851Z" fill="white"/>
<path d="M166.851 641.223V642.328H168.078V641.223H166.851Z" fill="white"/>
<path d="M166.851 619.111V620.217H168.078V619.111H166.851Z" fill="white"/>
<path d="M166.851 597V598.106H168.078V597H166.851Z" fill="white"/>
<path d="M191.401 972.894V974H192.628V972.894H191.401Z" fill="white"/>
<path d="M191.401 950.783V951.889H192.628V950.783H191.401Z" fill="white"/>
<path d="M191.401 928.672V929.777H192.628V928.672H191.401Z" fill="white"/>
<path d="M191.401 906.56V907.666H192.628V906.56H191.401Z" fill="white"/>
<path d="M191.401 884.449V885.554H192.628V884.449H191.401Z" fill="white"/>
<path d="M191.401 862.337V863.443H192.628V862.337H191.401Z" fill="white"/>
<path d="M191.401 840.226V841.331H192.628V840.226H191.401Z" fill="white"/>
<path d="M191.401 818.114V819.22H192.628V818.114H191.401Z" fill="white"/>
<path d="M191.401 796.003V797.109H192.628V796.003H191.401Z" fill="white"/>
<path d="M191.401 773.891V774.997H192.628V773.891H191.401Z" fill="white"/>
<path d="M191.401 751.78V752.886H192.628V751.78H191.401Z" fill="white"/>
<path d="M191.401 729.669V730.774H192.628V729.669H191.401Z" fill="white"/>
<path d="M191.401 707.557V708.663H192.628V707.557H191.401Z" fill="white"/>
<path d="M191.401 685.446V686.551H192.628V685.446H191.401Z" fill="white"/>
<path d="M191.401 663.334V664.44H192.628V663.334H191.401Z" fill="white"/>
<path d="M191.401 641.223V642.328H192.628V641.223H191.401Z" fill="white"/>
<path d="M191.401 619.111V620.217H192.628V619.111H191.401Z" fill="white"/>
<path d="M191.401 597V598.106H192.628V597H191.401Z" fill="white"/>
<path d="M217.178 972.894V974H218.406V972.894H217.178Z" fill="white"/>
<path d="M217.178 950.783V951.889H218.406V950.783H217.178Z" fill="white"/>
<path d="M217.178 928.672V929.777H218.406V928.672H217.178Z" fill="white"/>
<path d="M217.178 906.56V907.666H218.406V906.56H217.178Z" fill="white"/>
<path d="M217.178 796.003V797.109H218.406V796.003H217.178Z" fill="white"/>
<path d="M217.178 773.891V774.997H218.406V773.891H217.178Z" fill="white"/>
<path d="M217.178 751.78V752.886H218.406V751.78H217.178Z" fill="white"/>
<path d="M217.178 729.669V730.774H218.406V729.669H217.178Z" fill="white"/>
<path d="M217.178 707.557V708.663H218.406V707.557H217.178Z" fill="white"/>
<path d="M217.178 685.446V686.551H218.406V685.446H217.178Z" fill="white"/>
<path d="M241.728 972.894V974H242.956V972.894H241.728Z" fill="white"/>
<path d="M241.728 950.783V951.889H242.956V950.783H241.728Z" fill="white"/>
<path d="M241.728 928.672V929.777H242.956V928.672H241.728Z" fill="white"/>
<path d="M241.728 906.56V907.666H242.956V906.56H241.728Z" fill="white"/>
<path d="M241.728 796.003V797.109H242.956V796.003H241.728Z" fill="white"/>
<path d="M241.728 773.891V774.997H242.956V773.891H241.728Z" fill="white"/>
<path d="M241.728 751.78V752.886H242.956V751.78H241.728Z" fill="white"/>
<path d="M241.728 729.669V730.774H242.956V729.669H241.728Z" fill="white"/>
<path d="M241.728 707.557V708.663H242.956V707.557H241.728Z" fill="white"/>
<path d="M241.728 685.446V686.551H242.956V685.446H241.728Z" fill="white"/>
<path d="M266.278 972.894V974H267.506V972.894H266.278Z" fill="white"/>
<path d="M266.278 950.783V951.889H267.506V950.783H266.278Z" fill="white"/>
<path d="M266.278 928.672V929.777H267.506V928.672H266.278Z" fill="white"/>
<path d="M266.278 906.56V907.666H267.506V906.56H266.278Z" fill="white"/>
<path d="M266.278 796.003V797.109H267.506V796.003H266.278Z" fill="white"/>
<path d="M266.278 773.891V774.997H267.506V773.891H266.278Z" fill="white"/>
<path d="M266.278 751.78V752.886H267.506V751.78H266.278Z" fill="white"/>
<path d="M266.278 729.669V730.774H267.506V729.669H266.278Z" fill="white"/>
<path d="M266.278 707.557V708.663H267.506V707.557H266.278Z" fill="white"/>
<path d="M266.278 685.446V686.551H267.506V685.446H266.278Z" fill="white"/>
<path d="M290.828 972.894V974H292.056V972.894H290.828Z" fill="white"/>
<path d="M290.828 950.783V951.889H292.056V950.783H290.828Z" fill="white"/>
<path d="M290.828 928.672V929.777H292.056V928.672H290.828Z" fill="white"/>
<path d="M290.828 906.56V907.666H292.056V906.56H290.828Z" fill="white"/>
<path d="M290.828 796.003V797.109H292.056V796.003H290.828Z" fill="white"/>
<path d="M290.828 773.891V774.997H292.056V773.891H290.828Z" fill="white"/>
<path d="M290.828 751.78V752.886H292.056V751.78H290.828Z" fill="white"/>
<path d="M290.828 729.669V730.774H292.056V729.669H290.828Z" fill="white"/>
<path d="M290.828 707.557V708.663H292.056V707.557H290.828Z" fill="white"/>
<path d="M290.828 685.446V686.551H292.056V685.446H290.828Z" fill="white"/>
<path d="M315.379 972.894V974H316.606V972.894H315.379Z" fill="white"/>
<path d="M315.379 950.783V951.889H316.606V950.783H315.379Z" fill="white"/>
<path d="M315.379 928.672V929.777H316.606V928.672H315.379Z" fill="white"/>
<path d="M315.379 906.56V907.666H316.606V906.56H315.379Z" fill="white"/>
<path d="M315.379 796.003V797.109H316.606V796.003H315.379Z" fill="white"/>
<path d="M315.379 773.891V774.997H316.606V773.891H315.379Z" fill="white"/>
<path d="M315.379 751.78V752.886H316.606V751.78H315.379Z" fill="white"/>
<path d="M315.379 729.669V730.774H316.606V729.669H315.379Z" fill="white"/>
<path d="M315.379 707.557V708.663H316.606V707.557H315.379Z" fill="white"/>
<path d="M315.379 685.446V686.551H316.606V685.446H315.379Z" fill="white"/>
<path d="M339.929 950.783V951.889H341.156V950.783H339.929Z" fill="white"/>
<path d="M339.929 928.672V929.777H341.156V928.672H339.929Z" fill="white"/>
<path d="M339.929 906.56V907.666H341.156V906.56H339.929Z" fill="white"/>
<path d="M339.929 796.003V797.109H341.156V796.003H339.929Z" fill="white"/>
<path d="M339.929 773.891V774.997H341.156V773.891H339.929Z" fill="white"/>
<path d="M339.929 751.78V752.886H341.156V751.78H339.929Z" fill="white"/>
<path d="M339.929 729.669V730.774H341.156V729.669H339.929Z" fill="white"/>
<path d="M339.929 707.557V708.663H341.156V707.557H339.929Z" fill="white"/>
<path d="M339.929 685.446V686.551H341.156V685.446H339.929Z" fill="white"/>
<path d="M364.479 950.783V951.889H365.706V950.783H364.479Z" fill="white"/>
<path d="M364.479 928.672V929.777H365.706V928.672H364.479Z" fill="white"/>
<path d="M364.479 906.56V907.666H365.706V906.56H364.479Z" fill="white"/>
<path d="M364.479 796.003V797.109H365.706V796.003H364.479Z" fill="white"/>
<path d="M364.479 773.891V774.997H365.706V773.891H364.479Z" fill="white"/>
<path d="M364.479 751.78V752.886H365.706V751.78H364.479Z" fill="white"/>
<path d="M364.479 729.669V730.774H365.706V729.669H364.479Z" fill="white"/>
<path d="M364.479 707.557V708.663H365.706V707.557H364.479Z" fill="white"/>
<path d="M364.479 685.446V686.551H365.706V685.446H364.479Z" fill="white"/>
<path d="M389.029 950.783V951.889H390.256V950.783H389.029Z" fill="white"/>
<path d="M389.029 928.672V929.777H390.256V928.672H389.029Z" fill="white"/>
<path d="M389.029 906.56V907.666H390.256V906.56H389.029Z" fill="white"/>
<path d="M389.029 729.669V730.774H390.256V729.669H389.029Z" fill="white"/>
<path d="M389.029 707.557V708.663H390.256V707.557H389.029Z" fill="white"/>
<path d="M389.029 685.446V686.551H390.256V685.446H389.029Z" fill="white"/>
<path d="M389.029 663.334V664.44H390.256V663.334H389.029Z" fill="white"/>
<path d="M389.029 641.223V642.328H390.256V641.223H389.029Z" fill="white"/>
<path d="M389.029 619.111V620.217H390.256V619.111H389.029Z" fill="white"/>
<path d="M389.029 597V598.106H390.256V597H389.029Z" fill="white"/>
<path d="M413.579 950.783V951.889H414.806V950.783H413.579Z" fill="white"/>
<path d="M413.579 928.672V929.777H414.806V928.672H413.579Z" fill="white"/>
<path d="M413.579 906.56V907.666H414.806V906.56H413.579Z" fill="white"/>
<path d="M413.579 884.449V885.554H414.806V884.449H413.579Z" fill="white"/>
<path d="M413.579 862.337V863.443H414.806V862.337H413.579Z" fill="white"/>
<path d="M413.579 840.226V841.331H414.806V840.226H413.579Z" fill="white"/>
<path d="M413.579 818.114V819.22H414.806V818.114H413.579Z" fill="white"/>
<path d="M413.579 796.003V797.109H414.806V796.003H413.579Z" fill="white"/>
<path d="M413.579 773.891V774.997H414.806V773.891H413.579Z" fill="white"/>
<path d="M413.579 751.78V752.886H414.806V751.78H413.579Z" fill="white"/>
<path d="M413.579 729.669V730.774H414.806V729.669H413.579Z" fill="white"/>
<path d="M413.579 707.557V708.663H414.806V707.557H413.579Z" fill="white"/>
<path d="M413.579 685.446V686.551H414.806V685.446H413.579Z" fill="white"/>
<path d="M413.579 663.334V664.44H414.806V663.334H413.579Z" fill="white"/>
<path d="M413.579 641.223V642.328H414.806V641.223H413.579Z" fill="white"/>
<path d="M413.579 619.111V620.217H414.806V619.111H413.579Z" fill="white"/>
<path d="M413.579 597V598.106H414.806V597H413.579Z" fill="white"/>
<path d="M436.194 950.783V951.889H437.421V950.783H436.194Z" fill="white"/>
<path d="M436.194 928.672V929.777H437.421V928.672H436.194Z" fill="white"/>
<path d="M436.194 906.56V907.666H437.421V906.56H436.194Z" fill="white"/>
<path d="M436.194 884.449V885.554H437.421V884.449H436.194Z" fill="white"/>
<path d="M436.194 862.337V863.443H437.421V862.337H436.194Z" fill="white"/>
<path d="M436.194 840.226V841.331H437.421V840.226H436.194Z" fill="white"/>
<path d="M436.194 818.114V819.22H437.421V818.114H436.194Z" fill="white"/>
<path d="M436.194 796.003V797.109H437.421V796.003H436.194Z" fill="white"/>
<path d="M436.194 773.891V774.997H437.421V773.891H436.194Z" fill="white"/>
<path d="M436.194 751.78V752.886H437.421V751.78H436.194Z" fill="white"/>
<path d="M436.194 729.669V730.774H437.421V729.669H436.194Z" fill="white"/>
<path d="M436.194 707.557V708.663H437.421V707.557H436.194Z" fill="white"/>
<path d="M436.194 685.446V686.551H437.421V685.446H436.194Z" fill="white"/>
<path d="M436.194 663.334V664.44H437.421V663.334H436.194Z" fill="white"/>
<path d="M460.744 950.783V951.889H461.971V950.783H460.744Z" fill="white"/>
<path d="M460.744 928.672V929.777H461.971V928.672H460.744Z" fill="white"/>
<path d="M460.744 906.56V907.666H461.971V906.56H460.744Z" fill="white"/>
<path d="M460.744 884.449V885.554H461.971V884.449H460.744Z" fill="white"/>
<path d="M460.744 862.337V863.443H461.971V862.337H460.744Z" fill="white"/>
<path d="M460.744 840.226V841.331H461.971V840.226H460.744Z" fill="white"/>
<path d="M460.744 818.114V819.22H461.971V818.114H460.744Z" fill="white"/>
<path d="M460.744 796.003V797.109H461.971V796.003H460.744Z" fill="white"/>
<path d="M460.744 773.891V774.997H461.971V773.891H460.744Z" fill="white"/>
<path d="M460.744 751.78V752.886H461.971V751.78H460.744Z" fill="white"/>
<path d="M460.744 729.669V730.774H461.971V729.669H460.744Z" fill="white"/>
<path d="M460.744 707.557V708.663H461.971V707.557H460.744Z" fill="white"/>
<path d="M460.744 685.446V686.551H461.971V685.446H460.744Z" fill="white"/>
<path d="M460.744 663.334V664.44H461.971V663.334H460.744Z" fill="white"/>
<path d="M485.294 950.783V951.889H486.521V950.783H485.294Z" fill="white"/>
<path d="M485.294 928.672V929.777H486.521V928.672H485.294Z" fill="white"/>
<path d="M485.294 906.56V907.666H486.521V906.56H485.294Z" fill="white"/>
<path d="M485.294 884.449V885.554H486.521V884.449H485.294Z" fill="white"/>
<path d="M485.294 862.337V863.443H486.521V862.337H485.294Z" fill="white"/>
<path d="M485.294 840.226V841.331H486.521V840.226H485.294Z" fill="white"/>
<path d="M485.294 818.114V819.22H486.521V818.114H485.294Z" fill="white"/>
<path d="M485.294 796.003V797.109H486.521V796.003H485.294Z" fill="white"/>
<path d="M485.294 773.891V774.997H486.521V773.891H485.294Z" fill="white"/>
<path d="M485.294 751.78V752.886H486.521V751.78H485.294Z" fill="white"/>
<path d="M485.294 729.669V730.774H486.521V729.669H485.294Z" fill="white"/>
<path d="M485.294 707.557V708.663H486.521V707.557H485.294Z" fill="white"/>
<path d="M485.294 685.446V686.551H486.521V685.446H485.294Z" fill="white"/>
<path d="M485.294 663.334V664.44H486.521V663.334H485.294Z" fill="white"/>
<path d="M509.844 950.783V951.889H511.071V950.783H509.844Z" fill="white"/>
<path d="M509.844 928.672V929.777H511.071V928.672H509.844Z" fill="white"/>
<path d="M509.844 796.003V797.109H511.071V796.003H509.844Z" fill="white"/>
<path d="M509.844 773.891V774.997H511.071V773.891H509.844Z" fill="white"/>
<path d="M509.844 751.78V752.886H511.071V751.78H509.844Z" fill="white"/>
<path d="M509.844 729.669V730.774H511.071V729.669H509.844Z" fill="white"/>
<path d="M509.844 707.557V708.663H511.071V707.557H509.844Z" fill="white"/>
<path d="M509.844 685.446V686.551H511.071V685.446H509.844Z" fill="white"/>
<path d="M509.844 663.334V664.44H511.071V663.334H509.844Z" fill="white"/>
<path d="M509.844 641.223V642.328H511.071V641.223H509.844Z" fill="white"/>
<path d="M509.844 619.111V620.217H511.071V619.111H509.844Z" fill="white"/>
<path d="M509.844 597V598.106H511.071V597H509.844Z" fill="white"/>
<path d="M534.394 950.783V951.889H535.621V950.783H534.394Z" fill="white"/>
<path d="M534.394 928.672V929.777H535.621V928.672H534.394Z" fill="white"/>
<path d="M534.394 796.003V797.109H535.621V796.003H534.394Z" fill="white"/>
<path d="M534.394 773.891V774.997H535.621V773.891H534.394Z" fill="white"/>
<path d="M534.394 663.334V664.44H535.621V663.334H534.394Z" fill="white"/>
<path d="M534.394 641.223V642.328H535.621V641.223H534.394Z" fill="white"/>
<path d="M534.394 619.111V620.217H535.621V619.111H534.394Z" fill="white"/>
<path d="M534.394 597V598.106H535.621V597H534.394Z" fill="white"/>
<path d="M558.944 972.894V974H560.171V972.894H558.944Z" fill="white"/>
<path d="M558.944 950.783V951.889H560.171V950.783H558.944Z" fill="white"/>
<path d="M558.944 928.672V929.777H560.171V928.672H558.944Z" fill="white"/>
<path d="M558.944 906.56V907.666H560.171V906.56H558.944Z" fill="white"/>
<path d="M558.944 884.449V885.554H560.171V884.449H558.944Z" fill="white"/>
<path d="M558.944 862.337V863.443H560.171V862.337H558.944Z" fill="white"/>
<path d="M558.944 840.226V841.331H560.171V840.226H558.944Z" fill="white"/>
<path d="M558.944 818.114V819.22H560.171V818.114H558.944Z" fill="white"/>
<path d="M558.944 796.003V797.109H560.171V796.003H558.944Z" fill="white"/>
<path d="M558.944 773.891V774.997H560.171V773.891H558.944Z" fill="white"/>
<path d="M558.944 751.78V752.886H560.171V751.78H558.944Z" fill="white"/>
<path d="M558.944 663.334V664.44H560.171V663.334H558.944Z" fill="white"/>
<path d="M558.944 641.223V642.328H560.171V641.223H558.944Z" fill="white"/>
<path d="M558.944 619.111V620.217H560.171V619.111H558.944Z" fill="white"/>
<path d="M558.944 597V598.106H560.171V597H558.944Z" fill="white"/>
<path d="M583.494 972.894V974H584.721V972.894H583.494Z" fill="white"/>
<path d="M583.494 950.783V951.889H584.721V950.783H583.494Z" fill="white"/>
<path d="M583.494 928.672V929.777H584.721V928.672H583.494Z" fill="white"/>
<path d="M583.494 906.56V907.666H584.721V906.56H583.494Z" fill="white"/>
<path d="M583.494 884.449V885.554H584.721V884.449H583.494Z" fill="white"/>
<path d="M583.494 862.337V863.443H584.721V862.337H583.494Z" fill="white"/>
<path d="M583.494 840.226V841.331H584.721V840.226H583.494Z" fill="white"/>
<path d="M583.494 818.114V819.22H584.721V818.114H583.494Z" fill="white"/>
<path d="M583.494 796.003V797.109H584.721V796.003H583.494Z" fill="white"/>
<path d="M583.494 773.891V774.997H584.721V773.891H583.494Z" fill="white"/>
<path d="M583.494 751.78V752.886H584.721V751.78H583.494Z" fill="white"/>
<path d="M583.494 619.111V620.217H584.721V619.111H583.494Z" fill="white"/>
<path d="M583.494 597V598.106H584.721V597H583.494Z" fill="white"/>
<path d="M608.044 972.894V974H609.272V972.894H608.044Z" fill="white"/>
<path d="M608.044 950.783V951.889H609.272V950.783H608.044Z" fill="white"/>
<path d="M608.044 928.672V929.777H609.272V928.672H608.044Z" fill="white"/>
<path d="M608.044 906.56V907.666H609.272V906.56H608.044Z" fill="white"/>
<path d="M608.044 884.449V885.554H609.272V884.449H608.044Z" fill="white"/>
<path d="M608.044 862.337V863.443H609.272V862.337H608.044Z" fill="white"/>
<path d="M608.044 840.226V841.331H609.272V840.226H608.044Z" fill="white"/>
<path d="M608.044 818.114V819.22H609.272V818.114H608.044Z" fill="white"/>
<path d="M608.044 796.003V797.109H609.272V796.003H608.044Z" fill="white"/>
<path d="M608.044 773.891V774.997H609.272V773.891H608.044Z" fill="white"/>
<path d="M608.044 751.78V752.886H609.272V751.78H608.044Z" fill="white"/>
<path d="M608.044 619.111V620.217H609.272V619.111H608.044Z" fill="white"/>
<path d="M608.044 597V598.106H609.272V597H608.044Z" fill="white"/>
<path d="M632.594 972.894V974H633.822V972.894H632.594Z" fill="white"/>
<path d="M632.594 950.783V951.889H633.822V950.783H632.594Z" fill="white"/>
<path d="M632.594 928.672V929.777H633.822V928.672H632.594Z" fill="white"/>
<path d="M632.594 906.56V907.666H633.822V906.56H632.594Z" fill="white"/>
<path d="M632.594 884.449V885.554H633.822V884.449H632.594Z" fill="white"/>
<path d="M632.594 862.337V863.443H633.822V862.337H632.594Z" fill="white"/>
<path d="M632.594 840.226V841.331H633.822V840.226H632.594Z" fill="white"/>
<path d="M632.594 818.114V819.22H633.822V818.114H632.594Z" fill="white"/>
<path d="M632.594 796.003V797.109H633.822V796.003H632.594Z" fill="white"/>
<path d="M632.594 773.891V774.997H633.822V773.891H632.594Z" fill="white"/>
<path d="M632.594 751.78V752.886H633.822V751.78H632.594Z" fill="white"/>
<path d="M632.594 729.669V730.774H633.822V729.669H632.594Z" fill="white"/>
<path d="M632.594 707.557V708.663H633.822V707.557H632.594Z" fill="white"/>
<path d="M632.594 685.446V686.551H633.822V685.446H632.594Z" fill="white"/>
<path d="M632.594 663.334V664.44H633.822V663.334H632.594Z" fill="white"/>
<path d="M632.594 641.223V642.328H633.822V641.223H632.594Z" fill="white"/>
<path d="M632.594 619.111V620.217H633.822V619.111H632.594Z" fill="white"/>
<path d="M632.594 597V598.106H633.822V597H632.594Z" fill="white"/>
<path d="M658.372 972.894V974H659.599V972.894H658.372Z" fill="white"/>
<path d="M658.372 950.783V951.889H659.599V950.783H658.372Z" fill="white"/>
<path d="M658.372 928.672V929.777H659.599V928.672H658.372Z" fill="white"/>
<path d="M658.372 906.56V907.666H659.599V906.56H658.372Z" fill="white"/>
<path d="M658.372 884.449V885.554H659.599V884.449H658.372Z" fill="white"/>
<path d="M658.372 862.337V863.443H659.599V862.337H658.372Z" fill="white"/>
<path d="M658.372 840.226V841.331H659.599V840.226H658.372Z" fill="white"/>
<path d="M658.372 818.114V819.22H659.599V818.114H658.372Z" fill="white"/>
<path d="M658.372 796.003V797.109H659.599V796.003H658.372Z" fill="white"/>
<path d="M658.372 773.891V774.997H659.599V773.891H658.372Z" fill="white"/>
<path d="M658.372 751.78V752.886H659.599V751.78H658.372Z" fill="white"/>
<path d="M658.372 729.669V730.774H659.599V729.669H658.372Z" fill="white"/>
<path d="M658.372 707.557V708.663H659.599V707.557H658.372Z" fill="white"/>
<path d="M658.372 685.446V686.551H659.599V685.446H658.372Z" fill="white"/>
<path d="M658.372 663.334V664.44H659.599V663.334H658.372Z" fill="white"/>
<path d="M658.372 641.223V642.328H659.599V641.223H658.372Z" fill="white"/>
<path d="M658.372 619.111V620.217H659.599V619.111H658.372Z" fill="white"/>
<path d="M658.372 597V598.106H659.599V597H658.372Z" fill="white"/>
<path d="M682.922 972.894V974H684.149V972.894H682.922Z" fill="white"/>
<path d="M682.922 950.783V951.889H684.149V950.783H682.922Z" fill="white"/>
<path d="M682.922 928.672V929.777H684.149V928.672H682.922Z" fill="white"/>
<path d="M682.922 906.56V907.666H684.149V906.56H682.922Z" fill="white"/>
<path d="M682.922 884.449V885.554H684.149V884.449H682.922Z" fill="white"/>
<path d="M682.922 729.669V730.774H684.149V729.669H682.922Z" fill="white"/>
<path d="M682.922 707.557V708.663H684.149V707.557H682.922Z" fill="white"/>
<path d="M682.922 685.446V686.551H684.149V685.446H682.922Z" fill="white"/>
<path d="M682.922 663.334V664.44H684.149V663.334H682.922Z" fill="white"/>
<path d="M682.922 641.223V642.328H684.149V641.223H682.922Z" fill="white"/>
<path d="M682.922 619.111V620.217H684.149V619.111H682.922Z" fill="white"/>
<path d="M682.922 597V598.106H684.149V597H682.922Z" fill="white"/>
<path d="M707.472 972.894V974H708.699V972.894H707.472Z" fill="white"/>
<path d="M707.472 950.783V951.889H708.699V950.783H707.472Z" fill="white"/>
<path d="M707.472 928.672V929.777H708.699V928.672H707.472Z" fill="white"/>
<path d="M707.472 906.56V907.666H708.699V906.56H707.472Z" fill="white"/>
<path d="M707.472 884.449V885.554H708.699V884.449H707.472Z" fill="white"/>
<path d="M707.472 729.669V730.774H708.699V729.669H707.472Z" fill="white"/>
<path d="M707.472 707.557V708.663H708.699V707.557H707.472Z" fill="white"/>
<path d="M707.472 685.446V686.551H708.699V685.446H707.472Z" fill="white"/>
<path d="M707.472 663.334V664.44H708.699V663.334H707.472Z" fill="white"/>
<path d="M707.472 641.223V642.328H708.699V641.223H707.472Z" fill="white"/>
<path d="M707.472 619.111V620.217H708.699V619.111H707.472Z" fill="white"/>
<path d="M707.472 597V598.106H708.699V597H707.472Z" fill="white"/>
<path d="M732.022 972.894V974H733.25V972.894H732.022Z" fill="white"/>
<path d="M732.022 950.783V951.889H733.25V950.783H732.022Z" fill="white"/>
<path d="M732.022 818.114V819.22H733.25V818.114H732.022Z" fill="white"/>
<path d="M732.022 796.003V797.109H733.25V796.003H732.022Z" fill="white"/>
<path d="M732.022 773.891V774.997H733.25V773.891H732.022Z" fill="white"/>
<path d="M732.022 751.78V752.886H733.25V751.78H732.022Z" fill="white"/>
<path d="M732.022 729.669V730.774H733.25V729.669H732.022Z" fill="white"/>
<path d="M732.022 707.557V708.663H733.25V707.557H732.022Z" fill="white"/>
<path d="M732.022 685.446V686.551H733.25V685.446H732.022Z" fill="white"/>
<path d="M732.022 619.111V620.217H733.25V619.111H732.022Z" fill="white"/>
<path d="M732.022 597V598.106H733.25V597H732.022Z" fill="white"/>
<path d="M756.572 972.894V974H757.8V972.894H756.572Z" fill="white"/>
<path d="M756.572 950.783V951.889H757.8V950.783H756.572Z" fill="white"/>
<path d="M756.572 840.226V841.331H757.8V840.226H756.572Z" fill="white"/>
<path d="M756.572 818.114V819.22H757.8V818.114H756.572Z" fill="white"/>
<path d="M756.572 796.003V797.109H757.8V796.003H756.572Z" fill="white"/>
<path d="M756.572 773.891V774.997H757.8V773.891H756.572Z" fill="white"/>
<path d="M756.572 751.78V752.886H757.8V751.78H756.572Z" fill="white"/>
<path d="M756.572 729.669V730.774H757.8V729.669H756.572Z" fill="white"/>
<path d="M756.572 707.557V708.663H757.8V707.557H756.572Z" fill="white"/>
<path d="M756.572 685.446V686.551H757.8V685.446H756.572Z" fill="white"/>
<path d="M756.572 619.111V620.217H757.8V619.111H756.572Z" fill="white"/>
<path d="M756.572 597V598.106H757.8V597H756.572Z" fill="white"/>
<path d="M781.122 972.894V974H782.35V972.894H781.122Z" fill="white"/>
<path d="M781.122 950.783V951.889H782.35V950.783H781.122Z" fill="white"/>
<path d="M781.122 840.226V841.331H782.35V840.226H781.122Z" fill="white"/>
<path d="M781.122 818.114V819.22H782.35V818.114H781.122Z" fill="white"/>
<path d="M781.122 796.003V797.109H782.35V796.003H781.122Z" fill="white"/>
<path d="M781.122 773.891V774.997H782.35V773.891H781.122Z" fill="white"/>
<path d="M781.122 751.78V752.886H782.35V751.78H781.122Z" fill="white"/>
<path d="M781.122 729.669V730.774H782.35V729.669H781.122Z" fill="white"/>
<path d="M781.122 707.557V708.663H782.35V707.557H781.122Z" fill="white"/>
<path d="M781.122 685.446V686.551H782.35V685.446H781.122Z" fill="white"/>
<path d="M781.122 619.111V620.217H782.35V619.111H781.122Z" fill="white"/>
<path d="M781.122 597V598.106H782.35V597H781.122Z" fill="white"/>
<path d="M805.672 972.894V974H806.9V972.894H805.672Z" fill="white"/>
<path d="M805.672 950.783V951.889H806.9V950.783H805.672Z" fill="white"/>
<path d="M805.672 840.226V841.331H806.9V840.226H805.672Z" fill="white"/>
<path d="M805.672 818.114V819.22H806.9V818.114H805.672Z" fill="white"/>
<path d="M805.672 796.003V797.109H806.9V796.003H805.672Z" fill="white"/>
<path d="M805.672 773.891V774.997H806.9V773.891H805.672Z" fill="white"/>
<path d="M805.672 751.78V752.886H806.9V751.78H805.672Z" fill="white"/>
<path d="M805.672 729.669V730.774H806.9V729.669H805.672Z" fill="white"/>
<path d="M805.672 707.557V708.663H806.9V707.557H805.672Z" fill="white"/>
<path d="M805.672 685.446V686.551H806.9V685.446H805.672Z" fill="white"/>
<path d="M805.672 619.111V620.217H806.9V619.111H805.672Z" fill="white"/>
<path d="M805.672 597V598.106H806.9V597H805.672Z" fill="white"/>
<path d="M830.222 972.894V974H831.45V972.894H830.222Z" fill="white"/>
<path d="M830.222 950.783V951.889H831.45V950.783H830.222Z" fill="white"/>
<path d="M830.222 840.226V841.331H831.45V840.226H830.222Z" fill="white"/>
<path d="M830.222 818.114V819.22H831.45V818.114H830.222Z" fill="white"/>
<path d="M830.222 796.003V797.109H831.45V796.003H830.222Z" fill="white"/>
<path d="M830.222 773.891V774.997H831.45V773.891H830.222Z" fill="white"/>
<path d="M830.222 751.78V752.886H831.45V751.78H830.222Z" fill="white"/>
<path d="M830.222 729.669V730.774H831.45V729.669H830.222Z" fill="white"/>
<path d="M830.222 707.557V708.663H831.45V707.557H830.222Z" fill="white"/>
<path d="M830.222 685.446V686.551H831.45V685.446H830.222Z" fill="white"/>
<path d="M830.222 619.111V620.217H831.45V619.111H830.222Z" fill="white"/>
<path d="M830.222 597V598.106H831.45V597H830.222Z" fill="white"/>
<path d="M854.772 972.894V974H856V972.894H854.772Z" fill="white"/>
<path d="M854.772 950.783V951.889H856V950.783H854.772Z" fill="white"/>
<path d="M854.772 928.672V929.777H856V928.672H854.772Z" fill="white"/>
<path d="M854.772 906.56V907.666H856V906.56H854.772Z" fill="white"/>
<path d="M854.772 884.449V885.554H856V884.449H854.772Z" fill="white"/>
<path d="M854.772 862.337V863.443H856V862.337H854.772Z" fill="white"/>
<path d="M854.772 840.226V841.331H856V840.226H854.772Z" fill="white"/>
<path d="M854.772 818.114V819.22H856V818.114H854.772Z" fill="white"/>
<path d="M854.772 796.003V797.109H856V796.003H854.772Z" fill="white"/>
<path d="M854.772 773.891V774.997H856V773.891H854.772Z" fill="white"/>
<path d="M854.772 751.78V752.886H856V751.78H854.772Z" fill="white"/>
<path d="M854.772 729.669V730.774H856V729.669H854.772Z" fill="white"/>
<path d="M854.772 707.557V708.663H856V707.557H854.772Z" fill="white"/>
<path d="M854.772 685.446V686.551H856V685.446H854.772Z" fill="white"/>
<path d="M854.772 619.111V620.217H856V619.111H854.772Z" fill="white"/>
<path d="M854.772 597V598.106H856V597H854.772Z" fill="white"/>
</g>
<g opacity="0.5" filter="url(#filter0_f_156_104)">
<circle cx="1059" cy="562" r="300" fill="#7B3AEC"/>
</g>
<g opacity="0.5" filter="url(#filter1_f_156_104)">
<circle cx="231" cy="562" r="300" fill="#7B3AEC"/>
</g>
<g opacity="0.3">
<path d="M531 424.894V426H532.061V424.894H531Z" fill="white"/>
<path d="M531 402.783V403.889H532.061V402.783H531Z" fill="white"/>
<path d="M531 380.672V381.777H532.061V380.672H531Z" fill="white"/>
<path d="M531 358.56V359.666H532.061V358.56H531Z" fill="white"/>
<path d="M531 336.449V337.554H532.061V336.449H531Z" fill="white"/>
<path d="M531 314.337V315.443H532.061V314.337H531Z" fill="white"/>
<path d="M531 292.226V293.331H532.061V292.226H531Z" fill="white"/>
<path d="M531 270.114V271.22H532.061V270.114H531Z" fill="white"/>
<path d="M531 248.003V249.109H532.061V248.003H531Z" fill="white"/>
<path d="M531 225.892V226.997H532.061V225.892H531Z" fill="white"/>
<path d="M531 203.78V204.886H532.061V203.78H531Z" fill="white"/>
<path d="M531 181.669V182.774H532.061V181.669H531Z" fill="white"/>
<path d="M531 159.557V160.663H532.061V159.557H531Z" fill="white"/>
<path d="M531 137.446V138.551H532.061V137.446H531Z" fill="white"/>
<path d="M531 115.334V116.44H532.061V115.334H531Z" fill="white"/>
<path d="M552.214 424.894V426H553.275V424.894H552.214Z" fill="white"/>
<path d="M552.214 402.783V403.889H553.275V402.783H552.214Z" fill="white"/>
<path d="M552.214 380.672V381.777H553.275V380.672H552.214Z" fill="white"/>
<path d="M552.214 358.56V359.666H553.275V358.56H552.214Z" fill="white"/>
<path d="M552.214 336.449V337.554H553.275V336.449H552.214Z" fill="white"/>
<path d="M552.214 314.337V315.443H553.275V314.337H552.214Z" fill="white"/>
<path d="M552.214 292.226V293.331H553.275V292.226H552.214Z" fill="white"/>
<path d="M552.214 270.114V271.22H553.275V270.114H552.214Z" fill="white"/>
<path d="M552.214 248.003V249.109H553.275V248.003H552.214Z" fill="white"/>
<path d="M552.214 225.892V226.997H553.275V225.892H552.214Z" fill="white"/>
<path d="M552.214 203.78V204.886H553.275V203.78H552.214Z" fill="white"/>
<path d="M552.214 181.669V182.774H553.275V181.669H552.214Z" fill="white"/>
<path d="M552.214 159.557V160.663H553.275V159.557H552.214Z" fill="white"/>
<path d="M552.214 137.446V138.551H553.275V137.446H552.214Z" fill="white"/>
<path d="M552.214 115.334V116.44H553.275V115.334H552.214Z" fill="white"/>
<path d="M573.428 424.894V426H574.489V424.894H573.428Z" fill="white"/>
<path d="M573.428 248.003V249.109H574.489V248.003H573.428Z" fill="white"/>
<path d="M573.428 225.892V226.997H574.489V225.892H573.428Z" fill="white"/>
<path d="M573.428 203.78V204.886H574.489V203.78H573.428Z" fill="white"/>
<path d="M573.428 181.669V182.774H574.489V181.669H573.428Z" fill="white"/>
<path d="M573.428 159.557V160.663H574.489V159.557H573.428Z" fill="white"/>
<path d="M573.428 137.446V138.551H574.489V137.446H573.428Z" fill="white"/>
<path d="M573.428 115.334V116.44H574.489V115.334H573.428Z" fill="white"/>
<path d="M594.642 424.894V426H595.703V424.894H594.642Z" fill="white"/>
<path d="M594.642 203.78V204.886H595.703V203.78H594.642Z" fill="white"/>
<path d="M594.642 181.669V182.774H595.703V181.669H594.642Z" fill="white"/>
<path d="M594.642 159.557V160.663H595.703V159.557H594.642Z" fill="white"/>
<path d="M594.642 137.446V138.551H595.703V137.446H594.642Z" fill="white"/>
<path d="M594.642 115.334V116.44H595.703V115.334H594.642Z" fill="white"/>
<path d="M594.642 93.2229V94.3285H595.703V93.2229H594.642Z" fill="white"/>
<path d="M594.642 71.1115V72.217H595.703V71.1115H594.642Z" fill="white"/>
<path d="M594.642 49V50.1056H595.703V49H594.642Z" fill="white"/>
<path d="M615.856 424.894V426H616.917V424.894H615.856Z" fill="white"/>
<path d="M615.856 203.78V204.886H616.917V203.78H615.856Z" fill="white"/>
<path d="M615.856 181.669V182.774H616.917V181.669H615.856Z" fill="white"/>
<path d="M615.856 159.557V160.663H616.917V159.557H615.856Z" fill="white"/>
<path d="M615.856 137.446V138.551H616.917V137.446H615.856Z" fill="white"/>
<path d="M615.856 115.334V116.44H616.917V115.334H615.856Z" fill="white"/>
<path d="M615.856 93.2229V94.3285H616.917V93.2229H615.856Z" fill="white"/>
<path d="M615.856 71.1115V72.217H616.917V71.1115H615.856Z" fill="white"/>
<path d="M615.856 49V50.1056H616.917V49H615.856Z" fill="white"/>
<path d="M637.07 424.894V426H638.131V424.894H637.07Z" fill="white"/>
<path d="M637.07 402.783V403.889H638.131V402.783H637.07Z" fill="white"/>
<path d="M637.07 380.672V381.777H638.131V380.672H637.07Z" fill="white"/>
<path d="M637.07 358.56V359.666H638.131V358.56H637.07Z" fill="white"/>
<path d="M637.07 336.449V337.554H638.131V336.449H637.07Z" fill="white"/>
<path d="M637.07 314.337V315.443H638.131V314.337H637.07Z" fill="white"/>
<path d="M637.07 292.226V293.331H638.131V292.226H637.07Z" fill="white"/>
<path d="M637.07 203.78V204.886H638.131V203.78H637.07Z" fill="white"/>
<path d="M637.07 181.669V182.774H638.131V181.669H637.07Z" fill="white"/>
<path d="M637.07 159.557V160.663H638.131V159.557H637.07Z" fill="white"/>
<path d="M637.07 137.446V138.551H638.131V137.446H637.07Z" fill="white"/>
<path d="M637.07 115.334V116.44H638.131V115.334H637.07Z" fill="white"/>
<path d="M637.07 93.2229V94.3285H638.131V93.2229H637.07Z" fill="white"/>
<path d="M637.07 71.1115V72.217H638.131V71.1115H637.07Z" fill="white"/>
<path d="M637.07 49V50.1056H638.131V49H637.07Z" fill="white"/>
<path d="M658.284 424.894V426H659.345V424.894H658.284Z" fill="white"/>
<path d="M658.284 402.783V403.889H659.345V402.783H658.284Z" fill="white"/>
<path d="M658.284 380.672V381.777H659.345V380.672H658.284Z" fill="white"/>
<path d="M658.284 358.56V359.666H659.345V358.56H658.284Z" fill="white"/>
<path d="M658.284 336.449V337.554H659.345V336.449H658.284Z" fill="white"/>
<path d="M658.284 314.337V315.443H659.345V314.337H658.284Z" fill="white"/>
<path d="M658.284 292.226V293.331H659.345V292.226H658.284Z" fill="white"/>
<path d="M658.284 270.114V271.22H659.345V270.114H658.284Z" fill="white"/>
<path d="M658.284 248.003V249.109H659.345V248.003H658.284Z" fill="white"/>
<path d="M658.284 225.892V226.997H659.345V225.892H658.284Z" fill="white"/>
<path d="M658.284 203.78V204.886H659.345V203.78H658.284Z" fill="white"/>
<path d="M658.284 181.669V182.774H659.345V181.669H658.284Z" fill="white"/>
<path d="M658.284 159.557V160.663H659.345V159.557H658.284Z" fill="white"/>
<path d="M658.284 137.446V138.551H659.345V137.446H658.284Z" fill="white"/>
<path d="M658.284 115.334V116.44H659.345V115.334H658.284Z" fill="white"/>
<path d="M658.284 93.2229V94.3285H659.345V93.2229H658.284Z" fill="white"/>
<path d="M658.284 71.1115V72.217H659.345V71.1115H658.284Z" fill="white"/>
<path d="M658.284 49V50.1056H659.345V49H658.284Z" fill="white"/>
<path d="M679.498 424.894V426H680.559V424.894H679.498Z" fill="white"/>
<path d="M679.498 402.783V403.889H680.559V402.783H679.498Z" fill="white"/>
<path d="M679.498 380.672V381.777H680.559V380.672H679.498Z" fill="white"/>
<path d="M679.498 358.56V359.666H680.559V358.56H679.498Z" fill="white"/>
<path d="M679.498 336.449V337.554H680.559V336.449H679.498Z" fill="white"/>
<path d="M679.498 314.337V315.443H680.559V314.337H679.498Z" fill="white"/>
<path d="M679.498 292.226V293.331H680.559V292.226H679.498Z" fill="white"/>
<path d="M679.498 270.114V271.22H680.559V270.114H679.498Z" fill="white"/>
<path d="M679.498 248.003V249.109H680.559V248.003H679.498Z" fill="white"/>
<path d="M679.498 225.892V226.997H680.559V225.892H679.498Z" fill="white"/>
<path d="M679.498 203.78V204.886H680.559V203.78H679.498Z" fill="white"/>
<path d="M679.498 181.669V182.774H680.559V181.669H679.498Z" fill="white"/>
<path d="M679.498 159.557V160.663H680.559V159.557H679.498Z" fill="white"/>
<path d="M679.498 137.446V138.551H680.559V137.446H679.498Z" fill="white"/>
<path d="M679.498 115.334V116.44H680.559V115.334H679.498Z" fill="white"/>
<path d="M679.498 93.2229V94.3285H680.559V93.2229H679.498Z" fill="white"/>
<path d="M679.498 71.1115V72.217H680.559V71.1115H679.498Z" fill="white"/>
<path d="M679.498 49V50.1056H680.559V49H679.498Z" fill="white"/>
<path d="M700.712 424.894V426H701.773V424.894H700.712Z" fill="white"/>
<path d="M700.712 402.783V403.889H701.773V402.783H700.712Z" fill="white"/>
<path d="M700.712 380.672V381.777H701.773V380.672H700.712Z" fill="white"/>
<path d="M700.712 358.56V359.666H701.773V358.56H700.712Z" fill="white"/>
<path d="M700.712 336.449V337.554H701.773V336.449H700.712Z" fill="white"/>
<path d="M700.712 314.337V315.443H701.773V314.337H700.712Z" fill="white"/>
<path d="M700.712 292.226V293.331H701.773V292.226H700.712Z" fill="white"/>
<path d="M700.712 270.114V271.22H701.773V270.114H700.712Z" fill="white"/>
<path d="M700.712 248.003V249.109H701.773V248.003H700.712Z" fill="white"/>
<path d="M700.712 225.892V226.997H701.773V225.892H700.712Z" fill="white"/>
<path d="M700.712 203.78V204.886H701.773V203.78H700.712Z" fill="white"/>
<path d="M700.712 181.669V182.774H701.773V181.669H700.712Z" fill="white"/>
<path d="M700.712 159.557V160.663H701.773V159.557H700.712Z" fill="white"/>
<path d="M700.712 137.446V138.551H701.773V137.446H700.712Z" fill="white"/>
<path d="M700.712 115.334V116.44H701.773V115.334H700.712Z" fill="white"/>
<path d="M700.712 93.2229V94.3285H701.773V93.2229H700.712Z" fill="white"/>
<path d="M700.712 71.1115V72.217H701.773V71.1115H700.712Z" fill="white"/>
<path d="M700.712 49V50.1056H701.773V49H700.712Z" fill="white"/>
<path d="M722.987 424.894V426H724.047V424.894H722.987Z" fill="white"/>
<path d="M722.987 402.783V403.889H724.047V402.783H722.987Z" fill="white"/>
<path d="M722.987 380.672V381.777H724.047V380.672H722.987Z" fill="white"/>
<path d="M722.987 358.56V359.666H724.047V358.56H722.987Z" fill="white"/>
<path d="M722.987 248.003V249.109H724.047V248.003H722.987Z" fill="white"/>
<path d="M722.987 225.892V226.997H724.047V225.892H722.987Z" fill="white"/>
<path d="M722.987 203.78V204.886H724.047V203.78H722.987Z" fill="white"/>
<path d="M722.987 181.669V182.774H724.047V181.669H722.987Z" fill="white"/>
<path d="M722.987 159.557V160.663H724.047V159.557H722.987Z" fill="white"/>
<path d="M722.987 137.446V138.551H724.047V137.446H722.987Z" fill="white"/>
<path d="M744.201 424.894V426H745.261V424.894H744.201Z" fill="white"/>
<path d="M744.201 402.783V403.889H745.261V402.783H744.201Z" fill="white"/>
<path d="M744.201 380.672V381.777H745.261V380.672H744.201Z" fill="white"/>
<path d="M744.201 358.56V359.666H745.261V358.56H744.201Z" fill="white"/>
<path d="M744.201 248.003V249.109H745.261V248.003H744.201Z" fill="white"/>
<path d="M744.201 225.892V226.997H745.261V225.892H744.201Z" fill="white"/>
<path d="M744.201 203.78V204.886H745.261V203.78H744.201Z" fill="white"/>
<path d="M744.201 181.669V182.774H745.261V181.669H744.201Z" fill="white"/>
<path d="M744.201 159.557V160.663H745.261V159.557H744.201Z" fill="white"/>
<path d="M744.201 137.446V138.551H745.261V137.446H744.201Z" fill="white"/>
<path d="M765.415 424.894V426H766.475V424.894H765.415Z" fill="white"/>
<path d="M765.415 402.783V403.889H766.475V402.783H765.415Z" fill="white"/>
<path d="M765.415 380.672V381.777H766.475V380.672H765.415Z" fill="white"/>
<path d="M765.415 358.56V359.666H766.475V358.56H765.415Z" fill="white"/>
<path d="M765.415 248.003V249.109H766.475V248.003H765.415Z" fill="white"/>
<path d="M765.415 225.892V226.997H766.475V225.892H765.415Z" fill="white"/>
<path d="M765.415 203.78V204.886H766.475V203.78H765.415Z" fill="white"/>
<path d="M765.415 181.669V182.774H766.475V181.669H765.415Z" fill="white"/>
<path d="M765.415 159.557V160.663H766.475V159.557H765.415Z" fill="white"/>
<path d="M765.415 137.446V138.551H766.475V137.446H765.415Z" fill="white"/>
<path d="M786.629 424.894V426H787.689V424.894H786.629Z" fill="white"/>
<path d="M786.629 402.783V403.889H787.689V402.783H786.629Z" fill="white"/>
<path d="M786.629 380.672V381.777H787.689V380.672H786.629Z" fill="white"/>
<path d="M786.629 358.56V359.666H787.689V358.56H786.629Z" fill="white"/>
<path d="M786.629 248.003V249.109H787.689V248.003H786.629Z" fill="white"/>
<path d="M786.629 225.892V226.997H787.689V225.892H786.629Z" fill="white"/>
<path d="M786.629 203.78V204.886H787.689V203.78H786.629Z" fill="white"/>
<path d="M786.629 181.669V182.774H787.689V181.669H786.629Z" fill="white"/>
<path d="M786.629 159.557V160.663H787.689V159.557H786.629Z" fill="white"/>
<path d="M786.629 137.446V138.551H787.689V137.446H786.629Z" fill="white"/>
<path d="M807.843 424.894V426H808.904V424.894H807.843Z" fill="white"/>
<path d="M807.843 402.783V403.889H808.904V402.783H807.843Z" fill="white"/>
<path d="M807.843 380.672V381.777H808.904V380.672H807.843Z" fill="white"/>
<path d="M807.843 358.56V359.666H808.904V358.56H807.843Z" fill="white"/>
<path d="M807.843 248.003V249.109H808.904V248.003H807.843Z" fill="white"/>
<path d="M807.843 225.892V226.997H808.904V225.892H807.843Z" fill="white"/>
<path d="M807.843 203.78V204.886H808.904V203.78H807.843Z" fill="white"/>
<path d="M807.843 181.669V182.774H808.904V181.669H807.843Z" fill="white"/>
<path d="M807.843 159.557V160.663H808.904V159.557H807.843Z" fill="white"/>
<path d="M807.843 137.446V138.551H808.904V137.446H807.843Z" fill="white"/>
<path d="M829.057 402.783V403.889H830.117V402.783H829.057Z" fill="white"/>
<path d="M829.057 380.672V381.777H830.117V380.672H829.057Z" fill="white"/>
<path d="M829.057 358.56V359.666H830.117V358.56H829.057Z" fill="white"/>
<path d="M829.057 248.003V249.109H830.117V248.003H829.057Z" fill="white"/>
<path d="M829.057 225.892V226.997H830.117V225.892H829.057Z" fill="white"/>
<path d="M829.057 203.78V204.886H830.117V203.78H829.057Z" fill="white"/>
<path d="M829.057 181.669V182.774H830.117V181.669H829.057Z" fill="white"/>
<path d="M829.057 159.557V160.663H830.117V159.557H829.057Z" fill="white"/>
<path d="M829.057 137.446V138.551H830.117V137.446H829.057Z" fill="white"/>
<path d="M850.271 402.783V403.889H851.332V402.783H850.271Z" fill="white"/>
<path d="M850.271 380.672V381.777H851.332V380.672H850.271Z" fill="white"/>
<path d="M850.271 358.56V359.666H851.332V358.56H850.271Z" fill="white"/>
<path d="M850.271 248.003V249.109H851.332V248.003H850.271Z" fill="white"/>
<path d="M850.271 225.892V226.997H851.332V225.892H850.271Z" fill="white"/>
<path d="M850.271 203.78V204.886H851.332V203.78H850.271Z" fill="white"/>
<path d="M850.271 181.669V182.774H851.332V181.669H850.271Z" fill="white"/>
<path d="M850.271 159.557V160.663H851.332V159.557H850.271Z" fill="white"/>
<path d="M850.271 137.446V138.551H851.332V137.446H850.271Z" fill="white"/>
<path d="M871.485 402.783V403.889H872.546V402.783H871.485Z" fill="white"/>
<path d="M871.485 380.672V381.777H872.546V380.672H871.485Z" fill="white"/>
<path d="M871.485 358.56V359.666H872.546V358.56H871.485Z" fill="white"/>
<path d="M871.485 181.669V182.774H872.546V181.669H871.485Z" fill="white"/>
<path d="M871.485 159.557V160.663H872.546V159.557H871.485Z" fill="white"/>
<path d="M871.485 137.446V138.551H872.546V137.446H871.485Z" fill="white"/>
<path d="M871.485 115.334V116.44H872.546V115.334H871.485Z" fill="white"/>
<path d="M871.485 93.2229V94.3285H872.546V93.2229H871.485Z" fill="white"/>
<path d="M871.485 71.1115V72.217H872.546V71.1115H871.485Z" fill="white"/>
<path d="M871.485 49V50.1056H872.546V49H871.485Z" fill="white"/>
<path d="M892.699 402.783V403.889H893.76V402.783H892.699Z" fill="white"/>
<path d="M892.699 380.672V381.777H893.76V380.672H892.699Z" fill="white"/>
<path d="M892.699 358.56V359.666H893.76V358.56H892.699Z" fill="white"/>
<path d="M892.699 336.449V337.554H893.76V336.449H892.699Z" fill="white"/>
<path d="M892.699 314.337V315.443H893.76V314.337H892.699Z" fill="white"/>
<path d="M892.699 292.226V293.331H893.76V292.226H892.699Z" fill="white"/>
<path d="M892.699 270.114V271.22H893.76V270.114H892.699Z" fill="white"/>
<path d="M892.699 248.003V249.109H893.76V248.003H892.699Z" fill="white"/>
<path d="M892.699 225.892V226.997H893.76V225.892H892.699Z" fill="white"/>
<path d="M892.699 203.78V204.886H893.76V203.78H892.699Z" fill="white"/>
<path d="M892.699 181.669V182.774H893.76V181.669H892.699Z" fill="white"/>
<path d="M892.699 159.557V160.663H893.76V159.557H892.699Z" fill="white"/>
<path d="M892.699 137.446V138.551H893.76V137.446H892.699Z" fill="white"/>
<path d="M892.699 115.334V116.44H893.76V115.334H892.699Z" fill="white"/>
<path d="M892.699 93.2229V94.3285H893.76V93.2229H892.699Z" fill="white"/>
<path d="M892.699 71.1115V72.217H893.76V71.1115H892.699Z" fill="white"/>
<path d="M892.699 49V50.1056H893.76V49H892.699Z" fill="white"/>
<path d="M912.24 402.783V403.889H913.301V402.783H912.24Z" fill="white"/>
<path d="M912.24 380.672V381.777H913.301V380.672H912.24Z" fill="white"/>
<path d="M912.24 358.56V359.666H913.301V358.56H912.24Z" fill="white"/>
<path d="M912.24 336.449V337.554H913.301V336.449H912.24Z" fill="white"/>
<path d="M912.24 314.337V315.443H913.301V314.337H912.24Z" fill="white"/>
<path d="M912.24 292.226V293.331H913.301V292.226H912.24Z" fill="white"/>
<path d="M912.24 270.114V271.22H913.301V270.114H912.24Z" fill="white"/>
<path d="M912.24 248.003V249.109H913.301V248.003H912.24Z" fill="white"/>
<path d="M912.24 225.892V226.997H913.301V225.892H912.24Z" fill="white"/>
<path d="M912.24 203.78V204.886H913.301V203.78H912.24Z" fill="white"/>
<path d="M912.24 181.669V182.774H913.301V181.669H912.24Z" fill="white"/>
<path d="M912.24 159.557V160.663H913.301V159.557H912.24Z" fill="white"/>
<path d="M912.24 137.446V138.551H913.301V137.446H912.24Z" fill="white"/>
<path d="M912.24 115.334V116.44H913.301V115.334H912.24Z" fill="white"/>
<path d="M933.454 402.783V403.889H934.515V402.783H933.454Z" fill="white"/>
<path d="M933.454 380.672V381.777H934.515V380.672H933.454Z" fill="white"/>
<path d="M933.454 358.56V359.666H934.515V358.56H933.454Z" fill="white"/>
<path d="M933.454 336.449V337.554H934.515V336.449H933.454Z" fill="white"/>
<path d="M933.454 314.337V315.443H934.515V314.337H933.454Z" fill="white"/>
<path d="M933.454 292.226V293.331H934.515V292.226H933.454Z" fill="white"/>
<path d="M933.454 270.114V271.22H934.515V270.114H933.454Z" fill="white"/>
<path d="M933.454 248.003V249.109H934.515V248.003H933.454Z" fill="white"/>
<path d="M933.454 225.892V226.997H934.515V225.892H933.454Z" fill="white"/>
<path d="M933.454 203.78V204.886H934.515V203.78H933.454Z" fill="white"/>
<path d="M933.454 181.669V182.774H934.515V181.669H933.454Z" fill="white"/>
<path d="M933.454 159.557V160.663H934.515V159.557H933.454Z" fill="white"/>
<path d="M933.454 137.446V138.551H934.515V137.446H933.454Z" fill="white"/>
<path d="M933.454 115.334V116.44H934.515V115.334H933.454Z" fill="white"/>
<path d="M954.668 402.783V403.889H955.729V402.783H954.668Z" fill="white"/>
<path d="M954.668 380.672V381.777H955.729V380.672H954.668Z" fill="white"/>
<path d="M954.668 358.56V359.666H955.729V358.56H954.668Z" fill="white"/>
<path d="M954.668 336.449V337.554H955.729V336.449H954.668Z" fill="white"/>
<path d="M954.668 314.337V315.443H955.729V314.337H954.668Z" fill="white"/>
<path d="M954.668 292.226V293.331H955.729V292.226H954.668Z" fill="white"/>
<path d="M954.668 270.114V271.22H955.729V270.114H954.668Z" fill="white"/>
<path d="M954.668 248.003V249.109H955.729V248.003H954.668Z" fill="white"/>
<path d="M954.668 225.892V226.997H955.729V225.892H954.668Z" fill="white"/>
<path d="M954.668 203.78V204.886H955.729V203.78H954.668Z" fill="white"/>
<path d="M954.668 181.669V182.774H955.729V181.669H954.668Z" fill="white"/>
<path d="M954.668 159.557V160.663H955.729V159.557H954.668Z" fill="white"/>
<path d="M954.668 137.446V138.551H955.729V137.446H954.668Z" fill="white"/>
<path d="M954.668 115.334V116.44H955.729V115.334H954.668Z" fill="white"/>
<path d="M975.882 402.783V403.889H976.943V402.783H975.882Z" fill="white"/>
<path d="M975.882 380.672V381.777H976.943V380.672H975.882Z" fill="white"/>
<path d="M975.882 248.003V249.109H976.943V248.003H975.882Z" fill="white"/>
<path d="M975.882 225.892V226.997H976.943V225.892H975.882Z" fill="white"/>
<path d="M975.882 203.78V204.886H976.943V203.78H975.882Z" fill="white"/>
<path d="M975.882 181.669V182.774H976.943V181.669H975.882Z" fill="white"/>
<path d="M975.882 159.557V160.663H976.943V159.557H975.882Z" fill="white"/>
<path d="M975.882 137.446V138.551H976.943V137.446H975.882Z" fill="white"/>
<path d="M975.882 115.334V116.44H976.943V115.334H975.882Z" fill="white"/>
<path d="M975.882 93.2229V94.3285H976.943V93.2229H975.882Z" fill="white"/>
<path d="M975.882 71.1115V72.217H976.943V71.1115H975.882Z" fill="white"/>
<path d="M975.882 49V50.1056H976.943V49H975.882Z" fill="white"/>
<path d="M997.096 402.783V403.889H998.157V402.783H997.096Z" fill="white"/>
<path d="M997.096 380.672V381.777H998.157V380.672H997.096Z" fill="white"/>
<path d="M997.096 248.003V249.109H998.157V248.003H997.096Z" fill="white"/>
<path d="M997.096 225.892V226.997H998.157V225.892H997.096Z" fill="white"/>
<path d="M997.096 115.334V116.44H998.157V115.334H997.096Z" fill="white"/>
<path d="M997.096 93.2229V94.3285H998.157V93.2229H997.096Z" fill="white"/>
<path d="M997.096 71.1115V72.217H998.157V71.1115H997.096Z" fill="white"/>
<path d="M997.096 49V50.1056H998.157V49H997.096Z" fill="white"/>
<path d="M1018.31 424.894V426H1019.37V424.894H1018.31Z" fill="white"/>
<path d="M1018.31 402.783V403.889H1019.37V402.783H1018.31Z" fill="white"/>
<path d="M1018.31 380.672V381.777H1019.37V380.672H1018.31Z" fill="white"/>
<path d="M1018.31 358.56V359.666H1019.37V358.56H1018.31Z" fill="white"/>
<path d="M1018.31 336.449V337.554H1019.37V336.449H1018.31Z" fill="white"/>
<path d="M1018.31 314.337V315.443H1019.37V314.337H1018.31Z" fill="white"/>
<path d="M1018.31 292.226V293.331H1019.37V292.226H1018.31Z" fill="white"/>
<path d="M1018.31 270.114V271.22H1019.37V270.114H1018.31Z" fill="white"/>
<path d="M1018.31 248.003V249.109H1019.37V248.003H1018.31Z" fill="white"/>
<path d="M1018.31 225.892V226.997H1019.37V225.892H1018.31Z" fill="white"/>
<path d="M1018.31 203.78V204.886H1019.37V203.78H1018.31Z" fill="white"/>
<path d="M1018.31 115.334V116.44H1019.37V115.334H1018.31Z" fill="white"/>
<path d="M1018.31 93.2229V94.3285H1019.37V93.2229H1018.31Z" fill="white"/>
<path d="M1018.31 71.1115V72.217H1019.37V71.1115H1018.31Z" fill="white"/>
<path d="M1018.31 49V50.1056H1019.37V49H1018.31Z" fill="white"/>
<path d="M1039.52 424.894V426H1040.59V424.894H1039.52Z" fill="white"/>
<path d="M1039.52 402.783V403.889H1040.59V402.783H1039.52Z" fill="white"/>
<path d="M1039.52 380.672V381.777H1040.59V380.672H1039.52Z" fill="white"/>
<path d="M1039.52 358.56V359.666H1040.59V358.56H1039.52Z" fill="white"/>
<path d="M1039.52 336.449V337.554H1040.59V336.449H1039.52Z" fill="white"/>
<path d="M1039.52 314.337V315.443H1040.59V314.337H1039.52Z" fill="white"/>
<path d="M1039.52 292.226V293.331H1040.59V292.226H1039.52Z" fill="white"/>
<path d="M1039.52 270.114V271.22H1040.59V270.114H1039.52Z" fill="white"/>
<path d="M1039.52 248.003V249.109H1040.59V248.003H1039.52Z" fill="white"/>
<path d="M1039.52 225.892V226.997H1040.59V225.892H1039.52Z" fill="white"/>
<path d="M1039.52 203.78V204.886H1040.59V203.78H1039.52Z" fill="white"/>
<path d="M1039.52 71.1115V72.217H1040.59V71.1115H1039.52Z" fill="white"/>
<path d="M1039.52 49V50.1056H1040.59V49H1039.52Z" fill="white"/>
<path d="M1060.74 424.894V426H1061.8V424.894H1060.74Z" fill="white"/>
<path d="M1060.74 402.783V403.889H1061.8V402.783H1060.74Z" fill="white"/>
<path d="M1060.74 380.672V381.777H1061.8V380.672H1060.74Z" fill="white"/>
<path d="M1060.74 358.56V359.666H1061.8V358.56H1060.74Z" fill="white"/>
<path d="M1060.74 336.449V337.554H1061.8V336.449H1060.74Z" fill="white"/>
<path d="M1060.74 314.337V315.443H1061.8V314.337H1060.74Z" fill="white"/>
<path d="M1060.74 292.226V293.331H1061.8V292.226H1060.74Z" fill="white"/>
<path d="M1060.74 270.114V271.22H1061.8V270.114H1060.74Z" fill="white"/>
<path d="M1060.74 248.003V249.109H1061.8V248.003H1060.74Z" fill="white"/>
<path d="M1060.74 225.892V226.997H1061.8V225.892H1060.74Z" fill="white"/>
<path d="M1060.74 203.78V204.886H1061.8V203.78H1060.74Z" fill="white"/>
<path d="M1060.74 71.1115V72.217H1061.8V71.1115H1060.74Z" fill="white"/>
<path d="M1060.74 49V50.1056H1061.8V49H1060.74Z" fill="white"/>
<path d="M1081.95 424.894V426H1083.01V424.894H1081.95Z" fill="white"/>
<path d="M1081.95 402.783V403.889H1083.01V402.783H1081.95Z" fill="white"/>
<path d="M1081.95 380.672V381.777H1083.01V380.672H1081.95Z" fill="white"/>
<path d="M1081.95 358.56V359.666H1083.01V358.56H1081.95Z" fill="white"/>
<path d="M1081.95 336.449V337.554H1083.01V336.449H1081.95Z" fill="white"/>
<path d="M1081.95 314.337V315.443H1083.01V314.337H1081.95Z" fill="white"/>
<path d="M1081.95 292.226V293.331H1083.01V292.226H1081.95Z" fill="white"/>
<path d="M1081.95 270.114V271.22H1083.01V270.114H1081.95Z" fill="white"/>
<path d="M1081.95 248.003V249.109H1083.01V248.003H1081.95Z" fill="white"/>
<path d="M1081.95 225.892V226.997H1083.01V225.892H1081.95Z" fill="white"/>
<path d="M1081.95 203.78V204.886H1083.01V203.78H1081.95Z" fill="white"/>
<path d="M1081.95 181.669V182.774H1083.01V181.669H1081.95Z" fill="white"/>
<path d="M1081.95 159.557V160.663H1083.01V159.557H1081.95Z" fill="white"/>
<path d="M1081.95 137.446V138.551H1083.01V137.446H1081.95Z" fill="white"/>
<path d="M1081.95 115.334V116.44H1083.01V115.334H1081.95Z" fill="white"/>
<path d="M1081.95 93.2229V94.3285H1083.01V93.2229H1081.95Z" fill="white"/>
<path d="M1081.95 71.1115V72.217H1083.01V71.1115H1081.95Z" fill="white"/>
<path d="M1081.95 49V50.1056H1083.01V49H1081.95Z" fill="white"/>
<path d="M1104.23 424.894V426H1105.29V424.894H1104.23Z" fill="white"/>
<path d="M1104.23 402.783V403.889H1105.29V402.783H1104.23Z" fill="white"/>
<path d="M1104.23 380.672V381.777H1105.29V380.672H1104.23Z" fill="white"/>
<path d="M1104.23 358.56V359.666H1105.29V358.56H1104.23Z" fill="white"/>
<path d="M1104.23 336.449V337.554H1105.29V336.449H1104.23Z" fill="white"/>
<path d="M1104.23 314.337V315.443H1105.29V314.337H1104.23Z" fill="white"/>
<path d="M1104.23 292.226V293.331H1105.29V292.226H1104.23Z" fill="white"/>
<path d="M1104.23 270.114V271.22H1105.29V270.114H1104.23Z" fill="white"/>
<path d="M1104.23 248.003V249.109H1105.29V248.003H1104.23Z" fill="white"/>
<path d="M1104.23 225.892V226.997H1105.29V225.892H1104.23Z" fill="white"/>
<path d="M1104.23 203.78V204.886H1105.29V203.78H1104.23Z" fill="white"/>
<path d="M1104.23 181.669V182.774H1105.29V181.669H1104.23Z" fill="white"/>
<path d="M1104.23 159.557V160.663H1105.29V159.557H1104.23Z" fill="white"/>
<path d="M1104.23 137.446V138.551H1105.29V137.446H1104.23Z" fill="white"/>
<path d="M1104.23 115.334V116.44H1105.29V115.334H1104.23Z" fill="white"/>
<path d="M1104.23 93.2229V94.3285H1105.29V93.2229H1104.23Z" fill="white"/>
<path d="M1104.23 71.1115V72.217H1105.29V71.1115H1104.23Z" fill="white"/>
<path d="M1104.23 49V50.1056H1105.29V49H1104.23Z" fill="white"/>
<path d="M1125.44 424.894V426H1126.5V424.894H1125.44Z" fill="white"/>
<path d="M1125.44 402.783V403.889H1126.5V402.783H1125.44Z" fill="white"/>
<path d="M1125.44 380.672V381.777H1126.5V380.672H1125.44Z" fill="white"/>
<path d="M1125.44 358.56V359.666H1126.5V358.56H1125.44Z" fill="white"/>
<path d="M1125.44 336.449V337.554H1126.5V336.449H1125.44Z" fill="white"/>
<path d="M1125.44 181.669V182.774H1126.5V181.669H1125.44Z" fill="white"/>
<path d="M1125.44 159.557V160.663H1126.5V159.557H1125.44Z" fill="white"/>
<path d="M1125.44 137.446V138.551H1126.5V137.446H1125.44Z" fill="white"/>
<path d="M1125.44 115.334V116.44H1126.5V115.334H1125.44Z" fill="white"/>
<path d="M1125.44 93.2229V94.3285H1126.5V93.2229H1125.44Z" fill="white"/>
<path d="M1125.44 71.1115V72.217H1126.5V71.1115H1125.44Z" fill="white"/>
<path d="M1125.44 49V50.1056H1126.5V49H1125.44Z" fill="white"/>
<path d="M1146.66 424.894V426H1147.72V424.894H1146.66Z" fill="white"/>
<path d="M1146.66 402.783V403.889H1147.72V402.783H1146.66Z" fill="white"/>
<path d="M1146.66 380.672V381.777H1147.72V380.672H1146.66Z" fill="white"/>
<path d="M1146.66 358.56V359.666H1147.72V358.56H1146.66Z" fill="white"/>
<path d="M1146.66 336.449V337.554H1147.72V336.449H1146.66Z" fill="white"/>
<path d="M1146.66 181.669V182.774H1147.72V181.669H1146.66Z" fill="white"/>
<path d="M1146.66 159.557V160.663H1147.72V159.557H1146.66Z" fill="white"/>
<path d="M1146.66 137.446V138.551H1147.72V137.446H1146.66Z" fill="white"/>
<path d="M1146.66 115.334V116.44H1147.72V115.334H1146.66Z" fill="white"/>
<path d="M1146.66 93.2229V94.3285H1147.72V93.2229H1146.66Z" fill="white"/>
<path d="M1146.66 71.1115V72.217H1147.72V71.1115H1146.66Z" fill="white"/>
<path d="M1146.66 49V50.1056H1147.72V49H1146.66Z" fill="white"/>
<path d="M1167.87 424.894V426H1168.93V424.894H1167.87Z" fill="white"/>
<path d="M1167.87 402.783V403.889H1168.93V402.783H1167.87Z" fill="white"/>
<path d="M1167.87 270.114V271.22H1168.93V270.114H1167.87Z" fill="white"/>
<path d="M1167.87 248.003V249.109H1168.93V248.003H1167.87Z" fill="white"/>
<path d="M1167.87 225.892V226.997H1168.93V225.892H1167.87Z" fill="white"/>
<path d="M1167.87 203.78V204.886H1168.93V203.78H1167.87Z" fill="white"/>
<path d="M1167.87 181.669V182.774H1168.93V181.669H1167.87Z" fill="white"/>
<path d="M1167.87 159.557V160.663H1168.93V159.557H1167.87Z" fill="white"/>
<path d="M1167.87 137.446V138.551H1168.93V137.446H1167.87Z" fill="white"/>
<path d="M1167.87 71.1115V72.217H1168.93V71.1115H1167.87Z" fill="white"/>
<path d="M1167.87 49V50.1056H1168.93V49H1167.87Z" fill="white"/>
<path d="M1189.08 424.894V426H1190.14V424.894H1189.08Z" fill="white"/>
<path d="M1189.08 402.783V403.889H1190.14V402.783H1189.08Z" fill="white"/>
<path d="M1189.08 292.226V293.331H1190.14V292.226H1189.08Z" fill="white"/>
<path d="M1189.08 270.114V271.22H1190.14V270.114H1189.08Z" fill="white"/>
<path d="M1189.08 248.003V249.109H1190.14V248.003H1189.08Z" fill="white"/>
<path d="M1189.08 225.892V226.997H1190.14V225.892H1189.08Z" fill="white"/>
<path d="M1189.08 203.78V204.886H1190.14V203.78H1189.08Z" fill="white"/>
<path d="M1189.08 181.669V182.774H1190.14V181.669H1189.08Z" fill="white"/>
<path d="M1189.08 159.557V160.663H1190.14V159.557H1189.08Z" fill="white"/>
<path d="M1189.08 137.446V138.551H1190.14V137.446H1189.08Z" fill="white"/>
<path d="M1189.08 71.1115V72.217H1190.14V71.1115H1189.08Z" fill="white"/>
<path d="M1189.08 49V50.1056H1190.14V49H1189.08Z" fill="white"/>
<path d="M1210.3 424.894V426H1211.36V424.894H1210.3Z" fill="white"/>
<path d="M1210.3 402.783V403.889H1211.36V402.783H1210.3Z" fill="white"/>
<path d="M1210.3 292.226V293.331H1211.36V292.226H1210.3Z" fill="white"/>
<path d="M1210.3 270.114V271.22H1211.36V270.114H1210.3Z" fill="white"/>
<path d="M1210.3 248.003V249.109H1211.36V248.003H1210.3Z" fill="white"/>
<path d="M1210.3 225.892V226.997H1211.36V225.892H1210.3Z" fill="white"/>
<path d="M1210.3 203.78V204.886H1211.36V203.78H1210.3Z" fill="white"/>
<path d="M1210.3 181.669V182.774H1211.36V181.669H1210.3Z" fill="white"/>
<path d="M1210.3 159.557V160.663H1211.36V159.557H1210.3Z" fill="white"/>
<path d="M1210.3 137.446V138.551H1211.36V137.446H1210.3Z" fill="white"/>
<path d="M1210.3 71.1115V72.217H1211.36V71.1115H1210.3Z" fill="white"/>
<path d="M1210.3 49V50.1056H1211.36V49H1210.3Z" fill="white"/>
<path d="M1231.51 424.894V426H1232.57V424.894H1231.51Z" fill="white"/>
<path d="M1231.51 402.783V403.889H1232.57V402.783H1231.51Z" fill="white"/>
<path d="M1231.51 292.226V293.331H1232.57V292.226H1231.51Z" fill="white"/>
<path d="M1231.51 270.114V271.22H1232.57V270.114H1231.51Z" fill="white"/>
<path d="M1231.51 248.003V249.109H1232.57V248.003H1231.51Z" fill="white"/>
<path d="M1231.51 225.892V226.997H1232.57V225.892H1231.51Z" fill="white"/>
<path d="M1231.51 203.78V204.886H1232.57V203.78H1231.51Z" fill="white"/>
<path d="M1231.51 181.669V182.774H1232.57V181.669H1231.51Z" fill="white"/>
<path d="M1231.51 159.557V160.663H1232.57V159.557H1231.51Z" fill="white"/>
<path d="M1231.51 137.446V138.551H1232.57V137.446H1231.51Z" fill="white"/>
<path d="M1231.51 71.1115V72.217H1232.57V71.1115H1231.51Z" fill="white"/>
<path d="M1231.51 49V50.1056H1232.57V49H1231.51Z" fill="white"/>
<path d="M1252.73 424.894V426H1253.79V424.894H1252.73Z" fill="white"/>
<path d="M1252.73 402.783V403.889H1253.79V402.783H1252.73Z" fill="white"/>
<path d="M1252.73 292.226V293.331H1253.79V292.226H1252.73Z" fill="white"/>
<path d="M1252.73 270.114V271.22H1253.79V270.114H1252.73Z" fill="white"/>
<path d="M1252.73 248.003V249.109H1253.79V248.003H1252.73Z" fill="white"/>
<path d="M1252.73 225.892V226.997H1253.79V225.892H1252.73Z" fill="white"/>
<path d="M1252.73 203.78V204.886H1253.79V203.78H1252.73Z" fill="white"/>
<path d="M1252.73 181.669V182.774H1253.79V181.669H1252.73Z" fill="white"/>
<path d="M1252.73 159.557V160.663H1253.79V159.557H1252.73Z" fill="white"/>
<path d="M1252.73 137.446V138.551H1253.79V137.446H1252.73Z" fill="white"/>
<path d="M1252.73 71.1115V72.217H1253.79V71.1115H1252.73Z" fill="white"/>
<path d="M1252.73 49V50.1056H1253.79V49H1252.73Z" fill="white"/>
<path d="M1273.94 424.894V426H1275V424.894H1273.94Z" fill="white"/>
<path d="M1273.94 402.783V403.889H1275V402.783H1273.94Z" fill="white"/>
<path d="M1273.94 380.672V381.777H1275V380.672H1273.94Z" fill="white"/>
<path d="M1273.94 358.56V359.666H1275V358.56H1273.94Z" fill="white"/>
<path d="M1273.94 336.449V337.554H1275V336.449H1273.94Z" fill="white"/>
<path d="M1273.94 314.337V315.443H1275V314.337H1273.94Z" fill="white"/>
<path d="M1273.94 292.226V293.331H1275V292.226H1273.94Z" fill="white"/>
<path d="M1273.94 270.114V271.22H1275V270.114H1273.94Z" fill="white"/>
<path d="M1273.94 248.003V249.109H1275V248.003H1273.94Z" fill="white"/>
<path d="M1273.94 225.892V226.997H1275V225.892H1273.94Z" fill="white"/>
<path d="M1273.94 203.78V204.886H1275V203.78H1273.94Z" fill="white"/>
<path d="M1273.94 181.669V182.774H1275V181.669H1273.94Z" fill="white"/>
<path d="M1273.94 159.557V160.663H1275V159.557H1273.94Z" fill="white"/>
<path d="M1273.94 137.446V138.551H1275V137.446H1273.94Z" fill="white"/>
<path d="M1273.94 71.1115V72.217H1275V71.1115H1273.94Z" fill="white"/>
<path d="M1273.94 49V50.1056H1275V49H1273.94Z" fill="white"/>
</g>
</g>
<defs>
<filter id="filter0_f_156_104" x="459" y="-38" width="1200" height="1200" filterUnits="userSpaceOnUse" color-interpolation-filters="sRGB">
<feFlood flood-opacity="0" result="BackgroundImageFix"/>
<feBlend mode="normal" in="SourceGraphic" in2="BackgroundImageFix" result="shape"/>
<feGaussianBlur stdDeviation="150" result="effect1_foregroundBlur_156_104"/>
</filter>
<filter id="filter1_f_156_104" x="-319" y="12" width="1100" height="1100" filterUnits="userSpaceOnUse" color-interpolation-filters="sRGB">
<feFlood flood-opacity="0" result="BackgroundImageFix"/>
<feBlend mode="normal" in="SourceGraphic" in2="BackgroundImageFix" result="shape"/>
<feGaussianBlur stdDeviation="125" result="effect1_foregroundBlur_156_104"/>
</filter>
<clipPath id="clip0_156_104">
<rect width="1286" height="1124" fill="white" transform="translate(-5)"/>
</clipPath>
</defs>
</svg>
