<svg width="1280" height="656" viewBox="0 0 1280 656" fill="none" xmlns="http://www.w3.org/2000/svg">
<g clip-path="url(#clip0_129_89)">
<rect width="1280" height="656" fill="#0F1D4E"/>
<g opacity="0.3" filter="url(#filter0_f_129_89)">
<ellipse cx="640.892" cy="225.906" rx="138.5" ry="374.558" transform="rotate(46.3002 640.892 225.906)" fill="#7B3AEC"/>
</g>
<path d="M733.073 74H732V74.8583H733.073V74Z" fill="#5F6AD5"/>
<path d="M754.54 74H753.466V74.8583H754.54V74Z" fill="#5F6AD5"/>
<path d="M776.006 74H774.933V74.8583H776.006V74Z" fill="#5F6AD5"/>
<path d="M797.472 74H796.399V74.8583H797.472V74Z" fill="#5F6AD5"/>
<path d="M818.938 74H817.865V74.8583H818.938V74Z" fill="#5F6AD5"/>
<path d="M840.405 74H839.331V74.8583H840.405V74Z" fill="#5F6AD5"/>
<path d="M861.871 74H860.798V74.8583H861.871V74Z" fill="#5F6AD5"/>
<path d="M883.337 74H882.264V74.8583H883.337V74Z" fill="#5F6AD5"/>
<path d="M904.803 74H903.73V74.8583H904.803V74Z" fill="#5F6AD5"/>
<path d="M926.27 74H925.196V74.8583H926.27V74Z" fill="#5F6AD5"/>
<path d="M947.736 74H946.663V74.8583H947.736V74Z" fill="#5F6AD5"/>
<path d="M969.202 74H968.129V74.8583H969.202V74Z" fill="#5F6AD5"/>
<path d="M990.669 74H989.595V74.8583H990.669V74Z" fill="#5F6AD5"/>
<path d="M1012.13 74H1011.06V74.8583H1012.13V74Z" fill="#5F6AD5"/>
<path d="M1033.6 74H1032.53V74.8583H1033.6V74Z" fill="#5F6AD5"/>
<path d="M733.073 91.1651H732V92.0234H733.073V91.1651Z" fill="#5F6AD5"/>
<path d="M754.54 91.1651H753.466V92.0234H754.54V91.1651Z" fill="#5F6AD5"/>
<path d="M776.006 91.1651H774.933V92.0234H776.006V91.1651Z" fill="#5F6AD5"/>
<path d="M797.472 91.1651H796.399V92.0234H797.472V91.1651Z" fill="#5F6AD5"/>
<path d="M818.938 91.1651H817.865V92.0234H818.938V91.1651Z" fill="#5F6AD5"/>
<path d="M840.405 91.1651H839.331V92.0234H840.405V91.1651Z" fill="#5F6AD5"/>
<path d="M861.871 91.1651H860.798V92.0234H861.871V91.1651Z" fill="#5F6AD5"/>
<path d="M883.337 91.1651H882.264V92.0234H883.337V91.1651Z" fill="#5F6AD5"/>
<path d="M904.803 91.1651H903.73V92.0234H904.803V91.1651Z" fill="#5F6AD5"/>
<path d="M926.27 91.1651H925.196V92.0234H926.27V91.1651Z" fill="#5F6AD5"/>
<path d="M947.736 91.1651H946.663V92.0234H947.736V91.1651Z" fill="#5F6AD5"/>
<path d="M969.202 91.1651H968.129V92.0234H969.202V91.1651Z" fill="#5F6AD5"/>
<path d="M990.669 91.1651H989.595V92.0234H990.669V91.1651Z" fill="#5F6AD5"/>
<path d="M1012.13 91.1651H1011.06V92.0234H1012.13V91.1651Z" fill="#5F6AD5"/>
<path d="M1033.6 91.1651H1032.53V92.0234H1033.6V91.1651Z" fill="#5F6AD5"/>
<path d="M733.073 108.33H732V109.188H733.073V108.33Z" fill="#5F6AD5"/>
<path d="M904.803 108.33H903.73V109.188H904.803V108.33Z" fill="#5F6AD5"/>
<path d="M926.27 108.33H925.196V109.188H926.27V108.33Z" fill="#5F6AD5"/>
<path d="M947.736 108.33H946.663V109.188H947.736V108.33Z" fill="#5F6AD5"/>
<path d="M969.202 108.33H968.129V109.188H969.202V108.33Z" fill="#5F6AD5"/>
<path d="M990.669 108.33H989.595V109.188H990.669V108.33Z" fill="#5F6AD5"/>
<path d="M1012.13 108.33H1011.06V109.188H1012.13V108.33Z" fill="#5F6AD5"/>
<path d="M1033.6 108.33H1032.53V109.188H1033.6V108.33Z" fill="#5F6AD5"/>
<path d="M733.073 125.495H732V126.354H733.073V125.495Z" fill="#5F6AD5"/>
<path d="M947.736 125.495H946.663V126.354H947.736V125.495Z" fill="#5F6AD5"/>
<path d="M969.202 125.495H968.129V126.354H969.202V125.495Z" fill="#5F6AD5"/>
<path d="M990.669 125.495H989.595V126.354H990.669V125.495Z" fill="#5F6AD5"/>
<path d="M1012.13 125.495H1011.06V126.354H1012.13V125.495Z" fill="#5F6AD5"/>
<path d="M1033.6 125.495H1032.53V126.354H1033.6V125.495Z" fill="#5F6AD5"/>
<path d="M1055.07 125.495H1053.99V126.354H1055.07V125.495Z" fill="#5F6AD5"/>
<path d="M1076.53 125.495H1075.46V126.354H1076.53V125.495Z" fill="#5F6AD5"/>
<path d="M1098 125.495H1096.93V126.354H1098V125.495Z" fill="#5F6AD5"/>
<path d="M733.073 142.66H732V143.519H733.073V142.66Z" fill="#5F6AD5"/>
<path d="M947.736 142.66H946.663V143.519H947.736V142.66Z" fill="#5F6AD5"/>
<path d="M969.202 142.66H968.129V143.519H969.202V142.66Z" fill="#5F6AD5"/>
<path d="M990.669 142.66H989.595V143.519H990.669V142.66Z" fill="#5F6AD5"/>
<path d="M1012.13 142.66H1011.06V143.519H1012.13V142.66Z" fill="#5F6AD5"/>
<path d="M1033.6 142.66H1032.53V143.519H1033.6V142.66Z" fill="#5F6AD5"/>
<path d="M1055.07 142.66H1053.99V143.519H1055.07V142.66Z" fill="#5F6AD5"/>
<path d="M1076.53 142.66H1075.46V143.519H1076.53V142.66Z" fill="#5F6AD5"/>
<path d="M1098 142.66H1096.93V143.519H1098V142.66Z" fill="#5F6AD5"/>
<path d="M733.073 159.825H732V160.684H733.073V159.825Z" fill="#5F6AD5"/>
<path d="M754.54 159.825H753.466V160.684H754.54V159.825Z" fill="#5F6AD5"/>
<path d="M776.006 159.825H774.933V160.684H776.006V159.825Z" fill="#5F6AD5"/>
<path d="M797.472 159.825H796.399V160.684H797.472V159.825Z" fill="#5F6AD5"/>
<path d="M818.938 159.825H817.865V160.684H818.938V159.825Z" fill="#5F6AD5"/>
<path d="M840.405 159.825H839.331V160.684H840.405V159.825Z" fill="#5F6AD5"/>
<path d="M861.871 159.825H860.798V160.684H861.871V159.825Z" fill="#5F6AD5"/>
<path d="M947.736 159.825H946.663V160.684H947.736V159.825Z" fill="#5F6AD5"/>
<path d="M969.202 159.825H968.129V160.684H969.202V159.825Z" fill="#5F6AD5"/>
<path d="M990.669 159.825H989.595V160.684H990.669V159.825Z" fill="#5F6AD5"/>
<path d="M1012.13 159.825H1011.06V160.684H1012.13V159.825Z" fill="#5F6AD5"/>
<path d="M1033.6 159.825H1032.53V160.684H1033.6V159.825Z" fill="#5F6AD5"/>
<path d="M1055.07 159.825H1053.99V160.684H1055.07V159.825Z" fill="#5F6AD5"/>
<path d="M1076.53 159.825H1075.46V160.684H1076.53V159.825Z" fill="#5F6AD5"/>
<path d="M1098 159.825H1096.93V160.684H1098V159.825Z" fill="#5F6AD5"/>
<path d="M733.073 176.991H732V177.849H733.073V176.991Z" fill="#5F6AD5"/>
<path d="M754.54 176.991H753.466V177.849H754.54V176.991Z" fill="#5F6AD5"/>
<path d="M776.006 176.991H774.933V177.849H776.006V176.991Z" fill="#5F6AD5"/>
<path d="M797.472 176.991H796.399V177.849H797.472V176.991Z" fill="#5F6AD5"/>
<path d="M818.938 176.991H817.865V177.849H818.938V176.991Z" fill="#5F6AD5"/>
<path d="M840.405 176.991H839.331V177.849H840.405V176.991Z" fill="#5F6AD5"/>
<path d="M861.871 176.991H860.798V177.849H861.871V176.991Z" fill="#5F6AD5"/>
<path d="M883.337 176.991H882.264V177.849H883.337V176.991Z" fill="#5F6AD5"/>
<path d="M904.803 176.991H903.73V177.849H904.803V176.991Z" fill="#5F6AD5"/>
<path d="M926.27 176.991H925.196V177.849H926.27V176.991Z" fill="#5F6AD5"/>
<path d="M947.736 176.991H946.663V177.849H947.736V176.991Z" fill="#5F6AD5"/>
<path d="M969.202 176.991H968.129V177.849H969.202V176.991Z" fill="#5F6AD5"/>
<path d="M990.669 176.991H989.595V177.849H990.669V176.991Z" fill="#5F6AD5"/>
<path d="M1012.13 176.991H1011.06V177.849H1012.13V176.991Z" fill="#5F6AD5"/>
<path d="M1033.6 176.991H1032.53V177.849H1033.6V176.991Z" fill="#5F6AD5"/>
<path d="M1055.07 176.991H1053.99V177.849H1055.07V176.991Z" fill="#5F6AD5"/>
<path d="M1076.53 176.991H1075.46V177.849H1076.53V176.991Z" fill="#5F6AD5"/>
<path d="M1098 176.991H1096.93V177.849H1098V176.991Z" fill="#5F6AD5"/>
<path d="M733.073 194.156H732V195.014H733.073V194.156Z" fill="#5F6AD5"/>
<path d="M754.54 194.156H753.466V195.014H754.54V194.156Z" fill="#5F6AD5"/>
<path d="M776.006 194.156H774.933V195.014H776.006V194.156Z" fill="#5F6AD5"/>
<path d="M797.472 194.156H796.399V195.014H797.472V194.156Z" fill="#5F6AD5"/>
<path d="M818.938 194.156H817.865V195.014H818.938V194.156Z" fill="#5F6AD5"/>
<path d="M840.405 194.156H839.331V195.014H840.405V194.156Z" fill="#5F6AD5"/>
<path d="M861.871 194.156H860.798V195.014H861.871V194.156Z" fill="#5F6AD5"/>
<path d="M883.337 194.156H882.264V195.014H883.337V194.156Z" fill="#5F6AD5"/>
<path d="M904.803 194.156H903.73V195.014H904.803V194.156Z" fill="#5F6AD5"/>
<path d="M926.27 194.156H925.196V195.014H926.27V194.156Z" fill="#5F6AD5"/>
<path d="M947.736 194.156H946.663V195.014H947.736V194.156Z" fill="#5F6AD5"/>
<path d="M969.202 194.156H968.129V195.014H969.202V194.156Z" fill="#5F6AD5"/>
<path d="M990.669 194.156H989.595V195.014H990.669V194.156Z" fill="#5F6AD5"/>
<path d="M1012.13 194.156H1011.06V195.014H1012.13V194.156Z" fill="#5F6AD5"/>
<path d="M1033.6 194.156H1032.53V195.014H1033.6V194.156Z" fill="#5F6AD5"/>
<path d="M1055.07 194.156H1053.99V195.014H1055.07V194.156Z" fill="#5F6AD5"/>
<path d="M1076.53 194.156H1075.46V195.014H1076.53V194.156Z" fill="#5F6AD5"/>
<path d="M1098 194.156H1096.93V195.014H1098V194.156Z" fill="#5F6AD5"/>
<path d="M733.073 211.321H732V212.179H733.073V211.321Z" fill="#5F6AD5"/>
<path d="M754.54 211.321H753.466V212.179H754.54V211.321Z" fill="#5F6AD5"/>
<path d="M776.006 211.321H774.933V212.179H776.006V211.321Z" fill="#5F6AD5"/>
<path d="M797.472 211.321H796.399V212.179H797.472V211.321Z" fill="#5F6AD5"/>
<path d="M818.938 211.321H817.865V212.179H818.938V211.321Z" fill="#5F6AD5"/>
<path d="M840.405 211.321H839.331V212.179H840.405V211.321Z" fill="#5F6AD5"/>
<path d="M861.871 211.321H860.798V212.179H861.871V211.321Z" fill="#5F6AD5"/>
<path d="M883.337 211.321H882.264V212.179H883.337V211.321Z" fill="#5F6AD5"/>
<path d="M904.803 211.321H903.73V212.179H904.803V211.321Z" fill="#5F6AD5"/>
<path d="M926.27 211.321H925.196V212.179H926.27V211.321Z" fill="#5F6AD5"/>
<path d="M947.736 211.321H946.663V212.179H947.736V211.321Z" fill="#5F6AD5"/>
<path d="M969.202 211.321H968.129V212.179H969.202V211.321Z" fill="#5F6AD5"/>
<path d="M990.669 211.321H989.595V212.179H990.669V211.321Z" fill="#5F6AD5"/>
<path d="M1012.13 211.321H1011.06V212.179H1012.13V211.321Z" fill="#5F6AD5"/>
<path d="M1033.6 211.321H1032.53V212.179H1033.6V211.321Z" fill="#5F6AD5"/>
<path d="M1055.07 211.321H1053.99V212.179H1055.07V211.321Z" fill="#5F6AD5"/>
<path d="M1076.53 211.321H1075.46V212.179H1076.53V211.321Z" fill="#5F6AD5"/>
<path d="M1098 211.321H1096.93V212.179H1098V211.321Z" fill="#5F6AD5"/>
<path d="M733.073 229.344H732V230.202H733.073V229.344Z" fill="#5F6AD5"/>
<path d="M754.54 229.344H753.466V230.202H754.54V229.344Z" fill="#5F6AD5"/>
<path d="M776.006 229.344H774.933V230.202H776.006V229.344Z" fill="#5F6AD5"/>
<path d="M797.472 229.344H796.399V230.202H797.472V229.344Z" fill="#5F6AD5"/>
<path d="M904.803 229.344H903.73V230.202H904.803V229.344Z" fill="#5F6AD5"/>
<path d="M926.27 229.344H925.196V230.202H926.27V229.344Z" fill="#5F6AD5"/>
<path d="M947.736 229.344H946.663V230.202H947.736V229.344Z" fill="#5F6AD5"/>
<path d="M969.202 229.344H968.129V230.202H969.202V229.344Z" fill="#5F6AD5"/>
<path d="M990.669 229.344H989.595V230.202H990.669V229.344Z" fill="#5F6AD5"/>
<path d="M1012.13 229.344H1011.06V230.202H1012.13V229.344Z" fill="#5F6AD5"/>
<path d="M733.073 246.509H732V247.367H733.073V246.509Z" fill="#5F6AD5"/>
<path d="M754.54 246.509H753.466V247.367H754.54V246.509Z" fill="#5F6AD5"/>
<path d="M776.006 246.509H774.933V247.367H776.006V246.509Z" fill="#5F6AD5"/>
<path d="M797.472 246.509H796.399V247.367H797.472V246.509Z" fill="#5F6AD5"/>
<path d="M904.803 246.509H903.73V247.367H904.803V246.509Z" fill="#5F6AD5"/>
<path d="M926.27 246.509H925.196V247.367H926.27V246.509Z" fill="#5F6AD5"/>
<path d="M947.736 246.509H946.663V247.367H947.736V246.509Z" fill="#5F6AD5"/>
<path d="M969.202 246.509H968.129V247.367H969.202V246.509Z" fill="#5F6AD5"/>
<path d="M990.669 246.509H989.595V247.367H990.669V246.509Z" fill="#5F6AD5"/>
<path d="M1012.13 246.509H1011.06V247.367H1012.13V246.509Z" fill="#5F6AD5"/>
<path d="M733.073 263.674H732V264.533H733.073V263.674Z" fill="#5F6AD5"/>
<path d="M754.54 263.674H753.466V264.533H754.54V263.674Z" fill="#5F6AD5"/>
<path d="M776.006 263.674H774.933V264.533H776.006V263.674Z" fill="#5F6AD5"/>
<path d="M797.472 263.674H796.399V264.533H797.472V263.674Z" fill="#5F6AD5"/>
<path d="M904.803 263.674H903.73V264.533H904.803V263.674Z" fill="#5F6AD5"/>
<path d="M926.27 263.674H925.196V264.533H926.27V263.674Z" fill="#5F6AD5"/>
<path d="M947.736 263.674H946.663V264.533H947.736V263.674Z" fill="#5F6AD5"/>
<path d="M969.202 263.674H968.129V264.533H969.202V263.674Z" fill="#5F6AD5"/>
<path d="M990.669 263.674H989.595V264.533H990.669V263.674Z" fill="#5F6AD5"/>
<path d="M1012.13 263.674H1011.06V264.533H1012.13V263.674Z" fill="#5F6AD5"/>
<path d="M733.073 280.839H732V281.698H733.073V280.839Z" fill="#5F6AD5"/>
<path d="M754.54 280.839H753.466V281.698H754.54V280.839Z" fill="#5F6AD5"/>
<path d="M776.006 280.839H774.933V281.698H776.006V280.839Z" fill="#5F6AD5"/>
<path d="M797.472 280.839H796.399V281.698H797.472V280.839Z" fill="#5F6AD5"/>
<path d="M904.803 280.839H903.73V281.698H904.803V280.839Z" fill="#5F6AD5"/>
<path d="M926.27 280.839H925.196V281.698H926.27V280.839Z" fill="#5F6AD5"/>
<path d="M947.736 280.839H946.663V281.698H947.736V280.839Z" fill="#5F6AD5"/>
<path d="M969.202 280.839H968.129V281.698H969.202V280.839Z" fill="#5F6AD5"/>
<path d="M990.669 280.839H989.595V281.698H990.669V280.839Z" fill="#5F6AD5"/>
<path d="M1012.13 280.839H1011.06V281.698H1012.13V280.839Z" fill="#5F6AD5"/>
<path d="M733.073 298.005H732V298.863H733.073V298.005Z" fill="#5F6AD5"/>
<path d="M754.54 298.005H753.466V298.863H754.54V298.005Z" fill="#5F6AD5"/>
<path d="M776.006 298.005H774.933V298.863H776.006V298.005Z" fill="#5F6AD5"/>
<path d="M797.472 298.005H796.399V298.863H797.472V298.005Z" fill="#5F6AD5"/>
<path d="M904.803 298.005H903.73V298.863H904.803V298.005Z" fill="#5F6AD5"/>
<path d="M926.27 298.005H925.196V298.863H926.27V298.005Z" fill="#5F6AD5"/>
<path d="M947.736 298.005H946.663V298.863H947.736V298.005Z" fill="#5F6AD5"/>
<path d="M969.202 298.005H968.129V298.863H969.202V298.005Z" fill="#5F6AD5"/>
<path d="M990.669 298.005H989.595V298.863H990.669V298.005Z" fill="#5F6AD5"/>
<path d="M1012.13 298.005H1011.06V298.863H1012.13V298.005Z" fill="#5F6AD5"/>
<path d="M754.54 315.17H753.466V316.028H754.54V315.17Z" fill="#5F6AD5"/>
<path d="M776.006 315.17H774.933V316.028H776.006V315.17Z" fill="#5F6AD5"/>
<path d="M797.472 315.17H796.399V316.028H797.472V315.17Z" fill="#5F6AD5"/>
<path d="M904.803 315.17H903.73V316.028H904.803V315.17Z" fill="#5F6AD5"/>
<path d="M926.27 315.17H925.196V316.028H926.27V315.17Z" fill="#5F6AD5"/>
<path d="M947.736 315.17H946.663V316.028H947.736V315.17Z" fill="#5F6AD5"/>
<path d="M969.202 315.17H968.129V316.028H969.202V315.17Z" fill="#5F6AD5"/>
<path d="M990.669 315.17H989.595V316.028H990.669V315.17Z" fill="#5F6AD5"/>
<path d="M1012.13 315.17H1011.06V316.028H1012.13V315.17Z" fill="#5F6AD5"/>
<path d="M754.54 332.335H753.466V333.193H754.54V332.335Z" fill="#5F6AD5"/>
<path d="M776.006 332.335H774.933V333.193H776.006V332.335Z" fill="#5F6AD5"/>
<path d="M797.472 332.335H796.399V333.193H797.472V332.335Z" fill="#5F6AD5"/>
<path d="M904.803 332.335H903.73V333.193H904.803V332.335Z" fill="#5F6AD5"/>
<path d="M926.27 332.335H925.196V333.193H926.27V332.335Z" fill="#5F6AD5"/>
<path d="M947.736 332.335H946.663V333.193H947.736V332.335Z" fill="#5F6AD5"/>
<path d="M969.202 332.335H968.129V333.193H969.202V332.335Z" fill="#5F6AD5"/>
<path d="M990.669 332.335H989.595V333.193H990.669V332.335Z" fill="#5F6AD5"/>
<path d="M1012.13 332.335H1011.06V333.193H1012.13V332.335Z" fill="#5F6AD5"/>
<path d="M754.54 349.5H753.466V350.358H754.54V349.5Z" fill="#5F6AD5"/>
<path d="M776.006 349.5H774.933V350.358H776.006V349.5Z" fill="#5F6AD5"/>
<path d="M797.472 349.5H796.399V350.358H797.472V349.5Z" fill="#5F6AD5"/>
<path d="M969.202 349.5H968.129V350.358H969.202V349.5Z" fill="#5F6AD5"/>
<path d="M990.669 349.5H989.595V350.358H990.669V349.5Z" fill="#5F6AD5"/>
<path d="M1012.13 349.5H1011.06V350.358H1012.13V349.5Z" fill="#5F6AD5"/>
<path d="M1033.6 349.5H1032.53V350.358H1033.6V349.5Z" fill="#5F6AD5"/>
<path d="M1055.07 349.5H1053.99V350.358H1055.07V349.5Z" fill="#5F6AD5"/>
<path d="M1076.53 349.5H1075.46V350.358H1076.53V349.5Z" fill="#5F6AD5"/>
<path d="M1098 349.5H1096.93V350.358H1098V349.5Z" fill="#5F6AD5"/>
<path d="M754.54 366.665H753.466V367.523H754.54V366.665Z" fill="#5F6AD5"/>
<path d="M776.006 366.665H774.933V367.523H776.006V366.665Z" fill="#5F6AD5"/>
<path d="M797.472 366.665H796.399V367.523H797.472V366.665Z" fill="#5F6AD5"/>
<path d="M818.938 366.665H817.865V367.523H818.938V366.665Z" fill="#5F6AD5"/>
<path d="M840.405 366.665H839.331V367.523H840.405V366.665Z" fill="#5F6AD5"/>
<path d="M861.871 366.665H860.798V367.523H861.871V366.665Z" fill="#5F6AD5"/>
<path d="M883.337 366.665H882.264V367.523H883.337V366.665Z" fill="#5F6AD5"/>
<path d="M904.803 366.665H903.73V367.523H904.803V366.665Z" fill="#5F6AD5"/>
<path d="M926.27 366.665H925.196V367.523H926.27V366.665Z" fill="#5F6AD5"/>
<path d="M947.736 366.665H946.663V367.523H947.736V366.665Z" fill="#5F6AD5"/>
<path d="M969.202 366.665H968.129V367.523H969.202V366.665Z" fill="#5F6AD5"/>
<path d="M990.669 366.665H989.595V367.523H990.669V366.665Z" fill="#5F6AD5"/>
<path d="M1012.13 366.665H1011.06V367.523H1012.13V366.665Z" fill="#5F6AD5"/>
<path d="M1033.6 366.665H1032.53V367.523H1033.6V366.665Z" fill="#5F6AD5"/>
<path d="M1055.07 366.665H1053.99V367.523H1055.07V366.665Z" fill="#5F6AD5"/>
<path d="M1076.53 366.665H1075.46V367.523H1076.53V366.665Z" fill="#5F6AD5"/>
<path d="M1098 366.665H1096.93V367.523H1098V366.665Z" fill="#5F6AD5"/>
<path d="M754.54 382.477H753.466V383.335H754.54V382.477Z" fill="#5F6AD5"/>
<path d="M776.006 382.477H774.933V383.335H776.006V382.477Z" fill="#5F6AD5"/>
<path d="M797.472 382.477H796.399V383.335H797.472V382.477Z" fill="#5F6AD5"/>
<path d="M818.938 382.477H817.865V383.335H818.938V382.477Z" fill="#5F6AD5"/>
<path d="M840.405 382.477H839.331V383.335H840.405V382.477Z" fill="#5F6AD5"/>
<path d="M861.871 382.477H860.798V383.335H861.871V382.477Z" fill="#5F6AD5"/>
<path d="M883.337 382.477H882.264V383.335H883.337V382.477Z" fill="#5F6AD5"/>
<path d="M904.803 382.477H903.73V383.335H904.803V382.477Z" fill="#5F6AD5"/>
<path d="M926.27 382.477H925.196V383.335H926.27V382.477Z" fill="#5F6AD5"/>
<path d="M947.736 382.477H946.663V383.335H947.736V382.477Z" fill="#5F6AD5"/>
<path d="M969.202 382.477H968.129V383.335H969.202V382.477Z" fill="#5F6AD5"/>
<path d="M990.669 382.477H989.595V383.335H990.669V382.477Z" fill="#5F6AD5"/>
<path d="M1012.13 382.477H1011.06V383.335H1012.13V382.477Z" fill="#5F6AD5"/>
<path d="M1033.6 382.477H1032.53V383.335H1033.6V382.477Z" fill="#5F6AD5"/>
<path d="M754.54 399.642H753.466V400.5H754.54V399.642Z" fill="#5F6AD5"/>
<path d="M776.006 399.642H774.933V400.5H776.006V399.642Z" fill="#5F6AD5"/>
<path d="M797.472 399.642H796.399V400.5H797.472V399.642Z" fill="#5F6AD5"/>
<path d="M818.938 399.642H817.865V400.5H818.938V399.642Z" fill="#5F6AD5"/>
<path d="M840.405 399.642H839.331V400.5H840.405V399.642Z" fill="#5F6AD5"/>
<path d="M861.871 399.642H860.798V400.5H861.871V399.642Z" fill="#5F6AD5"/>
<path d="M883.337 399.642H882.264V400.5H883.337V399.642Z" fill="#5F6AD5"/>
<path d="M904.803 399.642H903.73V400.5H904.803V399.642Z" fill="#5F6AD5"/>
<path d="M926.27 399.642H925.196V400.5H926.27V399.642Z" fill="#5F6AD5"/>
<path d="M947.736 399.642H946.663V400.5H947.736V399.642Z" fill="#5F6AD5"/>
<path d="M969.202 399.642H968.129V400.5H969.202V399.642Z" fill="#5F6AD5"/>
<path d="M990.669 399.642H989.595V400.5H990.669V399.642Z" fill="#5F6AD5"/>
<path d="M1012.13 399.642H1011.06V400.5H1012.13V399.642Z" fill="#5F6AD5"/>
<path d="M1033.6 399.642H1032.53V400.5H1033.6V399.642Z" fill="#5F6AD5"/>
<path d="M754.54 416.807H753.466V417.665H754.54V416.807Z" fill="#5F6AD5"/>
<path d="M776.006 416.807H774.933V417.665H776.006V416.807Z" fill="#5F6AD5"/>
<path d="M797.472 416.807H796.399V417.665H797.472V416.807Z" fill="#5F6AD5"/>
<path d="M818.938 416.807H817.865V417.665H818.938V416.807Z" fill="#5F6AD5"/>
<path d="M840.405 416.807H839.331V417.665H840.405V416.807Z" fill="#5F6AD5"/>
<path d="M861.871 416.807H860.798V417.665H861.871V416.807Z" fill="#5F6AD5"/>
<path d="M883.337 416.807H882.264V417.665H883.337V416.807Z" fill="#5F6AD5"/>
<path d="M904.803 416.807H903.73V417.665H904.803V416.807Z" fill="#5F6AD5"/>
<path d="M926.27 416.807H925.196V417.665H926.27V416.807Z" fill="#5F6AD5"/>
<path d="M947.736 416.807H946.663V417.665H947.736V416.807Z" fill="#5F6AD5"/>
<path d="M969.202 416.807H968.129V417.665H969.202V416.807Z" fill="#5F6AD5"/>
<path d="M990.669 416.807H989.595V417.665H990.669V416.807Z" fill="#5F6AD5"/>
<path d="M1012.13 416.807H1011.06V417.665H1012.13V416.807Z" fill="#5F6AD5"/>
<path d="M1033.6 416.807H1032.53V417.665H1033.6V416.807Z" fill="#5F6AD5"/>
<path d="M754.54 433.972H753.466V434.83H754.54V433.972Z" fill="#5F6AD5"/>
<path d="M776.006 433.972H774.933V434.83H776.006V433.972Z" fill="#5F6AD5"/>
<path d="M904.803 433.972H903.73V434.83H904.803V433.972Z" fill="#5F6AD5"/>
<path d="M926.27 433.972H925.196V434.83H926.27V433.972Z" fill="#5F6AD5"/>
<path d="M947.736 433.972H946.663V434.83H947.736V433.972Z" fill="#5F6AD5"/>
<path d="M969.202 433.972H968.129V434.83H969.202V433.972Z" fill="#5F6AD5"/>
<path d="M990.669 433.972H989.595V434.83H990.669V433.972Z" fill="#5F6AD5"/>
<path d="M1012.13 433.972H1011.06V434.83H1012.13V433.972Z" fill="#5F6AD5"/>
<path d="M1033.6 433.972H1032.53V434.83H1033.6V433.972Z" fill="#5F6AD5"/>
<path d="M1055.07 433.972H1053.99V434.83H1055.07V433.972Z" fill="#5F6AD5"/>
<path d="M1076.53 433.972H1075.46V434.83H1076.53V433.972Z" fill="#5F6AD5"/>
<path d="M1098 433.972H1096.93V434.83H1098V433.972Z" fill="#5F6AD5"/>
<path d="M754.54 451.137H753.466V451.995H754.54V451.137Z" fill="#5F6AD5"/>
<path d="M776.006 451.137H774.933V451.995H776.006V451.137Z" fill="#5F6AD5"/>
<path d="M904.803 451.137H903.73V451.995H904.803V451.137Z" fill="#5F6AD5"/>
<path d="M926.27 451.137H925.196V451.995H926.27V451.137Z" fill="#5F6AD5"/>
<path d="M1033.6 451.137H1032.53V451.995H1033.6V451.137Z" fill="#5F6AD5"/>
<path d="M1055.07 451.137H1053.99V451.995H1055.07V451.137Z" fill="#5F6AD5"/>
<path d="M1076.53 451.137H1075.46V451.995H1076.53V451.137Z" fill="#5F6AD5"/>
<path d="M1098 451.137H1096.93V451.995H1098V451.137Z" fill="#5F6AD5"/>
<path d="M733.073 468.302H732V469.161H733.073V468.302Z" fill="#5F6AD5"/>
<path d="M754.54 468.302H753.466V469.161H754.54V468.302Z" fill="#5F6AD5"/>
<path d="M776.006 468.302H774.933V469.161H776.006V468.302Z" fill="#5F6AD5"/>
<path d="M797.472 468.302H796.399V469.161H797.472V468.302Z" fill="#5F6AD5"/>
<path d="M818.938 468.302H817.865V469.161H818.938V468.302Z" fill="#5F6AD5"/>
<path d="M840.405 468.302H839.331V469.161H840.405V468.302Z" fill="#5F6AD5"/>
<path d="M861.871 468.302H860.798V469.161H861.871V468.302Z" fill="#5F6AD5"/>
<path d="M883.337 468.302H882.264V469.161H883.337V468.302Z" fill="#5F6AD5"/>
<path d="M904.803 468.302H903.73V469.161H904.803V468.302Z" fill="#5F6AD5"/>
<path d="M926.27 468.302H925.196V469.161H926.27V468.302Z" fill="#5F6AD5"/>
<path d="M947.736 468.302H946.663V469.161H947.736V468.302Z" fill="#5F6AD5"/>
<path d="M1033.6 468.302H1032.53V469.161H1033.6V468.302Z" fill="#5F6AD5"/>
<path d="M1055.07 468.302H1053.99V469.161H1055.07V468.302Z" fill="#5F6AD5"/>
<path d="M1076.53 468.302H1075.46V469.161H1076.53V468.302Z" fill="#5F6AD5"/>
<path d="M1098 468.302H1096.93V469.161H1098V468.302Z" fill="#5F6AD5"/>
<path d="M733.073 485.467H732V486.326H733.073V485.467Z" fill="#5F6AD5"/>
<path d="M754.54 485.467H753.466V486.326H754.54V485.467Z" fill="#5F6AD5"/>
<path d="M776.006 485.467H774.933V486.326H776.006V485.467Z" fill="#5F6AD5"/>
<path d="M797.472 485.467H796.399V486.326H797.472V485.467Z" fill="#5F6AD5"/>
<path d="M818.938 485.467H817.865V486.326H818.938V485.467Z" fill="#5F6AD5"/>
<path d="M840.405 485.467H839.331V486.326H840.405V485.467Z" fill="#5F6AD5"/>
<path d="M861.871 485.467H860.798V486.326H861.871V485.467Z" fill="#5F6AD5"/>
<path d="M883.337 485.467H882.264V486.326H883.337V485.467Z" fill="#5F6AD5"/>
<path d="M904.803 485.467H903.73V486.326H904.803V485.467Z" fill="#5F6AD5"/>
<path d="M926.27 485.467H925.196V486.326H926.27V485.467Z" fill="#5F6AD5"/>
<path d="M947.736 485.467H946.663V486.326H947.736V485.467Z" fill="#5F6AD5"/>
<path d="M1076.53 485.467H1075.46V486.326H1076.53V485.467Z" fill="#5F6AD5"/>
<path d="M1098 485.467H1096.93V486.326H1098V485.467Z" fill="#5F6AD5"/>
<path d="M733.073 502.633H732V503.491H733.073V502.633Z" fill="#5F6AD5"/>
<path d="M754.54 502.633H753.466V503.491H754.54V502.633Z" fill="#5F6AD5"/>
<path d="M776.006 502.633H774.933V503.491H776.006V502.633Z" fill="#5F6AD5"/>
<path d="M797.472 502.633H796.399V503.491H797.472V502.633Z" fill="#5F6AD5"/>
<path d="M818.938 502.633H817.865V503.491H818.938V502.633Z" fill="#5F6AD5"/>
<path d="M840.405 502.633H839.331V503.491H840.405V502.633Z" fill="#5F6AD5"/>
<path d="M861.871 502.633H860.798V503.491H861.871V502.633Z" fill="#5F6AD5"/>
<path d="M883.337 502.633H882.264V503.491H883.337V502.633Z" fill="#5F6AD5"/>
<path d="M904.803 502.633H903.73V503.491H904.803V502.633Z" fill="#5F6AD5"/>
<path d="M926.27 502.633H925.196V503.491H926.27V502.633Z" fill="#5F6AD5"/>
<path d="M947.736 502.633H946.663V503.491H947.736V502.633Z" fill="#5F6AD5"/>
<path d="M1076.53 502.633H1075.46V503.491H1076.53V502.633Z" fill="#5F6AD5"/>
<path d="M1098 502.633H1096.93V503.491H1098V502.633Z" fill="#5F6AD5"/>
<path d="M733.073 519.798H732V520.656H733.073V519.798Z" fill="#5F6AD5"/>
<path d="M754.54 519.798H753.466V520.656H754.54V519.798Z" fill="#5F6AD5"/>
<path d="M776.006 519.798H774.933V520.656H776.006V519.798Z" fill="#5F6AD5"/>
<path d="M797.472 519.798H796.399V520.656H797.472V519.798Z" fill="#5F6AD5"/>
<path d="M818.938 519.798H817.865V520.656H818.938V519.798Z" fill="#5F6AD5"/>
<path d="M840.405 519.798H839.331V520.656H840.405V519.798Z" fill="#5F6AD5"/>
<path d="M861.871 519.798H860.798V520.656H861.871V519.798Z" fill="#5F6AD5"/>
<path d="M883.337 519.798H882.264V520.656H883.337V519.798Z" fill="#5F6AD5"/>
<path d="M904.803 519.798H903.73V520.656H904.803V519.798Z" fill="#5F6AD5"/>
<path d="M926.27 519.798H925.196V520.656H926.27V519.798Z" fill="#5F6AD5"/>
<path d="M947.736 519.798H946.663V520.656H947.736V519.798Z" fill="#5F6AD5"/>
<path d="M969.202 519.798H968.129V520.656H969.202V519.798Z" fill="#5F6AD5"/>
<path d="M990.669 519.798H989.595V520.656H990.669V519.798Z" fill="#5F6AD5"/>
<path d="M1012.13 519.798H1011.06V520.656H1012.13V519.798Z" fill="#5F6AD5"/>
<path d="M1033.6 519.798H1032.53V520.656H1033.6V519.798Z" fill="#5F6AD5"/>
<path d="M1055.07 519.798H1053.99V520.656H1055.07V519.798Z" fill="#5F6AD5"/>
<path d="M1076.53 519.798H1075.46V520.656H1076.53V519.798Z" fill="#5F6AD5"/>
<path d="M1098 519.798H1096.93V520.656H1098V519.798Z" fill="#5F6AD5"/>
<path d="M733.073 537.821H732V538.679H733.073V537.821Z" fill="#5F6AD5"/>
<path d="M754.54 537.821H753.466V538.679H754.54V537.821Z" fill="#5F6AD5"/>
<path d="M776.006 537.821H774.933V538.679H776.006V537.821Z" fill="#5F6AD5"/>
<path d="M797.472 537.821H796.399V538.679H797.472V537.821Z" fill="#5F6AD5"/>
<path d="M818.938 537.821H817.865V538.679H818.938V537.821Z" fill="#5F6AD5"/>
<path d="M840.405 537.821H839.331V538.679H840.405V537.821Z" fill="#5F6AD5"/>
<path d="M861.871 537.821H860.798V538.679H861.871V537.821Z" fill="#5F6AD5"/>
<path d="M883.337 537.821H882.264V538.679H883.337V537.821Z" fill="#5F6AD5"/>
<path d="M904.803 537.821H903.73V538.679H904.803V537.821Z" fill="#5F6AD5"/>
<path d="M926.27 537.821H925.196V538.679H926.27V537.821Z" fill="#5F6AD5"/>
<path d="M947.736 537.821H946.663V538.679H947.736V537.821Z" fill="#5F6AD5"/>
<path d="M969.202 537.821H968.129V538.679H969.202V537.821Z" fill="#5F6AD5"/>
<path d="M990.669 537.821H989.595V538.679H990.669V537.821Z" fill="#5F6AD5"/>
<path d="M1012.13 537.821H1011.06V538.679H1012.13V537.821Z" fill="#5F6AD5"/>
<path d="M1033.6 537.821H1032.53V538.679H1033.6V537.821Z" fill="#5F6AD5"/>
<path d="M1055.07 537.821H1053.99V538.679H1055.07V537.821Z" fill="#5F6AD5"/>
<path d="M1076.53 537.821H1075.46V538.679H1076.53V537.821Z" fill="#5F6AD5"/>
<path d="M1098 537.821H1096.93V538.679H1098V537.821Z" fill="#5F6AD5"/>
<path d="M733.073 554.986H732V555.844H733.073V554.986Z" fill="#5F6AD5"/>
<path d="M754.54 554.986H753.466V555.844H754.54V554.986Z" fill="#5F6AD5"/>
<path d="M776.006 554.986H774.933V555.844H776.006V554.986Z" fill="#5F6AD5"/>
<path d="M797.472 554.986H796.399V555.844H797.472V554.986Z" fill="#5F6AD5"/>
<path d="M818.938 554.986H817.865V555.844H818.938V554.986Z" fill="#5F6AD5"/>
<path d="M969.202 554.986H968.129V555.844H969.202V554.986Z" fill="#5F6AD5"/>
<path d="M990.669 554.986H989.595V555.844H990.669V554.986Z" fill="#5F6AD5"/>
<path d="M1012.13 554.986H1011.06V555.844H1012.13V554.986Z" fill="#5F6AD5"/>
<path d="M1033.6 554.986H1032.53V555.844H1033.6V554.986Z" fill="#5F6AD5"/>
<path d="M1055.07 554.986H1053.99V555.844H1055.07V554.986Z" fill="#5F6AD5"/>
<path d="M1076.53 554.986H1075.46V555.844H1076.53V554.986Z" fill="#5F6AD5"/>
<path d="M1098 554.986H1096.93V555.844H1098V554.986Z" fill="#5F6AD5"/>
<path d="M733.073 572.151H732V573.009H733.073V572.151Z" fill="#5F6AD5"/>
<path d="M754.54 572.151H753.466V573.009H754.54V572.151Z" fill="#5F6AD5"/>
<path d="M776.006 572.151H774.933V573.009H776.006V572.151Z" fill="#5F6AD5"/>
<path d="M797.472 572.151H796.399V573.009H797.472V572.151Z" fill="#5F6AD5"/>
<path d="M818.938 572.151H817.865V573.009H818.938V572.151Z" fill="#5F6AD5"/>
<path d="M969.202 572.151H968.129V573.009H969.202V572.151Z" fill="#5F6AD5"/>
<path d="M990.669 572.151H989.595V573.009H990.669V572.151Z" fill="#5F6AD5"/>
<path d="M1012.13 572.151H1011.06V573.009H1012.13V572.151Z" fill="#5F6AD5"/>
<path d="M1033.6 572.151H1032.53V573.009H1033.6V572.151Z" fill="#5F6AD5"/>
<path d="M1055.07 572.151H1053.99V573.009H1055.07V572.151Z" fill="#5F6AD5"/>
<path d="M1076.53 572.151H1075.46V573.009H1076.53V572.151Z" fill="#5F6AD5"/>
<path d="M1098 572.151H1096.93V573.009H1098V572.151Z" fill="#5F6AD5"/>
<path d="M733.073 589.316H732V590.174H733.073V589.316Z" fill="#5F6AD5"/>
<path d="M754.54 589.316H753.466V590.174H754.54V589.316Z" fill="#5F6AD5"/>
<path d="M883.337 589.316H882.264V590.174H883.337V589.316Z" fill="#5F6AD5"/>
<path d="M904.803 589.316H903.73V590.174H904.803V589.316Z" fill="#5F6AD5"/>
<path d="M926.27 589.316H925.196V590.174H926.27V589.316Z" fill="#5F6AD5"/>
<path d="M947.736 589.316H946.663V590.174H947.736V589.316Z" fill="#5F6AD5"/>
<path d="M969.202 589.316H968.129V590.174H969.202V589.316Z" fill="#5F6AD5"/>
<path d="M990.669 589.316H989.595V590.174H990.669V589.316Z" fill="#5F6AD5"/>
<path d="M1012.13 589.316H1011.06V590.174H1012.13V589.316Z" fill="#5F6AD5"/>
<path d="M1076.53 589.316H1075.46V590.174H1076.53V589.316Z" fill="#5F6AD5"/>
<path d="M1098 589.316H1096.93V590.174H1098V589.316Z" fill="#5F6AD5"/>
<path d="M733.073 606.481H732V607.34H733.073V606.481Z" fill="#5F6AD5"/>
<path d="M754.54 606.481H753.466V607.34H754.54V606.481Z" fill="#5F6AD5"/>
<path d="M861.871 606.481H860.798V607.34H861.871V606.481Z" fill="#5F6AD5"/>
<path d="M883.337 606.481H882.264V607.34H883.337V606.481Z" fill="#5F6AD5"/>
<path d="M904.803 606.481H903.73V607.34H904.803V606.481Z" fill="#5F6AD5"/>
<path d="M926.27 606.481H925.196V607.34H926.27V606.481Z" fill="#5F6AD5"/>
<path d="M947.736 606.481H946.663V607.34H947.736V606.481Z" fill="#5F6AD5"/>
<path d="M969.202 606.481H968.129V607.34H969.202V606.481Z" fill="#5F6AD5"/>
<path d="M990.669 606.481H989.595V607.34H990.669V606.481Z" fill="#5F6AD5"/>
<path d="M1012.13 606.481H1011.06V607.34H1012.13V606.481Z" fill="#5F6AD5"/>
<path d="M1076.53 606.481H1075.46V607.34H1076.53V606.481Z" fill="#5F6AD5"/>
<path d="M1098 606.481H1096.93V607.34H1098V606.481Z" fill="#5F6AD5"/>
<path d="M733.073 623.646H732V624.505H733.073V623.646Z" fill="#5F6AD5"/>
<path d="M754.54 623.646H753.466V624.505H754.54V623.646Z" fill="#5F6AD5"/>
<path d="M861.871 623.646H860.798V624.505H861.871V623.646Z" fill="#5F6AD5"/>
<path d="M883.337 623.646H882.264V624.505H883.337V623.646Z" fill="#5F6AD5"/>
<path d="M904.803 623.646H903.73V624.505H904.803V623.646Z" fill="#5F6AD5"/>
<path d="M926.27 623.646H925.196V624.505H926.27V623.646Z" fill="#5F6AD5"/>
<path d="M947.736 623.646H946.663V624.505H947.736V623.646Z" fill="#5F6AD5"/>
<path d="M969.202 623.646H968.129V624.505H969.202V623.646Z" fill="#5F6AD5"/>
<path d="M990.669 623.646H989.595V624.505H990.669V623.646Z" fill="#5F6AD5"/>
<path d="M1012.13 623.646H1011.06V624.505H1012.13V623.646Z" fill="#5F6AD5"/>
<path d="M1076.53 623.646H1075.46V624.505H1076.53V623.646Z" fill="#5F6AD5"/>
<path d="M1098 623.646H1096.93V624.505H1098V623.646Z" fill="#5F6AD5"/>
<path d="M733.073 640.812H732V641.67H733.073V640.812Z" fill="#5F6AD5"/>
<path d="M754.54 640.812H753.466V641.67H754.54V640.812Z" fill="#5F6AD5"/>
<path d="M861.871 640.812H860.798V641.67H861.871V640.812Z" fill="#5F6AD5"/>
<path d="M883.337 640.812H882.264V641.67H883.337V640.812Z" fill="#5F6AD5"/>
<path d="M904.803 640.812H903.73V641.67H904.803V640.812Z" fill="#5F6AD5"/>
<path d="M926.27 640.812H925.196V641.67H926.27V640.812Z" fill="#5F6AD5"/>
<path d="M947.736 640.812H946.663V641.67H947.736V640.812Z" fill="#5F6AD5"/>
<path d="M969.202 640.812H968.129V641.67H969.202V640.812Z" fill="#5F6AD5"/>
<path d="M990.669 640.812H989.595V641.67H990.669V640.812Z" fill="#5F6AD5"/>
<path d="M1012.13 640.812H1011.06V641.67H1012.13V640.812Z" fill="#5F6AD5"/>
<path d="M1076.53 640.812H1075.46V641.67H1076.53V640.812Z" fill="#5F6AD5"/>
<path d="M1098 640.812H1096.93V641.67H1098V640.812Z" fill="#5F6AD5"/>
<path d="M733.073 657.977H732V658.835H733.073V657.977Z" fill="#5F6AD5"/>
<path d="M754.54 657.977H753.466V658.835H754.54V657.977Z" fill="#5F6AD5"/>
<path d="M861.871 657.977H860.798V658.835H861.871V657.977Z" fill="#5F6AD5"/>
<path d="M883.337 657.977H882.264V658.835H883.337V657.977Z" fill="#5F6AD5"/>
<path d="M904.803 657.977H903.73V658.835H904.803V657.977Z" fill="#5F6AD5"/>
<path d="M926.27 657.977H925.196V658.835H926.27V657.977Z" fill="#5F6AD5"/>
<path d="M947.736 657.977H946.663V658.835H947.736V657.977Z" fill="#5F6AD5"/>
<path d="M969.202 657.977H968.129V658.835H969.202V657.977Z" fill="#5F6AD5"/>
<path d="M990.669 657.977H989.595V658.835H990.669V657.977Z" fill="#5F6AD5"/>
<path d="M1012.13 657.977H1011.06V658.835H1012.13V657.977Z" fill="#5F6AD5"/>
<path d="M1076.53 657.977H1075.46V658.835H1076.53V657.977Z" fill="#5F6AD5"/>
<path d="M1098 657.977H1096.93V658.835H1098V657.977Z" fill="#5F6AD5"/>
<path d="M733.073 675.142H732V676H733.073V675.142Z" fill="#5F6AD5"/>
<path d="M754.54 675.142H753.466V676H754.54V675.142Z" fill="#5F6AD5"/>
<path d="M776.006 675.142H774.933V676H776.006V675.142Z" fill="#5F6AD5"/>
<path d="M797.472 675.142H796.399V676H797.472V675.142Z" fill="#5F6AD5"/>
<path d="M818.938 675.142H817.865V676H818.938V675.142Z" fill="#5F6AD5"/>
<path d="M840.405 675.142H839.331V676H840.405V675.142Z" fill="#5F6AD5"/>
<path d="M861.871 675.142H860.798V676H861.871V675.142Z" fill="#5F6AD5"/>
<path d="M883.337 675.142H882.264V676H883.337V675.142Z" fill="#5F6AD5"/>
<path d="M904.803 675.142H903.73V676H904.803V675.142Z" fill="#5F6AD5"/>
<path d="M926.27 675.142H925.196V676H926.27V675.142Z" fill="#5F6AD5"/>
<path d="M947.736 675.142H946.663V676H947.736V675.142Z" fill="#5F6AD5"/>
<path d="M969.202 675.142H968.129V676H969.202V675.142Z" fill="#5F6AD5"/>
<path d="M990.669 675.142H989.595V676H990.669V675.142Z" fill="#5F6AD5"/>
<path d="M1012.13 675.142H1011.06V676H1012.13V675.142Z" fill="#5F6AD5"/>
<path d="M1076.53 675.142H1075.46V676H1076.53V675.142Z" fill="#5F6AD5"/>
<path d="M1098 675.142H1096.93V676H1098V675.142Z" fill="#5F6AD5"/>
<path d="M16.0733 104H15V104.814H16.0733V104Z" fill="#5F6AD5"/>
<path d="M37.5396 104H36.4663V104.814H37.5396V104Z" fill="#5F6AD5"/>
<path d="M59.0059 104H57.9325V104.814H59.0059V104Z" fill="#5F6AD5"/>
<path d="M80.4721 104H79.3988V104.814H80.4721V104Z" fill="#5F6AD5"/>
<path d="M101.938 104H100.865V104.814H101.938V104Z" fill="#5F6AD5"/>
<path d="M123.405 104H122.331V104.814H123.405V104Z" fill="#5F6AD5"/>
<path d="M144.871 104H143.798V104.814H144.871V104Z" fill="#5F6AD5"/>
<path d="M166.337 104H165.264V104.814H166.337V104Z" fill="#5F6AD5"/>
<path d="M187.803 104H186.73V104.814H187.803V104Z" fill="#5F6AD5"/>
<path d="M209.27 104H208.196V104.814H209.27V104Z" fill="#5F6AD5"/>
<path d="M230.736 104H229.663V104.814H230.736V104Z" fill="#5F6AD5"/>
<path d="M252.202 104H251.129V104.814H252.202V104Z" fill="#5F6AD5"/>
<path d="M273.669 104H272.595V104.814H273.669V104Z" fill="#5F6AD5"/>
<path d="M295.135 104H294.062V104.814H295.135V104Z" fill="#5F6AD5"/>
<path d="M316.601 104H315.528V104.814H316.601V104Z" fill="#5F6AD5"/>
<path d="M16.0733 120.281H15V121.095H16.0733V120.281Z" fill="#5F6AD5"/>
<path d="M37.5396 120.281H36.4663V121.095H37.5396V120.281Z" fill="#5F6AD5"/>
<path d="M59.0059 120.281H57.9325V121.095H59.0059V120.281Z" fill="#5F6AD5"/>
<path d="M80.4721 120.281H79.3988V121.095H80.4721V120.281Z" fill="#5F6AD5"/>
<path d="M101.938 120.281H100.865V121.095H101.938V120.281Z" fill="#5F6AD5"/>
<path d="M123.405 120.281H122.331V121.095H123.405V120.281Z" fill="#5F6AD5"/>
<path d="M144.871 120.281H143.798V121.095H144.871V120.281Z" fill="#5F6AD5"/>
<path d="M166.337 120.281H165.264V121.095H166.337V120.281Z" fill="#5F6AD5"/>
<path d="M187.803 120.281H186.73V121.095H187.803V120.281Z" fill="#5F6AD5"/>
<path d="M209.27 120.281H208.196V121.095H209.27V120.281Z" fill="#5F6AD5"/>
<path d="M230.736 120.281H229.663V121.095H230.736V120.281Z" fill="#5F6AD5"/>
<path d="M252.202 120.281H251.129V121.095H252.202V120.281Z" fill="#5F6AD5"/>
<path d="M273.669 120.281H272.595V121.095H273.669V120.281Z" fill="#5F6AD5"/>
<path d="M295.135 120.281H294.062V121.095H295.135V120.281Z" fill="#5F6AD5"/>
<path d="M316.601 120.281H315.528V121.095H316.601V120.281Z" fill="#5F6AD5"/>
<path d="M16.0733 136.562H15V137.376H16.0733V136.562Z" fill="#5F6AD5"/>
<path d="M187.803 136.562H186.73V137.376H187.803V136.562Z" fill="#5F6AD5"/>
<path d="M209.27 136.562H208.196V137.376H209.27V136.562Z" fill="#5F6AD5"/>
<path d="M230.736 136.562H229.663V137.376H230.736V136.562Z" fill="#5F6AD5"/>
<path d="M252.202 136.562H251.129V137.376H252.202V136.562Z" fill="#5F6AD5"/>
<path d="M273.669 136.562H272.595V137.376H273.669V136.562Z" fill="#5F6AD5"/>
<path d="M295.135 136.562H294.062V137.376H295.135V136.562Z" fill="#5F6AD5"/>
<path d="M316.601 136.562H315.528V137.376H316.601V136.562Z" fill="#5F6AD5"/>
<path d="M16.0733 152.844H15V153.658H16.0733V152.844Z" fill="#5F6AD5"/>
<path d="M230.736 152.844H229.663V153.658H230.736V152.844Z" fill="#5F6AD5"/>
<path d="M252.202 152.844H251.129V153.658H252.202V152.844Z" fill="#5F6AD5"/>
<path d="M273.669 152.844H272.595V153.658H273.669V152.844Z" fill="#5F6AD5"/>
<path d="M295.135 152.844H294.062V153.658H295.135V152.844Z" fill="#5F6AD5"/>
<path d="M316.601 152.844H315.528V153.658H316.601V152.844Z" fill="#5F6AD5"/>
<path d="M338.067 152.844H336.994V153.658H338.067V152.844Z" fill="#5F6AD5"/>
<path d="M359.534 152.844H358.46V153.658H359.534V152.844Z" fill="#5F6AD5"/>
<path d="M381 152.844H379.927V153.658H381V152.844Z" fill="#5F6AD5"/>
<path d="M16.0733 169.125H15V169.939H16.0733V169.125Z" fill="#5F6AD5"/>
<path d="M230.736 169.125H229.663V169.939H230.736V169.125Z" fill="#5F6AD5"/>
<path d="M252.202 169.125H251.129V169.939H252.202V169.125Z" fill="#5F6AD5"/>
<path d="M273.669 169.125H272.595V169.939H273.669V169.125Z" fill="#5F6AD5"/>
<path d="M295.135 169.125H294.062V169.939H295.135V169.125Z" fill="#5F6AD5"/>
<path d="M316.601 169.125H315.528V169.939H316.601V169.125Z" fill="#5F6AD5"/>
<path d="M338.067 169.125H336.994V169.939H338.067V169.125Z" fill="#5F6AD5"/>
<path d="M359.534 169.125H358.46V169.939H359.534V169.125Z" fill="#5F6AD5"/>
<path d="M381 169.125H379.927V169.939H381V169.125Z" fill="#5F6AD5"/>
<path d="M16.0733 185.406H15V186.22H16.0733V185.406Z" fill="#5F6AD5"/>
<path d="M37.5396 185.406H36.4663V186.22H37.5396V185.406Z" fill="#5F6AD5"/>
<path d="M59.0059 185.406H57.9325V186.22H59.0059V185.406Z" fill="#5F6AD5"/>
<path d="M80.4721 185.406H79.3988V186.22H80.4721V185.406Z" fill="#5F6AD5"/>
<path d="M101.938 185.406H100.865V186.22H101.938V185.406Z" fill="#5F6AD5"/>
<path d="M123.405 185.406H122.331V186.22H123.405V185.406Z" fill="#5F6AD5"/>
<path d="M144.871 185.406H143.798V186.22H144.871V185.406Z" fill="#5F6AD5"/>
<path d="M230.736 185.406H229.663V186.22H230.736V185.406Z" fill="#5F6AD5"/>
<path d="M252.202 185.406H251.129V186.22H252.202V185.406Z" fill="#5F6AD5"/>
<path d="M273.669 185.406H272.595V186.22H273.669V185.406Z" fill="#5F6AD5"/>
<path d="M295.135 185.406H294.062V186.22H295.135V185.406Z" fill="#5F6AD5"/>
<path d="M316.601 185.406H315.528V186.22H316.601V185.406Z" fill="#5F6AD5"/>
<path d="M338.067 185.406H336.994V186.22H338.067V185.406Z" fill="#5F6AD5"/>
<path d="M359.534 185.406H358.46V186.22H359.534V185.406Z" fill="#5F6AD5"/>
<path d="M381 185.406H379.927V186.22H381V185.406Z" fill="#5F6AD5"/>
<path d="M16.0733 201.687H15V202.501H16.0733V201.687Z" fill="#5F6AD5"/>
<path d="M37.5396 201.687H36.4663V202.501H37.5396V201.687Z" fill="#5F6AD5"/>
<path d="M59.0059 201.687H57.9325V202.501H59.0059V201.687Z" fill="#5F6AD5"/>
<path d="M80.4721 201.687H79.3988V202.501H80.4721V201.687Z" fill="#5F6AD5"/>
<path d="M101.938 201.687H100.865V202.501H101.938V201.687Z" fill="#5F6AD5"/>
<path d="M123.405 201.687H122.331V202.501H123.405V201.687Z" fill="#5F6AD5"/>
<path d="M144.871 201.687H143.798V202.501H144.871V201.687Z" fill="#5F6AD5"/>
<path d="M166.337 201.687H165.264V202.501H166.337V201.687Z" fill="#5F6AD5"/>
<path d="M187.803 201.687H186.73V202.501H187.803V201.687Z" fill="#5F6AD5"/>
<path d="M209.27 201.687H208.196V202.501H209.27V201.687Z" fill="#5F6AD5"/>
<path d="M230.736 201.687H229.663V202.501H230.736V201.687Z" fill="#5F6AD5"/>
<path d="M252.202 201.687H251.129V202.501H252.202V201.687Z" fill="#5F6AD5"/>
<path d="M273.669 201.687H272.595V202.501H273.669V201.687Z" fill="#5F6AD5"/>
<path d="M295.135 201.687H294.062V202.501H295.135V201.687Z" fill="#5F6AD5"/>
<path d="M316.601 201.687H315.528V202.501H316.601V201.687Z" fill="#5F6AD5"/>
<path d="M338.067 201.687H336.994V202.501H338.067V201.687Z" fill="#5F6AD5"/>
<path d="M359.534 201.687H358.46V202.501H359.534V201.687Z" fill="#5F6AD5"/>
<path d="M381 201.687H379.927V202.501H381V201.687Z" fill="#5F6AD5"/>
<path d="M16.0733 217.968H15V218.782H16.0733V217.968Z" fill="#5F6AD5"/>
<path d="M37.5396 217.968H36.4663V218.782H37.5396V217.968Z" fill="#5F6AD5"/>
<path d="M59.0059 217.968H57.9325V218.782H59.0059V217.968Z" fill="#5F6AD5"/>
<path d="M80.4721 217.968H79.3988V218.782H80.4721V217.968Z" fill="#5F6AD5"/>
<path d="M101.938 217.968H100.865V218.782H101.938V217.968Z" fill="#5F6AD5"/>
<path d="M123.405 217.968H122.331V218.782H123.405V217.968Z" fill="#5F6AD5"/>
<path d="M144.871 217.968H143.798V218.782H144.871V217.968Z" fill="#5F6AD5"/>
<path d="M166.337 217.968H165.264V218.782H166.337V217.968Z" fill="#5F6AD5"/>
<path d="M187.803 217.968H186.73V218.782H187.803V217.968Z" fill="#5F6AD5"/>
<path d="M209.27 217.968H208.196V218.782H209.27V217.968Z" fill="#5F6AD5"/>
<path d="M230.736 217.968H229.663V218.782H230.736V217.968Z" fill="#5F6AD5"/>
<path d="M252.202 217.968H251.129V218.782H252.202V217.968Z" fill="#5F6AD5"/>
<path d="M273.669 217.968H272.595V218.782H273.669V217.968Z" fill="#5F6AD5"/>
<path d="M295.135 217.968H294.062V218.782H295.135V217.968Z" fill="#5F6AD5"/>
<path d="M316.601 217.968H315.528V218.782H316.601V217.968Z" fill="#5F6AD5"/>
<path d="M338.067 217.968H336.994V218.782H338.067V217.968Z" fill="#5F6AD5"/>
<path d="M359.534 217.968H358.46V218.782H359.534V217.968Z" fill="#5F6AD5"/>
<path d="M381 217.968H379.927V218.782H381V217.968Z" fill="#5F6AD5"/>
<path d="M16.0733 234.249H15V235.063H16.0733V234.249Z" fill="#5F6AD5"/>
<path d="M37.5396 234.249H36.4663V235.063H37.5396V234.249Z" fill="#5F6AD5"/>
<path d="M59.0059 234.249H57.9325V235.063H59.0059V234.249Z" fill="#5F6AD5"/>
<path d="M80.4721 234.249H79.3988V235.063H80.4721V234.249Z" fill="#5F6AD5"/>
<path d="M101.938 234.249H100.865V235.063H101.938V234.249Z" fill="#5F6AD5"/>
<path d="M123.405 234.249H122.331V235.063H123.405V234.249Z" fill="#5F6AD5"/>
<path d="M144.871 234.249H143.798V235.063H144.871V234.249Z" fill="#5F6AD5"/>
<path d="M166.337 234.249H165.264V235.063H166.337V234.249Z" fill="#5F6AD5"/>
<path d="M187.803 234.249H186.73V235.063H187.803V234.249Z" fill="#5F6AD5"/>
<path d="M209.27 234.249H208.196V235.063H209.27V234.249Z" fill="#5F6AD5"/>
<path d="M230.736 234.249H229.663V235.063H230.736V234.249Z" fill="#5F6AD5"/>
<path d="M252.202 234.249H251.129V235.063H252.202V234.249Z" fill="#5F6AD5"/>
<path d="M273.669 234.249H272.595V235.063H273.669V234.249Z" fill="#5F6AD5"/>
<path d="M295.135 234.249H294.062V235.063H295.135V234.249Z" fill="#5F6AD5"/>
<path d="M316.601 234.249H315.528V235.063H316.601V234.249Z" fill="#5F6AD5"/>
<path d="M338.067 234.249H336.994V235.063H338.067V234.249Z" fill="#5F6AD5"/>
<path d="M359.534 234.249H358.46V235.063H359.534V234.249Z" fill="#5F6AD5"/>
<path d="M381 234.249H379.927V235.063H381V234.249Z" fill="#5F6AD5"/>
<path d="M16.0733 251.345H15V252.159H16.0733V251.345Z" fill="#5F6AD5"/>
<path d="M37.5396 251.345H36.4663V252.159H37.5396V251.345Z" fill="#5F6AD5"/>
<path d="M59.0059 251.345H57.9325V252.159H59.0059V251.345Z" fill="#5F6AD5"/>
<path d="M80.4721 251.345H79.3988V252.159H80.4721V251.345Z" fill="#5F6AD5"/>
<path d="M187.803 251.345H186.73V252.159H187.803V251.345Z" fill="#5F6AD5"/>
<path d="M209.27 251.345H208.196V252.159H209.27V251.345Z" fill="#5F6AD5"/>
<path d="M230.736 251.345H229.663V252.159H230.736V251.345Z" fill="#5F6AD5"/>
<path d="M252.202 251.345H251.129V252.159H252.202V251.345Z" fill="#5F6AD5"/>
<path d="M273.669 251.345H272.595V252.159H273.669V251.345Z" fill="#5F6AD5"/>
<path d="M295.135 251.345H294.062V252.159H295.135V251.345Z" fill="#5F6AD5"/>
<path d="M16.0733 267.626H15V268.44H16.0733V267.626Z" fill="#5F6AD5"/>
<path d="M37.5396 267.626H36.4663V268.44H37.5396V267.626Z" fill="#5F6AD5"/>
<path d="M59.0059 267.626H57.9325V268.44H59.0059V267.626Z" fill="#5F6AD5"/>
<path d="M80.4721 267.626H79.3988V268.44H80.4721V267.626Z" fill="#5F6AD5"/>
<path d="M187.803 267.626H186.73V268.44H187.803V267.626Z" fill="#5F6AD5"/>
<path d="M209.27 267.626H208.196V268.44H209.27V267.626Z" fill="#5F6AD5"/>
<path d="M230.736 267.626H229.663V268.44H230.736V267.626Z" fill="#5F6AD5"/>
<path d="M252.202 267.626H251.129V268.44H252.202V267.626Z" fill="#5F6AD5"/>
<path d="M273.669 267.626H272.595V268.44H273.669V267.626Z" fill="#5F6AD5"/>
<path d="M295.135 267.626H294.062V268.44H295.135V267.626Z" fill="#5F6AD5"/>
<path d="M16.0733 283.907H15V284.721H16.0733V283.907Z" fill="#5F6AD5"/>
<path d="M37.5396 283.907H36.4663V284.721H37.5396V283.907Z" fill="#5F6AD5"/>
<path d="M59.0059 283.907H57.9325V284.721H59.0059V283.907Z" fill="#5F6AD5"/>
<path d="M80.4721 283.907H79.3988V284.721H80.4721V283.907Z" fill="#5F6AD5"/>
<path d="M187.803 283.907H186.73V284.721H187.803V283.907Z" fill="#5F6AD5"/>
<path d="M209.27 283.907H208.196V284.721H209.27V283.907Z" fill="#5F6AD5"/>
<path d="M230.736 283.907H229.663V284.721H230.736V283.907Z" fill="#5F6AD5"/>
<path d="M252.202 283.907H251.129V284.721H252.202V283.907Z" fill="#5F6AD5"/>
<path d="M273.669 283.907H272.595V284.721H273.669V283.907Z" fill="#5F6AD5"/>
<path d="M295.135 283.907H294.062V284.721H295.135V283.907Z" fill="#5F6AD5"/>
<path d="M16.0733 300.188H15V301.002H16.0733V300.188Z" fill="#5F6AD5"/>
<path d="M37.5396 300.188H36.4663V301.002H37.5396V300.188Z" fill="#5F6AD5"/>
<path d="M59.0059 300.188H57.9325V301.002H59.0059V300.188Z" fill="#5F6AD5"/>
<path d="M80.4721 300.188H79.3988V301.002H80.4721V300.188Z" fill="#5F6AD5"/>
<path d="M187.803 300.188H186.73V301.002H187.803V300.188Z" fill="#5F6AD5"/>
<path d="M209.27 300.188H208.196V301.002H209.27V300.188Z" fill="#5F6AD5"/>
<path d="M230.736 300.188H229.663V301.002H230.736V300.188Z" fill="#5F6AD5"/>
<path d="M252.202 300.188H251.129V301.002H252.202V300.188Z" fill="#5F6AD5"/>
<path d="M273.669 300.188H272.595V301.002H273.669V300.188Z" fill="#5F6AD5"/>
<path d="M295.135 300.188H294.062V301.002H295.135V300.188Z" fill="#5F6AD5"/>
<path d="M16.0733 316.469H15V317.283H16.0733V316.469Z" fill="#5F6AD5"/>
<path d="M37.5396 316.469H36.4663V317.283H37.5396V316.469Z" fill="#5F6AD5"/>
<path d="M59.0059 316.469H57.9325V317.283H59.0059V316.469Z" fill="#5F6AD5"/>
<path d="M80.4721 316.469H79.3988V317.283H80.4721V316.469Z" fill="#5F6AD5"/>
<path d="M187.803 316.469H186.73V317.283H187.803V316.469Z" fill="#5F6AD5"/>
<path d="M209.27 316.469H208.196V317.283H209.27V316.469Z" fill="#5F6AD5"/>
<path d="M230.736 316.469H229.663V317.283H230.736V316.469Z" fill="#5F6AD5"/>
<path d="M252.202 316.469H251.129V317.283H252.202V316.469Z" fill="#5F6AD5"/>
<path d="M273.669 316.469H272.595V317.283H273.669V316.469Z" fill="#5F6AD5"/>
<path d="M295.135 316.469H294.062V317.283H295.135V316.469Z" fill="#5F6AD5"/>
<path d="M37.5396 332.751H36.4663V333.565H37.5396V332.751Z" fill="#5F6AD5"/>
<path d="M59.0059 332.751H57.9325V333.565H59.0059V332.751Z" fill="#5F6AD5"/>
<path d="M80.4721 332.751H79.3988V333.565H80.4721V332.751Z" fill="#5F6AD5"/>
<path d="M187.803 332.751H186.73V333.565H187.803V332.751Z" fill="#5F6AD5"/>
<path d="M209.27 332.751H208.196V333.565H209.27V332.751Z" fill="#5F6AD5"/>
<path d="M230.736 332.751H229.663V333.565H230.736V332.751Z" fill="#5F6AD5"/>
<path d="M252.202 332.751H251.129V333.565H252.202V332.751Z" fill="#5F6AD5"/>
<path d="M273.669 332.751H272.595V333.565H273.669V332.751Z" fill="#5F6AD5"/>
<path d="M295.135 332.751H294.062V333.565H295.135V332.751Z" fill="#5F6AD5"/>
<path d="M37.5396 349.032H36.4663V349.846H37.5396V349.032Z" fill="#5F6AD5"/>
<path d="M59.0059 349.032H57.9325V349.846H59.0059V349.032Z" fill="#5F6AD5"/>
<path d="M80.4721 349.032H79.3988V349.846H80.4721V349.032Z" fill="#5F6AD5"/>
<path d="M187.803 349.032H186.73V349.846H187.803V349.032Z" fill="#5F6AD5"/>
<path d="M209.27 349.032H208.196V349.846H209.27V349.032Z" fill="#5F6AD5"/>
<path d="M230.736 349.032H229.663V349.846H230.736V349.032Z" fill="#5F6AD5"/>
<path d="M252.202 349.032H251.129V349.846H252.202V349.032Z" fill="#5F6AD5"/>
<path d="M273.669 349.032H272.595V349.846H273.669V349.032Z" fill="#5F6AD5"/>
<path d="M295.135 349.032H294.062V349.846H295.135V349.032Z" fill="#5F6AD5"/>
<path d="M37.5396 365.313H36.4663V366.127H37.5396V365.313Z" fill="#5F6AD5"/>
<path d="M59.0059 365.313H57.9325V366.127H59.0059V365.313Z" fill="#5F6AD5"/>
<path d="M80.4721 365.313H79.3988V366.127H80.4721V365.313Z" fill="#5F6AD5"/>
<path d="M252.202 365.313H251.129V366.127H252.202V365.313Z" fill="#5F6AD5"/>
<path d="M273.669 365.313H272.595V366.127H273.669V365.313Z" fill="#5F6AD5"/>
<path d="M295.135 365.313H294.062V366.127H295.135V365.313Z" fill="#5F6AD5"/>
<path d="M316.601 365.313H315.528V366.127H316.601V365.313Z" fill="#5F6AD5"/>
<path d="M338.067 365.313H336.994V366.127H338.067V365.313Z" fill="#5F6AD5"/>
<path d="M359.534 365.313H358.46V366.127H359.534V365.313Z" fill="#5F6AD5"/>
<path d="M381 365.313H379.927V366.127H381V365.313Z" fill="#5F6AD5"/>
<path d="M37.5396 381.594H36.4663V382.408H37.5396V381.594Z" fill="#5F6AD5"/>
<path d="M59.0059 381.594H57.9325V382.408H59.0059V381.594Z" fill="#5F6AD5"/>
<path d="M80.4721 381.594H79.3988V382.408H80.4721V381.594Z" fill="#5F6AD5"/>
<path d="M101.938 381.594H100.865V382.408H101.938V381.594Z" fill="#5F6AD5"/>
<path d="M123.405 381.594H122.331V382.408H123.405V381.594Z" fill="#5F6AD5"/>
<path d="M144.871 381.594H143.798V382.408H144.871V381.594Z" fill="#5F6AD5"/>
<path d="M166.337 381.594H165.264V382.408H166.337V381.594Z" fill="#5F6AD5"/>
<path d="M187.803 381.594H186.73V382.408H187.803V381.594Z" fill="#5F6AD5"/>
<path d="M209.27 381.594H208.196V382.408H209.27V381.594Z" fill="#5F6AD5"/>
<path d="M230.736 381.594H229.663V382.408H230.736V381.594Z" fill="#5F6AD5"/>
<path d="M252.202 381.594H251.129V382.408H252.202V381.594Z" fill="#5F6AD5"/>
<path d="M273.669 381.594H272.595V382.408H273.669V381.594Z" fill="#5F6AD5"/>
<path d="M295.135 381.594H294.062V382.408H295.135V381.594Z" fill="#5F6AD5"/>
<path d="M316.601 381.594H315.528V382.408H316.601V381.594Z" fill="#5F6AD5"/>
<path d="M338.067 381.594H336.994V382.408H338.067V381.594Z" fill="#5F6AD5"/>
<path d="M359.534 381.594H358.46V382.408H359.534V381.594Z" fill="#5F6AD5"/>
<path d="M381 381.594H379.927V382.408H381V381.594Z" fill="#5F6AD5"/>
<path d="M37.5396 396.592H36.4663V397.406H37.5396V396.592Z" fill="#5F6AD5"/>
<path d="M59.0059 396.592H57.9325V397.406H59.0059V396.592Z" fill="#5F6AD5"/>
<path d="M80.4721 396.592H79.3988V397.406H80.4721V396.592Z" fill="#5F6AD5"/>
<path d="M101.938 396.592H100.865V397.406H101.938V396.592Z" fill="#5F6AD5"/>
<path d="M123.405 396.592H122.331V397.406H123.405V396.592Z" fill="#5F6AD5"/>
<path d="M144.871 396.592H143.798V397.406H144.871V396.592Z" fill="#5F6AD5"/>
<path d="M166.337 396.592H165.264V397.406H166.337V396.592Z" fill="#5F6AD5"/>
<path d="M187.803 396.592H186.73V397.406H187.803V396.592Z" fill="#5F6AD5"/>
<path d="M209.27 396.592H208.196V397.406H209.27V396.592Z" fill="#5F6AD5"/>
<path d="M230.736 396.592H229.663V397.406H230.736V396.592Z" fill="#5F6AD5"/>
<path d="M252.202 396.592H251.129V397.406H252.202V396.592Z" fill="#5F6AD5"/>
<path d="M273.669 396.592H272.595V397.406H273.669V396.592Z" fill="#5F6AD5"/>
<path d="M295.135 396.592H294.062V397.406H295.135V396.592Z" fill="#5F6AD5"/>
<path d="M316.601 396.592H315.528V397.406H316.601V396.592Z" fill="#5F6AD5"/>
<path d="M37.5396 412.873H36.4663V413.687H37.5396V412.873Z" fill="#5F6AD5"/>
<path d="M59.0059 412.873H57.9325V413.687H59.0059V412.873Z" fill="#5F6AD5"/>
<path d="M80.4721 412.873H79.3988V413.687H80.4721V412.873Z" fill="#5F6AD5"/>
<path d="M101.938 412.873H100.865V413.687H101.938V412.873Z" fill="#5F6AD5"/>
<path d="M123.405 412.873H122.331V413.687H123.405V412.873Z" fill="#5F6AD5"/>
<path d="M144.871 412.873H143.798V413.687H144.871V412.873Z" fill="#5F6AD5"/>
<path d="M166.337 412.873H165.264V413.687H166.337V412.873Z" fill="#5F6AD5"/>
<path d="M187.803 412.873H186.73V413.687H187.803V412.873Z" fill="#5F6AD5"/>
<path d="M209.27 412.873H208.196V413.687H209.27V412.873Z" fill="#5F6AD5"/>
<path d="M230.736 412.873H229.663V413.687H230.736V412.873Z" fill="#5F6AD5"/>
<path d="M252.202 412.873H251.129V413.687H252.202V412.873Z" fill="#5F6AD5"/>
<path d="M273.669 412.873H272.595V413.687H273.669V412.873Z" fill="#5F6AD5"/>
<path d="M295.135 412.873H294.062V413.687H295.135V412.873Z" fill="#5F6AD5"/>
<path d="M316.601 412.873H315.528V413.687H316.601V412.873Z" fill="#5F6AD5"/>
<path d="M37.5396 429.154H36.4663V429.968H37.5396V429.154Z" fill="#5F6AD5"/>
<path d="M59.0059 429.154H57.9325V429.968H59.0059V429.154Z" fill="#5F6AD5"/>
<path d="M80.4721 429.154H79.3988V429.968H80.4721V429.154Z" fill="#5F6AD5"/>
<path d="M101.938 429.154H100.865V429.968H101.938V429.154Z" fill="#5F6AD5"/>
<path d="M123.405 429.154H122.331V429.968H123.405V429.154Z" fill="#5F6AD5"/>
<path d="M144.871 429.154H143.798V429.968H144.871V429.154Z" fill="#5F6AD5"/>
<path d="M166.337 429.154H165.264V429.968H166.337V429.154Z" fill="#5F6AD5"/>
<path d="M187.803 429.154H186.73V429.968H187.803V429.154Z" fill="#5F6AD5"/>
<path d="M209.27 429.154H208.196V429.968H209.27V429.154Z" fill="#5F6AD5"/>
<path d="M230.736 429.154H229.663V429.968H230.736V429.154Z" fill="#5F6AD5"/>
<path d="M252.202 429.154H251.129V429.968H252.202V429.154Z" fill="#5F6AD5"/>
<path d="M273.669 429.154H272.595V429.968H273.669V429.154Z" fill="#5F6AD5"/>
<path d="M295.135 429.154H294.062V429.968H295.135V429.154Z" fill="#5F6AD5"/>
<path d="M316.601 429.154H315.528V429.968H316.601V429.154Z" fill="#5F6AD5"/>
<path d="M37.5396 445.435H36.4663V446.249H37.5396V445.435Z" fill="#5F6AD5"/>
<path d="M59.0059 445.435H57.9325V446.249H59.0059V445.435Z" fill="#5F6AD5"/>
<path d="M187.803 445.435H186.73V446.249H187.803V445.435Z" fill="#5F6AD5"/>
<path d="M209.27 445.435H208.196V446.249H209.27V445.435Z" fill="#5F6AD5"/>
<path d="M230.736 445.435H229.663V446.249H230.736V445.435Z" fill="#5F6AD5"/>
<path d="M252.202 445.435H251.129V446.249H252.202V445.435Z" fill="#5F6AD5"/>
<path d="M273.669 445.435H272.595V446.249H273.669V445.435Z" fill="#5F6AD5"/>
<path d="M295.135 445.435H294.062V446.249H295.135V445.435Z" fill="#5F6AD5"/>
<path d="M316.601 445.435H315.528V446.249H316.601V445.435Z" fill="#5F6AD5"/>
<path d="M338.067 445.435H336.994V446.249H338.067V445.435Z" fill="#5F6AD5"/>
<path d="M359.534 445.435H358.46V446.249H359.534V445.435Z" fill="#5F6AD5"/>
<path d="M381 445.435H379.927V446.249H381V445.435Z" fill="#5F6AD5"/>
<path d="M37.5396 461.716H36.4663V462.531H37.5396V461.716Z" fill="#5F6AD5"/>
<path d="M59.0059 461.716H57.9325V462.531H59.0059V461.716Z" fill="#5F6AD5"/>
<path d="M187.803 461.716H186.73V462.531H187.803V461.716Z" fill="#5F6AD5"/>
<path d="M209.27 461.716H208.196V462.531H209.27V461.716Z" fill="#5F6AD5"/>
<path d="M316.601 461.716H315.528V462.531H316.601V461.716Z" fill="#5F6AD5"/>
<path d="M338.067 461.716H336.994V462.531H338.067V461.716Z" fill="#5F6AD5"/>
<path d="M359.534 461.716H358.46V462.531H359.534V461.716Z" fill="#5F6AD5"/>
<path d="M381 461.716H379.927V462.531H381V461.716Z" fill="#5F6AD5"/>
<path d="M16.0733 477.998H15V478.812H16.0733V477.998Z" fill="#5F6AD5"/>
<path d="M37.5396 477.998H36.4663V478.812H37.5396V477.998Z" fill="#5F6AD5"/>
<path d="M59.0059 477.998H57.9325V478.812H59.0059V477.998Z" fill="#5F6AD5"/>
<path d="M80.4721 477.998H79.3988V478.812H80.4721V477.998Z" fill="#5F6AD5"/>
<path d="M101.938 477.998H100.865V478.812H101.938V477.998Z" fill="#5F6AD5"/>
<path d="M123.405 477.998H122.331V478.812H123.405V477.998Z" fill="#5F6AD5"/>
<path d="M144.871 477.998H143.798V478.812H144.871V477.998Z" fill="#5F6AD5"/>
<path d="M166.337 477.998H165.264V478.812H166.337V477.998Z" fill="#5F6AD5"/>
<path d="M187.803 477.998H186.73V478.812H187.803V477.998Z" fill="#5F6AD5"/>
<path d="M209.27 477.998H208.196V478.812H209.27V477.998Z" fill="#5F6AD5"/>
<path d="M230.736 477.998H229.663V478.812H230.736V477.998Z" fill="#5F6AD5"/>
<path d="M316.601 477.998H315.528V478.812H316.601V477.998Z" fill="#5F6AD5"/>
<path d="M338.067 477.998H336.994V478.812H338.067V477.998Z" fill="#5F6AD5"/>
<path d="M359.534 477.998H358.46V478.812H359.534V477.998Z" fill="#5F6AD5"/>
<path d="M381 477.998H379.927V478.812H381V477.998Z" fill="#5F6AD5"/>
<path d="M16.0733 494.279H15V495.093H16.0733V494.279Z" fill="#5F6AD5"/>
<path d="M37.5396 494.279H36.4663V495.093H37.5396V494.279Z" fill="#5F6AD5"/>
<path d="M59.0059 494.279H57.9325V495.093H59.0059V494.279Z" fill="#5F6AD5"/>
<path d="M80.4721 494.279H79.3988V495.093H80.4721V494.279Z" fill="#5F6AD5"/>
<path d="M101.938 494.279H100.865V495.093H101.938V494.279Z" fill="#5F6AD5"/>
<path d="M123.405 494.279H122.331V495.093H123.405V494.279Z" fill="#5F6AD5"/>
<path d="M144.871 494.279H143.798V495.093H144.871V494.279Z" fill="#5F6AD5"/>
<path d="M166.337 494.279H165.264V495.093H166.337V494.279Z" fill="#5F6AD5"/>
<path d="M187.803 494.279H186.73V495.093H187.803V494.279Z" fill="#5F6AD5"/>
<path d="M209.27 494.279H208.196V495.093H209.27V494.279Z" fill="#5F6AD5"/>
<path d="M230.736 494.279H229.663V495.093H230.736V494.279Z" fill="#5F6AD5"/>
<path d="M359.534 494.279H358.46V495.093H359.534V494.279Z" fill="#5F6AD5"/>
<path d="M381 494.279H379.927V495.093H381V494.279Z" fill="#5F6AD5"/>
<path d="M16.0733 510.56H15V511.374H16.0733V510.56Z" fill="#5F6AD5"/>
<path d="M37.5396 510.56H36.4663V511.374H37.5396V510.56Z" fill="#5F6AD5"/>
<path d="M59.0059 510.56H57.9325V511.374H59.0059V510.56Z" fill="#5F6AD5"/>
<path d="M80.4721 510.56H79.3988V511.374H80.4721V510.56Z" fill="#5F6AD5"/>
<path d="M101.938 510.56H100.865V511.374H101.938V510.56Z" fill="#5F6AD5"/>
<path d="M123.405 510.56H122.331V511.374H123.405V510.56Z" fill="#5F6AD5"/>
<path d="M144.871 510.56H143.798V511.374H144.871V510.56Z" fill="#5F6AD5"/>
<path d="M166.337 510.56H165.264V511.374H166.337V510.56Z" fill="#5F6AD5"/>
<path d="M187.803 510.56H186.73V511.374H187.803V510.56Z" fill="#5F6AD5"/>
<path d="M209.27 510.56H208.196V511.374H209.27V510.56Z" fill="#5F6AD5"/>
<path d="M230.736 510.56H229.663V511.374H230.736V510.56Z" fill="#5F6AD5"/>
<path d="M359.534 510.56H358.46V511.374H359.534V510.56Z" fill="#5F6AD5"/>
<path d="M381 510.56H379.927V511.374H381V510.56Z" fill="#5F6AD5"/>
<path d="M16.0733 526.841H15V527.655H16.0733V526.841Z" fill="#5F6AD5"/>
<path d="M37.5396 526.841H36.4663V527.655H37.5396V526.841Z" fill="#5F6AD5"/>
<path d="M59.0059 526.841H57.9325V527.655H59.0059V526.841Z" fill="#5F6AD5"/>
<path d="M80.4721 526.841H79.3988V527.655H80.4721V526.841Z" fill="#5F6AD5"/>
<path d="M101.938 526.841H100.865V527.655H101.938V526.841Z" fill="#5F6AD5"/>
<path d="M123.405 526.841H122.331V527.655H123.405V526.841Z" fill="#5F6AD5"/>
<path d="M144.871 526.841H143.798V527.655H144.871V526.841Z" fill="#5F6AD5"/>
<path d="M166.337 526.841H165.264V527.655H166.337V526.841Z" fill="#5F6AD5"/>
<path d="M187.803 526.841H186.73V527.655H187.803V526.841Z" fill="#5F6AD5"/>
<path d="M209.27 526.841H208.196V527.655H209.27V526.841Z" fill="#5F6AD5"/>
<path d="M230.736 526.841H229.663V527.655H230.736V526.841Z" fill="#5F6AD5"/>
<path d="M252.202 526.841H251.129V527.655H252.202V526.841Z" fill="#5F6AD5"/>
<path d="M273.669 526.841H272.595V527.655H273.669V526.841Z" fill="#5F6AD5"/>
<path d="M295.135 526.841H294.062V527.655H295.135V526.841Z" fill="#5F6AD5"/>
<path d="M316.601 526.841H315.528V527.655H316.601V526.841Z" fill="#5F6AD5"/>
<path d="M338.067 526.841H336.994V527.655H338.067V526.841Z" fill="#5F6AD5"/>
<path d="M359.534 526.841H358.46V527.655H359.534V526.841Z" fill="#5F6AD5"/>
<path d="M381 526.841H379.927V527.655H381V526.841Z" fill="#5F6AD5"/>
<path d="M16.0733 543.936H15V544.751H16.0733V543.936Z" fill="#5F6AD5"/>
<path d="M37.5396 543.936H36.4663V544.751H37.5396V543.936Z" fill="#5F6AD5"/>
<path d="M59.0059 543.936H57.9325V544.751H59.0059V543.936Z" fill="#5F6AD5"/>
<path d="M80.4721 543.936H79.3988V544.751H80.4721V543.936Z" fill="#5F6AD5"/>
<path d="M101.938 543.936H100.865V544.751H101.938V543.936Z" fill="#5F6AD5"/>
<path d="M123.405 543.936H122.331V544.751H123.405V543.936Z" fill="#5F6AD5"/>
<path d="M144.871 543.936H143.798V544.751H144.871V543.936Z" fill="#5F6AD5"/>
<path d="M166.337 543.936H165.264V544.751H166.337V543.936Z" fill="#5F6AD5"/>
<path d="M187.803 543.936H186.73V544.751H187.803V543.936Z" fill="#5F6AD5"/>
<path d="M209.27 543.936H208.196V544.751H209.27V543.936Z" fill="#5F6AD5"/>
<path d="M230.736 543.936H229.663V544.751H230.736V543.936Z" fill="#5F6AD5"/>
<path d="M252.202 543.936H251.129V544.751H252.202V543.936Z" fill="#5F6AD5"/>
<path d="M273.669 543.936H272.595V544.751H273.669V543.936Z" fill="#5F6AD5"/>
<path d="M295.135 543.936H294.062V544.751H295.135V543.936Z" fill="#5F6AD5"/>
<path d="M316.601 543.936H315.528V544.751H316.601V543.936Z" fill="#5F6AD5"/>
<path d="M338.067 543.936H336.994V544.751H338.067V543.936Z" fill="#5F6AD5"/>
<path d="M359.534 543.936H358.46V544.751H359.534V543.936Z" fill="#5F6AD5"/>
<path d="M381 543.936H379.927V544.751H381V543.936Z" fill="#5F6AD5"/>
<path d="M16.0733 560.218H15V561.032H16.0733V560.218Z" fill="#5F6AD5"/>
<path d="M37.5396 560.218H36.4663V561.032H37.5396V560.218Z" fill="#5F6AD5"/>
<path d="M59.0059 560.218H57.9325V561.032H59.0059V560.218Z" fill="#5F6AD5"/>
<path d="M80.4721 560.218H79.3988V561.032H80.4721V560.218Z" fill="#5F6AD5"/>
<path d="M101.938 560.218H100.865V561.032H101.938V560.218Z" fill="#5F6AD5"/>
<path d="M252.202 560.218H251.129V561.032H252.202V560.218Z" fill="#5F6AD5"/>
<path d="M273.669 560.218H272.595V561.032H273.669V560.218Z" fill="#5F6AD5"/>
<path d="M295.135 560.218H294.062V561.032H295.135V560.218Z" fill="#5F6AD5"/>
<path d="M316.601 560.218H315.528V561.032H316.601V560.218Z" fill="#5F6AD5"/>
<path d="M338.067 560.218H336.994V561.032H338.067V560.218Z" fill="#5F6AD5"/>
<path d="M359.534 560.218H358.46V561.032H359.534V560.218Z" fill="#5F6AD5"/>
<path d="M381 560.218H379.927V561.032H381V560.218Z" fill="#5F6AD5"/>
<path d="M16.0733 576.499H15V577.313H16.0733V576.499Z" fill="#5F6AD5"/>
<path d="M37.5396 576.499H36.4663V577.313H37.5396V576.499Z" fill="#5F6AD5"/>
<path d="M59.0059 576.499H57.9325V577.313H59.0059V576.499Z" fill="#5F6AD5"/>
<path d="M80.4721 576.499H79.3988V577.313H80.4721V576.499Z" fill="#5F6AD5"/>
<path d="M101.938 576.499H100.865V577.313H101.938V576.499Z" fill="#5F6AD5"/>
<path d="M252.202 576.499H251.129V577.313H252.202V576.499Z" fill="#5F6AD5"/>
<path d="M273.669 576.499H272.595V577.313H273.669V576.499Z" fill="#5F6AD5"/>
<path d="M295.135 576.499H294.062V577.313H295.135V576.499Z" fill="#5F6AD5"/>
<path d="M316.601 576.499H315.528V577.313H316.601V576.499Z" fill="#5F6AD5"/>
<path d="M338.067 576.499H336.994V577.313H338.067V576.499Z" fill="#5F6AD5"/>
<path d="M359.534 576.499H358.46V577.313H359.534V576.499Z" fill="#5F6AD5"/>
<path d="M381 576.499H379.927V577.313H381V576.499Z" fill="#5F6AD5"/>
<path d="M16.0733 592.78H15V593.594H16.0733V592.78Z" fill="#5F6AD5"/>
<path d="M37.5396 592.78H36.4663V593.594H37.5396V592.78Z" fill="#5F6AD5"/>
<path d="M166.337 592.78H165.264V593.594H166.337V592.78Z" fill="#5F6AD5"/>
<path d="M187.803 592.78H186.73V593.594H187.803V592.78Z" fill="#5F6AD5"/>
<path d="M209.27 592.78H208.196V593.594H209.27V592.78Z" fill="#5F6AD5"/>
<path d="M230.736 592.78H229.663V593.594H230.736V592.78Z" fill="#5F6AD5"/>
<path d="M252.202 592.78H251.129V593.594H252.202V592.78Z" fill="#5F6AD5"/>
<path d="M273.669 592.78H272.595V593.594H273.669V592.78Z" fill="#5F6AD5"/>
<path d="M295.135 592.78H294.062V593.594H295.135V592.78Z" fill="#5F6AD5"/>
<path d="M359.534 592.78H358.46V593.594H359.534V592.78Z" fill="#5F6AD5"/>
<path d="M381 592.78H379.927V593.594H381V592.78Z" fill="#5F6AD5"/>
<path d="M16.0733 609.061H15V609.875H16.0733V609.061Z" fill="#5F6AD5"/>
<path d="M37.5396 609.061H36.4663V609.875H37.5396V609.061Z" fill="#5F6AD5"/>
<path d="M144.871 609.061H143.798V609.875H144.871V609.061Z" fill="#5F6AD5"/>
<path d="M166.337 609.061H165.264V609.875H166.337V609.061Z" fill="#5F6AD5"/>
<path d="M187.803 609.061H186.73V609.875H187.803V609.061Z" fill="#5F6AD5"/>
<path d="M209.27 609.061H208.196V609.875H209.27V609.061Z" fill="#5F6AD5"/>
<path d="M230.736 609.061H229.663V609.875H230.736V609.061Z" fill="#5F6AD5"/>
<path d="M252.202 609.061H251.129V609.875H252.202V609.061Z" fill="#5F6AD5"/>
<path d="M273.669 609.061H272.595V609.875H273.669V609.061Z" fill="#5F6AD5"/>
<path d="M295.135 609.061H294.062V609.875H295.135V609.061Z" fill="#5F6AD5"/>
<path d="M359.534 609.061H358.46V609.875H359.534V609.061Z" fill="#5F6AD5"/>
<path d="M381 609.061H379.927V609.875H381V609.061Z" fill="#5F6AD5"/>
<path d="M16.0733 625.342H15V626.156H16.0733V625.342Z" fill="#5F6AD5"/>
<path d="M37.5396 625.342H36.4663V626.156H37.5396V625.342Z" fill="#5F6AD5"/>
<path d="M144.871 625.342H143.798V626.156H144.871V625.342Z" fill="#5F6AD5"/>
<path d="M166.337 625.342H165.264V626.156H166.337V625.342Z" fill="#5F6AD5"/>
<path d="M187.803 625.342H186.73V626.156H187.803V625.342Z" fill="#5F6AD5"/>
<path d="M209.27 625.342H208.196V626.156H209.27V625.342Z" fill="#5F6AD5"/>
<path d="M230.736 625.342H229.663V626.156H230.736V625.342Z" fill="#5F6AD5"/>
<path d="M252.202 625.342H251.129V626.156H252.202V625.342Z" fill="#5F6AD5"/>
<path d="M273.669 625.342H272.595V626.156H273.669V625.342Z" fill="#5F6AD5"/>
<path d="M295.135 625.342H294.062V626.156H295.135V625.342Z" fill="#5F6AD5"/>
<path d="M359.534 625.342H358.46V626.156H359.534V625.342Z" fill="#5F6AD5"/>
<path d="M381 625.342H379.927V626.156H381V625.342Z" fill="#5F6AD5"/>
<path d="M16.0733 641.624H15V642.438H16.0733V641.624Z" fill="#5F6AD5"/>
<path d="M37.5396 641.624H36.4663V642.438H37.5396V641.624Z" fill="#5F6AD5"/>
<path d="M144.871 641.624H143.798V642.438H144.871V641.624Z" fill="#5F6AD5"/>
<path d="M166.337 641.624H165.264V642.438H166.337V641.624Z" fill="#5F6AD5"/>
<path d="M187.803 641.624H186.73V642.438H187.803V641.624Z" fill="#5F6AD5"/>
<path d="M209.27 641.624H208.196V642.438H209.27V641.624Z" fill="#5F6AD5"/>
<path d="M230.736 641.624H229.663V642.438H230.736V641.624Z" fill="#5F6AD5"/>
<path d="M252.202 641.624H251.129V642.438H252.202V641.624Z" fill="#5F6AD5"/>
<path d="M273.669 641.624H272.595V642.438H273.669V641.624Z" fill="#5F6AD5"/>
<path d="M295.135 641.624H294.062V642.438H295.135V641.624Z" fill="#5F6AD5"/>
<path d="M359.534 641.624H358.46V642.438H359.534V641.624Z" fill="#5F6AD5"/>
<path d="M381 641.624H379.927V642.438H381V641.624Z" fill="#5F6AD5"/>
<path d="M16.0733 657.905H15V658.719H16.0733V657.905Z" fill="#5F6AD5"/>
<path d="M37.5396 657.905H36.4663V658.719H37.5396V657.905Z" fill="#5F6AD5"/>
<path d="M144.871 657.905H143.798V658.719H144.871V657.905Z" fill="#5F6AD5"/>
<path d="M166.337 657.905H165.264V658.719H166.337V657.905Z" fill="#5F6AD5"/>
<path d="M187.803 657.905H186.73V658.719H187.803V657.905Z" fill="#5F6AD5"/>
<path d="M209.27 657.905H208.196V658.719H209.27V657.905Z" fill="#5F6AD5"/>
<path d="M230.736 657.905H229.663V658.719H230.736V657.905Z" fill="#5F6AD5"/>
<path d="M252.202 657.905H251.129V658.719H252.202V657.905Z" fill="#5F6AD5"/>
<path d="M273.669 657.905H272.595V658.719H273.669V657.905Z" fill="#5F6AD5"/>
<path d="M295.135 657.905H294.062V658.719H295.135V657.905Z" fill="#5F6AD5"/>
<path d="M359.534 657.905H358.46V658.719H359.534V657.905Z" fill="#5F6AD5"/>
<path d="M381 657.905H379.927V658.719H381V657.905Z" fill="#5F6AD5"/>
<path d="M16.0733 674.186H15V675H16.0733V674.186Z" fill="#5F6AD5"/>
<path d="M37.5396 674.186H36.4663V675H37.5396V674.186Z" fill="#5F6AD5"/>
<path d="M59.0059 674.186H57.9325V675H59.0059V674.186Z" fill="#5F6AD5"/>
<path d="M80.4721 674.186H79.3988V675H80.4721V674.186Z" fill="#5F6AD5"/>
<path d="M101.938 674.186H100.865V675H101.938V674.186Z" fill="#5F6AD5"/>
<path d="M123.405 674.186H122.331V675H123.405V674.186Z" fill="#5F6AD5"/>
<path d="M144.871 674.186H143.798V675H144.871V674.186Z" fill="#5F6AD5"/>
<path d="M166.337 674.186H165.264V675H166.337V674.186Z" fill="#5F6AD5"/>
<path d="M187.803 674.186H186.73V675H187.803V674.186Z" fill="#5F6AD5"/>
<path d="M209.27 674.186H208.196V675H209.27V674.186Z" fill="#5F6AD5"/>
<path d="M230.736 674.186H229.663V675H230.736V674.186Z" fill="#5F6AD5"/>
<path d="M252.202 674.186H251.129V675H252.202V674.186Z" fill="#5F6AD5"/>
<path d="M273.669 674.186H272.595V675H273.669V674.186Z" fill="#5F6AD5"/>
<path d="M295.135 674.186H294.062V675H295.135V674.186Z" fill="#5F6AD5"/>
<path d="M359.534 674.186H358.46V675H359.534V674.186Z" fill="#5F6AD5"/>
<path d="M381 674.186H379.927V675H381V674.186Z" fill="#5F6AD5"/>
<g opacity="0.2" filter="url(#filter1_f_129_89)">
<circle cx="1350.5" cy="150.5" r="272.5" fill="#7B3AEC"/>
</g>
<g opacity="0.2" filter="url(#filter2_f_129_89)">
<circle cx="-81.5" cy="150.5" r="272.5" fill="#7B3AEC"/>
</g>
</g>
<defs>
<filter id="filter0_f_129_89" x="103.611" y="-301.641" width="1074.56" height="1055.09" filterUnits="userSpaceOnUse" color-interpolation-filters="sRGB">
<feFlood flood-opacity="0" result="BackgroundImageFix"/>
<feBlend mode="normal" in="SourceGraphic" in2="BackgroundImageFix" result="shape"/>
<feGaussianBlur stdDeviation="125" result="effect1_foregroundBlur_129_89"/>
</filter>
<filter id="filter1_f_129_89" x="778" y="-422" width="1145" height="1145" filterUnits="userSpaceOnUse" color-interpolation-filters="sRGB">
<feFlood flood-opacity="0" result="BackgroundImageFix"/>
<feBlend mode="normal" in="SourceGraphic" in2="BackgroundImageFix" result="shape"/>
<feGaussianBlur stdDeviation="150" result="effect1_foregroundBlur_129_89"/>
</filter>
<filter id="filter2_f_129_89" x="-654" y="-422" width="1145" height="1145" filterUnits="userSpaceOnUse" color-interpolation-filters="sRGB">
<feFlood flood-opacity="0" result="BackgroundImageFix"/>
<feBlend mode="normal" in="SourceGraphic" in2="BackgroundImageFix" result="shape"/>
<feGaussianBlur stdDeviation="150" result="effect1_foregroundBlur_129_89"/>
</filter>
<clipPath id="clip0_129_89">
<rect width="1280" height="656" fill="white"/>
</clipPath>
</defs>
</svg>
