<svg width="1280" height="98" viewBox="0 0 1280 98" fill="none" xmlns="http://www.w3.org/2000/svg">
<g clip-path="url(#clip0_129_82)">
<rect width="1280" height="98" transform="matrix(-1 0 0 -1 1280 98)" fill="#0B0C14"/>
<rect x="1280" y="98" width="175" height="80" transform="rotate(180 1280 98)" fill="#0F1D4E"/>
<rect x="1105" y="51" width="107" height="33" transform="rotate(180 1105 51)" fill="#0F1D4E"/>
<rect x="998" y="88" width="107" height="70" transform="rotate(180 998 88)" fill="#0F1D4E"/>
<rect x="891" y="70" width="107" height="52" transform="rotate(180 891 70)" fill="#0F1D4E"/>
<g opacity="0.2">
<path d="M0 22.0733L0 21H1.06925V22.0733H0Z" fill="white"/>
<path d="M0 43.5396L0 42.4663H1.06925V43.5396H0Z" fill="white"/>
<path d="M0 65.0059L0 63.9325H1.06925V65.0059H0Z" fill="white"/>
<path d="M0 86.4721L0 85.3988H1.06925V86.4721H0Z" fill="white"/>
<path d="M0 107.938L0 106.865H1.06925V107.938H0Z" fill="white"/>
<path d="M0 129.405L0 128.331H1.06925V129.405H0Z" fill="white"/>
<path d="M0 150.871L0 149.798H1.06925V150.871H0Z" fill="white"/>
<path d="M0 172.337L0 171.264H1.06925V172.337H0Z" fill="white"/>
<path d="M0 193.803L0 192.73H1.06925L1.06925 193.803H0Z" fill="white"/>
<path d="M0 215.27L0 214.196H1.06925V215.27H0Z" fill="white"/>
<path d="M0 236.736L0 235.663H1.06925V236.736H0Z" fill="white"/>
<path d="M0 258.202L0 257.129H1.06925L1.06925 258.202H0Z" fill="white"/>
<path d="M0 279.669L0 278.595H1.06925V279.669H0Z" fill="white"/>
<path d="M0 301.135L0 300.062H1.06925V301.135H0Z" fill="white"/>
<path d="M0 322.601L0 321.528H1.06925L1.06925 322.601H0Z" fill="white"/>
<path d="M21.3851 22.0733V21H22.4543V22.0733H21.3851Z" fill="white"/>
<path d="M21.3851 43.5396V42.4663H22.4543V43.5396H21.3851Z" fill="white"/>
<path d="M21.3851 65.0059V63.9325H22.4543V65.0059H21.3851Z" fill="white"/>
<path d="M21.3851 86.4721V85.3988H22.4543V86.4721H21.3851Z" fill="white"/>
<path d="M21.3851 107.938V106.865H22.4543V107.938H21.3851Z" fill="white"/>
<path d="M21.3851 129.405V128.331H22.4543V129.405H21.3851Z" fill="white"/>
<path d="M21.3851 150.871V149.798H22.4543V150.871H21.3851Z" fill="white"/>
<path d="M21.3851 172.337V171.264H22.4543V172.337H21.3851Z" fill="white"/>
<path d="M21.3851 193.803V192.73H22.4543V193.803H21.3851Z" fill="white"/>
<path d="M21.3851 215.27V214.196H22.4543V215.27H21.3851Z" fill="white"/>
<path d="M21.3851 236.736V235.663H22.4543V236.736H21.3851Z" fill="white"/>
<path d="M21.3851 258.202V257.129H22.4543V258.202H21.3851Z" fill="white"/>
<path d="M21.3851 279.669V278.595H22.4543V279.669H21.3851Z" fill="white"/>
<path d="M21.3851 301.135V300.062H22.4543V301.135H21.3851Z" fill="white"/>
<path d="M21.3851 322.601V321.528H22.4543V322.601H21.3851Z" fill="white"/>
<path d="M42.7702 22.0733V21H43.8394V22.0733H42.7702Z" fill="white"/>
<path d="M42.7702 193.803V192.73H43.8394V193.803H42.7702Z" fill="white"/>
<path d="M42.7702 215.27V214.196H43.8394V215.27H42.7702Z" fill="white"/>
<path d="M42.7702 236.736V235.663H43.8394V236.736H42.7702Z" fill="white"/>
<path d="M42.7702 258.202V257.129H43.8394V258.202H42.7702Z" fill="white"/>
<path d="M42.7702 279.669V278.595H43.8394V279.669H42.7702Z" fill="white"/>
<path d="M42.7702 301.135V300.062H43.8394V301.135H42.7702Z" fill="white"/>
<path d="M42.7702 322.601V321.528H43.8394V322.601H42.7702Z" fill="white"/>
<path d="M64.1553 22.0733V21H65.2245V22.0733H64.1553Z" fill="white"/>
<path d="M64.1553 236.736V235.663H65.2245V236.736H64.1553Z" fill="white"/>
<path d="M64.1553 258.202V257.129H65.2245V258.202H64.1553Z" fill="white"/>
<path d="M64.1553 279.669V278.595H65.2245V279.669H64.1553Z" fill="white"/>
<path d="M64.1553 301.135V300.062H65.2245V301.135H64.1553Z" fill="white"/>
<path d="M64.1553 322.601V321.528H65.2245V322.601H64.1553Z" fill="white"/>
<path d="M64.1553 344.067V342.994H65.2245V344.067H64.1553Z" fill="white"/>
<path d="M64.1553 365.534V364.46H65.2245V365.534H64.1553Z" fill="white"/>
<path d="M64.1553 387V385.927H65.2245V387H64.1553Z" fill="white"/>
<path d="M85.5403 22.0733V21H86.6096V22.0733H85.5403Z" fill="white"/>
<path d="M85.5403 236.736V235.663H86.6096V236.736H85.5403Z" fill="white"/>
<path d="M85.5403 258.202V257.129H86.6096V258.202H85.5403Z" fill="white"/>
<path d="M85.5403 279.669V278.595H86.6096V279.669H85.5403Z" fill="white"/>
<path d="M85.5403 301.135V300.062H86.6096V301.135H85.5403Z" fill="white"/>
<path d="M85.5403 322.601V321.528H86.6096V322.601H85.5403Z" fill="white"/>
<path d="M85.5403 344.067V342.994H86.6096V344.067H85.5403Z" fill="white"/>
<path d="M85.5403 365.534V364.46H86.6096V365.534H85.5403Z" fill="white"/>
<path d="M85.5403 387V385.927H86.6096V387H85.5403Z" fill="white"/>
<path d="M106.925 22.0733V21H107.995V22.0733H106.925Z" fill="white"/>
<path d="M106.925 43.5396V42.4663H107.995V43.5396H106.925Z" fill="white"/>
<path d="M106.925 65.0059V63.9325H107.995V65.0059H106.925Z" fill="white"/>
<path d="M106.925 86.4721V85.3988H107.995V86.4721H106.925Z" fill="white"/>
<path d="M106.925 107.938V106.865H107.995V107.938H106.925Z" fill="white"/>
<path d="M106.925 129.405V128.331H107.995V129.405H106.925Z" fill="white"/>
<path d="M106.925 150.871V149.798H107.995V150.871H106.925Z" fill="white"/>
<path d="M106.925 236.736V235.663H107.995V236.736H106.925Z" fill="white"/>
<path d="M106.925 258.202V257.129H107.995V258.202H106.925Z" fill="white"/>
<path d="M106.925 279.669V278.595H107.995V279.669H106.925Z" fill="white"/>
<path d="M106.925 301.135V300.062H107.995V301.135H106.925Z" fill="white"/>
<path d="M106.925 322.601V321.528H107.995V322.601H106.925Z" fill="white"/>
<path d="M106.925 344.067V342.994H107.995V344.067H106.925Z" fill="white"/>
<path d="M106.925 365.534V364.46H107.995V365.534H106.925Z" fill="white"/>
<path d="M106.925 387V385.927H107.995V387H106.925Z" fill="white"/>
<path d="M128.311 22.0733V21H129.38V22.0733H128.311Z" fill="white"/>
<path d="M128.311 43.5396V42.4663H129.38V43.5396H128.311Z" fill="white"/>
<path d="M128.311 65.0059V63.9325H129.38V65.0059H128.311Z" fill="white"/>
<path d="M128.311 86.4721V85.3988H129.38V86.4721H128.311Z" fill="white"/>
<path d="M128.311 107.938V106.865H129.38V107.938H128.311Z" fill="white"/>
<path d="M128.311 129.405V128.331H129.38V129.405H128.311Z" fill="white"/>
<path d="M128.311 150.871V149.798H129.38V150.871H128.311Z" fill="white"/>
<path d="M128.311 172.337V171.264H129.38V172.337H128.311Z" fill="white"/>
<path d="M128.311 193.803V192.73H129.38V193.803H128.311Z" fill="white"/>
<path d="M128.311 215.27V214.196H129.38V215.27H128.311Z" fill="white"/>
<path d="M128.311 236.736V235.663H129.38V236.736H128.311Z" fill="white"/>
<path d="M128.311 258.202V257.129H129.38V258.202H128.311Z" fill="white"/>
<path d="M128.311 279.669V278.595H129.38V279.669H128.311Z" fill="white"/>
<path d="M128.311 301.135V300.062H129.38V301.135H128.311Z" fill="white"/>
<path d="M128.311 322.601V321.528H129.38V322.601H128.311Z" fill="white"/>
<path d="M128.311 344.067V342.994H129.38V344.067H128.311Z" fill="white"/>
<path d="M128.311 365.534V364.46H129.38V365.534H128.311Z" fill="white"/>
<path d="M128.311 387V385.927H129.38V387H128.311Z" fill="white"/>
<path d="M149.696 22.0733V21H150.765V22.0733H149.696Z" fill="white"/>
<path d="M149.696 43.5396V42.4663H150.765V43.5396H149.696Z" fill="white"/>
<path d="M149.696 65.0059V63.9325H150.765V65.0059H149.696Z" fill="white"/>
<path d="M149.696 86.4721V85.3988H150.765V86.4721H149.696Z" fill="white"/>
<path d="M149.696 107.938V106.865H150.765V107.938H149.696Z" fill="white"/>
<path d="M149.696 129.405V128.331H150.765V129.405H149.696Z" fill="white"/>
<path d="M149.696 150.871V149.798H150.765V150.871H149.696Z" fill="white"/>
<path d="M149.696 172.337V171.264H150.765V172.337H149.696Z" fill="white"/>
<path d="M149.696 193.803V192.73H150.765V193.803H149.696Z" fill="white"/>
<path d="M149.696 215.27V214.196H150.765V215.27H149.696Z" fill="white"/>
<path d="M149.696 236.736V235.663H150.765V236.736H149.696Z" fill="white"/>
<path d="M149.696 258.202V257.129H150.765V258.202H149.696Z" fill="white"/>
<path d="M149.696 279.669V278.595H150.765V279.669H149.696Z" fill="white"/>
<path d="M149.696 301.135V300.062H150.765V301.135H149.696Z" fill="white"/>
<path d="M149.696 322.601V321.528H150.765V322.601H149.696Z" fill="white"/>
<path d="M149.696 344.067V342.994H150.765V344.067H149.696Z" fill="white"/>
<path d="M149.696 365.534V364.46H150.765V365.534H149.696Z" fill="white"/>
<path d="M149.696 387V385.927H150.765V387H149.696Z" fill="white"/>
<path d="M171.081 22.0733V21H172.15V22.0733H171.081Z" fill="white"/>
<path d="M171.081 43.5396V42.4663H172.15V43.5396H171.081Z" fill="white"/>
<path d="M171.081 65.0059V63.9325H172.15V65.0059H171.081Z" fill="white"/>
<path d="M171.081 86.4721V85.3988H172.15V86.4721H171.081Z" fill="white"/>
<path d="M171.081 107.938V106.865H172.15V107.938H171.081Z" fill="white"/>
<path d="M171.081 129.405V128.331H172.15V129.405H171.081Z" fill="white"/>
<path d="M171.081 150.871V149.798H172.15V150.871H171.081Z" fill="white"/>
<path d="M171.081 172.337V171.264H172.15V172.337H171.081Z" fill="white"/>
<path d="M171.081 193.803V192.73H172.15V193.803H171.081Z" fill="white"/>
<path d="M171.081 215.27V214.196H172.15V215.27H171.081Z" fill="white"/>
<path d="M171.081 236.736V235.663H172.15V236.736H171.081Z" fill="white"/>
<path d="M171.081 258.202V257.129H172.15V258.202H171.081Z" fill="white"/>
<path d="M171.081 279.669V278.595H172.15V279.669H171.081Z" fill="white"/>
<path d="M171.081 301.135V300.062H172.15V301.135H171.081Z" fill="white"/>
<path d="M171.081 322.601V321.528H172.15V322.601H171.081Z" fill="white"/>
<path d="M171.081 344.067V342.994H172.15V344.067H171.081Z" fill="white"/>
<path d="M171.081 365.534V364.46H172.15V365.534H171.081Z" fill="white"/>
<path d="M171.081 387V385.927H172.15V387H171.081Z" fill="white"/>
<path d="M193.535 22.0733V21H194.604V22.0733H193.535Z" fill="white"/>
<path d="M193.535 43.5396V42.4663H194.604V43.5396H193.535Z" fill="white"/>
<path d="M193.535 65.0059V63.9325H194.604V65.0059H193.535Z" fill="white"/>
<path d="M193.535 86.4721V85.3988H194.604V86.4721H193.535Z" fill="white"/>
<path d="M193.535 193.803V192.73H194.604V193.803H193.535Z" fill="white"/>
<path d="M193.535 215.27V214.196H194.604V215.27H193.535Z" fill="white"/>
<path d="M193.535 236.736V235.663H194.604V236.736H193.535Z" fill="white"/>
<path d="M193.535 258.202V257.129H194.604V258.202H193.535Z" fill="white"/>
<path d="M193.535 279.669V278.595H194.604V279.669H193.535Z" fill="white"/>
<path d="M193.535 301.135V300.062H194.604V301.135H193.535Z" fill="white"/>
<path d="M214.92 22.0733V21H215.989V22.0733H214.92Z" fill="white"/>
<path d="M214.92 43.5396V42.4663H215.989V43.5396H214.92Z" fill="white"/>
<path d="M214.92 65.0059V63.9325H215.989V65.0059H214.92Z" fill="white"/>
<path d="M214.92 86.4721V85.3988H215.989V86.4721H214.92Z" fill="white"/>
<path d="M214.92 193.803V192.73H215.989V193.803H214.92Z" fill="white"/>
<path d="M214.92 215.27V214.196H215.989V215.27H214.92Z" fill="white"/>
<path d="M214.92 236.736V235.663H215.989V236.736H214.92Z" fill="white"/>
<path d="M214.92 258.202V257.129H215.989V258.202H214.92Z" fill="white"/>
<path d="M214.92 279.669V278.595H215.989V279.669H214.92Z" fill="white"/>
<path d="M214.92 301.135V300.062H215.989V301.135H214.92Z" fill="white"/>
<path d="M236.305 22.0733V21H237.374V22.0733H236.305Z" fill="white"/>
<path d="M236.305 43.5396V42.4663H237.374V43.5396H236.305Z" fill="white"/>
<path d="M236.305 65.0059V63.9325H237.374V65.0059H236.305Z" fill="white"/>
<path d="M236.305 86.4721V85.3988H237.374V86.4721H236.305Z" fill="white"/>
<path d="M236.305 193.803V192.73H237.374V193.803H236.305Z" fill="white"/>
<path d="M236.305 215.27V214.196H237.374V215.27H236.305Z" fill="white"/>
<path d="M236.305 236.736V235.663H237.374V236.736H236.305Z" fill="white"/>
<path d="M236.305 258.202V257.129H237.374V258.202H236.305Z" fill="white"/>
<path d="M236.305 279.669V278.595H237.374V279.669H236.305Z" fill="white"/>
<path d="M236.305 301.135V300.062H237.374V301.135H236.305Z" fill="white"/>
<path d="M257.69 22.0733V21H258.76V22.0733H257.69Z" fill="white"/>
<path d="M257.69 43.5396V42.4663H258.76V43.5396H257.69Z" fill="white"/>
<path d="M257.69 65.0059V63.9325H258.76V65.0059H257.69Z" fill="white"/>
<path d="M257.69 86.4721V85.3988H258.76V86.4721H257.69Z" fill="white"/>
<path d="M257.69 193.803V192.73H258.76V193.803H257.69Z" fill="white"/>
<path d="M257.69 215.27V214.196H258.76V215.27H257.69Z" fill="white"/>
<path d="M257.69 236.736V235.663H258.76V236.736H257.69Z" fill="white"/>
<path d="M257.69 258.202V257.129H258.76V258.202H257.69Z" fill="white"/>
<path d="M257.69 279.669V278.595H258.76V279.669H257.69Z" fill="white"/>
<path d="M257.69 301.135V300.062H258.76V301.135H257.69Z" fill="white"/>
<path d="M279.075 22.0733V21H280.145V22.0733H279.075Z" fill="white"/>
<path d="M279.075 43.5396V42.4663H280.145V43.5396H279.075Z" fill="white"/>
<path d="M279.075 65.0059V63.9325H280.145V65.0059H279.075Z" fill="white"/>
<path d="M279.075 86.4721V85.3988H280.145V86.4721H279.075Z" fill="white"/>
<path d="M279.075 193.803V192.73H280.145V193.803H279.075Z" fill="white"/>
<path d="M279.075 215.27V214.196H280.145V215.27H279.075Z" fill="white"/>
<path d="M279.075 236.736V235.663H280.145V236.736H279.075Z" fill="white"/>
<path d="M279.075 258.202V257.129H280.145V258.202H279.075Z" fill="white"/>
<path d="M279.075 279.669V278.595H280.145V279.669H279.075Z" fill="white"/>
<path d="M279.075 301.135V300.062H280.145V301.135H279.075Z" fill="white"/>
<path d="M300.46 43.5396V42.4663H301.53V43.5396H300.46Z" fill="white"/>
<path d="M300.46 65.0059V63.9325H301.53V65.0059H300.46Z" fill="white"/>
<path d="M300.46 86.4721V85.3988H301.53V86.4721H300.46Z" fill="white"/>
<path d="M300.46 193.803V192.73H301.53V193.803H300.46Z" fill="white"/>
<path d="M300.46 215.27V214.196H301.53V215.27H300.46Z" fill="white"/>
<path d="M300.46 236.736V235.663H301.53V236.736H300.46Z" fill="white"/>
<path d="M300.46 258.202V257.129H301.53V258.202H300.46Z" fill="white"/>
<path d="M300.46 279.669V278.595H301.53V279.669H300.46Z" fill="white"/>
<path d="M300.46 301.135V300.062H301.53V301.135H300.46Z" fill="white"/>
<path d="M321.846 43.5396V42.4663H322.915V43.5396H321.846Z" fill="white"/>
<path d="M321.846 65.0059V63.9325H322.915V65.0059H321.846Z" fill="white"/>
<path d="M321.846 86.4721V85.3988H322.915V86.4721H321.846Z" fill="white"/>
<path d="M321.846 193.803V192.73H322.915V193.803H321.846Z" fill="white"/>
<path d="M321.846 215.27V214.196H322.915V215.27H321.846Z" fill="white"/>
<path d="M321.846 236.736V235.663H322.915V236.736H321.846Z" fill="white"/>
<path d="M321.846 258.202V257.129H322.915V258.202H321.846Z" fill="white"/>
<path d="M321.846 279.669V278.595H322.915V279.669H321.846Z" fill="white"/>
<path d="M321.846 301.135V300.062H322.915V301.135H321.846Z" fill="white"/>
<path d="M343.231 43.5396V42.4663H344.3V43.5396H343.231Z" fill="white"/>
<path d="M343.231 65.0059V63.9325H344.3V65.0059H343.231Z" fill="white"/>
<path d="M343.231 86.4721V85.3988H344.3V86.4721H343.231Z" fill="white"/>
<path d="M343.231 258.202V257.129H344.3V258.202H343.231Z" fill="white"/>
<path d="M343.231 279.669V278.595H344.3V279.669H343.231Z" fill="white"/>
<path d="M343.231 301.135V300.062H344.3V301.135H343.231Z" fill="white"/>
<path d="M343.231 322.601V321.528H344.3V322.601H343.231Z" fill="white"/>
<path d="M343.231 344.067V342.994H344.3V344.067H343.231Z" fill="white"/>
<path d="M343.231 365.534V364.46H344.3V365.534H343.231Z" fill="white"/>
<path d="M343.231 387V385.927H344.3V387H343.231Z" fill="white"/>
<path d="M364.616 43.5396V42.4663H365.685V43.5396H364.616Z" fill="white"/>
<path d="M364.616 65.0059V63.9325H365.685V65.0059H364.616Z" fill="white"/>
<path d="M364.616 86.4721V85.3988H365.685V86.4721H364.616Z" fill="white"/>
<path d="M364.616 107.938V106.865H365.685V107.938H364.616Z" fill="white"/>
<path d="M364.616 129.405V128.331H365.685V129.405H364.616Z" fill="white"/>
<path d="M364.616 150.871V149.798H365.685V150.871H364.616Z" fill="white"/>
<path d="M364.616 172.337V171.264H365.685V172.337H364.616Z" fill="white"/>
<path d="M364.616 193.803V192.73H365.685V193.803H364.616Z" fill="white"/>
<path d="M364.616 215.27V214.196H365.685V215.27H364.616Z" fill="white"/>
<path d="M364.616 236.736V235.663H365.685V236.736H364.616Z" fill="white"/>
<path d="M364.616 258.202V257.129H365.685V258.202H364.616Z" fill="white"/>
<path d="M364.616 279.669V278.595H365.685V279.669H364.616Z" fill="white"/>
<path d="M364.616 301.135V300.062H365.685V301.135H364.616Z" fill="white"/>
<path d="M364.616 322.601V321.528H365.685V322.601H364.616Z" fill="white"/>
<path d="M364.616 344.067V342.994H365.685V344.067H364.616Z" fill="white"/>
<path d="M364.616 365.534V364.46H365.685V365.534H364.616Z" fill="white"/>
<path d="M364.616 387V385.927H365.685V387H364.616Z" fill="white"/>
<path d="M384.315 43.5396V42.4663H385.384V43.5396H384.315Z" fill="white"/>
<path d="M384.315 65.0059V63.9325H385.384V65.0059H384.315Z" fill="white"/>
<path d="M384.315 86.4721V85.3988H385.384V86.4721H384.315Z" fill="white"/>
<path d="M384.315 107.938V106.865H385.384V107.938H384.315Z" fill="white"/>
<path d="M384.315 129.405V128.331H385.384V129.405H384.315Z" fill="white"/>
<path d="M384.315 150.871V149.798H385.384V150.871H384.315Z" fill="white"/>
<path d="M384.315 172.337V171.264H385.384V172.337H384.315Z" fill="white"/>
<path d="M384.315 193.803V192.73H385.384V193.803H384.315Z" fill="white"/>
<path d="M384.315 215.27V214.196H385.384V215.27H384.315Z" fill="white"/>
<path d="M384.315 236.736V235.663H385.384V236.736H384.315Z" fill="white"/>
<path d="M384.315 258.202V257.129H385.384V258.202H384.315Z" fill="white"/>
<path d="M384.315 279.669V278.595H385.384V279.669H384.315Z" fill="white"/>
<path d="M384.315 301.135V300.062H385.384V301.135H384.315Z" fill="white"/>
<path d="M384.315 322.601V321.528H385.384V322.601H384.315Z" fill="white"/>
<path d="M405.7 43.5396V42.4663H406.769V43.5396H405.7Z" fill="white"/>
<path d="M405.7 65.0059V63.9325H406.769V65.0059H405.7Z" fill="white"/>
<path d="M405.7 86.4721V85.3988H406.769V86.4721H405.7Z" fill="white"/>
<path d="M405.7 107.938V106.865H406.769V107.938H405.7Z" fill="white"/>
<path d="M405.7 129.405V128.331H406.769V129.405H405.7Z" fill="white"/>
<path d="M405.7 150.871V149.798H406.769V150.871H405.7Z" fill="white"/>
<path d="M405.7 172.337V171.264H406.769V172.337H405.7Z" fill="white"/>
<path d="M405.7 193.803V192.73H406.769V193.803H405.7Z" fill="white"/>
<path d="M405.7 215.27V214.196H406.769V215.27H405.7Z" fill="white"/>
<path d="M405.7 236.736V235.663H406.769V236.736H405.7Z" fill="white"/>
<path d="M405.7 258.202V257.129H406.769V258.202H405.7Z" fill="white"/>
<path d="M405.7 279.669V278.595H406.769V279.669H405.7Z" fill="white"/>
<path d="M405.7 301.135V300.062H406.769V301.135H405.7Z" fill="white"/>
<path d="M405.7 322.601V321.528H406.769V322.601H405.7Z" fill="white"/>
<path d="M427.085 43.5396V42.4663H428.154V43.5396H427.085Z" fill="white"/>
<path d="M427.085 65.0059V63.9325H428.154V65.0059H427.085Z" fill="white"/>
<path d="M427.085 86.4721V85.3988H428.154V86.4721H427.085Z" fill="white"/>
<path d="M427.085 107.938V106.865H428.154V107.938H427.085Z" fill="white"/>
<path d="M427.085 129.405V128.331H428.154V129.405H427.085Z" fill="white"/>
<path d="M427.085 150.871V149.798H428.154V150.871H427.085Z" fill="white"/>
<path d="M427.085 172.337V171.264H428.154V172.337H427.085Z" fill="white"/>
<path d="M427.085 193.803V192.73H428.154V193.803H427.085Z" fill="white"/>
<path d="M427.085 215.27V214.196H428.154V215.27H427.085Z" fill="white"/>
<path d="M427.085 236.736V235.663H428.154V236.736H427.085Z" fill="white"/>
<path d="M427.085 258.202V257.129H428.154V258.202H427.085Z" fill="white"/>
<path d="M427.085 279.669V278.595H428.154V279.669H427.085Z" fill="white"/>
<path d="M427.085 301.135V300.062H428.154V301.135H427.085Z" fill="white"/>
<path d="M427.085 322.601V321.528H428.154V322.601H427.085Z" fill="white"/>
<path d="M448.47 43.5396V42.4663H449.539V43.5396H448.47Z" fill="white"/>
<path d="M448.47 65.0059V63.9325H449.539V65.0059H448.47Z" fill="white"/>
<path d="M448.47 193.803V192.73H449.539V193.803H448.47Z" fill="white"/>
<path d="M448.47 215.27V214.196H449.539V215.27H448.47Z" fill="white"/>
<path d="M448.47 236.736V235.663H449.539V236.736H448.47Z" fill="white"/>
<path d="M448.47 258.202V257.129H449.539V258.202H448.47Z" fill="white"/>
<path d="M448.47 279.669V278.595H449.539V279.669H448.47Z" fill="white"/>
<path d="M448.47 301.135V300.062H449.539V301.135H448.47Z" fill="white"/>
<path d="M448.47 322.601V321.528H449.539V322.601H448.47Z" fill="white"/>
<path d="M448.47 344.067V342.994H449.539V344.067H448.47Z" fill="white"/>
<path d="M448.47 365.534V364.46H449.539V365.534H448.47Z" fill="white"/>
<path d="M448.47 387V385.927H449.539V387H448.47Z" fill="white"/>
<path d="M469.855 43.5396V42.4663H470.925V43.5396H469.855Z" fill="white"/>
<path d="M469.855 65.0059V63.9325H470.925V65.0059H469.855Z" fill="white"/>
<path d="M469.855 193.803V192.73H470.925V193.803H469.855Z" fill="white"/>
<path d="M469.855 215.27V214.196H470.925V215.27H469.855Z" fill="white"/>
<path d="M469.855 322.601V321.528H470.925V322.601H469.855Z" fill="white"/>
<path d="M469.855 344.067V342.994H470.925V344.067H469.855Z" fill="white"/>
<path d="M469.855 365.534V364.46H470.925V365.534H469.855Z" fill="white"/>
<path d="M469.855 387V385.927H470.925V387H469.855Z" fill="white"/>
<path d="M491.24 22.0733V21H492.31V22.0733H491.24Z" fill="white"/>
<path d="M491.24 43.5396V42.4663H492.31V43.5396H491.24Z" fill="white"/>
<path d="M491.24 65.0059V63.9325H492.31V65.0059H491.24Z" fill="white"/>
<path d="M491.24 86.4721V85.3988H492.31V86.4721H491.24Z" fill="white"/>
<path d="M491.24 107.938V106.865H492.31V107.938H491.24Z" fill="white"/>
<path d="M491.24 129.405V128.331H492.31V129.405H491.24Z" fill="white"/>
<path d="M491.24 150.871V149.798H492.31V150.871H491.24Z" fill="white"/>
<path d="M491.24 172.337V171.264H492.31V172.337H491.24Z" fill="white"/>
<path d="M491.24 193.803V192.73H492.31V193.803H491.24Z" fill="white"/>
<path d="M491.24 215.27V214.196H492.31V215.27H491.24Z" fill="white"/>
<path d="M491.24 236.736V235.663H492.31V236.736H491.24Z" fill="white"/>
<path d="M491.24 322.601V321.528H492.31V322.601H491.24Z" fill="white"/>
<path d="M491.24 344.067V342.994H492.31V344.067H491.24Z" fill="white"/>
<path d="M491.24 365.534V364.46H492.31V365.534H491.24Z" fill="white"/>
<path d="M491.24 387V385.927H492.31V387H491.24Z" fill="white"/>
<path d="M512.626 22.0733V21H513.695V22.0733H512.626Z" fill="white"/>
<path d="M512.626 43.5396V42.4663H513.695V43.5396H512.626Z" fill="white"/>
<path d="M512.626 65.0059V63.9325H513.695V65.0059H512.626Z" fill="white"/>
<path d="M512.626 86.4721V85.3988H513.695V86.4721H512.626Z" fill="white"/>
<path d="M512.626 107.938V106.865H513.695V107.938H512.626Z" fill="white"/>
<path d="M512.626 129.405V128.331H513.695V129.405H512.626Z" fill="white"/>
<path d="M512.626 150.871V149.798H513.695V150.871H512.626Z" fill="white"/>
<path d="M512.626 172.337V171.264H513.695V172.337H512.626Z" fill="white"/>
<path d="M512.626 193.803V192.73H513.695V193.803H512.626Z" fill="white"/>
<path d="M512.626 215.27V214.196H513.695V215.27H512.626Z" fill="white"/>
<path d="M512.626 236.736V235.663H513.695V236.736H512.626Z" fill="white"/>
<path d="M512.626 365.534V364.46H513.695V365.534H512.626Z" fill="white"/>
<path d="M512.626 387V385.927H513.695V387H512.626Z" fill="white"/>
<path d="M534.011 22.0733V21H535.08V22.0733H534.011Z" fill="white"/>
<path d="M534.011 43.5396V42.4663H535.08V43.5396H534.011Z" fill="white"/>
<path d="M534.011 65.0059V63.9325H535.08V65.0059H534.011Z" fill="white"/>
<path d="M534.011 86.4721V85.3988H535.08V86.4721H534.011Z" fill="white"/>
<path d="M534.011 107.938V106.865H535.08V107.938H534.011Z" fill="white"/>
<path d="M534.011 129.405V128.331H535.08V129.405H534.011Z" fill="white"/>
<path d="M534.011 150.871V149.798H535.08V150.871H534.011Z" fill="white"/>
<path d="M534.011 172.337V171.264H535.08V172.337H534.011Z" fill="white"/>
<path d="M534.011 193.803V192.73H535.08V193.803H534.011Z" fill="white"/>
<path d="M534.011 215.27V214.196H535.08V215.27H534.011Z" fill="white"/>
<path d="M534.011 236.736V235.663H535.08V236.736H534.011Z" fill="white"/>
<path d="M534.011 365.534V364.46H535.08V365.534H534.011Z" fill="white"/>
<path d="M534.011 387V385.927H535.08V387H534.011Z" fill="white"/>
<path d="M555.396 22.0733V21H556.465V22.0733H555.396Z" fill="white"/>
<path d="M555.396 43.5396V42.4663H556.465V43.5396H555.396Z" fill="white"/>
<path d="M555.396 65.0059V63.9325H556.465V65.0059H555.396Z" fill="white"/>
<path d="M555.396 86.4721V85.3988H556.465V86.4721H555.396Z" fill="white"/>
<path d="M555.396 107.938V106.865H556.465V107.938H555.396Z" fill="white"/>
<path d="M555.396 129.405V128.331H556.465V129.405H555.396Z" fill="white"/>
<path d="M555.396 150.871V149.798H556.465V150.871H555.396Z" fill="white"/>
<path d="M555.396 172.337V171.264H556.465V172.337H555.396Z" fill="white"/>
<path d="M555.396 193.803V192.73H556.465V193.803H555.396Z" fill="white"/>
<path d="M555.396 215.27V214.196H556.465V215.27H555.396Z" fill="white"/>
<path d="M555.396 236.736V235.663H556.465V236.736H555.396Z" fill="white"/>
<path d="M555.396 258.202V257.129H556.465V258.202H555.396Z" fill="white"/>
<path d="M555.396 279.669V278.595H556.465V279.669H555.396Z" fill="white"/>
<path d="M555.396 301.135V300.062H556.465V301.135H555.396Z" fill="white"/>
<path d="M555.396 322.601V321.528H556.465V322.601H555.396Z" fill="white"/>
<path d="M555.396 344.067V342.994H556.465V344.067H555.396Z" fill="white"/>
<path d="M555.396 365.534V364.46H556.465V365.534H555.396Z" fill="white"/>
<path d="M555.396 387V385.927H556.465V387H555.396Z" fill="white"/>
<path d="M577.85 22.0733V21H578.919V22.0733H577.85Z" fill="white"/>
<path d="M577.85 43.5396V42.4663H578.919V43.5396H577.85Z" fill="white"/>
<path d="M577.85 65.0059V63.9325H578.919V65.0059H577.85Z" fill="white"/>
<path d="M577.85 86.4721V85.3988H578.919V86.4721H577.85Z" fill="white"/>
<path d="M577.85 107.938V106.865H578.919V107.938H577.85Z" fill="white"/>
<path d="M577.85 129.405V128.331H578.919V129.405H577.85Z" fill="white"/>
<path d="M577.85 150.871V149.798H578.919V150.871H577.85Z" fill="white"/>
<path d="M577.85 172.337V171.264H578.919V172.337H577.85Z" fill="white"/>
<path d="M577.85 193.803V192.73H578.919V193.803H577.85Z" fill="white"/>
<path d="M577.85 215.27V214.196H578.919V215.27H577.85Z" fill="white"/>
<path d="M577.85 236.736V235.663H578.919V236.736H577.85Z" fill="white"/>
<path d="M577.85 258.202V257.129H578.919V258.202H577.85Z" fill="white"/>
<path d="M577.85 279.669V278.595H578.919V279.669H577.85Z" fill="white"/>
<path d="M577.85 301.135V300.062H578.919V301.135H577.85Z" fill="white"/>
<path d="M577.85 322.601V321.528H578.919V322.601H577.85Z" fill="white"/>
<path d="M577.85 344.067V342.994H578.919V344.067H577.85Z" fill="white"/>
<path d="M577.85 365.534V364.46H578.919V365.534H577.85Z" fill="white"/>
<path d="M577.85 387V385.927H578.919V387H577.85Z" fill="white"/>
<path d="M599.235 22.0733V21H600.304V22.0733H599.235Z" fill="white"/>
<path d="M599.235 43.5396V42.4663H600.304V43.5396H599.235Z" fill="white"/>
<path d="M599.235 65.0059V63.9325H600.304V65.0059H599.235Z" fill="white"/>
<path d="M599.235 86.4721V85.3988H600.304V86.4721H599.235Z" fill="white"/>
<path d="M599.235 107.938V106.865H600.304V107.938H599.235Z" fill="white"/>
<path d="M599.235 258.202V257.129H600.304V258.202H599.235Z" fill="white"/>
<path d="M599.235 279.669V278.595H600.304V279.669H599.235Z" fill="white"/>
<path d="M599.235 301.135V300.062H600.304V301.135H599.235Z" fill="white"/>
<path d="M599.235 322.601V321.528H600.304V322.601H599.235Z" fill="white"/>
<path d="M599.235 344.067V342.994H600.304V344.067H599.235Z" fill="white"/>
<path d="M599.235 365.534V364.46H600.304V365.534H599.235Z" fill="white"/>
<path d="M599.235 387V385.927H600.304V387H599.235Z" fill="white"/>
<path d="M620.62 22.0733V21H621.689V22.0733H620.62Z" fill="white"/>
<path d="M620.62 43.5396V42.4663H621.689V43.5396H620.62Z" fill="white"/>
<path d="M620.62 65.0059V63.9325H621.689V65.0059H620.62Z" fill="white"/>
<path d="M620.62 86.4721V85.3988H621.689V86.4721H620.62Z" fill="white"/>
<path d="M620.62 107.938V106.865H621.689V107.938H620.62Z" fill="white"/>
<path d="M620.62 258.202V257.129H621.689V258.202H620.62Z" fill="white"/>
<path d="M620.62 279.669V278.595H621.689V279.669H620.62Z" fill="white"/>
<path d="M620.62 301.135V300.062H621.689V301.135H620.62Z" fill="white"/>
<path d="M620.62 322.601V321.528H621.689V322.601H620.62Z" fill="white"/>
<path d="M620.62 344.067V342.994H621.689V344.067H620.62Z" fill="white"/>
<path d="M620.62 365.534V364.46H621.689V365.534H620.62Z" fill="white"/>
<path d="M620.62 387V385.927H621.689V387H620.62Z" fill="white"/>
<path d="M642.005 22.0733V21H643.075V22.0733H642.005Z" fill="white"/>
<path d="M642.005 43.5396V42.4663H643.075V43.5396H642.005Z" fill="white"/>
<path d="M642.005 172.337V171.264H643.075V172.337H642.005Z" fill="white"/>
<path d="M642.005 193.803V192.73H643.075V193.803H642.005Z" fill="white"/>
<path d="M642.005 215.27V214.196H643.075V215.27H642.005Z" fill="white"/>
<path d="M642.005 236.736V235.663H643.075V236.736H642.005Z" fill="white"/>
<path d="M642.005 258.202V257.129H643.075V258.202H642.005Z" fill="white"/>
<path d="M642.005 279.669V278.595H643.075V279.669H642.005Z" fill="white"/>
<path d="M642.005 301.135V300.062H643.075V301.135H642.005Z" fill="white"/>
<path d="M642.005 365.534V364.46H643.075V365.534H642.005Z" fill="white"/>
<path d="M642.005 387V385.927H643.075V387H642.005Z" fill="white"/>
<path d="M663.39 22.0733V21H664.46V22.0733H663.39Z" fill="white"/>
<path d="M663.39 43.5396V42.4663H664.46V43.5396H663.39Z" fill="white"/>
<path d="M663.39 150.871V149.798H664.46V150.871H663.39Z" fill="white"/>
<path d="M663.39 172.337V171.264H664.46V172.337H663.39Z" fill="white"/>
<path d="M663.39 193.803V192.73H664.46V193.803H663.39Z" fill="white"/>
<path d="M663.39 215.27V214.196H664.46V215.27H663.39Z" fill="white"/>
<path d="M663.39 236.736V235.663H664.46V236.736H663.39Z" fill="white"/>
<path d="M663.39 258.202V257.129H664.46V258.202H663.39Z" fill="white"/>
<path d="M663.39 279.669V278.595H664.46V279.669H663.39Z" fill="white"/>
<path d="M663.39 301.135V300.062H664.46V301.135H663.39Z" fill="white"/>
<path d="M663.39 365.534V364.46H664.46V365.534H663.39Z" fill="white"/>
<path d="M663.39 387V385.927H664.46V387H663.39Z" fill="white"/>
<path d="M684.775 22.0733V21H685.845V22.0733H684.775Z" fill="white"/>
<path d="M684.775 43.5396V42.4663H685.845V43.5396H684.775Z" fill="white"/>
<path d="M684.775 150.871V149.798H685.845V150.871H684.775Z" fill="white"/>
<path d="M684.775 172.337V171.264H685.845V172.337H684.775Z" fill="white"/>
<path d="M684.775 193.803V192.73H685.845V193.803H684.775Z" fill="white"/>
<path d="M684.775 215.27V214.196H685.845V215.27H684.775Z" fill="white"/>
<path d="M684.775 236.736V235.663H685.845V236.736H684.775Z" fill="white"/>
<path d="M684.775 258.202V257.129H685.845V258.202H684.775Z" fill="white"/>
<path d="M684.775 279.669V278.595H685.845V279.669H684.775Z" fill="white"/>
<path d="M684.775 301.135V300.062H685.845V301.135H684.775Z" fill="white"/>
<path d="M684.775 365.534V364.46H685.845V365.534H684.775Z" fill="white"/>
<path d="M684.775 387V385.927H685.845V387H684.775Z" fill="white"/>
<path d="M706.16 22.0733V21H707.23V22.0733H706.16Z" fill="white"/>
<path d="M706.16 43.5396V42.4663H707.23V43.5396H706.16Z" fill="white"/>
<path d="M706.16 150.871V149.798H707.23V150.871H706.16Z" fill="white"/>
<path d="M706.16 172.337V171.264H707.23V172.337H706.16Z" fill="white"/>
<path d="M706.16 193.803V192.73H707.23V193.803H706.16Z" fill="white"/>
<path d="M706.16 215.27V214.196H707.23V215.27H706.16Z" fill="white"/>
<path d="M706.16 236.736V235.663H707.23V236.736H706.16Z" fill="white"/>
<path d="M706.16 258.202V257.129H707.23V258.202H706.16Z" fill="white"/>
<path d="M706.16 279.669V278.595H707.23V279.669H706.16Z" fill="white"/>
<path d="M706.16 301.135V300.062H707.23V301.135H706.16Z" fill="white"/>
<path d="M706.16 365.534V364.46H707.23V365.534H706.16Z" fill="white"/>
<path d="M706.16 387V385.927H707.23V387H706.16Z" fill="white"/>
<path d="M727.546 22.0733V21H728.615V22.0733H727.546Z" fill="white"/>
<path d="M727.546 43.5396V42.4663H728.615V43.5396H727.546Z" fill="white"/>
<path d="M727.546 150.871V149.798H728.615V150.871H727.546Z" fill="white"/>
<path d="M727.546 172.337V171.264H728.615V172.337H727.546Z" fill="white"/>
<path d="M727.546 193.803V192.73H728.615V193.803H727.546Z" fill="white"/>
<path d="M727.546 215.27V214.196H728.615V215.27H727.546Z" fill="white"/>
<path d="M727.546 236.736V235.663H728.615V236.736H727.546Z" fill="white"/>
<path d="M727.546 258.202V257.129H728.615V258.202H727.546Z" fill="white"/>
<path d="M727.546 279.669V278.595H728.615V279.669H727.546Z" fill="white"/>
<path d="M727.546 301.135V300.062H728.615V301.135H727.546Z" fill="white"/>
<path d="M727.546 365.534V364.46H728.615V365.534H727.546Z" fill="white"/>
<path d="M727.546 387V385.927H728.615V387H727.546Z" fill="white"/>
<path d="M748.931 22.0733V21H750V22.0733H748.931Z" fill="white"/>
<path d="M748.931 43.5396V42.4663H750V43.5396H748.931Z" fill="white"/>
<path d="M748.931 65.0059V63.9325H750V65.0059H748.931Z" fill="white"/>
<path d="M748.931 86.4721V85.3988H750V86.4721H748.931Z" fill="white"/>
<path d="M748.931 107.938V106.865H750V107.938H748.931Z" fill="white"/>
<path d="M748.931 129.405V128.331H750V129.405H748.931Z" fill="white"/>
<path d="M748.931 150.871V149.798H750V150.871H748.931Z" fill="white"/>
<path d="M748.931 172.337V171.264H750V172.337H748.931Z" fill="white"/>
<path d="M748.931 193.803V192.73H750V193.803H748.931Z" fill="white"/>
<path d="M748.931 215.27V214.196H750V215.27H748.931Z" fill="white"/>
<path d="M748.931 236.736V235.663H750V236.736H748.931Z" fill="white"/>
<path d="M748.931 258.202V257.129H750V258.202H748.931Z" fill="white"/>
<path d="M748.931 279.669V278.595H750V279.669H748.931Z" fill="white"/>
<path d="M748.931 301.135V300.062H750V301.135H748.931Z" fill="white"/>
<path d="M748.931 365.534V364.46H750V365.534H748.931Z" fill="white"/>
<path d="M748.931 387V385.927H750V387H748.931Z" fill="white"/>
</g>
</g>
<defs>
<clipPath id="clip0_129_82">
<rect width="1280" height="98" fill="white" transform="matrix(-1 0 0 -1 1280 98)"/>
</clipPath>
</defs>
</svg>
