<svg width="1280" height="80" viewBox="0 0 1280 80" fill="none" xmlns="http://www.w3.org/2000/svg">
<g clip-path="url(#clip0_129_75)">
<rect width="1280" height="80" fill="#0B0C14"/>
<rect width="175" height="80" fill="#0F1D4E"/>
<rect x="175" y="47" width="107" height="33" fill="#0F1D4E"/>
<rect x="282" y="10" width="107" height="70" fill="#0F1D4E"/>
<rect x="389" y="28" width="107" height="52" fill="#0F1D4E"/>
<g opacity="0.3">
<path d="M1280 75.9267V77H1278.93V75.9267H1280Z" fill="white"/>
<path d="M1280 54.4604V55.5337H1278.93V54.4604H1280Z" fill="white"/>
<path d="M1280 32.9941V34.0675H1278.93V32.9941H1280Z" fill="white"/>
<path d="M1280 11.5279V12.6012H1278.93V11.5279H1280Z" fill="white"/>
<path d="M1280 -9.93842V-8.8651H1278.93V-9.93842H1280Z" fill="white"/>
<path d="M1280 -31.4047V-30.3314H1278.93V-31.4047H1280Z" fill="white"/>
<path d="M1280 -52.871V-51.7977H1278.93V-52.871H1280Z" fill="white"/>
<path d="M1280 -74.3372V-73.2639H1278.93V-74.3372H1280Z" fill="white"/>
<path d="M1280 -95.8035V-94.7302H1278.93V-95.8035H1280Z" fill="white"/>
<path d="M1280 -117.27V-116.196H1278.93V-117.27H1280Z" fill="white"/>
<path d="M1280 -138.736V-137.663H1278.93V-138.736H1280Z" fill="white"/>
<path d="M1280 -160.202V-159.129H1278.93V-160.202H1280Z" fill="white"/>
<path d="M1280 -181.669V-180.595H1278.93V-181.669H1280Z" fill="white"/>
<path d="M1280 -203.135V-202.062H1278.93V-203.135H1280Z" fill="white"/>
<path d="M1280 -224.601V-223.528H1278.93V-224.601H1280Z" fill="white"/>
<path d="M1258.61 75.9267V77H1257.55V75.9267H1258.61Z" fill="white"/>
<path d="M1258.61 54.4604V55.5337H1257.55V54.4604H1258.61Z" fill="white"/>
<path d="M1258.61 32.9941V34.0675H1257.55V32.9941H1258.61Z" fill="white"/>
<path d="M1258.61 11.5279V12.6012H1257.55V11.5279H1258.61Z" fill="white"/>
<path d="M1258.61 -9.93842V-8.8651H1257.55V-9.93842H1258.61Z" fill="white"/>
<path d="M1258.61 -31.4047V-30.3314H1257.55V-31.4047H1258.61Z" fill="white"/>
<path d="M1258.61 -52.871V-51.7977H1257.55V-52.871H1258.61Z" fill="white"/>
<path d="M1258.61 -74.3372V-73.2639H1257.55V-74.3372H1258.61Z" fill="white"/>
<path d="M1258.61 -95.8035V-94.7302H1257.55V-95.8035H1258.61Z" fill="white"/>
<path d="M1258.61 -117.27V-116.196H1257.55V-117.27H1258.61Z" fill="white"/>
<path d="M1258.61 -138.736V-137.663H1257.55V-138.736H1258.61Z" fill="white"/>
<path d="M1258.61 -160.202V-159.129H1257.55V-160.202H1258.61Z" fill="white"/>
<path d="M1258.61 -181.669V-180.595H1257.55V-181.669H1258.61Z" fill="white"/>
<path d="M1258.61 -203.135V-202.062H1257.55V-203.135H1258.61Z" fill="white"/>
<path d="M1258.61 -224.601V-223.528H1257.55V-224.601H1258.61Z" fill="white"/>
<path d="M1237.23 75.9267V77H1236.16V75.9267H1237.23Z" fill="white"/>
<path d="M1237.23 -95.8035V-94.7302H1236.16V-95.8035H1237.23Z" fill="white"/>
<path d="M1237.23 -117.27V-116.196H1236.16V-117.27H1237.23Z" fill="white"/>
<path d="M1237.23 -138.736V-137.663H1236.16V-138.736H1237.23Z" fill="white"/>
<path d="M1237.23 -160.202V-159.129H1236.16V-160.202H1237.23Z" fill="white"/>
<path d="M1237.23 -181.669V-180.595H1236.16V-181.669H1237.23Z" fill="white"/>
<path d="M1237.23 -203.135V-202.062H1236.16V-203.135H1237.23Z" fill="white"/>
<path d="M1237.23 -224.601V-223.528H1236.16V-224.601H1237.23Z" fill="white"/>
<path d="M1215.84 75.9267V77H1214.78V75.9267H1215.84Z" fill="white"/>
<path d="M1215.84 -138.736V-137.663H1214.78V-138.736H1215.84Z" fill="white"/>
<path d="M1215.84 -160.202V-159.129H1214.78V-160.202H1215.84Z" fill="white"/>
<path d="M1215.84 -181.669V-180.595H1214.78V-181.669H1215.84Z" fill="white"/>
<path d="M1215.84 -203.135V-202.062H1214.78V-203.135H1215.84Z" fill="white"/>
<path d="M1215.84 -224.601V-223.528H1214.78V-224.601H1215.84Z" fill="white"/>
<path d="M1215.84 -246.067V-244.994H1214.78V-246.067H1215.84Z" fill="white"/>
<path d="M1215.84 -267.534V-266.46H1214.78V-267.534H1215.84Z" fill="white"/>
<path d="M1215.84 -289V-287.927H1214.78V-289H1215.84Z" fill="white"/>
<path d="M1194.46 75.9267V77H1193.39V75.9267H1194.46Z" fill="white"/>
<path d="M1194.46 -138.736V-137.663H1193.39V-138.736H1194.46Z" fill="white"/>
<path d="M1194.46 -160.202V-159.129H1193.39V-160.202H1194.46Z" fill="white"/>
<path d="M1194.46 -181.669V-180.595H1193.39V-181.669H1194.46Z" fill="white"/>
<path d="M1194.46 -203.135V-202.062H1193.39V-203.135H1194.46Z" fill="white"/>
<path d="M1194.46 -224.601V-223.528H1193.39V-224.601H1194.46Z" fill="white"/>
<path d="M1194.46 -246.067V-244.994H1193.39V-246.067H1194.46Z" fill="white"/>
<path d="M1194.46 -267.534V-266.46H1193.39V-267.534H1194.46Z" fill="white"/>
<path d="M1194.46 -289V-287.927H1193.39V-289H1194.46Z" fill="white"/>
<path d="M1173.07 75.9267V77H1172.01V75.9267H1173.07Z" fill="white"/>
<path d="M1173.07 54.4604V55.5337H1172.01V54.4604H1173.07Z" fill="white"/>
<path d="M1173.07 32.9941V34.0675H1172.01V32.9941H1173.07Z" fill="white"/>
<path d="M1173.07 11.5279V12.6012H1172.01V11.5279H1173.07Z" fill="white"/>
<path d="M1173.07 -9.93842V-8.8651H1172.01V-9.93842H1173.07Z" fill="white"/>
<path d="M1173.07 -31.4047V-30.3314H1172.01V-31.4047H1173.07Z" fill="white"/>
<path d="M1173.07 -52.871V-51.7977H1172.01V-52.871H1173.07Z" fill="white"/>
<path d="M1173.07 -138.736V-137.663H1172.01V-138.736H1173.07Z" fill="white"/>
<path d="M1173.07 -160.202V-159.129H1172.01V-160.202H1173.07Z" fill="white"/>
<path d="M1173.07 -181.669V-180.595H1172.01V-181.669H1173.07Z" fill="white"/>
<path d="M1173.07 -203.135V-202.062H1172.01V-203.135H1173.07Z" fill="white"/>
<path d="M1173.07 -224.601V-223.528H1172.01V-224.601H1173.07Z" fill="white"/>
<path d="M1173.07 -246.067V-244.994H1172.01V-246.067H1173.07Z" fill="white"/>
<path d="M1173.07 -267.534V-266.46H1172.01V-267.534H1173.07Z" fill="white"/>
<path d="M1173.07 -289V-287.927H1172.01V-289H1173.07Z" fill="white"/>
<path d="M1151.69 75.9267V77H1150.62V75.9267H1151.69Z" fill="white"/>
<path d="M1151.69 54.4604V55.5337H1150.62V54.4604H1151.69Z" fill="white"/>
<path d="M1151.69 32.9941V34.0675H1150.62V32.9941H1151.69Z" fill="white"/>
<path d="M1151.69 11.5279V12.6012H1150.62V11.5279H1151.69Z" fill="white"/>
<path d="M1151.69 -9.93842V-8.8651H1150.62V-9.93842H1151.69Z" fill="white"/>
<path d="M1151.69 -31.4047V-30.3314H1150.62V-31.4047H1151.69Z" fill="white"/>
<path d="M1151.69 -52.871V-51.7977H1150.62V-52.871H1151.69Z" fill="white"/>
<path d="M1151.69 -74.3372V-73.2639H1150.62V-74.3372H1151.69Z" fill="white"/>
<path d="M1151.69 -95.8035V-94.7302H1150.62V-95.8035H1151.69Z" fill="white"/>
<path d="M1151.69 -117.27V-116.196H1150.62V-117.27H1151.69Z" fill="white"/>
<path d="M1151.69 -138.736V-137.663H1150.62V-138.736H1151.69Z" fill="white"/>
<path d="M1151.69 -160.202V-159.129H1150.62V-160.202H1151.69Z" fill="white"/>
<path d="M1151.69 -181.669V-180.595H1150.62V-181.669H1151.69Z" fill="white"/>
<path d="M1151.69 -203.135V-202.062H1150.62V-203.135H1151.69Z" fill="white"/>
<path d="M1151.69 -224.601V-223.528H1150.62V-224.601H1151.69Z" fill="white"/>
<path d="M1151.69 -246.067V-244.994H1150.62V-246.067H1151.69Z" fill="white"/>
<path d="M1151.69 -267.534V-266.46H1150.62V-267.534H1151.69Z" fill="white"/>
<path d="M1151.69 -289V-287.927H1150.62V-289H1151.69Z" fill="white"/>
<path d="M1130.3 75.9267V77H1129.24V75.9267H1130.3Z" fill="white"/>
<path d="M1130.3 54.4604V55.5337H1129.24V54.4604H1130.3Z" fill="white"/>
<path d="M1130.3 32.9941V34.0675H1129.24V32.9941H1130.3Z" fill="white"/>
<path d="M1130.3 11.5279V12.6012H1129.24V11.5279H1130.3Z" fill="white"/>
<path d="M1130.3 -9.93842V-8.8651H1129.24V-9.93842H1130.3Z" fill="white"/>
<path d="M1130.3 -31.4047V-30.3314H1129.24V-31.4047H1130.3Z" fill="white"/>
<path d="M1130.3 -52.871V-51.7977H1129.24V-52.871H1130.3Z" fill="white"/>
<path d="M1130.3 -74.3372V-73.2639H1129.24V-74.3372H1130.3Z" fill="white"/>
<path d="M1130.3 -95.8035V-94.7302H1129.24V-95.8035H1130.3Z" fill="white"/>
<path d="M1130.3 -117.27V-116.196H1129.24V-117.27H1130.3Z" fill="white"/>
<path d="M1130.3 -138.736V-137.663H1129.24V-138.736H1130.3Z" fill="white"/>
<path d="M1130.3 -160.202V-159.129H1129.24V-160.202H1130.3Z" fill="white"/>
<path d="M1130.3 -181.669V-180.595H1129.24V-181.669H1130.3Z" fill="white"/>
<path d="M1130.3 -203.135V-202.062H1129.24V-203.135H1130.3Z" fill="white"/>
<path d="M1130.3 -224.601V-223.528H1129.24V-224.601H1130.3Z" fill="white"/>
<path d="M1130.3 -246.067V-244.994H1129.24V-246.067H1130.3Z" fill="white"/>
<path d="M1130.3 -267.534V-266.46H1129.24V-267.534H1130.3Z" fill="white"/>
<path d="M1130.3 -289V-287.927H1129.24V-289H1130.3Z" fill="white"/>
<path d="M1108.92 75.9267V77H1107.85V75.9267H1108.92Z" fill="white"/>
<path d="M1108.92 54.4604V55.5337H1107.85V54.4604H1108.92Z" fill="white"/>
<path d="M1108.92 32.9941V34.0675H1107.85V32.9941H1108.92Z" fill="white"/>
<path d="M1108.92 11.5279V12.6012H1107.85V11.5279H1108.92Z" fill="white"/>
<path d="M1108.92 -9.93842V-8.8651H1107.85V-9.93842H1108.92Z" fill="white"/>
<path d="M1108.92 -31.4047V-30.3314H1107.85V-31.4047H1108.92Z" fill="white"/>
<path d="M1108.92 -52.871V-51.7977H1107.85V-52.871H1108.92Z" fill="white"/>
<path d="M1108.92 -74.3372V-73.2639H1107.85V-74.3372H1108.92Z" fill="white"/>
<path d="M1108.92 -95.8035V-94.7302H1107.85V-95.8035H1108.92Z" fill="white"/>
<path d="M1108.92 -117.27V-116.196H1107.85V-117.27H1108.92Z" fill="white"/>
<path d="M1108.92 -138.736V-137.663H1107.85V-138.736H1108.92Z" fill="white"/>
<path d="M1108.92 -160.202V-159.129H1107.85V-160.202H1108.92Z" fill="white"/>
<path d="M1108.92 -181.669V-180.595H1107.85V-181.669H1108.92Z" fill="white"/>
<path d="M1108.92 -203.135V-202.062H1107.85V-203.135H1108.92Z" fill="white"/>
<path d="M1108.92 -224.601V-223.528H1107.85V-224.601H1108.92Z" fill="white"/>
<path d="M1108.92 -246.067V-244.994H1107.85V-246.067H1108.92Z" fill="white"/>
<path d="M1108.92 -267.534V-266.46H1107.85V-267.534H1108.92Z" fill="white"/>
<path d="M1108.92 -289V-287.927H1107.85V-289H1108.92Z" fill="white"/>
<path d="M1086.46 75.9267V77H1085.4V75.9267H1086.46Z" fill="white"/>
<path d="M1086.46 54.4604V55.5337H1085.4V54.4604H1086.46Z" fill="white"/>
<path d="M1086.46 32.9941V34.0675H1085.4V32.9941H1086.46Z" fill="white"/>
<path d="M1086.46 11.5279V12.6012H1085.4V11.5279H1086.46Z" fill="white"/>
<path d="M1086.46 -95.8035V-94.7302H1085.4V-95.8035H1086.46Z" fill="white"/>
<path d="M1086.46 -117.27V-116.196H1085.4V-117.27H1086.46Z" fill="white"/>
<path d="M1086.46 -138.736V-137.663H1085.4V-138.736H1086.46Z" fill="white"/>
<path d="M1086.46 -160.202V-159.129H1085.4V-160.202H1086.46Z" fill="white"/>
<path d="M1086.46 -181.669V-180.595H1085.4V-181.669H1086.46Z" fill="white"/>
<path d="M1086.46 -203.135V-202.062H1085.4V-203.135H1086.46Z" fill="white"/>
<path d="M1065.08 75.9267V77H1064.01V75.9267H1065.08Z" fill="white"/>
<path d="M1065.08 54.4604V55.5337H1064.01V54.4604H1065.08Z" fill="white"/>
<path d="M1065.08 32.9941V34.0675H1064.01V32.9941H1065.08Z" fill="white"/>
<path d="M1065.08 11.5279V12.6012H1064.01V11.5279H1065.08Z" fill="white"/>
<path d="M1065.08 -95.8035V-94.7302H1064.01V-95.8035H1065.08Z" fill="white"/>
<path d="M1065.08 -117.27V-116.196H1064.01V-117.27H1065.08Z" fill="white"/>
<path d="M1065.08 -138.736V-137.663H1064.01V-138.736H1065.08Z" fill="white"/>
<path d="M1065.08 -160.202V-159.129H1064.01V-160.202H1065.08Z" fill="white"/>
<path d="M1065.08 -181.669V-180.595H1064.01V-181.669H1065.08Z" fill="white"/>
<path d="M1065.08 -203.135V-202.062H1064.01V-203.135H1065.08Z" fill="white"/>
<path d="M1043.69 75.9267V77H1042.63V75.9267H1043.69Z" fill="white"/>
<path d="M1043.69 54.4604V55.5337H1042.63V54.4604H1043.69Z" fill="white"/>
<path d="M1043.69 32.9941V34.0675H1042.63V32.9941H1043.69Z" fill="white"/>
<path d="M1043.69 11.5279V12.6012H1042.63V11.5279H1043.69Z" fill="white"/>
<path d="M1043.69 -95.8035V-94.7302H1042.63V-95.8035H1043.69Z" fill="white"/>
<path d="M1043.69 -117.27V-116.196H1042.63V-117.27H1043.69Z" fill="white"/>
<path d="M1043.69 -138.736V-137.663H1042.63V-138.736H1043.69Z" fill="white"/>
<path d="M1043.69 -160.202V-159.129H1042.63V-160.202H1043.69Z" fill="white"/>
<path d="M1043.69 -181.669V-180.595H1042.63V-181.669H1043.69Z" fill="white"/>
<path d="M1043.69 -203.135V-202.062H1042.63V-203.135H1043.69Z" fill="white"/>
<path d="M1022.31 75.9267V77H1021.24V75.9267H1022.31Z" fill="white"/>
<path d="M1022.31 54.4604V55.5337H1021.24V54.4604H1022.31Z" fill="white"/>
<path d="M1022.31 32.9941V34.0675H1021.24V32.9941H1022.31Z" fill="white"/>
<path d="M1022.31 11.5279V12.6012H1021.24V11.5279H1022.31Z" fill="white"/>
<path d="M1022.31 -95.8035V-94.7302H1021.24V-95.8035H1022.31Z" fill="white"/>
<path d="M1022.31 -117.27V-116.196H1021.24V-117.27H1022.31Z" fill="white"/>
<path d="M1022.31 -138.736V-137.663H1021.24V-138.736H1022.31Z" fill="white"/>
<path d="M1022.31 -160.202V-159.129H1021.24V-160.202H1022.31Z" fill="white"/>
<path d="M1022.31 -181.669V-180.595H1021.24V-181.669H1022.31Z" fill="white"/>
<path d="M1022.31 -203.135V-202.062H1021.24V-203.135H1022.31Z" fill="white"/>
<path d="M1000.92 75.9267V77H999.855V75.9267H1000.92Z" fill="white"/>
<path d="M1000.92 54.4604V55.5337H999.855V54.4604H1000.92Z" fill="white"/>
<path d="M1000.92 32.9941V34.0675H999.855V32.9941H1000.92Z" fill="white"/>
<path d="M1000.92 11.5279V12.6012H999.855V11.5279H1000.92Z" fill="white"/>
<path d="M1000.92 -95.8035V-94.7302H999.855V-95.8035H1000.92Z" fill="white"/>
<path d="M1000.92 -117.27V-116.196H999.855V-117.27H1000.92Z" fill="white"/>
<path d="M1000.92 -138.736V-137.663H999.855V-138.736H1000.92Z" fill="white"/>
<path d="M1000.92 -160.202V-159.129H999.855V-160.202H1000.92Z" fill="white"/>
<path d="M1000.92 -181.669V-180.595H999.855V-181.669H1000.92Z" fill="white"/>
<path d="M1000.92 -203.135V-202.062H999.855V-203.135H1000.92Z" fill="white"/>
<path d="M979.54 54.4604V55.5337H978.47V54.4604H979.54Z" fill="white"/>
<path d="M979.54 32.9941V34.0675H978.47V32.9941H979.54Z" fill="white"/>
<path d="M979.54 11.5279V12.6012H978.47V11.5279H979.54Z" fill="white"/>
<path d="M979.54 -95.8035V-94.7302H978.47V-95.8035H979.54Z" fill="white"/>
<path d="M979.54 -117.27V-116.196H978.47V-117.27H979.54Z" fill="white"/>
<path d="M979.54 -138.736V-137.663H978.47V-138.736H979.54Z" fill="white"/>
<path d="M979.54 -160.202V-159.129H978.47V-160.202H979.54Z" fill="white"/>
<path d="M979.54 -181.669V-180.595H978.47V-181.669H979.54Z" fill="white"/>
<path d="M979.54 -203.135V-202.062H978.47V-203.135H979.54Z" fill="white"/>
<path d="M958.154 54.4604V55.5337H957.085V54.4604H958.154Z" fill="white"/>
<path d="M958.154 32.9941V34.0675H957.085V32.9941H958.154Z" fill="white"/>
<path d="M958.154 11.5279V12.6012H957.085V11.5279H958.154Z" fill="white"/>
<path d="M958.154 -95.8035V-94.7302H957.085V-95.8035H958.154Z" fill="white"/>
<path d="M958.154 -117.27V-116.196H957.085V-117.27H958.154Z" fill="white"/>
<path d="M958.154 -138.736V-137.663H957.085V-138.736H958.154Z" fill="white"/>
<path d="M958.154 -160.202V-159.129H957.085V-160.202H958.154Z" fill="white"/>
<path d="M958.154 -181.669V-180.595H957.085V-181.669H958.154Z" fill="white"/>
<path d="M958.154 -203.135V-202.062H957.085V-203.135H958.154Z" fill="white"/>
<path d="M936.769 54.4604V55.5337H935.7V54.4604H936.769Z" fill="white"/>
<path d="M936.769 32.9941V34.0675H935.7V32.9941H936.769Z" fill="white"/>
<path d="M936.769 11.5279V12.6012H935.7V11.5279H936.769Z" fill="white"/>
<path d="M936.769 -160.202V-159.129H935.7V-160.202H936.769Z" fill="white"/>
<path d="M936.769 -181.669V-180.595H935.7V-181.669H936.769Z" fill="white"/>
<path d="M936.769 -203.135V-202.062H935.7V-203.135H936.769Z" fill="white"/>
<path d="M936.769 -224.601V-223.528H935.7V-224.601H936.769Z" fill="white"/>
<path d="M936.769 -246.067V-244.994H935.7V-246.067H936.769Z" fill="white"/>
<path d="M936.769 -267.534V-266.46H935.7V-267.534H936.769Z" fill="white"/>
<path d="M936.769 -289V-287.927H935.7V-289H936.769Z" fill="white"/>
<path d="M915.384 54.4604V55.5337H914.315V54.4604H915.384Z" fill="white"/>
<path d="M915.384 32.9941V34.0675H914.315V32.9941H915.384Z" fill="white"/>
<path d="M915.384 11.5279V12.6012H914.315V11.5279H915.384Z" fill="white"/>
<path d="M915.384 -9.93842V-8.8651H914.315V-9.93842H915.384Z" fill="white"/>
<path d="M915.384 -31.4047V-30.3314H914.315V-31.4047H915.384Z" fill="white"/>
<path d="M915.384 -52.871V-51.7977H914.315V-52.871H915.384Z" fill="white"/>
<path d="M915.384 -74.3372V-73.2639H914.315V-74.3372H915.384Z" fill="white"/>
<path d="M915.384 -95.8035V-94.7302H914.315V-95.8035H915.384Z" fill="white"/>
<path d="M915.384 -117.27V-116.196H914.315V-117.27H915.384Z" fill="white"/>
<path d="M915.384 -138.736V-137.663H914.315V-138.736H915.384Z" fill="white"/>
<path d="M915.384 -160.202V-159.129H914.315V-160.202H915.384Z" fill="white"/>
<path d="M915.384 -181.669V-180.595H914.315V-181.669H915.384Z" fill="white"/>
<path d="M915.384 -203.135V-202.062H914.315V-203.135H915.384Z" fill="white"/>
<path d="M915.384 -224.601V-223.528H914.315V-224.601H915.384Z" fill="white"/>
<path d="M915.384 -246.067V-244.994H914.315V-246.067H915.384Z" fill="white"/>
<path d="M915.384 -267.534V-266.46H914.315V-267.534H915.384Z" fill="white"/>
<path d="M915.384 -289V-287.927H914.315V-289H915.384Z" fill="white"/>
<path d="M895.685 54.4604V55.5337H894.616V54.4604H895.685Z" fill="white"/>
<path d="M895.685 32.9941V34.0675H894.616V32.9941H895.685Z" fill="white"/>
<path d="M895.685 11.5279V12.6012H894.616V11.5279H895.685Z" fill="white"/>
<path d="M895.685 -9.93842V-8.8651H894.616V-9.93842H895.685Z" fill="white"/>
<path d="M895.685 -31.4047V-30.3314H894.616V-31.4047H895.685Z" fill="white"/>
<path d="M895.685 -52.871V-51.7977H894.616V-52.871H895.685Z" fill="white"/>
<path d="M895.685 -74.3372V-73.2639H894.616V-74.3372H895.685Z" fill="white"/>
<path d="M895.685 -95.8035V-94.7302H894.616V-95.8035H895.685Z" fill="white"/>
<path d="M895.685 -117.27V-116.196H894.616V-117.27H895.685Z" fill="white"/>
<path d="M895.685 -138.736V-137.663H894.616V-138.736H895.685Z" fill="white"/>
<path d="M895.685 -160.202V-159.129H894.616V-160.202H895.685Z" fill="white"/>
<path d="M895.685 -181.669V-180.595H894.616V-181.669H895.685Z" fill="white"/>
<path d="M895.685 -203.135V-202.062H894.616V-203.135H895.685Z" fill="white"/>
<path d="M895.685 -224.601V-223.528H894.616V-224.601H895.685Z" fill="white"/>
<path d="M874.3 54.4604V55.5337H873.231V54.4604H874.3Z" fill="white"/>
<path d="M874.3 32.9941V34.0675H873.231V32.9941H874.3Z" fill="white"/>
<path d="M874.3 11.5279V12.6012H873.231V11.5279H874.3Z" fill="white"/>
<path d="M874.3 -9.93842V-8.8651H873.231V-9.93842H874.3Z" fill="white"/>
<path d="M874.3 -31.4047V-30.3314H873.231V-31.4047H874.3Z" fill="white"/>
<path d="M874.3 -52.871V-51.7977H873.231V-52.871H874.3Z" fill="white"/>
<path d="M874.3 -74.3372V-73.2639H873.231V-74.3372H874.3Z" fill="white"/>
<path d="M874.3 -95.8035V-94.7302H873.231V-95.8035H874.3Z" fill="white"/>
<path d="M874.3 -117.27V-116.196H873.231V-117.27H874.3Z" fill="white"/>
<path d="M874.3 -138.736V-137.663H873.231V-138.736H874.3Z" fill="white"/>
<path d="M874.3 -160.202V-159.129H873.231V-160.202H874.3Z" fill="white"/>
<path d="M874.3 -181.669V-180.595H873.231V-181.669H874.3Z" fill="white"/>
<path d="M874.3 -203.135V-202.062H873.231V-203.135H874.3Z" fill="white"/>
<path d="M874.3 -224.601V-223.528H873.231V-224.601H874.3Z" fill="white"/>
<path d="M852.915 54.4604V55.5337H851.846V54.4604H852.915Z" fill="white"/>
<path d="M852.915 32.9941V34.0675H851.846V32.9941H852.915Z" fill="white"/>
<path d="M852.915 11.5279V12.6012H851.846V11.5279H852.915Z" fill="white"/>
<path d="M852.915 -9.93842V-8.8651H851.846V-9.93842H852.915Z" fill="white"/>
<path d="M852.915 -31.4047V-30.3314H851.846V-31.4047H852.915Z" fill="white"/>
<path d="M852.915 -52.871V-51.7977H851.846V-52.871H852.915Z" fill="white"/>
<path d="M852.915 -74.3372V-73.2639H851.846V-74.3372H852.915Z" fill="white"/>
<path d="M852.915 -95.8035V-94.7302H851.846V-95.8035H852.915Z" fill="white"/>
<path d="M852.915 -117.27V-116.196H851.846V-117.27H852.915Z" fill="white"/>
<path d="M852.915 -138.736V-137.663H851.846V-138.736H852.915Z" fill="white"/>
<path d="M852.915 -160.202V-159.129H851.846V-160.202H852.915Z" fill="white"/>
<path d="M852.915 -181.669V-180.595H851.846V-181.669H852.915Z" fill="white"/>
<path d="M852.915 -203.135V-202.062H851.846V-203.135H852.915Z" fill="white"/>
<path d="M852.915 -224.601V-223.528H851.846V-224.601H852.915Z" fill="white"/>
<path d="M831.53 54.4604V55.5337H830.461V54.4604H831.53Z" fill="white"/>
<path d="M831.53 32.9941V34.0675H830.461V32.9941H831.53Z" fill="white"/>
<path d="M831.53 -95.8035V-94.7302H830.461V-95.8035H831.53Z" fill="white"/>
<path d="M831.53 -117.27V-116.196H830.461V-117.27H831.53Z" fill="white"/>
<path d="M831.53 -138.736V-137.663H830.461V-138.736H831.53Z" fill="white"/>
<path d="M831.53 -160.202V-159.129H830.461V-160.202H831.53Z" fill="white"/>
<path d="M831.53 -181.669V-180.595H830.461V-181.669H831.53Z" fill="white"/>
<path d="M831.53 -203.135V-202.062H830.461V-203.135H831.53Z" fill="white"/>
<path d="M831.53 -224.601V-223.528H830.461V-224.601H831.53Z" fill="white"/>
<path d="M831.53 -246.067V-244.994H830.461V-246.067H831.53Z" fill="white"/>
<path d="M831.53 -267.534V-266.46H830.461V-267.534H831.53Z" fill="white"/>
<path d="M831.53 -289V-287.927H830.461V-289H831.53Z" fill="white"/>
<path d="M810.145 54.4604V55.5337H809.075V54.4604H810.145Z" fill="white"/>
<path d="M810.145 32.9941V34.0675H809.075V32.9941H810.145Z" fill="white"/>
<path d="M810.145 -95.8035V-94.7302H809.075V-95.8035H810.145Z" fill="white"/>
<path d="M810.145 -117.27V-116.196H809.075V-117.27H810.145Z" fill="white"/>
<path d="M810.145 -224.601V-223.528H809.075V-224.601H810.145Z" fill="white"/>
<path d="M810.145 -246.067V-244.994H809.075V-246.067H810.145Z" fill="white"/>
<path d="M810.145 -267.534V-266.46H809.075V-267.534H810.145Z" fill="white"/>
<path d="M810.145 -289V-287.927H809.075V-289H810.145Z" fill="white"/>
<path d="M788.76 75.9267V77H787.69V75.9267H788.76Z" fill="white"/>
<path d="M788.76 54.4604V55.5337H787.69V54.4604H788.76Z" fill="white"/>
<path d="M788.76 32.9941V34.0675H787.69V32.9941H788.76Z" fill="white"/>
<path d="M788.76 11.5279V12.6012H787.69V11.5279H788.76Z" fill="white"/>
<path d="M788.76 -9.93842V-8.8651H787.69V-9.93842H788.76Z" fill="white"/>
<path d="M788.76 -31.4047V-30.3314H787.69V-31.4047H788.76Z" fill="white"/>
<path d="M788.76 -52.871V-51.7977H787.69V-52.871H788.76Z" fill="white"/>
<path d="M788.76 -74.3372V-73.2639H787.69V-74.3372H788.76Z" fill="white"/>
<path d="M788.76 -95.8035V-94.7302H787.69V-95.8035H788.76Z" fill="white"/>
<path d="M788.76 -117.27V-116.196H787.69V-117.27H788.76Z" fill="white"/>
<path d="M788.76 -138.736V-137.663H787.69V-138.736H788.76Z" fill="white"/>
<path d="M788.76 -224.601V-223.528H787.69V-224.601H788.76Z" fill="white"/>
<path d="M788.76 -246.067V-244.994H787.69V-246.067H788.76Z" fill="white"/>
<path d="M788.76 -267.534V-266.46H787.69V-267.534H788.76Z" fill="white"/>
<path d="M788.76 -289V-287.927H787.69V-289H788.76Z" fill="white"/>
<path d="M767.374 75.9267V77H766.305V75.9267H767.374Z" fill="white"/>
<path d="M767.374 54.4604V55.5337H766.305V54.4604H767.374Z" fill="white"/>
<path d="M767.374 32.9941V34.0675H766.305V32.9941H767.374Z" fill="white"/>
<path d="M767.374 11.5279V12.6012H766.305V11.5279H767.374Z" fill="white"/>
<path d="M767.374 -9.93842V-8.8651H766.305V-9.93842H767.374Z" fill="white"/>
<path d="M767.374 -31.4047V-30.3314H766.305V-31.4047H767.374Z" fill="white"/>
<path d="M767.374 -52.871V-51.7977H766.305V-52.871H767.374Z" fill="white"/>
<path d="M767.374 -74.3372V-73.2639H766.305V-74.3372H767.374Z" fill="white"/>
<path d="M767.374 -95.8035V-94.7302H766.305V-95.8035H767.374Z" fill="white"/>
<path d="M767.374 -117.27V-116.196H766.305V-117.27H767.374Z" fill="white"/>
<path d="M767.374 -138.736V-137.663H766.305V-138.736H767.374Z" fill="white"/>
<path d="M767.374 -267.534V-266.46H766.305V-267.534H767.374Z" fill="white"/>
<path d="M767.374 -289V-287.927H766.305V-289H767.374Z" fill="white"/>
<path d="M745.989 75.9267V77H744.92V75.9267H745.989Z" fill="white"/>
<path d="M745.989 54.4604V55.5337H744.92V54.4604H745.989Z" fill="white"/>
<path d="M745.989 32.9941V34.0675H744.92V32.9941H745.989Z" fill="white"/>
<path d="M745.989 11.5279V12.6012H744.92V11.5279H745.989Z" fill="white"/>
<path d="M745.989 -9.93842V-8.8651H744.92V-9.93842H745.989Z" fill="white"/>
<path d="M745.989 -31.4047V-30.3314H744.92V-31.4047H745.989Z" fill="white"/>
<path d="M745.989 -52.871V-51.7977H744.92V-52.871H745.989Z" fill="white"/>
<path d="M745.989 -74.3372V-73.2639H744.92V-74.3372H745.989Z" fill="white"/>
<path d="M745.989 -95.8035V-94.7302H744.92V-95.8035H745.989Z" fill="white"/>
<path d="M745.989 -117.27V-116.196H744.92V-117.27H745.989Z" fill="white"/>
<path d="M745.989 -138.736V-137.663H744.92V-138.736H745.989Z" fill="white"/>
<path d="M745.989 -267.534V-266.46H744.92V-267.534H745.989Z" fill="white"/>
<path d="M745.989 -289V-287.927H744.92V-289H745.989Z" fill="white"/>
<path d="M724.604 75.9267V77H723.535V75.9267H724.604Z" fill="white"/>
<path d="M724.604 54.4604V55.5337H723.535V54.4604H724.604Z" fill="white"/>
<path d="M724.604 32.9941V34.0675H723.535V32.9941H724.604Z" fill="white"/>
<path d="M724.604 11.5279V12.6012H723.535V11.5279H724.604Z" fill="white"/>
<path d="M724.604 -9.93842V-8.8651H723.535V-9.93842H724.604Z" fill="white"/>
<path d="M724.604 -31.4047V-30.3314H723.535V-31.4047H724.604Z" fill="white"/>
<path d="M724.604 -52.871V-51.7977H723.535V-52.871H724.604Z" fill="white"/>
<path d="M724.604 -74.3372V-73.2639H723.535V-74.3372H724.604Z" fill="white"/>
<path d="M724.604 -95.8035V-94.7302H723.535V-95.8035H724.604Z" fill="white"/>
<path d="M724.604 -117.27V-116.196H723.535V-117.27H724.604Z" fill="white"/>
<path d="M724.604 -138.736V-137.663H723.535V-138.736H724.604Z" fill="white"/>
<path d="M724.604 -160.202V-159.129H723.535V-160.202H724.604Z" fill="white"/>
<path d="M724.604 -181.669V-180.595H723.535V-181.669H724.604Z" fill="white"/>
<path d="M724.604 -203.135V-202.062H723.535V-203.135H724.604Z" fill="white"/>
<path d="M724.604 -224.601V-223.528H723.535V-224.601H724.604Z" fill="white"/>
<path d="M724.604 -246.067V-244.994H723.535V-246.067H724.604Z" fill="white"/>
<path d="M724.604 -267.534V-266.46H723.535V-267.534H724.604Z" fill="white"/>
<path d="M724.604 -289V-287.927H723.535V-289H724.604Z" fill="white"/>
<path d="M702.15 75.9267V77H701.081V75.9267H702.15Z" fill="white"/>
<path d="M702.15 54.4604V55.5337H701.081V54.4604H702.15Z" fill="white"/>
<path d="M702.15 32.9941V34.0675H701.081V32.9941H702.15Z" fill="white"/>
<path d="M702.15 11.5279V12.6012H701.081V11.5279H702.15Z" fill="white"/>
<path d="M702.15 -9.93842V-8.8651H701.081V-9.93842H702.15Z" fill="white"/>
<path d="M702.15 -31.4047V-30.3314H701.081V-31.4047H702.15Z" fill="white"/>
<path d="M702.15 -52.871V-51.7977H701.081V-52.871H702.15Z" fill="white"/>
<path d="M702.15 -74.3372V-73.2639H701.081V-74.3372H702.15Z" fill="white"/>
<path d="M702.15 -95.8035V-94.7302H701.081V-95.8035H702.15Z" fill="white"/>
<path d="M702.15 -117.27V-116.196H701.081V-117.27H702.15Z" fill="white"/>
<path d="M702.15 -138.736V-137.663H701.081V-138.736H702.15Z" fill="white"/>
<path d="M702.15 -160.202V-159.129H701.081V-160.202H702.15Z" fill="white"/>
<path d="M702.15 -181.669V-180.595H701.081V-181.669H702.15Z" fill="white"/>
<path d="M702.15 -203.135V-202.062H701.081V-203.135H702.15Z" fill="white"/>
<path d="M702.15 -224.601V-223.528H701.081V-224.601H702.15Z" fill="white"/>
<path d="M702.15 -246.067V-244.994H701.081V-246.067H702.15Z" fill="white"/>
<path d="M702.15 -267.534V-266.46H701.081V-267.534H702.15Z" fill="white"/>
<path d="M702.15 -289V-287.927H701.081V-289H702.15Z" fill="white"/>
<path d="M680.765 75.9267V77H679.696V75.9267H680.765Z" fill="white"/>
<path d="M680.765 54.4604V55.5337H679.696V54.4604H680.765Z" fill="white"/>
<path d="M680.765 32.9941V34.0675H679.696V32.9941H680.765Z" fill="white"/>
<path d="M680.765 11.5279V12.6012H679.696V11.5279H680.765Z" fill="white"/>
<path d="M680.765 -9.93842V-8.8651H679.696V-9.93842H680.765Z" fill="white"/>
<path d="M680.765 -160.202V-159.129H679.696V-160.202H680.765Z" fill="white"/>
<path d="M680.765 -181.669V-180.595H679.696V-181.669H680.765Z" fill="white"/>
<path d="M680.765 -203.135V-202.062H679.696V-203.135H680.765Z" fill="white"/>
<path d="M680.765 -224.601V-223.528H679.696V-224.601H680.765Z" fill="white"/>
<path d="M680.765 -246.067V-244.994H679.696V-246.067H680.765Z" fill="white"/>
<path d="M680.765 -267.534V-266.46H679.696V-267.534H680.765Z" fill="white"/>
<path d="M680.765 -289V-287.927H679.696V-289H680.765Z" fill="white"/>
<path d="M659.38 75.9267V77H658.311V75.9267H659.38Z" fill="white"/>
<path d="M659.38 54.4604V55.5337H658.311V54.4604H659.38Z" fill="white"/>
<path d="M659.38 32.9941V34.0675H658.311V32.9941H659.38Z" fill="white"/>
<path d="M659.38 11.5279V12.6012H658.311V11.5279H659.38Z" fill="white"/>
<path d="M659.38 -9.93842V-8.8651H658.311V-9.93842H659.38Z" fill="white"/>
<path d="M659.38 -160.202V-159.129H658.311V-160.202H659.38Z" fill="white"/>
<path d="M659.38 -181.669V-180.595H658.311V-181.669H659.38Z" fill="white"/>
<path d="M659.38 -203.135V-202.062H658.311V-203.135H659.38Z" fill="white"/>
<path d="M659.38 -224.601V-223.528H658.311V-224.601H659.38Z" fill="white"/>
<path d="M659.38 -246.067V-244.994H658.311V-246.067H659.38Z" fill="white"/>
<path d="M659.38 -267.534V-266.46H658.311V-267.534H659.38Z" fill="white"/>
<path d="M659.38 -289V-287.927H658.311V-289H659.38Z" fill="white"/>
<path d="M637.995 75.9267V77H636.925V75.9267H637.995Z" fill="white"/>
<path d="M637.995 54.4604V55.5337H636.925V54.4604H637.995Z" fill="white"/>
<path d="M637.995 -74.3372V-73.2639H636.925V-74.3372H637.995Z" fill="white"/>
<path d="M637.995 -95.8035V-94.7302H636.925V-95.8035H637.995Z" fill="white"/>
<path d="M637.995 -117.27V-116.196H636.925V-117.27H637.995Z" fill="white"/>
<path d="M637.995 -138.736V-137.663H636.925V-138.736H637.995Z" fill="white"/>
<path d="M637.995 -160.202V-159.129H636.925V-160.202H637.995Z" fill="white"/>
<path d="M637.995 -181.669V-180.595H636.925V-181.669H637.995Z" fill="white"/>
<path d="M637.995 -203.135V-202.062H636.925V-203.135H637.995Z" fill="white"/>
<path d="M637.995 -267.534V-266.46H636.925V-267.534H637.995Z" fill="white"/>
<path d="M637.995 -289V-287.927H636.925V-289H637.995Z" fill="white"/>
<path d="M616.61 75.9267V77H615.54V75.9267H616.61Z" fill="white"/>
<path d="M616.61 54.4604V55.5337H615.54V54.4604H616.61Z" fill="white"/>
<path d="M616.61 -52.871V-51.7977H615.54V-52.871H616.61Z" fill="white"/>
<path d="M616.61 -74.3372V-73.2639H615.54V-74.3372H616.61Z" fill="white"/>
<path d="M616.61 -95.8035V-94.7302H615.54V-95.8035H616.61Z" fill="white"/>
<path d="M616.61 -117.27V-116.196H615.54V-117.27H616.61Z" fill="white"/>
<path d="M616.61 -138.736V-137.663H615.54V-138.736H616.61Z" fill="white"/>
<path d="M616.61 -160.202V-159.129H615.54V-160.202H616.61Z" fill="white"/>
<path d="M616.61 -181.669V-180.595H615.54V-181.669H616.61Z" fill="white"/>
<path d="M616.61 -203.135V-202.062H615.54V-203.135H616.61Z" fill="white"/>
<path d="M616.61 -267.534V-266.46H615.54V-267.534H616.61Z" fill="white"/>
<path d="M616.61 -289V-287.927H615.54V-289H616.61Z" fill="white"/>
<path d="M595.225 75.9267V77H594.155V75.9267H595.225Z" fill="white"/>
<path d="M595.225 54.4604V55.5337H594.155V54.4604H595.225Z" fill="white"/>
<path d="M595.225 -52.871V-51.7977H594.155V-52.871H595.225Z" fill="white"/>
<path d="M595.225 -74.3372V-73.2639H594.155V-74.3372H595.225Z" fill="white"/>
<path d="M595.225 -95.8035V-94.7302H594.155V-95.8035H595.225Z" fill="white"/>
<path d="M595.225 -117.27V-116.196H594.155V-117.27H595.225Z" fill="white"/>
<path d="M595.225 -138.736V-137.663H594.155V-138.736H595.225Z" fill="white"/>
<path d="M595.225 -160.202V-159.129H594.155V-160.202H595.225Z" fill="white"/>
<path d="M595.225 -181.669V-180.595H594.155V-181.669H595.225Z" fill="white"/>
<path d="M595.225 -203.135V-202.062H594.155V-203.135H595.225Z" fill="white"/>
<path d="M595.225 -267.534V-266.46H594.155V-267.534H595.225Z" fill="white"/>
<path d="M595.225 -289V-287.927H594.155V-289H595.225Z" fill="white"/>
<path d="M573.84 75.9267V77H572.77V75.9267H573.84Z" fill="white"/>
<path d="M573.84 54.4604V55.5337H572.77V54.4604H573.84Z" fill="white"/>
<path d="M573.84 -52.871V-51.7977H572.77V-52.871H573.84Z" fill="white"/>
<path d="M573.84 -74.3372V-73.2639H572.77V-74.3372H573.84Z" fill="white"/>
<path d="M573.84 -95.8035V-94.7302H572.77V-95.8035H573.84Z" fill="white"/>
<path d="M573.84 -117.27V-116.196H572.77V-117.27H573.84Z" fill="white"/>
<path d="M573.84 -138.736V-137.663H572.77V-138.736H573.84Z" fill="white"/>
<path d="M573.84 -160.202V-159.129H572.77V-160.202H573.84Z" fill="white"/>
<path d="M573.84 -181.669V-180.595H572.77V-181.669H573.84Z" fill="white"/>
<path d="M573.84 -203.135V-202.062H572.77V-203.135H573.84Z" fill="white"/>
<path d="M573.84 -267.534V-266.46H572.77V-267.534H573.84Z" fill="white"/>
<path d="M573.84 -289V-287.927H572.77V-289H573.84Z" fill="white"/>
<path d="M552.454 75.9267V77H551.385V75.9267H552.454Z" fill="white"/>
<path d="M552.454 54.4604V55.5337H551.385V54.4604H552.454Z" fill="white"/>
<path d="M552.454 -52.871V-51.7977H551.385V-52.871H552.454Z" fill="white"/>
<path d="M552.454 -74.3372V-73.2639H551.385V-74.3372H552.454Z" fill="white"/>
<path d="M552.454 -95.8035V-94.7302H551.385V-95.8035H552.454Z" fill="white"/>
<path d="M552.454 -117.27V-116.196H551.385V-117.27H552.454Z" fill="white"/>
<path d="M552.454 -138.736V-137.663H551.385V-138.736H552.454Z" fill="white"/>
<path d="M552.454 -160.202V-159.129H551.385V-160.202H552.454Z" fill="white"/>
<path d="M552.454 -181.669V-180.595H551.385V-181.669H552.454Z" fill="white"/>
<path d="M552.454 -203.135V-202.062H551.385V-203.135H552.454Z" fill="white"/>
<path d="M552.454 -267.534V-266.46H551.385V-267.534H552.454Z" fill="white"/>
<path d="M552.454 -289V-287.927H551.385V-289H552.454Z" fill="white"/>
<path d="M531.069 75.9267V77H530V75.9267H531.069Z" fill="white"/>
<path d="M531.069 54.4604V55.5337H530V54.4604H531.069Z" fill="white"/>
<path d="M531.069 32.9941V34.0675H530V32.9941H531.069Z" fill="white"/>
<path d="M531.069 11.5279V12.6012H530V11.5279H531.069Z" fill="white"/>
<path d="M531.069 -9.93842V-8.8651H530V-9.93842H531.069Z" fill="white"/>
<path d="M531.069 -31.4047V-30.3314H530V-31.4047H531.069Z" fill="white"/>
<path d="M531.069 -52.871V-51.7977H530V-52.871H531.069Z" fill="white"/>
<path d="M531.069 -74.3372V-73.2639H530V-74.3372H531.069Z" fill="white"/>
<path d="M531.069 -95.8035V-94.7302H530V-95.8035H531.069Z" fill="white"/>
<path d="M531.069 -117.27V-116.196H530V-117.27H531.069Z" fill="white"/>
<path d="M531.069 -138.736V-137.663H530V-138.736H531.069Z" fill="white"/>
<path d="M531.069 -160.202V-159.129H530V-160.202H531.069Z" fill="white"/>
<path d="M531.069 -181.669V-180.595H530V-181.669H531.069Z" fill="white"/>
<path d="M531.069 -203.135V-202.062H530V-203.135H531.069Z" fill="white"/>
<path d="M531.069 -267.534V-266.46H530V-267.534H531.069Z" fill="white"/>
<path d="M531.069 -289V-287.927H530V-289H531.069Z" fill="white"/>
</g>
</g>
<defs>
<clipPath id="clip0_129_75">
<rect width="1280" height="80" fill="white"/>
</clipPath>
</defs>
</svg>
