<svg width="1280" height="80" viewBox="0 0 1280 80" fill="none" xmlns="http://www.w3.org/2000/svg">
<g clip-path="url(#clip0_158_162)">
<rect width="1280" height="80" transform="matrix(-1 0 0 -1 1280 80)" fill="#0B0C14"/>
<rect x="1280" y="80" width="175" height="80" transform="rotate(180 1280 80)" fill="#0F1D4E"/>
<rect x="1105" y="33" width="107" height="33" transform="rotate(180 1105 33)" fill="#0F1D4E"/>
<rect x="998" y="70" width="107" height="70" transform="rotate(180 998 70)" fill="#0F1D4E"/>
<rect x="891" y="52" width="107" height="52" transform="rotate(180 891 52)" fill="#0F1D4E"/>
<g opacity="0.15">
<path d="M0 4.07331L0 3H1.06925V4.07331H0Z" fill="white"/>
<path d="M0 25.5396L0 24.4663H1.06925V25.5396H0Z" fill="white"/>
<path d="M0 47.0059L0 45.9325H1.06925V47.0059H0Z" fill="white"/>
<path d="M0 68.4721L0 67.3988H1.06925V68.4721H0Z" fill="white"/>
<path d="M0 89.9384L0 88.8651H1.06925V89.9384H0Z" fill="white"/>
<path d="M0 111.405L0 110.331H1.06925V111.405H0Z" fill="white"/>
<path d="M0 132.871L0 131.798H1.06925V132.871H0Z" fill="white"/>
<path d="M0 154.337L0 153.264H1.06925V154.337H0Z" fill="white"/>
<path d="M0 175.803L0 174.73H1.06925L1.06925 175.803H0Z" fill="white"/>
<path d="M0 197.27L0 196.196H1.06925V197.27H0Z" fill="white"/>
<path d="M0 218.736L0 217.663H1.06925V218.736H0Z" fill="white"/>
<path d="M0 240.202L0 239.129H1.06925L1.06925 240.202H0Z" fill="white"/>
<path d="M0 261.669L0 260.595H1.06925V261.669H0Z" fill="white"/>
<path d="M0 283.135L0 282.062H1.06925V283.135H0Z" fill="white"/>
<path d="M0 304.601L0 303.528H1.06925L1.06925 304.601H0Z" fill="white"/>
<path d="M21.3851 4.07331V3H22.4543V4.07331H21.3851Z" fill="white"/>
<path d="M21.3851 25.5396V24.4663H22.4543V25.5396H21.3851Z" fill="white"/>
<path d="M21.3851 47.0059V45.9325H22.4543V47.0059H21.3851Z" fill="white"/>
<path d="M21.3851 68.4721V67.3988H22.4543V68.4721H21.3851Z" fill="white"/>
<path d="M21.3851 89.9384V88.8651H22.4543V89.9384H21.3851Z" fill="white"/>
<path d="M21.3851 111.405V110.331H22.4543V111.405H21.3851Z" fill="white"/>
<path d="M21.3851 132.871V131.798H22.4543V132.871H21.3851Z" fill="white"/>
<path d="M21.3851 154.337V153.264H22.4543V154.337H21.3851Z" fill="white"/>
<path d="M21.3851 175.803V174.73H22.4543V175.803H21.3851Z" fill="white"/>
<path d="M21.3851 197.27V196.196H22.4543V197.27H21.3851Z" fill="white"/>
<path d="M21.3851 218.736V217.663H22.4543V218.736H21.3851Z" fill="white"/>
<path d="M21.3851 240.202V239.129H22.4543V240.202H21.3851Z" fill="white"/>
<path d="M21.3851 261.669V260.595H22.4543V261.669H21.3851Z" fill="white"/>
<path d="M21.3851 283.135V282.062H22.4543V283.135H21.3851Z" fill="white"/>
<path d="M21.3851 304.601V303.528H22.4543V304.601H21.3851Z" fill="white"/>
<path d="M42.7702 4.07331V3H43.8394V4.07331H42.7702Z" fill="white"/>
<path d="M42.7702 175.803V174.73H43.8394V175.803H42.7702Z" fill="white"/>
<path d="M42.7702 197.27V196.196H43.8394V197.27H42.7702Z" fill="white"/>
<path d="M42.7702 218.736V217.663H43.8394V218.736H42.7702Z" fill="white"/>
<path d="M42.7702 240.202V239.129H43.8394V240.202H42.7702Z" fill="white"/>
<path d="M42.7702 261.669V260.595H43.8394V261.669H42.7702Z" fill="white"/>
<path d="M42.7702 283.135V282.062H43.8394V283.135H42.7702Z" fill="white"/>
<path d="M42.7702 304.601V303.528H43.8394V304.601H42.7702Z" fill="white"/>
<path d="M64.1553 4.07331V3H65.2245V4.07331H64.1553Z" fill="white"/>
<path d="M64.1553 218.736V217.663H65.2245V218.736H64.1553Z" fill="white"/>
<path d="M64.1553 240.202V239.129H65.2245V240.202H64.1553Z" fill="white"/>
<path d="M64.1553 261.669V260.595H65.2245V261.669H64.1553Z" fill="white"/>
<path d="M64.1553 283.135V282.062H65.2245V283.135H64.1553Z" fill="white"/>
<path d="M64.1553 304.601V303.528H65.2245V304.601H64.1553Z" fill="white"/>
<path d="M64.1553 326.067V324.994H65.2245V326.067H64.1553Z" fill="white"/>
<path d="M64.1553 347.534V346.46H65.2245V347.534H64.1553Z" fill="white"/>
<path d="M64.1553 369V367.927H65.2245V369H64.1553Z" fill="white"/>
<path d="M85.5403 4.07331V3H86.6096V4.07331H85.5403Z" fill="white"/>
<path d="M85.5403 218.736V217.663H86.6096V218.736H85.5403Z" fill="white"/>
<path d="M85.5403 240.202V239.129H86.6096V240.202H85.5403Z" fill="white"/>
<path d="M85.5403 261.669V260.595H86.6096V261.669H85.5403Z" fill="white"/>
<path d="M85.5403 283.135V282.062H86.6096V283.135H85.5403Z" fill="white"/>
<path d="M85.5403 304.601V303.528H86.6096V304.601H85.5403Z" fill="white"/>
<path d="M85.5403 326.067V324.994H86.6096V326.067H85.5403Z" fill="white"/>
<path d="M85.5403 347.534V346.46H86.6096V347.534H85.5403Z" fill="white"/>
<path d="M85.5403 369V367.927H86.6096V369H85.5403Z" fill="white"/>
<path d="M106.925 4.07331V3H107.995V4.07331H106.925Z" fill="white"/>
<path d="M106.925 25.5396V24.4663H107.995V25.5396H106.925Z" fill="white"/>
<path d="M106.925 47.0059V45.9325H107.995V47.0059H106.925Z" fill="white"/>
<path d="M106.925 68.4721V67.3988H107.995V68.4721H106.925Z" fill="white"/>
<path d="M106.925 89.9384V88.8651H107.995V89.9384H106.925Z" fill="white"/>
<path d="M106.925 111.405V110.331H107.995V111.405H106.925Z" fill="white"/>
<path d="M106.925 132.871V131.798H107.995V132.871H106.925Z" fill="white"/>
<path d="M106.925 218.736V217.663H107.995V218.736H106.925Z" fill="white"/>
<path d="M106.925 240.202V239.129H107.995V240.202H106.925Z" fill="white"/>
<path d="M106.925 261.669V260.595H107.995V261.669H106.925Z" fill="white"/>
<path d="M106.925 283.135V282.062H107.995V283.135H106.925Z" fill="white"/>
<path d="M106.925 304.601V303.528H107.995V304.601H106.925Z" fill="white"/>
<path d="M106.925 326.067V324.994H107.995V326.067H106.925Z" fill="white"/>
<path d="M106.925 347.534V346.46H107.995V347.534H106.925Z" fill="white"/>
<path d="M106.925 369V367.927H107.995V369H106.925Z" fill="white"/>
<path d="M128.311 4.07331V3H129.38V4.07331H128.311Z" fill="white"/>
<path d="M128.311 25.5396V24.4663H129.38V25.5396H128.311Z" fill="white"/>
<path d="M128.311 47.0059V45.9325H129.38V47.0059H128.311Z" fill="white"/>
<path d="M128.311 68.4721V67.3988H129.38V68.4721H128.311Z" fill="white"/>
<path d="M128.311 89.9384V88.8651H129.38V89.9384H128.311Z" fill="white"/>
<path d="M128.311 111.405V110.331H129.38V111.405H128.311Z" fill="white"/>
<path d="M128.311 132.871V131.798H129.38V132.871H128.311Z" fill="white"/>
<path d="M128.311 154.337V153.264H129.38V154.337H128.311Z" fill="white"/>
<path d="M128.311 175.803V174.73H129.38V175.803H128.311Z" fill="white"/>
<path d="M128.311 197.27V196.196H129.38V197.27H128.311Z" fill="white"/>
<path d="M128.311 218.736V217.663H129.38V218.736H128.311Z" fill="white"/>
<path d="M128.311 240.202V239.129H129.38V240.202H128.311Z" fill="white"/>
<path d="M128.311 261.669V260.595H129.38V261.669H128.311Z" fill="white"/>
<path d="M128.311 283.135V282.062H129.38V283.135H128.311Z" fill="white"/>
<path d="M128.311 304.601V303.528H129.38V304.601H128.311Z" fill="white"/>
<path d="M128.311 326.067V324.994H129.38V326.067H128.311Z" fill="white"/>
<path d="M128.311 347.534V346.46H129.38V347.534H128.311Z" fill="white"/>
<path d="M128.311 369V367.927H129.38V369H128.311Z" fill="white"/>
<path d="M149.696 4.07331V3H150.765V4.07331H149.696Z" fill="white"/>
<path d="M149.696 25.5396V24.4663H150.765V25.5396H149.696Z" fill="white"/>
<path d="M149.696 47.0059V45.9325H150.765V47.0059H149.696Z" fill="white"/>
<path d="M149.696 68.4721V67.3988H150.765V68.4721H149.696Z" fill="white"/>
<path d="M149.696 89.9384V88.8651H150.765V89.9384H149.696Z" fill="white"/>
<path d="M149.696 111.405V110.331H150.765V111.405H149.696Z" fill="white"/>
<path d="M149.696 132.871V131.798H150.765V132.871H149.696Z" fill="white"/>
<path d="M149.696 154.337V153.264H150.765V154.337H149.696Z" fill="white"/>
<path d="M149.696 175.803V174.73H150.765V175.803H149.696Z" fill="white"/>
<path d="M149.696 197.27V196.196H150.765V197.27H149.696Z" fill="white"/>
<path d="M149.696 218.736V217.663H150.765V218.736H149.696Z" fill="white"/>
<path d="M149.696 240.202V239.129H150.765V240.202H149.696Z" fill="white"/>
<path d="M149.696 261.669V260.595H150.765V261.669H149.696Z" fill="white"/>
<path d="M149.696 283.135V282.062H150.765V283.135H149.696Z" fill="white"/>
<path d="M149.696 304.601V303.528H150.765V304.601H149.696Z" fill="white"/>
<path d="M149.696 326.067V324.994H150.765V326.067H149.696Z" fill="white"/>
<path d="M149.696 347.534V346.46H150.765V347.534H149.696Z" fill="white"/>
<path d="M149.696 369V367.927H150.765V369H149.696Z" fill="white"/>
<path d="M171.081 4.07331V3H172.15V4.07331H171.081Z" fill="white"/>
<path d="M171.081 25.5396V24.4663H172.15V25.5396H171.081Z" fill="white"/>
<path d="M171.081 47.0059V45.9325H172.15V47.0059H171.081Z" fill="white"/>
<path d="M171.081 68.4721V67.3988H172.15V68.4721H171.081Z" fill="white"/>
<path d="M171.081 89.9384V88.8651H172.15V89.9384H171.081Z" fill="white"/>
<path d="M171.081 111.405V110.331H172.15V111.405H171.081Z" fill="white"/>
<path d="M171.081 132.871V131.798H172.15V132.871H171.081Z" fill="white"/>
<path d="M171.081 154.337V153.264H172.15V154.337H171.081Z" fill="white"/>
<path d="M171.081 175.803V174.73H172.15V175.803H171.081Z" fill="white"/>
<path d="M171.081 197.27V196.196H172.15V197.27H171.081Z" fill="white"/>
<path d="M171.081 218.736V217.663H172.15V218.736H171.081Z" fill="white"/>
<path d="M171.081 240.202V239.129H172.15V240.202H171.081Z" fill="white"/>
<path d="M171.081 261.669V260.595H172.15V261.669H171.081Z" fill="white"/>
<path d="M171.081 283.135V282.062H172.15V283.135H171.081Z" fill="white"/>
<path d="M171.081 304.601V303.528H172.15V304.601H171.081Z" fill="white"/>
<path d="M171.081 326.067V324.994H172.15V326.067H171.081Z" fill="white"/>
<path d="M171.081 347.534V346.46H172.15V347.534H171.081Z" fill="white"/>
<path d="M171.081 369V367.927H172.15V369H171.081Z" fill="white"/>
<path d="M193.535 4.07331V3H194.604V4.07331H193.535Z" fill="white"/>
<path d="M193.535 25.5396V24.4663H194.604V25.5396H193.535Z" fill="white"/>
<path d="M193.535 47.0059V45.9325H194.604V47.0059H193.535Z" fill="white"/>
<path d="M193.535 68.4721V67.3988H194.604V68.4721H193.535Z" fill="white"/>
<path d="M193.535 175.803V174.73H194.604V175.803H193.535Z" fill="white"/>
<path d="M193.535 197.27V196.196H194.604V197.27H193.535Z" fill="white"/>
<path d="M193.535 218.736V217.663H194.604V218.736H193.535Z" fill="white"/>
<path d="M193.535 240.202V239.129H194.604V240.202H193.535Z" fill="white"/>
<path d="M193.535 261.669V260.595H194.604V261.669H193.535Z" fill="white"/>
<path d="M193.535 283.135V282.062H194.604V283.135H193.535Z" fill="white"/>
<path d="M214.92 4.07331V3H215.989V4.07331H214.92Z" fill="white"/>
<path d="M214.92 25.5396V24.4663H215.989V25.5396H214.92Z" fill="white"/>
<path d="M214.92 47.0059V45.9325H215.989V47.0059H214.92Z" fill="white"/>
<path d="M214.92 68.4721V67.3988H215.989V68.4721H214.92Z" fill="white"/>
<path d="M214.92 175.803V174.73H215.989V175.803H214.92Z" fill="white"/>
<path d="M214.92 197.27V196.196H215.989V197.27H214.92Z" fill="white"/>
<path d="M214.92 218.736V217.663H215.989V218.736H214.92Z" fill="white"/>
<path d="M214.92 240.202V239.129H215.989V240.202H214.92Z" fill="white"/>
<path d="M214.92 261.669V260.595H215.989V261.669H214.92Z" fill="white"/>
<path d="M214.92 283.135V282.062H215.989V283.135H214.92Z" fill="white"/>
<path d="M236.305 4.07331V3H237.374V4.07331L236.305 4.07331Z" fill="white"/>
<path d="M236.305 25.5396V24.4663H237.374V25.5396H236.305Z" fill="white"/>
<path d="M236.305 47.0059V45.9325H237.374V47.0059H236.305Z" fill="white"/>
<path d="M236.305 68.4721V67.3988H237.374V68.4721H236.305Z" fill="white"/>
<path d="M236.305 175.803V174.73H237.374V175.803H236.305Z" fill="white"/>
<path d="M236.305 197.27V196.196H237.374V197.27H236.305Z" fill="white"/>
<path d="M236.305 218.736V217.663H237.374V218.736H236.305Z" fill="white"/>
<path d="M236.305 240.202V239.129H237.374V240.202H236.305Z" fill="white"/>
<path d="M236.305 261.669V260.595H237.374V261.669H236.305Z" fill="white"/>
<path d="M236.305 283.135V282.062H237.374V283.135H236.305Z" fill="white"/>
<path d="M257.69 4.07331V3H258.76V4.07331H257.69Z" fill="white"/>
<path d="M257.69 25.5396V24.4663H258.76V25.5396H257.69Z" fill="white"/>
<path d="M257.69 47.0059V45.9325H258.76V47.0059H257.69Z" fill="white"/>
<path d="M257.69 68.4721V67.3988H258.76V68.4721H257.69Z" fill="white"/>
<path d="M257.69 175.803V174.73H258.76V175.803H257.69Z" fill="white"/>
<path d="M257.69 197.27V196.196H258.76V197.27H257.69Z" fill="white"/>
<path d="M257.69 218.736V217.663H258.76V218.736H257.69Z" fill="white"/>
<path d="M257.69 240.202V239.129H258.76V240.202H257.69Z" fill="white"/>
<path d="M257.69 261.669V260.595H258.76V261.669H257.69Z" fill="white"/>
<path d="M257.69 283.135V282.062H258.76V283.135H257.69Z" fill="white"/>
<path d="M279.075 4.07331V3H280.145V4.07331H279.075Z" fill="white"/>
<path d="M279.075 25.5396V24.4663H280.145V25.5396H279.075Z" fill="white"/>
<path d="M279.075 47.0059V45.9325H280.145V47.0059H279.075Z" fill="white"/>
<path d="M279.075 68.4721V67.3988H280.145V68.4721H279.075Z" fill="white"/>
<path d="M279.075 175.803V174.73H280.145V175.803H279.075Z" fill="white"/>
<path d="M279.075 197.27V196.196H280.145V197.27H279.075Z" fill="white"/>
<path d="M279.075 218.736V217.663H280.145V218.736H279.075Z" fill="white"/>
<path d="M279.075 240.202V239.129H280.145V240.202H279.075Z" fill="white"/>
<path d="M279.075 261.669V260.595H280.145V261.669H279.075Z" fill="white"/>
<path d="M279.075 283.135V282.062H280.145V283.135H279.075Z" fill="white"/>
<path d="M300.46 25.5396V24.4663H301.53V25.5396H300.46Z" fill="white"/>
<path d="M300.46 47.0059V45.9325H301.53V47.0059H300.46Z" fill="white"/>
<path d="M300.46 68.4721V67.3988H301.53V68.4721H300.46Z" fill="white"/>
<path d="M300.46 175.803V174.73H301.53V175.803H300.46Z" fill="white"/>
<path d="M300.46 197.27V196.196H301.53V197.27H300.46Z" fill="white"/>
<path d="M300.46 218.736V217.663H301.53V218.736H300.46Z" fill="white"/>
<path d="M300.46 240.202V239.129H301.53V240.202H300.46Z" fill="white"/>
<path d="M300.46 261.669V260.595H301.53V261.669H300.46Z" fill="white"/>
<path d="M300.46 283.135V282.062H301.53V283.135H300.46Z" fill="white"/>
<path d="M321.846 25.5396V24.4663H322.915V25.5396H321.846Z" fill="white"/>
<path d="M321.846 47.0059V45.9325H322.915V47.0059H321.846Z" fill="white"/>
<path d="M321.846 68.4721V67.3988H322.915V68.4721H321.846Z" fill="white"/>
<path d="M321.846 175.803V174.73H322.915V175.803H321.846Z" fill="white"/>
<path d="M321.846 197.27V196.196H322.915V197.27H321.846Z" fill="white"/>
<path d="M321.846 218.736V217.663H322.915V218.736H321.846Z" fill="white"/>
<path d="M321.846 240.202V239.129H322.915V240.202H321.846Z" fill="white"/>
<path d="M321.846 261.669V260.595H322.915V261.669H321.846Z" fill="white"/>
<path d="M321.846 283.135V282.062H322.915V283.135H321.846Z" fill="white"/>
<path d="M343.231 25.5396V24.4663H344.3V25.5396H343.231Z" fill="white"/>
<path d="M343.231 47.0059V45.9325H344.3V47.0059H343.231Z" fill="white"/>
<path d="M343.231 68.4721V67.3988H344.3V68.4721H343.231Z" fill="white"/>
<path d="M343.231 240.202V239.129H344.3V240.202H343.231Z" fill="white"/>
<path d="M343.231 261.669V260.595H344.3V261.669H343.231Z" fill="white"/>
<path d="M343.231 283.135V282.062H344.3V283.135H343.231Z" fill="white"/>
<path d="M343.231 304.601V303.528H344.3V304.601H343.231Z" fill="white"/>
<path d="M343.231 326.067V324.994H344.3V326.067H343.231Z" fill="white"/>
<path d="M343.231 347.534V346.46H344.3V347.534H343.231Z" fill="white"/>
<path d="M343.231 369V367.927H344.3V369H343.231Z" fill="white"/>
<path d="M364.616 25.5396V24.4663H365.685V25.5396H364.616Z" fill="white"/>
<path d="M364.616 47.0059V45.9325H365.685V47.0059H364.616Z" fill="white"/>
<path d="M364.616 68.4721V67.3988H365.685V68.4721H364.616Z" fill="white"/>
<path d="M364.616 89.9384V88.8651H365.685V89.9384H364.616Z" fill="white"/>
<path d="M364.616 111.405V110.331H365.685V111.405H364.616Z" fill="white"/>
<path d="M364.616 132.871V131.798H365.685V132.871H364.616Z" fill="white"/>
<path d="M364.616 154.337V153.264H365.685V154.337H364.616Z" fill="white"/>
<path d="M364.616 175.803V174.73H365.685V175.803H364.616Z" fill="white"/>
<path d="M364.616 197.27V196.196H365.685V197.27H364.616Z" fill="white"/>
<path d="M364.616 218.736V217.663H365.685V218.736H364.616Z" fill="white"/>
<path d="M364.616 240.202V239.129H365.685V240.202H364.616Z" fill="white"/>
<path d="M364.616 261.669V260.595H365.685V261.669H364.616Z" fill="white"/>
<path d="M364.616 283.135V282.062H365.685V283.135H364.616Z" fill="white"/>
<path d="M364.616 304.601V303.528H365.685V304.601H364.616Z" fill="white"/>
<path d="M364.616 326.067V324.994H365.685V326.067H364.616Z" fill="white"/>
<path d="M364.616 347.534V346.46H365.685V347.534H364.616Z" fill="white"/>
<path d="M364.616 369V367.927H365.685V369H364.616Z" fill="white"/>
<path d="M384.315 25.5396V24.4663H385.384V25.5396H384.315Z" fill="white"/>
<path d="M384.315 47.0059V45.9325H385.384V47.0059H384.315Z" fill="white"/>
<path d="M384.315 68.4721V67.3988H385.384V68.4721H384.315Z" fill="white"/>
<path d="M384.315 89.9384V88.8651H385.384V89.9384H384.315Z" fill="white"/>
<path d="M384.315 111.405V110.331H385.384V111.405H384.315Z" fill="white"/>
<path d="M384.315 132.871V131.798H385.384V132.871H384.315Z" fill="white"/>
<path d="M384.315 154.337V153.264H385.384V154.337H384.315Z" fill="white"/>
<path d="M384.315 175.803V174.73H385.384V175.803H384.315Z" fill="white"/>
<path d="M384.315 197.27V196.196H385.384V197.27H384.315Z" fill="white"/>
<path d="M384.315 218.736V217.663H385.384V218.736H384.315Z" fill="white"/>
<path d="M384.315 240.202V239.129H385.384V240.202H384.315Z" fill="white"/>
<path d="M384.315 261.669V260.595H385.384V261.669H384.315Z" fill="white"/>
<path d="M384.315 283.135V282.062H385.384V283.135H384.315Z" fill="white"/>
<path d="M384.315 304.601V303.528H385.384V304.601H384.315Z" fill="white"/>
<path d="M405.7 25.5396V24.4663H406.769V25.5396H405.7Z" fill="white"/>
<path d="M405.7 47.0059V45.9325H406.769V47.0059H405.7Z" fill="white"/>
<path d="M405.7 68.4721V67.3988H406.769V68.4721H405.7Z" fill="white"/>
<path d="M405.7 89.9384V88.8651H406.769V89.9384H405.7Z" fill="white"/>
<path d="M405.7 111.405V110.331H406.769V111.405H405.7Z" fill="white"/>
<path d="M405.7 132.871V131.798H406.769V132.871H405.7Z" fill="white"/>
<path d="M405.7 154.337V153.264H406.769V154.337H405.7Z" fill="white"/>
<path d="M405.7 175.803V174.73H406.769V175.803H405.7Z" fill="white"/>
<path d="M405.7 197.27V196.196H406.769V197.27H405.7Z" fill="white"/>
<path d="M405.7 218.736V217.663H406.769V218.736H405.7Z" fill="white"/>
<path d="M405.7 240.202V239.129H406.769V240.202H405.7Z" fill="white"/>
<path d="M405.7 261.669V260.595H406.769V261.669H405.7Z" fill="white"/>
<path d="M405.7 283.135V282.062H406.769V283.135H405.7Z" fill="white"/>
<path d="M405.7 304.601V303.528H406.769V304.601H405.7Z" fill="white"/>
<path d="M427.085 25.5396V24.4663H428.154V25.5396H427.085Z" fill="white"/>
<path d="M427.085 47.0059V45.9325H428.154V47.0059H427.085Z" fill="white"/>
<path d="M427.085 68.4721V67.3988H428.154V68.4721H427.085Z" fill="white"/>
<path d="M427.085 89.9384V88.8651H428.154V89.9384H427.085Z" fill="white"/>
<path d="M427.085 111.405V110.331H428.154V111.405H427.085Z" fill="white"/>
<path d="M427.085 132.871V131.798H428.154V132.871H427.085Z" fill="white"/>
<path d="M427.085 154.337V153.264H428.154V154.337H427.085Z" fill="white"/>
<path d="M427.085 175.803V174.73H428.154V175.803H427.085Z" fill="white"/>
<path d="M427.085 197.27V196.196H428.154V197.27H427.085Z" fill="white"/>
<path d="M427.085 218.736V217.663H428.154V218.736H427.085Z" fill="white"/>
<path d="M427.085 240.202V239.129H428.154V240.202H427.085Z" fill="white"/>
<path d="M427.085 261.669V260.595H428.154V261.669H427.085Z" fill="white"/>
<path d="M427.085 283.135V282.062H428.154V283.135H427.085Z" fill="white"/>
<path d="M427.085 304.601V303.528H428.154V304.601H427.085Z" fill="white"/>
<path d="M448.47 25.5396V24.4663H449.539V25.5396H448.47Z" fill="white"/>
<path d="M448.47 47.0059V45.9325H449.539V47.0059H448.47Z" fill="white"/>
<path d="M448.47 175.803V174.73H449.539V175.803H448.47Z" fill="white"/>
<path d="M448.47 197.27V196.196H449.539V197.27H448.47Z" fill="white"/>
<path d="M448.47 218.736V217.663H449.539V218.736H448.47Z" fill="white"/>
<path d="M448.47 240.202V239.129H449.539V240.202H448.47Z" fill="white"/>
<path d="M448.47 261.669V260.595H449.539V261.669H448.47Z" fill="white"/>
<path d="M448.47 283.135V282.062H449.539V283.135H448.47Z" fill="white"/>
<path d="M448.47 304.601V303.528H449.539V304.601H448.47Z" fill="white"/>
<path d="M448.47 326.067V324.994H449.539V326.067H448.47Z" fill="white"/>
<path d="M448.47 347.534V346.46H449.539V347.534H448.47Z" fill="white"/>
<path d="M448.47 369V367.927H449.539V369H448.47Z" fill="white"/>
<path d="M469.855 25.5396V24.4663H470.925V25.5396H469.855Z" fill="white"/>
<path d="M469.855 47.0059V45.9325H470.925V47.0059H469.855Z" fill="white"/>
<path d="M469.855 175.803V174.73H470.925V175.803H469.855Z" fill="white"/>
<path d="M469.855 197.27V196.196H470.925V197.27H469.855Z" fill="white"/>
<path d="M469.855 304.601V303.528H470.925V304.601H469.855Z" fill="white"/>
<path d="M469.855 326.067V324.994H470.925V326.067H469.855Z" fill="white"/>
<path d="M469.855 347.534V346.46H470.925V347.534H469.855Z" fill="white"/>
<path d="M469.855 369V367.927H470.925V369H469.855Z" fill="white"/>
<path d="M491.24 4.07331V3H492.31V4.07331H491.24Z" fill="white"/>
<path d="M491.24 25.5396V24.4663H492.31V25.5396H491.24Z" fill="white"/>
<path d="M491.24 47.0059V45.9325H492.31V47.0059H491.24Z" fill="white"/>
<path d="M491.24 68.4721V67.3988H492.31V68.4721H491.24Z" fill="white"/>
<path d="M491.24 89.9384V88.8651H492.31V89.9384H491.24Z" fill="white"/>
<path d="M491.24 111.405V110.331H492.31V111.405H491.24Z" fill="white"/>
<path d="M491.24 132.871V131.798H492.31V132.871H491.24Z" fill="white"/>
<path d="M491.24 154.337V153.264H492.31V154.337H491.24Z" fill="white"/>
<path d="M491.24 175.803V174.73H492.31V175.803H491.24Z" fill="white"/>
<path d="M491.24 197.27V196.196H492.31V197.27H491.24Z" fill="white"/>
<path d="M491.24 218.736V217.663H492.31V218.736H491.24Z" fill="white"/>
<path d="M491.24 304.601V303.528H492.31V304.601H491.24Z" fill="white"/>
<path d="M491.24 326.067V324.994H492.31V326.067H491.24Z" fill="white"/>
<path d="M491.24 347.534V346.46H492.31V347.534H491.24Z" fill="white"/>
<path d="M491.24 369V367.927H492.31V369H491.24Z" fill="white"/>
<path d="M512.626 4.07331V3H513.695V4.07331H512.626Z" fill="white"/>
<path d="M512.626 25.5396V24.4663H513.695V25.5396H512.626Z" fill="white"/>
<path d="M512.626 47.0059V45.9325H513.695V47.0059H512.626Z" fill="white"/>
<path d="M512.626 68.4721V67.3988H513.695V68.4721H512.626Z" fill="white"/>
<path d="M512.626 89.9384V88.8651H513.695V89.9384H512.626Z" fill="white"/>
<path d="M512.626 111.405V110.331H513.695V111.405H512.626Z" fill="white"/>
<path d="M512.626 132.871V131.798H513.695V132.871H512.626Z" fill="white"/>
<path d="M512.626 154.337V153.264H513.695V154.337H512.626Z" fill="white"/>
<path d="M512.626 175.803V174.73H513.695V175.803H512.626Z" fill="white"/>
<path d="M512.626 197.27V196.196H513.695V197.27H512.626Z" fill="white"/>
<path d="M512.626 218.736V217.663H513.695V218.736H512.626Z" fill="white"/>
<path d="M512.626 347.534V346.46H513.695V347.534H512.626Z" fill="white"/>
<path d="M512.626 369V367.927H513.695V369H512.626Z" fill="white"/>
<path d="M534.011 4.07331V3H535.08V4.07331H534.011Z" fill="white"/>
<path d="M534.011 25.5396V24.4663H535.08V25.5396H534.011Z" fill="white"/>
<path d="M534.011 47.0059V45.9325H535.08V47.0059H534.011Z" fill="white"/>
<path d="M534.011 68.4721V67.3988H535.08V68.4721H534.011Z" fill="white"/>
<path d="M534.011 89.9384V88.8651H535.08V89.9384H534.011Z" fill="white"/>
<path d="M534.011 111.405V110.331H535.08V111.405H534.011Z" fill="white"/>
<path d="M534.011 132.871V131.798H535.08V132.871H534.011Z" fill="white"/>
<path d="M534.011 154.337V153.264H535.08V154.337H534.011Z" fill="white"/>
<path d="M534.011 175.803V174.73H535.08V175.803H534.011Z" fill="white"/>
<path d="M534.011 197.27V196.196H535.08V197.27H534.011Z" fill="white"/>
<path d="M534.011 218.736V217.663H535.08V218.736H534.011Z" fill="white"/>
<path d="M534.011 347.534V346.46H535.08V347.534H534.011Z" fill="white"/>
<path d="M534.011 369V367.927H535.08V369H534.011Z" fill="white"/>
<path d="M555.396 4.07331V3H556.465V4.07331H555.396Z" fill="white"/>
<path d="M555.396 25.5396V24.4663H556.465V25.5396H555.396Z" fill="white"/>
<path d="M555.396 47.0059V45.9325H556.465V47.0059H555.396Z" fill="white"/>
<path d="M555.396 68.4721V67.3988H556.465V68.4721H555.396Z" fill="white"/>
<path d="M555.396 89.9384V88.8651H556.465V89.9384H555.396Z" fill="white"/>
<path d="M555.396 111.405V110.331H556.465V111.405H555.396Z" fill="white"/>
<path d="M555.396 132.871V131.798H556.465V132.871H555.396Z" fill="white"/>
<path d="M555.396 154.337V153.264H556.465V154.337H555.396Z" fill="white"/>
<path d="M555.396 175.803V174.73H556.465V175.803H555.396Z" fill="white"/>
<path d="M555.396 197.27V196.196H556.465V197.27H555.396Z" fill="white"/>
<path d="M555.396 218.736V217.663H556.465V218.736H555.396Z" fill="white"/>
<path d="M555.396 240.202V239.129H556.465V240.202H555.396Z" fill="white"/>
<path d="M555.396 261.669V260.595H556.465V261.669H555.396Z" fill="white"/>
<path d="M555.396 283.135V282.062H556.465V283.135H555.396Z" fill="white"/>
<path d="M555.396 304.601V303.528H556.465V304.601H555.396Z" fill="white"/>
<path d="M555.396 326.067V324.994H556.465V326.067H555.396Z" fill="white"/>
<path d="M555.396 347.534V346.46H556.465V347.534H555.396Z" fill="white"/>
<path d="M555.396 369V367.927H556.465V369H555.396Z" fill="white"/>
<path d="M577.85 4.07331V3H578.919V4.07331H577.85Z" fill="white"/>
<path d="M577.85 25.5396V24.4663H578.919V25.5396H577.85Z" fill="white"/>
<path d="M577.85 47.0059V45.9325H578.919V47.0059H577.85Z" fill="white"/>
<path d="M577.85 68.4721V67.3988H578.919V68.4721H577.85Z" fill="white"/>
<path d="M577.85 89.9384V88.8651H578.919V89.9384H577.85Z" fill="white"/>
<path d="M577.85 111.405V110.331H578.919V111.405H577.85Z" fill="white"/>
<path d="M577.85 132.871V131.798H578.919V132.871H577.85Z" fill="white"/>
<path d="M577.85 154.337V153.264H578.919V154.337H577.85Z" fill="white"/>
<path d="M577.85 175.803V174.73H578.919V175.803H577.85Z" fill="white"/>
<path d="M577.85 197.27V196.196H578.919V197.27H577.85Z" fill="white"/>
<path d="M577.85 218.736V217.663H578.919V218.736H577.85Z" fill="white"/>
<path d="M577.85 240.202V239.129H578.919V240.202H577.85Z" fill="white"/>
<path d="M577.85 261.669V260.595H578.919V261.669H577.85Z" fill="white"/>
<path d="M577.85 283.135V282.062H578.919V283.135H577.85Z" fill="white"/>
<path d="M577.85 304.601V303.528H578.919V304.601H577.85Z" fill="white"/>
<path d="M577.85 326.067V324.994H578.919V326.067H577.85Z" fill="white"/>
<path d="M577.85 347.534V346.46H578.919V347.534H577.85Z" fill="white"/>
<path d="M577.85 369V367.927H578.919V369H577.85Z" fill="white"/>
<path d="M599.235 4.07331V3H600.304V4.07331H599.235Z" fill="white"/>
<path d="M599.235 25.5396V24.4663H600.304V25.5396H599.235Z" fill="white"/>
<path d="M599.235 47.0059V45.9325H600.304V47.0059H599.235Z" fill="white"/>
<path d="M599.235 68.4721V67.3988H600.304V68.4721H599.235Z" fill="white"/>
<path d="M599.235 89.9384V88.8651H600.304V89.9384H599.235Z" fill="white"/>
<path d="M599.235 240.202V239.129H600.304V240.202H599.235Z" fill="white"/>
<path d="M599.235 261.669V260.595H600.304V261.669H599.235Z" fill="white"/>
<path d="M599.235 283.135V282.062H600.304V283.135H599.235Z" fill="white"/>
<path d="M599.235 304.601V303.528H600.304V304.601H599.235Z" fill="white"/>
<path d="M599.235 326.067V324.994H600.304V326.067H599.235Z" fill="white"/>
<path d="M599.235 347.534V346.46H600.304V347.534H599.235Z" fill="white"/>
<path d="M599.235 369V367.927H600.304V369H599.235Z" fill="white"/>
<path d="M620.62 4.07331V3H621.689V4.07331H620.62Z" fill="white"/>
<path d="M620.62 25.5396V24.4663H621.689V25.5396H620.62Z" fill="white"/>
<path d="M620.62 47.0059V45.9325H621.689V47.0059H620.62Z" fill="white"/>
<path d="M620.62 68.4721V67.3988H621.689V68.4721H620.62Z" fill="white"/>
<path d="M620.62 89.9384V88.8651H621.689V89.9384H620.62Z" fill="white"/>
<path d="M620.62 240.202V239.129H621.689V240.202H620.62Z" fill="white"/>
<path d="M620.62 261.669V260.595H621.689V261.669H620.62Z" fill="white"/>
<path d="M620.62 283.135V282.062H621.689V283.135H620.62Z" fill="white"/>
<path d="M620.62 304.601V303.528H621.689V304.601H620.62Z" fill="white"/>
<path d="M620.62 326.067V324.994H621.689V326.067H620.62Z" fill="white"/>
<path d="M620.62 347.534V346.46H621.689V347.534H620.62Z" fill="white"/>
<path d="M620.62 369V367.927H621.689V369H620.62Z" fill="white"/>
<path d="M642.005 4.07331V3H643.075V4.07331H642.005Z" fill="white"/>
<path d="M642.005 25.5396V24.4663H643.075V25.5396H642.005Z" fill="white"/>
<path d="M642.005 154.337V153.264H643.075V154.337H642.005Z" fill="white"/>
<path d="M642.005 175.803V174.73H643.075V175.803H642.005Z" fill="white"/>
<path d="M642.005 197.27V196.196H643.075V197.27H642.005Z" fill="white"/>
<path d="M642.005 218.736V217.663H643.075V218.736H642.005Z" fill="white"/>
<path d="M642.005 240.202V239.129H643.075V240.202H642.005Z" fill="white"/>
<path d="M642.005 261.669V260.595H643.075V261.669H642.005Z" fill="white"/>
<path d="M642.005 283.135V282.062H643.075V283.135H642.005Z" fill="white"/>
<path d="M642.005 347.534V346.46H643.075V347.534H642.005Z" fill="white"/>
<path d="M642.005 369V367.927H643.075V369H642.005Z" fill="white"/>
<path d="M663.39 4.07331V3H664.46V4.07331H663.39Z" fill="white"/>
<path d="M663.39 25.5396V24.4663H664.46V25.5396H663.39Z" fill="white"/>
<path d="M663.39 132.871V131.798H664.46V132.871H663.39Z" fill="white"/>
<path d="M663.39 154.337V153.264H664.46V154.337H663.39Z" fill="white"/>
<path d="M663.39 175.803V174.73H664.46V175.803H663.39Z" fill="white"/>
<path d="M663.39 197.27V196.196H664.46V197.27H663.39Z" fill="white"/>
<path d="M663.39 218.736V217.663H664.46V218.736H663.39Z" fill="white"/>
<path d="M663.39 240.202V239.129H664.46V240.202H663.39Z" fill="white"/>
<path d="M663.39 261.669V260.595H664.46V261.669H663.39Z" fill="white"/>
<path d="M663.39 283.135V282.062H664.46V283.135H663.39Z" fill="white"/>
<path d="M663.39 347.534V346.46H664.46V347.534H663.39Z" fill="white"/>
<path d="M663.39 369V367.927H664.46V369H663.39Z" fill="white"/>
<path d="M684.775 4.07331V3H685.845V4.07331L684.775 4.07331Z" fill="white"/>
<path d="M684.775 25.5396V24.4663H685.845V25.5396H684.775Z" fill="white"/>
<path d="M684.775 132.871V131.798H685.845V132.871H684.775Z" fill="white"/>
<path d="M684.775 154.337V153.264H685.845V154.337H684.775Z" fill="white"/>
<path d="M684.775 175.803V174.73H685.845V175.803H684.775Z" fill="white"/>
<path d="M684.775 197.27V196.196H685.845V197.27H684.775Z" fill="white"/>
<path d="M684.775 218.736V217.663H685.845V218.736H684.775Z" fill="white"/>
<path d="M684.775 240.202V239.129H685.845V240.202H684.775Z" fill="white"/>
<path d="M684.775 261.669V260.595H685.845V261.669H684.775Z" fill="white"/>
<path d="M684.775 283.135V282.062H685.845V283.135H684.775Z" fill="white"/>
<path d="M684.775 347.534V346.46H685.845V347.534H684.775Z" fill="white"/>
<path d="M684.775 369V367.927H685.845V369H684.775Z" fill="white"/>
<path d="M706.16 4.07331V3H707.23V4.07331H706.16Z" fill="white"/>
<path d="M706.16 25.5396V24.4663H707.23V25.5396H706.16Z" fill="white"/>
<path d="M706.16 132.871V131.798H707.23V132.871H706.16Z" fill="white"/>
<path d="M706.16 154.337V153.264H707.23V154.337H706.16Z" fill="white"/>
<path d="M706.16 175.803V174.73H707.23V175.803H706.16Z" fill="white"/>
<path d="M706.16 197.27V196.196H707.23V197.27H706.16Z" fill="white"/>
<path d="M706.16 218.736V217.663H707.23V218.736H706.16Z" fill="white"/>
<path d="M706.16 240.202V239.129H707.23V240.202H706.16Z" fill="white"/>
<path d="M706.16 261.669V260.595H707.23V261.669H706.16Z" fill="white"/>
<path d="M706.16 283.135V282.062H707.23V283.135H706.16Z" fill="white"/>
<path d="M706.16 347.534V346.46H707.23V347.534H706.16Z" fill="white"/>
<path d="M706.16 369V367.927H707.23V369H706.16Z" fill="white"/>
<path d="M727.546 4.07331V3H728.615V4.07331H727.546Z" fill="white"/>
<path d="M727.546 25.5396V24.4663H728.615V25.5396H727.546Z" fill="white"/>
<path d="M727.546 132.871V131.798H728.615V132.871H727.546Z" fill="white"/>
<path d="M727.546 154.337V153.264H728.615V154.337H727.546Z" fill="white"/>
<path d="M727.546 175.803V174.73H728.615V175.803H727.546Z" fill="white"/>
<path d="M727.546 197.27V196.196H728.615V197.27H727.546Z" fill="white"/>
<path d="M727.546 218.736V217.663H728.615V218.736H727.546Z" fill="white"/>
<path d="M727.546 240.202V239.129H728.615V240.202H727.546Z" fill="white"/>
<path d="M727.546 261.669V260.595H728.615V261.669H727.546Z" fill="white"/>
<path d="M727.546 283.135V282.062H728.615V283.135H727.546Z" fill="white"/>
<path d="M727.546 347.534V346.46H728.615V347.534H727.546Z" fill="white"/>
<path d="M727.546 369V367.927H728.615V369H727.546Z" fill="white"/>
<path d="M748.931 4.07331V3H750V4.07331H748.931Z" fill="white"/>
<path d="M748.931 25.5396V24.4663H750V25.5396H748.931Z" fill="white"/>
<path d="M748.931 47.0059V45.9325H750V47.0059H748.931Z" fill="white"/>
<path d="M748.931 68.4721V67.3988H750V68.4721H748.931Z" fill="white"/>
<path d="M748.931 89.9384V88.8651H750V89.9384H748.931Z" fill="white"/>
<path d="M748.931 111.405V110.331H750V111.405H748.931Z" fill="white"/>
<path d="M748.931 132.871V131.798H750V132.871H748.931Z" fill="white"/>
<path d="M748.931 154.337V153.264H750V154.337H748.931Z" fill="white"/>
<path d="M748.931 175.803V174.73H750V175.803H748.931Z" fill="white"/>
<path d="M748.931 197.27V196.196H750V197.27H748.931Z" fill="white"/>
<path d="M748.931 218.736V217.663H750V218.736H748.931Z" fill="white"/>
<path d="M748.931 240.202V239.129H750V240.202H748.931Z" fill="white"/>
<path d="M748.931 261.669V260.595H750V261.669H748.931Z" fill="white"/>
<path d="M748.931 283.135V282.062H750V283.135H748.931Z" fill="white"/>
<path d="M748.931 347.534V346.46H750V347.534H748.931Z" fill="white"/>
<path d="M748.931 369V367.927H750V369H748.931Z" fill="white"/>
</g>
</g>
<defs>
<clipPath id="clip0_158_162">
<rect width="1280" height="80" fill="white" transform="matrix(-1 0 0 -1 1280 80)"/>
</clipPath>
</defs>
</svg>
