<svg width="1280" height="1205" viewBox="0 0 1280 1205" fill="none" xmlns="http://www.w3.org/2000/svg">
<rect width="1280" height="1205" fill="#0B0C14"/>
<g opacity="0.8" filter="url(#filter0_f_129_108)">
<circle cx="640" cy="602" r="250" fill="#0F1D4E"/>
</g>
<g opacity="0.1">
<path d="M0 1146.81L0 1150H1.82486V1146.81H0Z" fill="white"/>
<path d="M0 1083L0 1086.19H1.82486V1083H0Z" fill="white"/>
<path d="M0 1019.18L0 1022.38H1.82486V1019.18H0Z" fill="white"/>
<path d="M0 955.372L0 958.563H1.82486V955.372H0Z" fill="white"/>
<path d="M0 891.56L0 894.751H1.82486V891.56H0Z" fill="white"/>
<path d="M0 827.748L0 830.938H1.82486V827.748H0Z" fill="white"/>
<path d="M0 763.936L0 767.126H1.82486V763.936H0Z" fill="white"/>
<path d="M0 700.123L0 703.314H1.82486V700.123H0Z" fill="white"/>
<path d="M0 636.311L0 639.501H1.82486V636.311H0Z" fill="white"/>
<path d="M0 572.499L0 575.689H1.82486V572.499H0Z" fill="white"/>
<path d="M0 508.686L0 511.877H1.82486V508.686H0Z" fill="white"/>
<path d="M0 444.874L0 448.065H1.82486V444.874H0Z" fill="white"/>
<path d="M0 381.062L0 384.252H1.82486V381.062H0Z" fill="white"/>
<path d="M0 317.249L0 320.44H1.82486V317.249H0Z" fill="white"/>
<path d="M0 253.437L0 256.628H1.82486V253.437H0Z" fill="white"/>
<path d="M36.4972 1146.81V1150H38.3221V1146.81H36.4972Z" fill="white"/>
<path d="M36.4972 1083V1086.19H38.3221V1083H36.4972Z" fill="white"/>
<path d="M36.4972 1019.18V1022.38H38.3221V1019.18H36.4972Z" fill="white"/>
<path d="M36.4972 955.372V958.563H38.3221V955.372H36.4972Z" fill="white"/>
<path d="M36.4972 891.56V894.751H38.3221V891.56H36.4972Z" fill="white"/>
<path d="M36.4972 827.748V830.938H38.3221V827.748H36.4972Z" fill="white"/>
<path d="M36.4972 763.936V767.126H38.3221V763.936H36.4972Z" fill="white"/>
<path d="M36.4972 700.123V703.314H38.3221V700.123H36.4972Z" fill="white"/>
<path d="M36.4972 636.311L36.4972 639.501H38.3221L38.3221 636.311H36.4972Z" fill="white"/>
<path d="M36.4972 572.499V575.689H38.3221V572.499H36.4972Z" fill="white"/>
<path d="M36.4972 508.686V511.877H38.3221V508.686H36.4972Z" fill="white"/>
<path d="M36.4972 444.874V448.065H38.3221V444.874H36.4972Z" fill="white"/>
<path d="M36.4972 381.062V384.252H38.3221V381.062H36.4972Z" fill="white"/>
<path d="M36.4972 317.249V320.44H38.3221V317.249H36.4972Z" fill="white"/>
<path d="M36.4972 253.437V256.628H38.3221V253.437H36.4972Z" fill="white"/>
<path d="M72.9944 1146.81V1150H74.8193V1146.81H72.9944Z" fill="white"/>
<path d="M72.9944 636.311V639.501H74.8193V636.311H72.9944Z" fill="white"/>
<path d="M72.9944 572.499V575.689H74.8193V572.499H72.9944Z" fill="white"/>
<path d="M72.9944 508.686V511.877H74.8193V508.686H72.9944Z" fill="white"/>
<path d="M72.9944 444.874V448.065H74.8193V444.874H72.9944Z" fill="white"/>
<path d="M72.9944 381.062V384.252H74.8193V381.062H72.9944Z" fill="white"/>
<path d="M72.9944 317.249V320.44H74.8193V317.249H72.9944Z" fill="white"/>
<path d="M72.9944 253.437V256.628H74.8193V253.437H72.9944Z" fill="white"/>
<path d="M109.492 1146.81V1150H111.317V1146.81H109.492Z" fill="white"/>
<path d="M109.492 508.686V511.877H111.317V508.686H109.492Z" fill="white"/>
<path d="M109.492 444.874V448.065H111.317V444.874H109.492Z" fill="white"/>
<path d="M109.492 381.062V384.252H111.317V381.062H109.492Z" fill="white"/>
<path d="M109.492 317.249V320.44H111.317V317.249H109.492Z" fill="white"/>
<path d="M109.492 253.437V256.628H111.317V253.437H109.492Z" fill="white"/>
<path d="M109.492 189.625V192.815H111.317V189.625H109.492Z" fill="white"/>
<path d="M109.492 125.812L109.492 129.003H111.317L111.317 125.812H109.492Z" fill="white"/>
<path d="M109.492 62V65.1907H111.317V62H109.492Z" fill="white"/>
<path d="M145.989 1146.81V1150H147.814V1146.81H145.989Z" fill="white"/>
<path d="M145.989 508.686V511.877H147.814V508.686H145.989Z" fill="white"/>
<path d="M145.989 444.874V448.065H147.814V444.874H145.989Z" fill="white"/>
<path d="M145.989 381.062V384.252H147.814V381.062H145.989Z" fill="white"/>
<path d="M145.989 317.249V320.44H147.814V317.249H145.989Z" fill="white"/>
<path d="M145.989 253.437V256.628H147.814V253.437H145.989Z" fill="white"/>
<path d="M145.989 189.625V192.815H147.814V189.625H145.989Z" fill="white"/>
<path d="M145.989 125.812V129.003H147.814V125.812H145.989Z" fill="white"/>
<path d="M145.989 62V65.1907H147.814V62H145.989Z" fill="white"/>
<path d="M182.486 1146.81V1150H184.311V1146.81H182.486Z" fill="white"/>
<path d="M182.486 1083V1086.19H184.311V1083H182.486Z" fill="white"/>
<path d="M182.486 1019.18V1022.38H184.311V1019.18H182.486Z" fill="white"/>
<path d="M182.486 955.372V958.563H184.311V955.372H182.486Z" fill="white"/>
<path d="M182.486 891.56V894.751H184.311V891.56H182.486Z" fill="white"/>
<path d="M182.486 827.748V830.938H184.311V827.748H182.486Z" fill="white"/>
<path d="M182.486 763.936V767.126H184.311V763.936H182.486Z" fill="white"/>
<path d="M182.486 508.686V511.877H184.311V508.686H182.486Z" fill="white"/>
<path d="M182.486 444.874V448.065H184.311V444.874H182.486Z" fill="white"/>
<path d="M182.486 381.062V384.252H184.311V381.062H182.486Z" fill="white"/>
<path d="M182.486 317.249V320.44H184.311V317.249H182.486Z" fill="white"/>
<path d="M182.486 253.437V256.628H184.311V253.437H182.486Z" fill="white"/>
<path d="M182.486 189.625V192.815H184.311V189.625H182.486Z" fill="white"/>
<path d="M182.486 125.812V129.003H184.311V125.812H182.486Z" fill="white"/>
<path d="M182.486 62V65.1907H184.311V62H182.486Z" fill="white"/>
<path d="M218.983 1146.81V1150H220.808V1146.81H218.983Z" fill="white"/>
<path d="M218.983 1083V1086.19H220.808V1083H218.983Z" fill="white"/>
<path d="M218.983 1019.18V1022.38H220.808V1019.18H218.983Z" fill="white"/>
<path d="M218.983 955.372V958.563H220.808V955.372H218.983Z" fill="white"/>
<path d="M218.983 891.56V894.751H220.808V891.56H218.983Z" fill="white"/>
<path d="M218.983 827.748V830.938H220.808V827.748H218.983Z" fill="white"/>
<path d="M218.983 763.936V767.126H220.808V763.936H218.983Z" fill="white"/>
<path d="M218.983 700.123V703.314H220.808V700.123H218.983Z" fill="white"/>
<path d="M218.983 636.311V639.501H220.808V636.311H218.983Z" fill="white"/>
<path d="M218.983 572.499V575.689H220.808V572.499H218.983Z" fill="white"/>
<path d="M218.983 508.686V511.877H220.808V508.686H218.983Z" fill="white"/>
<path d="M218.983 444.874V448.065H220.808V444.874H218.983Z" fill="white"/>
<path d="M218.983 381.062V384.252H220.808V381.062H218.983Z" fill="white"/>
<path d="M218.983 317.249V320.44H220.808V317.249H218.983Z" fill="white"/>
<path d="M218.983 253.437V256.628H220.808V253.437H218.983Z" fill="white"/>
<path d="M218.983 189.625V192.815H220.808V189.625H218.983Z" fill="white"/>
<path d="M218.983 125.812V129.003H220.808V125.812H218.983Z" fill="white"/>
<path d="M218.983 62V65.1907H220.808V62H218.983Z" fill="white"/>
<path d="M255.481 1146.81V1150H257.305V1146.81H255.481Z" fill="white"/>
<path d="M255.481 1083V1086.19H257.305V1083H255.481Z" fill="white"/>
<path d="M255.481 1019.18V1022.38H257.305V1019.18H255.481Z" fill="white"/>
<path d="M255.481 955.372V958.563H257.305V955.372H255.481Z" fill="white"/>
<path d="M255.481 891.56V894.751H257.305V891.56H255.481Z" fill="white"/>
<path d="M255.481 827.748V830.938H257.305V827.748H255.481Z" fill="white"/>
<path d="M255.481 763.936V767.126H257.305V763.936H255.481Z" fill="white"/>
<path d="M255.481 700.123V703.314H257.305V700.123H255.481Z" fill="white"/>
<path d="M255.481 636.311V639.501H257.305V636.311H255.481Z" fill="white"/>
<path d="M255.481 572.499V575.689H257.305V572.499H255.481Z" fill="white"/>
<path d="M255.481 508.686V511.877H257.305V508.686H255.481Z" fill="white"/>
<path d="M255.481 444.874V448.065H257.305V444.874H255.481Z" fill="white"/>
<path d="M255.481 381.062V384.252H257.305V381.062H255.481Z" fill="white"/>
<path d="M255.481 317.249V320.44H257.305V317.249H255.481Z" fill="white"/>
<path d="M255.481 253.437V256.628H257.305V253.437H255.481Z" fill="white"/>
<path d="M255.481 189.625V192.815H257.305V189.625H255.481Z" fill="white"/>
<path d="M255.481 125.812V129.003H257.305V125.812H255.481Z" fill="white"/>
<path d="M255.481 62V65.1907H257.305V62H255.481Z" fill="white"/>
<path d="M291.978 1146.81V1150H293.803V1146.81H291.978Z" fill="white"/>
<path d="M291.978 1083V1086.19H293.803V1083H291.978Z" fill="white"/>
<path d="M291.978 1019.18V1022.38H293.803V1019.18H291.978Z" fill="white"/>
<path d="M291.978 955.372V958.563H293.803V955.372H291.978Z" fill="white"/>
<path d="M291.978 891.56V894.751H293.803V891.56H291.978Z" fill="white"/>
<path d="M291.978 827.748V830.938H293.803V827.748H291.978Z" fill="white"/>
<path d="M291.978 763.936V767.126H293.803V763.936H291.978Z" fill="white"/>
<path d="M291.978 700.123V703.314H293.803V700.123H291.978Z" fill="white"/>
<path d="M291.978 636.311V639.501H293.803V636.311H291.978Z" fill="white"/>
<path d="M291.978 572.499V575.689H293.803V572.499H291.978Z" fill="white"/>
<path d="M291.978 508.686V511.877H293.803V508.686H291.978Z" fill="white"/>
<path d="M291.978 444.874V448.065H293.803V444.874H291.978Z" fill="white"/>
<path d="M291.978 381.062V384.252H293.803V381.062H291.978Z" fill="white"/>
<path d="M291.978 317.249V320.44H293.803V317.249H291.978Z" fill="white"/>
<path d="M291.978 253.437V256.628H293.803V253.437H291.978Z" fill="white"/>
<path d="M291.978 189.625V192.815H293.803V189.625H291.978Z" fill="white"/>
<path d="M291.978 125.812V129.003H293.803V125.812H291.978Z" fill="white"/>
<path d="M291.978 62V65.1907H293.803V62H291.978Z" fill="white"/>
<path d="M330.3 1146.81V1150H332.125V1146.81H330.3Z" fill="white"/>
<path d="M330.3 1083V1086.19H332.125V1083H330.3Z" fill="white"/>
<path d="M330.3 1019.18V1022.38H332.125V1019.18H330.3Z" fill="white"/>
<path d="M330.3 955.372V958.563H332.125V955.372H330.3Z" fill="white"/>
<path d="M330.3 636.311V639.501H332.125V636.311H330.3Z" fill="white"/>
<path d="M330.3 572.499V575.689H332.125V572.499H330.3Z" fill="white"/>
<path d="M330.3 508.686V511.877H332.125V508.686H330.3Z" fill="white"/>
<path d="M330.3 444.874V448.065H332.125V444.874H330.3Z" fill="white"/>
<path d="M330.3 381.062V384.252H332.125V381.062H330.3Z" fill="white"/>
<path d="M330.3 317.249V320.44H332.125V317.249H330.3Z" fill="white"/>
<path d="M366.797 1146.81V1150H368.622V1146.81H366.797Z" fill="white"/>
<path d="M366.797 1083V1086.19H368.622V1083H366.797Z" fill="white"/>
<path d="M366.797 1019.18V1022.38H368.622V1019.18H366.797Z" fill="white"/>
<path d="M366.797 955.372V958.563H368.622V955.372H366.797Z" fill="white"/>
<path d="M366.797 636.311V639.501H368.622V636.311H366.797Z" fill="white"/>
<path d="M366.797 572.499V575.689H368.622V572.499H366.797Z" fill="white"/>
<path d="M366.797 508.686V511.877H368.622V508.686H366.797Z" fill="white"/>
<path d="M366.797 444.874V448.065H368.622V444.874H366.797Z" fill="white"/>
<path d="M366.797 381.062V384.252H368.622V381.062H366.797Z" fill="white"/>
<path d="M366.797 317.249V320.44H368.622V317.249H366.797Z" fill="white"/>
<path d="M403.294 1146.81V1150H405.119V1146.81H403.294Z" fill="white"/>
<path d="M403.294 1083V1086.19H405.119V1083H403.294Z" fill="white"/>
<path d="M403.294 1019.18V1022.38H405.119V1019.18H403.294Z" fill="white"/>
<path d="M403.294 955.372V958.563H405.119V955.372H403.294Z" fill="white"/>
<path d="M403.294 636.311V639.501H405.119V636.311H403.294Z" fill="white"/>
<path d="M403.294 572.499V575.689H405.119V572.499H403.294Z" fill="white"/>
<path d="M403.294 508.686V511.877H405.119V508.686H403.294Z" fill="white"/>
<path d="M403.294 444.874V448.065H405.119V444.874H403.294Z" fill="white"/>
<path d="M403.294 381.062V384.252H405.119V381.062H403.294Z" fill="white"/>
<path d="M403.294 317.249V320.44H405.119V317.249H403.294Z" fill="white"/>
<path d="M439.791 1146.81V1150H441.616V1146.81H439.791Z" fill="white"/>
<path d="M439.791 1083V1086.19H441.616V1083H439.791Z" fill="white"/>
<path d="M439.791 1019.18V1022.38H441.616V1019.18H439.791Z" fill="white"/>
<path d="M439.791 955.372V958.563H441.616V955.372H439.791Z" fill="white"/>
<path d="M439.791 636.311V639.501H441.616V636.311H439.791Z" fill="white"/>
<path d="M439.791 572.499V575.689H441.616V572.499H439.791Z" fill="white"/>
<path d="M439.791 508.686V511.877H441.616V508.686H439.791Z" fill="white"/>
<path d="M439.791 444.874V448.065H441.616V444.874H439.791Z" fill="white"/>
<path d="M439.791 381.062V384.252H441.616V381.062H439.791Z" fill="white"/>
<path d="M439.791 317.249V320.44H441.616V317.249H439.791Z" fill="white"/>
<path d="M476.289 1146.81V1150H478.114V1146.81H476.289Z" fill="white"/>
<path d="M476.289 1083V1086.19H478.114V1083H476.289Z" fill="white"/>
<path d="M476.289 1019.18V1022.38H478.114V1019.18H476.289Z" fill="white"/>
<path d="M476.289 955.372V958.563H478.114V955.372H476.289Z" fill="white"/>
<path d="M476.289 636.311V639.501H478.114V636.311H476.289Z" fill="white"/>
<path d="M476.289 572.499V575.689H478.114V572.499H476.289Z" fill="white"/>
<path d="M476.289 508.686V511.877H478.114V508.686H476.289Z" fill="white"/>
<path d="M476.289 444.874V448.065H478.114V444.874H476.289Z" fill="white"/>
<path d="M476.289 381.062V384.252H478.114V381.062H476.289Z" fill="white"/>
<path d="M476.289 317.249V320.44H478.114V317.249H476.289Z" fill="white"/>
<path d="M512.786 1083V1086.19H514.611V1083H512.786Z" fill="white"/>
<path d="M512.786 1019.18V1022.38H514.611V1019.18H512.786Z" fill="white"/>
<path d="M512.786 955.372V958.563H514.611V955.372H512.786Z" fill="white"/>
<path d="M512.786 636.311V639.501H514.611V636.311H512.786Z" fill="white"/>
<path d="M512.786 572.499V575.689H514.611V572.499H512.786Z" fill="white"/>
<path d="M512.786 508.686V511.877H514.611V508.686H512.786Z" fill="white"/>
<path d="M512.786 444.874V448.065H514.611V444.874H512.786Z" fill="white"/>
<path d="M512.786 381.062V384.252H514.611V381.062H512.786Z" fill="white"/>
<path d="M512.786 317.249V320.44H514.611V317.249H512.786Z" fill="white"/>
<path d="M549.283 1083V1086.19H551.108V1083H549.283Z" fill="white"/>
<path d="M549.283 1019.18V1022.38H551.108V1019.18H549.283Z" fill="white"/>
<path d="M549.283 955.372V958.563H551.108V955.372H549.283Z" fill="white"/>
<path d="M549.283 636.311V639.501H551.108V636.311H549.283Z" fill="white"/>
<path d="M549.283 572.499V575.689H551.108V572.499H549.283Z" fill="white"/>
<path d="M549.283 508.686V511.877H551.108V508.686H549.283Z" fill="white"/>
<path d="M549.283 444.874V448.065H551.108V444.874H549.283Z" fill="white"/>
<path d="M549.283 381.062V384.252H551.108V381.062H549.283Z" fill="white"/>
<path d="M549.283 317.249V320.44H551.108V317.249H549.283Z" fill="white"/>
<path d="M585.78 1083V1086.19H587.605V1083H585.78Z" fill="white"/>
<path d="M585.78 1019.18V1022.38H587.605V1019.18H585.78Z" fill="white"/>
<path d="M585.78 955.372V958.563H587.605V955.372H585.78Z" fill="white"/>
<path d="M585.78 444.874V448.065H587.605V444.874H585.78Z" fill="white"/>
<path d="M585.78 381.062V384.252H587.605V381.062H585.78Z" fill="white"/>
<path d="M585.78 317.249V320.44H587.605V317.249H585.78Z" fill="white"/>
<path d="M585.78 253.437V256.628H587.605V253.437H585.78Z" fill="white"/>
<path d="M585.78 189.625V192.815H587.605V189.625H585.78Z" fill="white"/>
<path d="M585.78 125.812V129.003H587.605V125.812H585.78Z" fill="white"/>
<path d="M585.78 62V65.1907H587.605V62H585.78Z" fill="white"/>
<path d="M622.278 1083V1086.19H624.102V1083H622.278Z" fill="white"/>
<path d="M622.278 1019.18V1022.38H624.102V1019.18H622.278Z" fill="white"/>
<path d="M622.278 955.372V958.563H624.102V955.372H622.278Z" fill="white"/>
<path d="M622.278 891.56V894.751H624.102V891.56H622.278Z" fill="white"/>
<path d="M622.278 827.748V830.938H624.102V827.748H622.278Z" fill="white"/>
<path d="M622.278 763.936V767.126H624.102V763.936H622.278Z" fill="white"/>
<path d="M622.278 700.123V703.314H624.102V700.123H622.278Z" fill="white"/>
<path d="M622.278 636.311V639.501H624.102V636.311H622.278Z" fill="white"/>
<path d="M622.278 572.499V575.689H624.102V572.499H622.278Z" fill="white"/>
<path d="M622.278 508.686V511.877H624.102V508.686H622.278Z" fill="white"/>
<path d="M622.278 444.874V448.065H624.102V444.874H622.278Z" fill="white"/>
<path d="M622.278 381.062V384.252H624.102V381.062H622.278Z" fill="white"/>
<path d="M622.278 317.249V320.44H624.102V317.249H622.278Z" fill="white"/>
<path d="M622.278 253.437V256.628H624.102V253.437H622.278Z" fill="white"/>
<path d="M622.278 189.625V192.815H624.102V189.625H622.278Z" fill="white"/>
<path d="M622.278 125.812V129.003H624.102V125.812H622.278Z" fill="white"/>
<path d="M622.278 62V65.1907H624.102V62H622.278Z" fill="white"/>
<path d="M655.898 1083V1086.19H657.722V1083H655.898Z" fill="white"/>
<path d="M655.898 1019.18V1022.38H657.722V1019.18H655.898Z" fill="white"/>
<path d="M655.898 955.372V958.563H657.722V955.372H655.898Z" fill="white"/>
<path d="M655.898 891.56V894.751H657.722V891.56H655.898Z" fill="white"/>
<path d="M655.898 827.748V830.938H657.722V827.748H655.898Z" fill="white"/>
<path d="M655.898 763.936V767.126H657.722V763.936H655.898Z" fill="white"/>
<path d="M655.898 700.123V703.314H657.722V700.123H655.898Z" fill="white"/>
<path d="M655.898 636.311V639.501H657.722V636.311H655.898Z" fill="white"/>
<path d="M655.898 572.499V575.689H657.722V572.499H655.898Z" fill="white"/>
<path d="M655.898 508.686V511.877H657.722V508.686H655.898Z" fill="white"/>
<path d="M655.898 444.874V448.065H657.722V444.874H655.898Z" fill="white"/>
<path d="M655.898 381.062V384.252H657.722V381.062H655.898Z" fill="white"/>
<path d="M655.898 317.249V320.44H657.722V317.249H655.898Z" fill="white"/>
<path d="M655.898 253.437V256.628H657.722V253.437H655.898Z" fill="white"/>
<path d="M692.395 1083V1086.19H694.22V1083H692.395Z" fill="white"/>
<path d="M692.395 1019.18V1022.38H694.22V1019.18H692.395Z" fill="white"/>
<path d="M692.395 955.372V958.563H694.22V955.372H692.395Z" fill="white"/>
<path d="M692.395 891.56V894.751H694.22V891.56H692.395Z" fill="white"/>
<path d="M692.395 827.748V830.938H694.22V827.748H692.395Z" fill="white"/>
<path d="M692.395 763.936V767.126H694.22V763.936H692.395Z" fill="white"/>
<path d="M692.395 700.123V703.314H694.22V700.123H692.395Z" fill="white"/>
<path d="M692.395 636.311V639.501H694.22V636.311H692.395Z" fill="white"/>
<path d="M692.395 572.499V575.689H694.22V572.499H692.395Z" fill="white"/>
<path d="M692.395 508.686V511.877H694.22V508.686H692.395Z" fill="white"/>
<path d="M692.395 444.874V448.065H694.22V444.874H692.395Z" fill="white"/>
<path d="M692.395 381.062V384.252H694.22V381.062H692.395Z" fill="white"/>
<path d="M692.395 317.249V320.44H694.22V317.249H692.395Z" fill="white"/>
<path d="M692.395 253.437V256.628H694.22V253.437H692.395Z" fill="white"/>
<path d="M728.892 1083V1086.19H730.717V1083H728.892Z" fill="white"/>
<path d="M728.892 1019.18V1022.38H730.717V1019.18H728.892Z" fill="white"/>
<path d="M728.892 955.372V958.563H730.717V955.372H728.892Z" fill="white"/>
<path d="M728.892 891.56V894.751H730.717V891.56H728.892Z" fill="white"/>
<path d="M728.892 827.748V830.938H730.717V827.748H728.892Z" fill="white"/>
<path d="M728.892 763.936V767.126H730.717V763.936H728.892Z" fill="white"/>
<path d="M728.892 700.123V703.314H730.717V700.123H728.892Z" fill="white"/>
<path d="M728.892 636.311V639.501H730.717V636.311H728.892Z" fill="white"/>
<path d="M728.892 572.499V575.689H730.717V572.499H728.892Z" fill="white"/>
<path d="M728.892 508.686V511.877H730.717V508.686H728.892Z" fill="white"/>
<path d="M728.892 444.874V448.065H730.717V444.874H728.892Z" fill="white"/>
<path d="M728.892 381.062V384.252H730.717V381.062H728.892Z" fill="white"/>
<path d="M728.892 317.249V320.44H730.717V317.249H728.892Z" fill="white"/>
<path d="M728.892 253.437V256.628H730.717V253.437H728.892Z" fill="white"/>
<path d="M765.389 1083V1086.19H767.214V1083H765.389Z" fill="white"/>
<path d="M765.389 1019.18V1022.38H767.214V1019.18H765.389Z" fill="white"/>
<path d="M765.389 636.311V639.501H767.214V636.311H765.389Z" fill="white"/>
<path d="M765.389 572.499V575.689H767.214V572.499H765.389Z" fill="white"/>
<path d="M765.389 508.686V511.877H767.214V508.686H765.389Z" fill="white"/>
<path d="M765.389 444.874V448.065H767.214V444.874H765.389Z" fill="white"/>
<path d="M765.389 381.062V384.252H767.214V381.062H765.389Z" fill="white"/>
<path d="M765.389 317.249V320.44H767.214V317.249H765.389Z" fill="white"/>
<path d="M765.389 253.437V256.628H767.214V253.437H765.389Z" fill="white"/>
<path d="M765.389 189.625V192.815H767.214V189.625H765.389Z" fill="white"/>
<path d="M765.389 125.812V129.003H767.214V125.812H765.389Z" fill="white"/>
<path d="M765.389 62V65.1907H767.214V62H765.389Z" fill="white"/>
<path d="M801.886 1083V1086.19H803.711V1083H801.886Z" fill="white"/>
<path d="M801.886 1019.18V1022.38H803.711V1019.18H801.886Z" fill="white"/>
<path d="M801.886 636.311V639.501H803.711V636.311H801.886Z" fill="white"/>
<path d="M801.886 572.499V575.689H803.711V572.499H801.886Z" fill="white"/>
<path d="M801.886 253.437V256.628H803.711V253.437H801.886Z" fill="white"/>
<path d="M801.886 189.625V192.815H803.711V189.625H801.886Z" fill="white"/>
<path d="M801.886 125.812V129.003H803.711V125.812H801.886Z" fill="white"/>
<path d="M801.886 62V65.1907H803.711V62H801.886Z" fill="white"/>
<path d="M838.384 1146.81V1150H840.208V1146.81H838.384Z" fill="white"/>
<path d="M838.384 1083V1086.19H840.208V1083H838.384Z" fill="white"/>
<path d="M838.384 1019.18V1022.38H840.208V1019.18H838.384Z" fill="white"/>
<path d="M838.384 955.372V958.563H840.208V955.372H838.384Z" fill="white"/>
<path d="M838.384 891.56V894.751H840.208V891.56H838.384Z" fill="white"/>
<path d="M838.384 827.748V830.938H840.208V827.748H838.384Z" fill="white"/>
<path d="M838.384 763.936V767.126H840.208V763.936H838.384Z" fill="white"/>
<path d="M838.384 700.123V703.314H840.208V700.123H838.384Z" fill="white"/>
<path d="M838.384 636.311V639.501H840.208V636.311H838.384Z" fill="white"/>
<path d="M838.384 572.499V575.689H840.208V572.499H838.384Z" fill="white"/>
<path d="M838.384 508.686V511.877H840.208V508.686H838.384Z" fill="white"/>
<path d="M838.384 253.437V256.628H840.208V253.437H838.384Z" fill="white"/>
<path d="M838.384 189.625V192.815H840.208V189.625H838.384Z" fill="white"/>
<path d="M838.384 125.812V129.003H840.208V125.812H838.384Z" fill="white"/>
<path d="M838.384 62V65.1907H840.208V62H838.384Z" fill="white"/>
<path d="M874.881 1146.81V1150H876.706V1146.81H874.881Z" fill="white"/>
<path d="M874.881 1083V1086.19H876.706V1083H874.881Z" fill="white"/>
<path d="M874.881 1019.18V1022.38H876.706V1019.18H874.881Z" fill="white"/>
<path d="M874.881 955.372V958.563H876.706V955.372H874.881Z" fill="white"/>
<path d="M874.881 891.56V894.751H876.706V891.56H874.881Z" fill="white"/>
<path d="M874.881 827.748V830.938H876.706V827.748H874.881Z" fill="white"/>
<path d="M874.881 763.936V767.126H876.706V763.936H874.881Z" fill="white"/>
<path d="M874.881 700.123V703.314H876.706V700.123H874.881Z" fill="white"/>
<path d="M874.881 636.311V639.501H876.706V636.311H874.881Z" fill="white"/>
<path d="M874.881 572.499V575.689H876.706V572.499H874.881Z" fill="white"/>
<path d="M874.881 508.686V511.877H876.706V508.686H874.881Z" fill="white"/>
<path d="M874.881 125.812V129.003H876.706V125.812H874.881Z" fill="white"/>
<path d="M874.881 62V65.1907H876.706V62H874.881Z" fill="white"/>
<path d="M911.378 1146.81V1150H913.203V1146.81H911.378Z" fill="white"/>
<path d="M911.378 1083V1086.19H913.203V1083H911.378Z" fill="white"/>
<path d="M911.378 1019.18V1022.38H913.203V1019.18H911.378Z" fill="white"/>
<path d="M911.378 955.372V958.563H913.203V955.372H911.378Z" fill="white"/>
<path d="M911.378 891.56V894.751H913.203V891.56H911.378Z" fill="white"/>
<path d="M911.378 827.748V830.938H913.203V827.748H911.378Z" fill="white"/>
<path d="M911.378 763.936V767.126H913.203V763.936H911.378Z" fill="white"/>
<path d="M911.378 700.123V703.314H913.203V700.123H911.378Z" fill="white"/>
<path d="M911.378 636.311V639.501H913.203V636.311H911.378Z" fill="white"/>
<path d="M911.378 572.499V575.689H913.203V572.499H911.378Z" fill="white"/>
<path d="M911.378 508.686V511.877H913.203V508.686H911.378Z" fill="white"/>
<path d="M911.378 125.812V129.003H913.203V125.812H911.378Z" fill="white"/>
<path d="M911.378 62V65.1907H913.203V62H911.378Z" fill="white"/>
<path d="M947.875 1146.81V1150H949.7V1146.81H947.875Z" fill="white"/>
<path d="M947.875 1083V1086.19H949.7V1083H947.875Z" fill="white"/>
<path d="M947.875 1019.18V1022.38H949.7V1019.18H947.875Z" fill="white"/>
<path d="M947.875 955.372V958.563H949.7V955.372H947.875Z" fill="white"/>
<path d="M947.875 891.56V894.751H949.7V891.56H947.875Z" fill="white"/>
<path d="M947.875 827.748V830.938H949.7V827.748H947.875Z" fill="white"/>
<path d="M947.875 763.936V767.126H949.7V763.936H947.875Z" fill="white"/>
<path d="M947.875 700.123V703.314H949.7V700.123H947.875Z" fill="white"/>
<path d="M947.875 636.311V639.501H949.7V636.311H947.875Z" fill="white"/>
<path d="M947.875 572.499V575.689H949.7V572.499H947.875Z" fill="white"/>
<path d="M947.875 508.686V511.877H949.7V508.686H947.875Z" fill="white"/>
<path d="M947.875 444.874V448.065H949.7V444.874H947.875Z" fill="white"/>
<path d="M947.875 381.062V384.252H949.7V381.062H947.875Z" fill="white"/>
<path d="M947.875 317.249V320.44H949.7V317.249H947.875Z" fill="white"/>
<path d="M947.875 253.437V256.628H949.7V253.437H947.875Z" fill="white"/>
<path d="M947.875 189.625V192.815H949.7V189.625H947.875Z" fill="white"/>
<path d="M947.875 125.812V129.003H949.7V125.812H947.875Z" fill="white"/>
<path d="M947.875 62V65.1907H949.7V62H947.875Z" fill="white"/>
<path d="M986.197 1146.81V1150H988.022V1146.81H986.197Z" fill="white"/>
<path d="M986.197 1083V1086.19H988.022V1083H986.197Z" fill="white"/>
<path d="M986.197 1019.18V1022.38H988.022V1019.18H986.197Z" fill="white"/>
<path d="M986.197 955.372V958.563H988.022V955.372H986.197Z" fill="white"/>
<path d="M986.197 891.56V894.751H988.022V891.56H986.197Z" fill="white"/>
<path d="M986.197 827.748V830.938H988.022V827.748H986.197Z" fill="white"/>
<path d="M986.197 763.936V767.126H988.022V763.936H986.197Z" fill="white"/>
<path d="M986.197 700.123V703.314H988.022V700.123H986.197Z" fill="white"/>
<path d="M986.197 636.311V639.501H988.022V636.311H986.197Z" fill="white"/>
<path d="M986.197 572.499V575.689H988.022V572.499H986.197Z" fill="white"/>
<path d="M986.197 508.686V511.877H988.022V508.686H986.197Z" fill="white"/>
<path d="M986.197 444.874V448.065H988.022V444.874H986.197Z" fill="white"/>
<path d="M986.197 381.062V384.252H988.022V381.062H986.197Z" fill="white"/>
<path d="M986.197 317.249V320.44H988.022V317.249H986.197Z" fill="white"/>
<path d="M986.197 253.437V256.628H988.022V253.437H986.197Z" fill="white"/>
<path d="M986.197 189.625V192.815H988.022V189.625H986.197Z" fill="white"/>
<path d="M986.197 125.812V129.003H988.022V125.812H986.197Z" fill="white"/>
<path d="M986.197 62V65.1907H988.022V62H986.197Z" fill="white"/>
<path d="M1022.69 1146.81V1150H1024.52V1146.81H1022.69Z" fill="white"/>
<path d="M1022.69 1083V1086.19H1024.52V1083H1022.69Z" fill="white"/>
<path d="M1022.69 1019.18V1022.38H1024.52V1019.18H1022.69Z" fill="white"/>
<path d="M1022.69 955.372V958.563H1024.52V955.372H1022.69Z" fill="white"/>
<path d="M1022.69 891.56V894.751H1024.52V891.56H1022.69Z" fill="white"/>
<path d="M1022.69 444.874V448.065H1024.52V444.874H1022.69Z" fill="white"/>
<path d="M1022.69 381.062V384.252H1024.52V381.062H1022.69Z" fill="white"/>
<path d="M1022.69 317.249V320.44H1024.52V317.249H1022.69Z" fill="white"/>
<path d="M1022.69 253.437V256.628H1024.52V253.437H1022.69Z" fill="white"/>
<path d="M1022.69 189.625V192.815H1024.52V189.625H1022.69Z" fill="white"/>
<path d="M1022.69 125.812V129.003H1024.52V125.812H1022.69Z" fill="white"/>
<path d="M1022.69 62V65.1907H1024.52V62H1022.69Z" fill="white"/>
<path d="M1059.19 1146.81V1150H1061.02V1146.81H1059.19Z" fill="white"/>
<path d="M1059.19 1083V1086.19H1061.02V1083H1059.19Z" fill="white"/>
<path d="M1059.19 1019.18V1022.38H1061.02V1019.18H1059.19Z" fill="white"/>
<path d="M1059.19 955.372V958.563H1061.02V955.372H1059.19Z" fill="white"/>
<path d="M1059.19 891.56V894.751H1061.02V891.56H1059.19Z" fill="white"/>
<path d="M1059.19 444.874V448.065H1061.02V444.874H1059.19Z" fill="white"/>
<path d="M1059.19 381.062V384.252H1061.02V381.062H1059.19Z" fill="white"/>
<path d="M1059.19 317.249V320.44H1061.02V317.249H1059.19Z" fill="white"/>
<path d="M1059.19 253.437V256.628H1061.02V253.437H1059.19Z" fill="white"/>
<path d="M1059.19 189.625V192.815H1061.02V189.625H1059.19Z" fill="white"/>
<path d="M1059.19 125.812V129.003H1061.02V125.812H1059.19Z" fill="white"/>
<path d="M1059.19 62V65.1907H1061.02V62H1059.19Z" fill="white"/>
<path d="M1095.69 1146.81V1150H1097.51V1146.81H1095.69Z" fill="white"/>
<path d="M1095.69 1083V1086.19H1097.51V1083H1095.69Z" fill="white"/>
<path d="M1095.69 700.123V703.314H1097.51V700.123H1095.69Z" fill="white"/>
<path d="M1095.69 636.311V639.501H1097.51V636.311H1095.69Z" fill="white"/>
<path d="M1095.69 572.499V575.689H1097.51V572.499H1095.69Z" fill="white"/>
<path d="M1095.69 508.686V511.877H1097.51V508.686H1095.69Z" fill="white"/>
<path d="M1095.69 444.874V448.065H1097.51V444.874H1095.69Z" fill="white"/>
<path d="M1095.69 381.062V384.252H1097.51V381.062H1095.69Z" fill="white"/>
<path d="M1095.69 317.249V320.44H1097.51V317.249H1095.69Z" fill="white"/>
<path d="M1095.69 125.812V129.003H1097.51V125.812H1095.69Z" fill="white"/>
<path d="M1095.69 62V65.1907H1097.51V62H1095.69Z" fill="white"/>
<path d="M1132.19 1146.81V1150H1134.01V1146.81H1132.19Z" fill="white"/>
<path d="M1132.19 1083V1086.19H1134.01V1083H1132.19Z" fill="white"/>
<path d="M1132.19 763.936V767.126H1134.01V763.936H1132.19Z" fill="white"/>
<path d="M1132.19 700.123V703.314H1134.01V700.123H1132.19Z" fill="white"/>
<path d="M1132.19 636.311V639.501H1134.01V636.311H1132.19Z" fill="white"/>
<path d="M1132.19 572.499V575.689H1134.01V572.499H1132.19Z" fill="white"/>
<path d="M1132.19 508.686V511.877H1134.01V508.686H1132.19Z" fill="white"/>
<path d="M1132.19 444.874V448.065H1134.01V444.874H1132.19Z" fill="white"/>
<path d="M1132.19 381.062V384.252H1134.01V381.062H1132.19Z" fill="white"/>
<path d="M1132.19 317.249V320.44H1134.01V317.249H1132.19Z" fill="white"/>
<path d="M1132.19 125.812V129.003H1134.01V125.812H1132.19Z" fill="white"/>
<path d="M1132.19 62V65.1907H1134.01V62H1132.19Z" fill="white"/>
<path d="M1168.68 1146.81V1150H1170.51V1146.81H1168.68Z" fill="white"/>
<path d="M1168.68 1083V1086.19H1170.51V1083H1168.68Z" fill="white"/>
<path d="M1168.68 763.936V767.126H1170.51V763.936H1168.68Z" fill="white"/>
<path d="M1168.68 700.123V703.314H1170.51V700.123H1168.68Z" fill="white"/>
<path d="M1168.68 636.311V639.501H1170.51V636.311H1168.68Z" fill="white"/>
<path d="M1168.68 572.499V575.689H1170.51V572.499H1168.68Z" fill="white"/>
<path d="M1168.68 508.686V511.877H1170.51V508.686H1168.68Z" fill="white"/>
<path d="M1168.68 444.874V448.065H1170.51V444.874H1168.68Z" fill="white"/>
<path d="M1168.68 381.062V384.252H1170.51V381.062H1168.68Z" fill="white"/>
<path d="M1168.68 317.249V320.44H1170.51V317.249H1168.68Z" fill="white"/>
<path d="M1168.68 125.812V129.003H1170.51V125.812H1168.68Z" fill="white"/>
<path d="M1168.68 62V65.1907H1170.51V62H1168.68Z" fill="white"/>
<path d="M1205.18 1146.81V1150H1207.01V1146.81H1205.18Z" fill="white"/>
<path d="M1205.18 1083V1086.19H1207.01V1083H1205.18Z" fill="white"/>
<path d="M1205.18 763.936V767.126H1207.01V763.936H1205.18Z" fill="white"/>
<path d="M1205.18 700.123V703.314H1207.01V700.123H1205.18Z" fill="white"/>
<path d="M1205.18 636.311V639.501H1207.01V636.311H1205.18Z" fill="white"/>
<path d="M1205.18 572.499V575.689H1207.01V572.499H1205.18Z" fill="white"/>
<path d="M1205.18 508.686V511.877H1207.01V508.686H1205.18Z" fill="white"/>
<path d="M1205.18 444.874V448.065H1207.01V444.874H1205.18Z" fill="white"/>
<path d="M1205.18 381.062V384.252H1207.01V381.062H1205.18Z" fill="white"/>
<path d="M1205.18 317.249V320.44H1207.01V317.249H1205.18Z" fill="white"/>
<path d="M1205.18 125.812V129.003H1207.01V125.812H1205.18Z" fill="white"/>
<path d="M1205.18 62V65.1907H1207.01V62H1205.18Z" fill="white"/>
<path d="M1241.68 1146.81V1150H1243.5V1146.81H1241.68Z" fill="white"/>
<path d="M1241.68 1083V1086.19H1243.5V1083H1241.68Z" fill="white"/>
<path d="M1241.68 763.936V767.126H1243.5V763.936H1241.68Z" fill="white"/>
<path d="M1241.68 700.123V703.314H1243.5V700.123H1241.68Z" fill="white"/>
<path d="M1241.68 636.311V639.501H1243.5V636.311H1241.68Z" fill="white"/>
<path d="M1241.68 572.499V575.689H1243.5V572.499H1241.68Z" fill="white"/>
<path d="M1241.68 508.686V511.877H1243.5V508.686H1241.68Z" fill="white"/>
<path d="M1241.68 444.874V448.065H1243.5V444.874H1241.68Z" fill="white"/>
<path d="M1241.68 381.062V384.252H1243.5V381.062H1241.68Z" fill="white"/>
<path d="M1241.68 317.249V320.44H1243.5V317.249H1241.68Z" fill="white"/>
<path d="M1241.68 125.812V129.003H1243.5V125.812H1241.68Z" fill="white"/>
<path d="M1241.68 62V65.1907H1243.5V62H1241.68Z" fill="white"/>
<path d="M1278.18 1146.81V1150H1280V1146.81H1278.18Z" fill="white"/>
<path d="M1278.18 1083V1086.19H1280V1083H1278.18Z" fill="white"/>
<path d="M1278.18 1019.18V1022.38H1280V1019.18H1278.18Z" fill="white"/>
<path d="M1278.18 955.372V958.563H1280V955.372H1278.18Z" fill="white"/>
<path d="M1278.18 891.56V894.751H1280V891.56H1278.18Z" fill="white"/>
<path d="M1278.18 827.748V830.938H1280V827.748H1278.18Z" fill="white"/>
<path d="M1278.18 763.936V767.126H1280V763.936H1278.18Z" fill="white"/>
<path d="M1278.18 700.123V703.314H1280V700.123H1278.18Z" fill="white"/>
<path d="M1278.18 636.311V639.501H1280V636.311H1278.18Z" fill="white"/>
<path d="M1278.18 572.499V575.689H1280V572.499H1278.18Z" fill="white"/>
<path d="M1278.18 508.686V511.877H1280V508.686H1278.18Z" fill="white"/>
<path d="M1278.18 444.874V448.065H1280V444.874H1278.18Z" fill="white"/>
<path d="M1278.18 381.062V384.252H1280V381.062H1278.18Z" fill="white"/>
<path d="M1278.18 317.249V320.44H1280V317.249H1278.18Z" fill="white"/>
<path d="M1278.18 125.812V129.003H1280V125.812H1278.18Z" fill="white"/>
<path d="M1278.18 62V65.1907H1280V62H1278.18Z" fill="white"/>
</g>
<defs>
<filter id="filter0_f_129_108" x="90" y="52" width="1100" height="1100" filterUnits="userSpaceOnUse" color-interpolation-filters="sRGB">
<feFlood flood-opacity="0" result="BackgroundImageFix"/>
<feBlend mode="normal" in="SourceGraphic" in2="BackgroundImageFix" result="shape"/>
<feGaussianBlur stdDeviation="150" result="effect1_foregroundBlur_129_108"/>
</filter>
</defs>
</svg>
